G04*
G04 #@! TF.GenerationSoftware,Altium Limited,Altium Designer,25.5.2 (35)*
G04*
G04 Layer_Color=128*
%FSLAX25Y25*%
%MOIN*%
G70*
G04*
G04 #@! TF.SameCoordinates,0CD17ABA-5868-42C4-872B-F719D901D850*
G04*
G04*
G04 #@! TF.FilePolarity,Positive*
G04*
G01*
G75*
%ADD15C,0.00500*%
D15*
X259032Y180000D02*
X262968D01*
X261000Y178032D02*
Y181968D01*
X259032Y120945D02*
X262968D01*
X261000Y118976D02*
Y122913D01*
X159240Y303500D02*
X162390D01*
X160815Y301925D02*
Y305075D01*
X178925Y303500D02*
X182075D01*
X180500Y301925D02*
Y305075D01*
X111531Y224890D02*
X118028D01*
X114779Y221642D02*
Y228138D01*
X111531Y243000D02*
X118028D01*
X114779Y239752D02*
Y246248D01*
X194441Y233000D02*
X199559D01*
X197000Y230441D02*
Y235559D01*
X155071Y233000D02*
X160189D01*
X157630Y230441D02*
Y235559D01*
X235106Y131181D02*
X238256D01*
X236681Y129606D02*
Y132756D01*
X128595Y136256D02*
X140405D01*
X134500Y130350D02*
Y142161D01*
X128595Y183500D02*
X140405D01*
X134500Y177594D02*
Y189406D01*
X151094Y176610D02*
X157905D01*
X154500Y173205D02*
Y180016D01*
X151094Y143146D02*
X157905D01*
X154500Y139740D02*
Y146551D01*
X616260Y388000D02*
X619567D01*
X617913Y386347D02*
Y389653D01*
X531335Y111500D02*
X535665D01*
X533500Y109335D02*
Y113665D01*
X647857Y138142D02*
X654954D01*
X651405Y134593D02*
Y141691D01*
X582024Y336500D02*
X584976D01*
X583500Y335024D02*
Y337976D01*
X397768Y363500D02*
X401705D01*
X399736Y361531D02*
Y365469D01*
X578425Y279110D02*
X581575D01*
X580000Y277535D02*
Y280685D01*
X541925Y279110D02*
X545075D01*
X543500Y277535D02*
Y280685D01*
X397768Y288000D02*
X401705D01*
X399736Y286032D02*
Y289968D01*
X531335Y166000D02*
X535665D01*
X533500Y163835D02*
Y168165D01*
X531335Y141500D02*
X535665D01*
X533500Y139335D02*
Y143665D01*
X112079Y382500D02*
X121921D01*
X117000Y377579D02*
Y387421D01*
X427295Y288000D02*
X431232D01*
X429264Y286032D02*
Y289968D01*
X427295Y363500D02*
X431232D01*
X429264Y361531D02*
Y365469D01*
X631811Y305500D02*
X638189D01*
X635000Y302311D02*
Y308689D01*
X611811Y305500D02*
X618189D01*
X615000Y302311D02*
Y308689D01*
X530346Y388000D02*
X533653D01*
X532000Y386347D02*
Y389653D01*
X602433Y388000D02*
X605740D01*
X604087Y386347D02*
Y389653D01*
X688346Y388000D02*
X691653D01*
X690000Y386347D02*
Y389653D01*
X541925Y292890D02*
X545075D01*
X543500Y291315D02*
Y294465D01*
X578425Y292890D02*
X581575D01*
X580000Y291315D02*
Y294465D01*
X643532Y151528D02*
X647469D01*
X645500Y149559D02*
Y153496D01*
X643532Y122000D02*
X647469D01*
X645500Y120031D02*
Y123969D01*
X652778Y159008D02*
X659876D01*
X656327Y155459D02*
Y162557D01*
X631124Y159008D02*
X638222D01*
X634673Y155459D02*
Y162557D01*
X677835Y239000D02*
X682165D01*
X680000Y236835D02*
Y241165D01*
X677835Y225220D02*
X682165D01*
X680000Y223055D02*
Y227386D01*
X605524Y194500D02*
X608476D01*
X607000Y193024D02*
Y195976D01*
X531335Y176000D02*
X535665D01*
X533500Y173835D02*
Y178165D01*
X531335Y131500D02*
X535665D01*
X533500Y129335D02*
Y133665D01*
X531335Y121500D02*
X535665D01*
X533500Y119335D02*
Y123665D01*
X582024Y344374D02*
X584976D01*
X583500Y342898D02*
Y345850D01*
X183925Y131181D02*
X187075D01*
X185500Y129606D02*
Y132756D01*
X183925Y162677D02*
X187075D01*
X185500Y161102D02*
Y164252D01*
X235106Y162677D02*
X238256D01*
X236681Y161102D02*
Y164252D01*
X677835Y179000D02*
X682165D01*
X680000Y176835D02*
Y181165D01*
X677835Y192780D02*
X682165D01*
X680000Y190614D02*
Y194945D01*
X676579Y117000D02*
X686421D01*
X681500Y112079D02*
Y121921D01*
X665475Y261475D02*
X666475D01*
X665975Y260975D02*
Y261975D01*
X653396Y267239D02*
X654396D01*
X653896Y266739D02*
Y267739D01*
X284500Y252500D02*
X285500D01*
X285000Y252000D02*
Y253000D01*
X253500Y260000D02*
X254500D01*
X254000Y259500D02*
Y260500D01*
X572500Y225500D02*
X573500D01*
X573000Y225000D02*
Y226000D01*
X264827Y223264D02*
X265614D01*
X265220Y222870D02*
Y223657D01*
X264827Y227594D02*
X265614D01*
X265220Y227201D02*
Y227988D01*
X256165Y227594D02*
X256953D01*
X256559Y227201D02*
Y227988D01*
X256165Y223264D02*
X256953D01*
X256559Y222870D02*
Y223657D01*
X260496Y227594D02*
X261283D01*
X260890Y227201D02*
Y227988D01*
X260496Y223264D02*
X261283D01*
X260890Y222870D02*
Y223657D01*
X226000Y222500D02*
X230000D01*
X228000Y220500D02*
Y224500D01*
X293000Y208000D02*
X297000D01*
X295000Y206000D02*
Y210000D01*
X243366Y266500D02*
X244366D01*
X243865Y266000D02*
Y267000D01*
X253000Y268000D02*
X254000D01*
X253500Y267500D02*
Y268500D01*
X106500Y344500D02*
X107500D01*
X107000Y344000D02*
Y345000D01*
X117500Y349000D02*
X118500D01*
X118000Y348500D02*
Y349500D01*
X627795Y267209D02*
X628583D01*
X628189Y266815D02*
Y267602D01*
X627795Y254217D02*
X628583D01*
X628189Y253823D02*
Y254610D01*
X627795Y262878D02*
X628583D01*
X628189Y262484D02*
Y263272D01*
X627795Y258547D02*
X628583D01*
X628189Y258154D02*
Y258941D01*
X627795Y275870D02*
X628583D01*
X628189Y275476D02*
Y276264D01*
X623465Y271539D02*
X624252D01*
X623858Y271146D02*
Y271933D01*
X627795Y271539D02*
X628583D01*
X628189Y271146D02*
Y271933D01*
X623465Y275870D02*
X624252D01*
X623858Y275476D02*
Y276264D01*
X623465Y258547D02*
X624252D01*
X623858Y258154D02*
Y258941D01*
X623465Y262878D02*
X624252D01*
X623858Y262484D02*
Y263272D01*
X623465Y254217D02*
X624252D01*
X623858Y253823D02*
Y254610D01*
X623465Y267209D02*
X624252D01*
X623858Y266815D02*
Y267602D01*
X662177Y269000D02*
X663177D01*
X662677Y268500D02*
Y269500D01*
X590100Y218528D02*
X590900D01*
X590500Y218128D02*
Y218928D01*
X586000Y205500D02*
X587000D01*
X586500Y205000D02*
Y206000D01*
X582000Y216500D02*
X583000D01*
X582500Y216000D02*
Y217000D01*
X622000Y228500D02*
X623000D01*
X622500Y228000D02*
Y229000D01*
X576000Y141500D02*
X577000D01*
X576500Y141000D02*
Y142000D01*
X652000Y289500D02*
X653000D01*
X652500Y289000D02*
Y290000D01*
X654500Y253500D02*
X655500D01*
X655000Y253000D02*
Y254000D01*
X652500Y272000D02*
X653500D01*
X653000Y271500D02*
Y272500D01*
X638569Y176019D02*
X639570D01*
X639070Y175519D02*
Y176519D01*
X653281Y278000D02*
X654282D01*
X653782Y277500D02*
Y278500D01*
X668253Y276370D02*
X669253D01*
X668753Y275870D02*
Y276870D01*
X664500Y273649D02*
X665500D01*
X665000Y273148D02*
Y274149D01*
X636335Y193000D02*
X637335D01*
X636835Y192500D02*
Y193500D01*
X631500Y250000D02*
X632500D01*
X632000Y249500D02*
Y250500D01*
X631500Y281500D02*
X632500D01*
X632000Y281000D02*
Y282000D01*
X445516Y325000D02*
X447484D01*
X446500Y324016D02*
Y325984D01*
X367016Y349000D02*
X368984D01*
X368000Y348016D02*
Y349984D01*
X573000Y261500D02*
X574000D01*
X573500Y261000D02*
Y262000D01*
X689500Y311000D02*
X690500D01*
X690000Y310500D02*
Y311500D01*
X601501Y261603D02*
X602501D01*
X602001Y261103D02*
Y262103D01*
X608500Y266500D02*
X609500D01*
X609000Y266000D02*
Y267000D01*
X601500Y248500D02*
X602500D01*
X602000Y248000D02*
Y249000D01*
X627000Y243000D02*
X628000D01*
X627500Y242500D02*
Y243500D01*
X578500Y261500D02*
X579500D01*
X579000Y261000D02*
Y262000D01*
X595500Y191000D02*
X596500D01*
X596000Y190500D02*
Y191500D01*
X610000Y294000D02*
X611000D01*
X610500Y293500D02*
Y294500D01*
Y151500D02*
X611500D01*
X611000Y151000D02*
Y152000D01*
X563000Y219000D02*
X564000D01*
X563500Y218500D02*
Y219500D01*
X623500Y190500D02*
X624500D01*
X624000Y190000D02*
Y191000D01*
X623500Y121000D02*
X624500D01*
X624000Y120500D02*
Y121500D01*
X610500Y146500D02*
X611500D01*
X611000Y146000D02*
Y147000D01*
X563000Y214000D02*
X564000D01*
X563500Y213500D02*
Y214500D01*
X528000Y363000D02*
X529000D01*
X528500Y362500D02*
Y363500D01*
X648500Y352500D02*
X649500D01*
X649000Y352000D02*
Y353000D01*
X358000Y233000D02*
X359000D01*
X358500Y232500D02*
Y233500D01*
X325000Y178500D02*
X326000D01*
X325500Y178000D02*
Y179000D01*
X372000Y138500D02*
X373000D01*
X372500Y138000D02*
Y139000D01*
X371500Y175500D02*
X372500D01*
X372000Y175000D02*
Y176000D01*
M02*
