G04*
G04 #@! TF.GenerationSoftware,Altium Limited,Altium Designer,25.5.2 (35)*
G04*
G04 Layer_Color=32768*
%FSLAX44Y44*%
%MOMM*%
G71*
G04*
G04 #@! TF.SameCoordinates,5C3ED261-42B6-482D-99A8-9BAFA3442630*
G04*
G04*
G04 #@! TF.FilePolarity,Positive*
G04*
G01*
G75*
%ADD13C,0.1000*%
%ADD198C,0.0500*%
D13*
X642420Y564379D02*
Y574379D01*
X637420Y569379D02*
X647420D01*
X1719660Y866140D02*
X1729660D01*
X1724660Y861140D02*
Y871140D01*
X1397000Y849710D02*
Y859710D01*
X1392000Y854710D02*
X1402000D01*
X1432620Y656330D02*
Y666330D01*
X1427620Y661330D02*
X1437620D01*
X1192610Y882650D02*
X1202610D01*
X1197610Y877650D02*
Y887650D01*
X1334450Y1009520D02*
X1551200D01*
Y961520D02*
Y1009520D01*
X1334450Y961520D02*
X1551200D01*
X1334450D02*
Y1009520D01*
X1552680Y961520D02*
X1769430D01*
X1552680D02*
Y1009520D01*
X1769430D01*
Y961520D02*
Y1009520D01*
X1376960Y260040D02*
X1586960D01*
X1376960D02*
Y477040D01*
X1586960D01*
Y260040D02*
Y477040D01*
X659130Y611200D02*
Y620700D01*
X654380Y615950D02*
X663880D01*
X693420Y553030D02*
Y562030D01*
X688920Y557530D02*
X697920D01*
X307070Y832620D02*
X488570D01*
X307070D02*
Y960620D01*
X488570D01*
Y832620D02*
Y960620D01*
X648970Y655400D02*
Y665400D01*
X643970Y660400D02*
X653970D01*
X601980Y578180D02*
Y587680D01*
X597230Y582930D02*
X606730D01*
X601980Y532710D02*
Y541710D01*
X597480Y537210D02*
X606480D01*
X1675130Y911940D02*
Y921940D01*
X1670130Y916940D02*
X1680130D01*
X1697050Y924560D02*
X1706550D01*
X1701800Y919810D02*
Y929310D01*
X1638300Y749880D02*
Y758880D01*
X1633800Y754380D02*
X1642800D01*
X1550670Y749880D02*
Y758880D01*
X1546170Y754380D02*
X1555170D01*
X1507820Y647700D02*
X1517320D01*
X1512570Y642950D02*
Y652450D01*
X1493850Y650240D02*
X1503350D01*
X1498600Y645490D02*
Y654990D01*
X1488440Y701370D02*
Y710870D01*
X1483690Y706120D02*
X1493190D01*
X1487170Y688670D02*
Y698170D01*
X1482420Y693420D02*
X1491920D01*
X1524330Y712470D02*
X1533830D01*
X1529080Y707720D02*
Y717220D01*
X1477340Y650240D02*
X1486840D01*
X1482090Y645490D02*
Y654990D01*
Y669620D02*
Y679120D01*
X1477340Y674370D02*
X1486840D01*
X1649730Y722960D02*
Y732460D01*
X1644980Y727710D02*
X1654480D01*
X1644980Y712470D02*
X1654480D01*
X1649730Y707720D02*
Y717220D01*
X454670Y470700D02*
X617670D01*
X454670Y275700D02*
Y470700D01*
Y275700D02*
X617670D01*
Y470700D01*
X383460Y710810D02*
X527460D01*
Y566810D02*
Y710810D01*
X383460Y566810D02*
X527460D01*
X383460D02*
Y710810D01*
X433780Y299330D02*
Y529330D01*
X262280Y299330D02*
X433780D01*
X262280D02*
Y529330D01*
X433780D01*
X1548595Y698500D02*
X1593850Y743755D01*
X1639105Y698500D01*
X1593850Y653245D02*
X1639105Y698500D01*
X1548595D02*
X1593850Y653245D01*
X1705960Y257340D02*
Y424860D01*
X1597440D02*
X1705960D01*
X1597440Y257340D02*
Y424860D01*
Y257340D02*
X1705960D01*
D198*
X489720Y770890D02*
G03*
X489720Y770890I-56250J0D01*
G01*
X1512090Y864710D02*
G03*
X1512090Y864710I-30000J0D01*
G01*
X820820Y685350D02*
Y724350D01*
X743820D02*
X820820D01*
X743820Y685350D02*
Y724350D01*
Y685350D02*
X820820D01*
X738270D02*
Y724350D01*
X661270D02*
X738270D01*
X661270Y685350D02*
Y724350D01*
Y685350D02*
X738270D01*
X613920Y547379D02*
X670920D01*
X613920Y591379D02*
X670920D01*
Y547379D02*
Y591379D01*
X613920Y547379D02*
Y591379D01*
X1456930Y909440D02*
Y924440D01*
Y909440D02*
X1486930D01*
Y924440D01*
X1456930D02*
X1486930D01*
X1691160Y823640D02*
Y908640D01*
Y908640D02*
X1758160D01*
X1691160Y823640D02*
X1758160D01*
Y823640D02*
Y908640D01*
X1529360Y913410D02*
Y948410D01*
Y913410D02*
X1564360D01*
Y948410D01*
X1529360D02*
X1564360D01*
X1339250Y937710D02*
X1454750D01*
X1339250Y771710D02*
X1454750D01*
Y937710D01*
X1339250Y771710D02*
Y937710D01*
X1396620Y711330D02*
X1468620D01*
X1396620Y611330D02*
X1468620D01*
X1396620D02*
Y711330D01*
X1468620Y611330D02*
Y711330D01*
X1251060Y800630D02*
Y964550D01*
X1144160Y800630D02*
Y964550D01*
X1251060D01*
X1144160Y800630D02*
X1251060D01*
X874250Y433980D02*
Y465180D01*
Y433980D02*
X916450D01*
Y465180D01*
X874250D02*
X916450D01*
X959450Y412220D02*
Y504720D01*
Y412220D02*
X1034450D01*
Y504720D01*
X959450D02*
X1034450D01*
X1479830Y489230D02*
Y524230D01*
Y489230D02*
X1514830D01*
Y524230D01*
X1479830D02*
X1514830D01*
X940080Y969290D02*
Y1004290D01*
Y969290D02*
X975080D01*
Y1004290D01*
X940080D02*
X975080D01*
X1432205Y489230D02*
Y524230D01*
Y489230D02*
X1467205D01*
Y524230D01*
X1432205D02*
X1467205D01*
X1567460Y913410D02*
Y948410D01*
Y913410D02*
X1602460D01*
Y948410D01*
X1567460D02*
X1602460D01*
X1384580Y489230D02*
Y524230D01*
Y489230D02*
X1419580D01*
Y524230D01*
X1384580D02*
X1419580D01*
X708730Y643440D02*
X749230D01*
Y618940D02*
Y643440D01*
X708730Y618940D02*
X749230D01*
X708730D02*
Y643440D01*
X681170Y621100D02*
Y661600D01*
X705670D01*
Y621100D02*
Y661600D01*
X681170Y621100D02*
X705670D01*
X953780Y484510D02*
Y513710D01*
X935980Y484510D02*
X953780D01*
X935980D02*
Y513710D01*
X953780D01*
X1047740Y433710D02*
Y462910D01*
X1065540D01*
Y433710D02*
Y462910D01*
X1047740Y433710D02*
X1065540D01*
X565760Y871530D02*
Y942030D01*
X521360Y871530D02*
X565760D01*
X521360D02*
Y942030D01*
X565760D01*
X561930Y794830D02*
Y866330D01*
X527730Y794830D02*
X561930D01*
X527730D02*
Y866330D01*
X561930D01*
X651630Y628950D02*
X666630D01*
X651630Y602950D02*
X666630D01*
Y628950D01*
X651630Y602950D02*
Y628950D01*
X682920Y574530D02*
X703920D01*
X682920Y540530D02*
X703920D01*
Y574530D01*
X682920Y540530D02*
Y574530D01*
X637970Y637900D02*
X659970D01*
X637970Y682900D02*
X659970D01*
X637970Y637900D02*
Y682900D01*
X659970Y637900D02*
Y682900D01*
X588200Y587250D02*
X635450D01*
X588200D02*
Y619250D01*
X635450D01*
Y587250D02*
Y619250D01*
X594480Y569430D02*
X609480D01*
X594480Y596430D02*
X609480D01*
X594480Y569430D02*
Y596430D01*
X609480Y569430D02*
Y596430D01*
X585480Y547210D02*
X618480D01*
X585480Y527210D02*
X618480D01*
X585480D02*
Y547210D01*
X618480Y527210D02*
Y547210D01*
X1399780Y956190D02*
X1429780D01*
Y941190D02*
Y956190D01*
X1399780Y941190D02*
X1429780D01*
X1399780D02*
Y956190D01*
X1661130Y885940D02*
X1689130D01*
X1661130Y947940D02*
X1689130D01*
X1661130Y885940D02*
Y947940D01*
X1689130Y885940D02*
Y947940D01*
X1707800Y913560D02*
Y935560D01*
X1695800Y913560D02*
Y935560D01*
X1707800D01*
X1695800Y913560D02*
X1707800D01*
X1736140Y352410D02*
Y429910D01*
X1774140D01*
Y352410D02*
Y429910D01*
X1736140Y352410D02*
X1774140D01*
X1695500D02*
Y429910D01*
X1733500D01*
Y352410D02*
Y429910D01*
X1695500Y352410D02*
X1733500D01*
X1621300Y743880D02*
X1655300D01*
X1621300Y764880D02*
X1655300D01*
Y743880D02*
Y764880D01*
X1621300Y743880D02*
Y764880D01*
X1533670D02*
X1567670D01*
X1533670Y743880D02*
X1567670D01*
X1533670D02*
Y764880D01*
X1567670Y743880D02*
Y764880D01*
X1506570Y636700D02*
Y658700D01*
X1518570Y636700D02*
Y658700D01*
X1506570Y636700D02*
X1518570D01*
X1506570Y658700D02*
X1518570D01*
X1492600Y639240D02*
Y661240D01*
X1504600Y639240D02*
Y661240D01*
X1492600Y639240D02*
X1504600D01*
X1492600Y661240D02*
X1504600D01*
X1477440Y700120D02*
X1499440D01*
X1477440Y712120D02*
X1499440D01*
Y700120D02*
Y712120D01*
X1477440Y700120D02*
Y712120D01*
X1476170Y699420D02*
X1498170D01*
X1476170Y687420D02*
X1498170D01*
X1476170D02*
Y699420D01*
X1498170Y687420D02*
Y699420D01*
X1517480Y688220D02*
Y800220D01*
X1476330Y688220D02*
X1517480D01*
X1476330D02*
Y800220D01*
X1517480D01*
X1535080Y701470D02*
Y723470D01*
X1523080Y701470D02*
Y723470D01*
X1535080D01*
X1523080Y701470D02*
X1535080D01*
X1488090Y639240D02*
Y661240D01*
X1476090Y639240D02*
Y661240D01*
X1488090D01*
X1476090Y639240D02*
X1488090D01*
X1476090Y662870D02*
X1488090D01*
X1476090Y685870D02*
X1488090D01*
X1476090Y662870D02*
Y685870D01*
X1488090Y662870D02*
Y685870D01*
X1638730Y721710D02*
X1660730D01*
X1638730Y733710D02*
X1660730D01*
Y721710D02*
Y733710D01*
X1638730Y721710D02*
Y733710D01*
X1638230Y706470D02*
Y718470D01*
X1661230Y706470D02*
Y718470D01*
X1638230D02*
X1661230D01*
X1638230Y706470D02*
X1661230D01*
X627940Y277700D02*
X697940D01*
Y482200D01*
X627940D02*
X697940D01*
X627940Y277700D02*
Y482200D01*
X1697700Y552060D02*
X1767700D01*
X1697700D02*
Y627060D01*
X1767700D01*
Y552060D02*
Y627060D01*
X1697700Y434660D02*
X1767700D01*
X1697700D02*
Y509660D01*
X1767700D01*
Y434660D02*
Y509660D01*
M02*
