G04*
G04 #@! TF.GenerationSoftware,Altium Limited,Altium Designer,25.5.2 (35)*
G04*
G04 Layer_Color=32768*
%FSLAX44Y44*%
%MOMM*%
G71*
G04*
G04 #@! TF.SameCoordinates,5C3ED261-42B6-482D-99A8-9BAFA3442630*
G04*
G04*
G04 #@! TF.FilePolarity,Positive*
G04*
G01*
G75*
%ADD14C,0.2000*%
%ADD198C,0.0500*%
D14*
X1642110Y879160D02*
G03*
X1642110Y792160I0J-43500D01*
G01*
D02*
G03*
X1642110Y879160I0J43500D01*
G01*
X1549400D02*
G03*
X1549400Y792160I0J-43500D01*
G01*
D02*
G03*
X1549400Y879160I0J43500D01*
G01*
X969330Y923290D02*
G03*
X1136330Y923290I83500J0D01*
G01*
D02*
G03*
X969330Y923290I-83500J0D01*
G01*
Y731520D02*
G03*
X1136330Y731520I83500J0D01*
G01*
D02*
G03*
X969330Y731520I-83500J0D01*
G01*
X743789Y643899D02*
X820851D01*
X743789D02*
Y681981D01*
X820851D01*
Y643899D02*
Y681981D01*
X826779Y645999D02*
Y723061D01*
X864861D01*
Y645999D02*
Y723061D01*
X826779Y645999D02*
X864861D01*
X1664620Y532830D02*
Y556830D01*
X1652620Y532830D02*
X1664620D01*
X1652620D02*
Y556830D01*
X1664620D01*
X1645570Y532830D02*
Y556830D01*
X1633570Y532830D02*
X1645570D01*
X1633570D02*
Y556830D01*
X1645570D01*
X1626520Y532480D02*
Y556480D01*
X1614520Y532480D02*
X1626520D01*
X1614520D02*
Y556480D01*
X1626520D01*
X1582870Y543910D02*
X1607370D01*
X1582870D02*
Y555910D01*
X1607370D01*
Y543910D02*
Y555910D01*
X1544640Y538320D02*
X1584640D01*
Y518320D02*
Y538320D01*
X1544640Y518320D02*
X1584640D01*
X1544640D02*
Y538320D01*
X1549850Y554640D02*
X1574350D01*
Y542640D02*
Y554640D01*
X1549850Y542640D02*
X1574350D01*
X1549850D02*
Y554640D01*
X1521910D02*
X1546410D01*
Y542640D02*
Y554640D01*
X1521910Y542640D02*
X1546410D01*
X1521910D02*
Y554640D01*
X1519780Y479530D02*
Y508530D01*
Y479530D02*
X1563780D01*
Y508530D01*
X1519780D02*
X1563780D01*
X1476590Y586710D02*
Y614710D01*
X1487590D01*
Y586710D02*
Y614710D01*
X1476590Y586710D02*
X1487590D01*
X1445920Y543000D02*
Y600000D01*
X1464920D01*
Y543000D02*
Y600000D01*
X1445920Y543000D02*
X1464920D01*
X668620Y595769D02*
Y618351D01*
X680120D01*
Y595769D02*
Y618351D01*
X668620Y595769D02*
X680120D01*
X1089470Y423610D02*
X1224470D01*
X1089470Y320610D02*
Y423610D01*
Y320610D02*
X1224470D01*
Y423610D01*
X1089470Y601410D02*
X1224470D01*
X1089470Y498410D02*
Y601410D01*
Y498410D02*
X1224470D01*
Y601410D01*
X1077030Y586070D02*
Y597570D01*
X1054030D02*
X1077030D01*
X1054030Y586070D02*
Y597570D01*
Y586070D02*
X1077030D01*
X763080Y320610D02*
X898080D01*
Y423610D01*
X763080D02*
X898080D01*
X763080Y320610D02*
Y423610D01*
Y498410D02*
X898080D01*
Y601410D01*
X763080D02*
X898080D01*
X763080Y498410D02*
Y601410D01*
X928300Y324450D02*
Y335950D01*
Y324450D02*
X951300D01*
Y335950D01*
X928300D02*
X951300D01*
X1073220Y408270D02*
Y419770D01*
X1050220D02*
X1073220D01*
X1050220Y408270D02*
Y419770D01*
Y408270D02*
X1073220D01*
X881310Y476850D02*
Y488350D01*
Y476850D02*
X904310D01*
Y488350D01*
X881310D02*
X904310D01*
X731829Y583609D02*
X746451D01*
Y612731D01*
X731829D02*
X746451D01*
X731829Y583609D02*
Y612731D01*
X569280Y644050D02*
Y664050D01*
Y644050D02*
X609280D01*
Y664050D01*
X569280D02*
X609280D01*
X711550Y608928D02*
X723550D01*
X711550Y584428D02*
Y608928D01*
Y584428D02*
X723550D01*
Y608928D01*
X598489Y612279D02*
Y634861D01*
Y612279D02*
X643571D01*
Y634861D01*
X598489D02*
X643571D01*
X683109Y616999D02*
X703731D01*
X683109Y579341D02*
Y616999D01*
Y579341D02*
X703731D01*
Y616999D01*
X711550Y569780D02*
X723550D01*
X711550Y545280D02*
Y569780D01*
Y545280D02*
X723550D01*
Y569780D01*
X553300Y549009D02*
X564300D01*
Y571131D01*
X553300D02*
X564300D01*
X553300Y549009D02*
Y571131D01*
X552780Y531710D02*
Y542710D01*
Y531710D02*
X580780D01*
Y542710D01*
X552780D02*
X580780D01*
X621730Y512160D02*
Y524160D01*
Y512160D02*
X645730D01*
Y524160D01*
X621730D02*
X645730D01*
X613980Y495650D02*
Y507650D01*
X589980D02*
X613980D01*
X589980Y495650D02*
Y507650D01*
Y495650D02*
X613980D01*
Y513430D02*
Y525430D01*
X589980D02*
X613980D01*
X589980Y513430D02*
Y525430D01*
Y513430D02*
X613980D01*
X1490220Y909910D02*
X1522220D01*
Y951910D01*
X1490220D02*
X1522220D01*
X1490220Y909910D02*
Y951910D01*
X1742539Y955051D02*
X1762661D01*
X1742539Y916929D02*
Y955051D01*
Y916929D02*
X1762661D01*
Y955051D01*
X1396390Y541730D02*
X1415390D01*
Y598730D01*
X1396390D02*
X1415390D01*
X1396390Y541730D02*
Y598730D01*
X1729071Y733390D02*
Y744890D01*
Y733390D02*
X1750729D01*
Y744890D01*
X1729071D02*
X1750729D01*
X1706160Y757150D02*
X1717760D01*
Y779733D01*
X1706160D02*
X1717760D01*
X1706160Y757150D02*
Y779733D01*
X1728820Y756819D02*
X1740820D01*
Y779881D01*
X1728820D02*
X1740820D01*
X1728820Y756819D02*
Y779881D01*
X1334940Y594180D02*
X1387940D01*
X1334940Y508180D02*
Y594180D01*
Y508180D02*
X1387940D01*
Y594180D01*
X1607681Y617770D02*
Y629370D01*
X1585099D02*
X1607681D01*
X1585099Y617770D02*
Y629370D01*
Y617770D02*
X1607681D01*
X1753990Y783120D02*
X1768990D01*
X1753990Y756120D02*
Y783120D01*
Y756120D02*
X1768990D01*
Y783120D01*
X1590160Y636740D02*
X1605160D01*
Y663740D01*
X1590160D02*
X1605160D01*
X1590160Y636740D02*
Y663740D01*
X1538320Y688410D02*
X1550320D01*
X1538320Y665410D02*
Y688410D01*
Y665410D02*
X1550320D01*
Y688410D01*
X1655160Y639360D02*
X1667160D01*
Y662360D01*
X1655160D02*
X1667160D01*
X1655160Y639360D02*
Y662360D01*
X1667630Y706590D02*
X1682630D01*
Y733590D01*
X1667630D02*
X1682630D01*
X1667630Y706590D02*
Y733590D01*
X1633340Y637360D02*
X1648340D01*
Y664360D01*
X1633340D02*
X1648340D01*
X1633340Y637360D02*
Y664360D01*
X1613250Y639360D02*
X1625250D01*
Y662360D01*
X1613250D02*
X1625250D01*
X1613250Y639360D02*
Y662360D01*
X1604689Y721919D02*
Y736041D01*
Y721919D02*
X1633811D01*
Y736041D01*
X1604689D02*
X1633811D01*
X1604569Y739819D02*
X1618691D01*
Y768941D01*
X1604569D02*
X1618691D01*
X1604569Y739819D02*
Y768941D01*
X1570399Y747319D02*
Y761441D01*
Y747319D02*
X1599521D01*
Y761441D01*
X1570399D02*
X1599521D01*
X1562691Y725729D02*
Y739851D01*
X1533569D02*
X1562691D01*
X1533569Y725729D02*
Y739851D01*
Y725729D02*
X1562691D01*
X1338740Y638490D02*
X1358740D01*
X1338740Y598490D02*
Y638490D01*
Y598490D02*
X1358740D01*
Y638490D01*
X1671480Y464500D02*
X1691480D01*
X1671480Y424500D02*
Y464500D01*
Y424500D02*
X1691480D01*
Y464500D01*
X1671480Y525460D02*
X1691480D01*
X1671480Y485460D02*
Y525460D01*
Y485460D02*
X1691480D01*
Y525460D01*
X1370490Y631510D02*
X1390490D01*
Y671510D01*
X1370490D02*
X1390490D01*
X1370490Y631510D02*
Y671510D01*
X1338740Y682940D02*
X1358740D01*
X1338740Y642940D02*
Y682940D01*
Y642940D02*
X1358740D01*
Y682940D01*
X1653860Y599600D02*
Y619600D01*
Y599600D02*
X1693860D01*
Y619600D01*
X1653860D02*
X1693860D01*
X1338740Y687390D02*
X1358740D01*
Y727390D01*
X1338740D02*
X1358740D01*
X1338740Y687390D02*
Y727390D01*
X1420560Y716630D02*
Y728630D01*
Y716630D02*
X1444560D01*
Y728630D01*
X1420560D02*
X1444560D01*
X1420560Y736950D02*
Y748950D01*
Y736950D02*
X1444560D01*
Y748950D01*
X1420560D02*
X1444560D01*
X1660240Y767650D02*
X1672240D01*
X1660240Y743650D02*
Y767650D01*
Y743650D02*
X1672240D01*
Y767650D01*
X1475149Y619049D02*
Y633171D01*
Y619049D02*
X1504271D01*
Y633171D01*
X1475149D02*
X1504271D01*
X263820Y543580D02*
Y736580D01*
Y543580D02*
X373720D01*
Y736580D01*
X263820D02*
X373720D01*
X1421790Y541730D02*
X1440790D01*
Y598730D01*
X1421790D02*
X1440790D01*
X1421790Y541730D02*
Y598730D01*
D198*
X1642680Y579470D02*
Y591470D01*
X1618680Y579470D02*
Y591470D01*
Y579470D02*
X1642680D01*
X1618680Y591470D02*
X1642680D01*
X1625930Y585470D02*
X1635430D01*
X1630680Y580720D02*
Y590220D01*
X1618030Y564230D02*
Y576230D01*
X1642030Y564230D02*
Y576230D01*
X1618030D02*
X1642030D01*
X1618030Y564230D02*
X1642030D01*
X1625280Y570230D02*
X1634780D01*
X1630030Y565480D02*
Y574980D01*
X1614740Y564230D02*
Y576230D01*
X1590740Y564230D02*
Y576230D01*
Y564230D02*
X1614740D01*
X1590740Y576230D02*
X1614740D01*
X1597990Y570230D02*
X1607490D01*
X1602740Y565480D02*
Y574980D01*
X1590290Y470887D02*
X1667290D01*
X1590290Y432887D02*
Y470887D01*
Y432887D02*
X1667290D01*
Y470887D01*
X1628790Y446887D02*
Y456887D01*
X1623790Y451887D02*
X1633790D01*
X1339640Y267010D02*
Y375610D01*
X1370540D01*
Y267010D02*
Y375610D01*
X1339640Y267010D02*
X1370540D01*
Y405440D02*
Y463240D01*
X1339640Y405440D02*
X1370540D01*
X1339640D02*
Y463240D01*
X1370540D01*
X1758030Y752410D02*
X1770030D01*
X1758030Y728410D02*
X1770030D01*
Y752410D01*
X1758030Y728410D02*
Y752410D01*
X1764030Y735660D02*
Y745160D01*
X1759280Y740410D02*
X1768780D01*
X1624330Y618820D02*
Y628320D01*
X1619580Y623570D02*
X1629080D01*
X1612330Y617570D02*
X1636330D01*
X1612330Y629570D02*
X1636330D01*
Y617570D02*
Y629570D01*
X1612330Y617570D02*
Y629570D01*
X1623790Y491257D02*
X1633790D01*
X1628790Y486257D02*
Y496257D01*
X1667290Y472257D02*
Y510257D01*
X1590290Y472257D02*
X1667290D01*
X1590290D02*
Y510257D01*
X1667290D01*
X1753870Y669370D02*
Y679370D01*
X1748870Y674370D02*
X1758870D01*
X1734870Y635870D02*
X1772870D01*
X1734870D02*
Y712870D01*
X1772870D01*
Y635870D02*
Y712870D01*
X1711960Y669370D02*
Y679370D01*
X1706960Y674370D02*
X1716960D01*
X1692960Y635870D02*
X1730960D01*
X1692960D02*
Y712870D01*
X1730960D01*
Y635870D02*
Y712870D01*
X571470Y730260D02*
Y1004560D01*
Y730260D02*
X904270D01*
Y1004560D01*
X571470D02*
X904270D01*
X737870Y862410D02*
Y872410D01*
X732870Y867410D02*
X742870D01*
M02*
