G04*
G04 #@! TF.GenerationSoftware,Altium Limited,Altium Designer,25.5.2 (35)*
G04*
G04 Layer_Color=255*
%FSLAX44Y44*%
%MOMM*%
G71*
G04*
G04 #@! TF.SameCoordinates,5C3ED261-42B6-482D-99A8-9BAFA3442630*
G04*
G04*
G04 #@! TF.FilePolarity,Positive*
G04*
G01*
G75*
%ADD145C,0.7500*%
%ADD146C,1.3000*%
%ADD147R,1.3000X1.3000*%
%ADD150R,1.5500X1.5500*%
%ADD162C,1.5500*%
%ADD167C,2.5000*%
%ADD168R,2.5000X2.5000*%
%ADD177C,2.7040*%
%ADD178C,1.1500*%
%ADD179C,1.6000*%
%ADD180C,1.3650*%
%ADD181R,2.4300X2.4300*%
G04:AMPARAMS|DCode=182|XSize=1.6mm|YSize=1.6mm|CornerRadius=0.4mm|HoleSize=0mm|Usage=FLASHONLY|Rotation=90.000|XOffset=0mm|YOffset=0mm|HoleType=Round|Shape=RoundedRectangle|*
%AMROUNDEDRECTD182*
21,1,1.6000,0.8000,0,0,90.0*
21,1,0.8000,1.6000,0,0,90.0*
1,1,0.8000,0.4000,0.4000*
1,1,0.8000,0.4000,-0.4000*
1,1,0.8000,-0.4000,-0.4000*
1,1,0.8000,-0.4000,0.4000*
%
%ADD182ROUNDEDRECTD182*%
%ADD183C,2.4300*%
%ADD184C,1.2000*%
%ADD185R,1.5000X1.5000*%
%ADD186R,1.3650X1.3650*%
%ADD187R,1.2000X1.2000*%
%ADD188R,1.1500X1.1500*%
%ADD189C,1.5000*%
%ADD190C,2.5950*%
%ADD191R,1.9500X1.9500*%
%ADD192C,1.9500*%
%ADD193C,0.5000*%
%ADD194R,1.6500X1.6500*%
%ADD195C,1.6500*%
%ADD196C,5.0000*%
D145*
X1541780Y494030D02*
D03*
D146*
X1642110Y853160D02*
D03*
X1549400D02*
D03*
X601170Y333200D02*
D03*
X471170D02*
D03*
Y413200D02*
D03*
X601170D02*
D03*
D147*
X1642110Y818160D02*
D03*
X1549400D02*
D03*
D150*
X1015330Y923290D02*
D03*
Y731520D02*
D03*
D162*
X1090330Y923290D02*
D03*
Y731520D02*
D03*
D167*
X290270Y640080D02*
D03*
D168*
Y594080D02*
D03*
D177*
X1663460Y348340D02*
D03*
X1620960Y401340D02*
D03*
X1675960D02*
D03*
D178*
X1482090Y854710D02*
D03*
D179*
X1355090Y359410D02*
D03*
Y421640D02*
D03*
Y334010D02*
D03*
Y308610D02*
D03*
D180*
X1534380Y985520D02*
D03*
X1569500D02*
D03*
D181*
X1490980Y769620D02*
D03*
D182*
X1355090Y283210D02*
D03*
Y447040D02*
D03*
D183*
X1490980Y718820D02*
D03*
D184*
X458470Y770890D02*
D03*
D185*
X662940Y307200D02*
D03*
D186*
X1351280Y985520D02*
D03*
X1752600D02*
D03*
D187*
X408470Y770890D02*
D03*
D188*
X1482090Y874710D02*
D03*
D189*
X662940Y457200D02*
D03*
X347980Y474330D02*
D03*
Y354330D02*
D03*
D190*
X398780Y371830D02*
D03*
Y456830D02*
D03*
D191*
X405460Y638810D02*
D03*
D192*
X505460D02*
D03*
D193*
X1648460Y307340D02*
D03*
Y382340D02*
D03*
D194*
X1727200Y572060D02*
D03*
Y454660D02*
D03*
D195*
Y607060D02*
D03*
Y489660D02*
D03*
D196*
X1731010Y297180D02*
D03*
X297180Y971550D02*
D03*
M02*
