G04*
G04 #@! TF.GenerationSoftware,Altium Limited,Altium Designer,25.5.2 (35)*
G04*
G04 Layer_Physical_Order=1*
G04 Layer_Color=255*
%FSLAX44Y44*%
%MOMM*%
G71*
G04*
G04 #@! TF.SameCoordinates,5C3ED261-42B6-482D-99A8-9BAFA3442630*
G04*
G04*
G04 #@! TF.FilePolarity,Positive*
G04*
G01*
G75*
%ADD23R,1.3549X3.3082*%
%ADD24R,1.1000X3.4000*%
%ADD25R,3.3082X1.3549*%
G04:AMPARAMS|DCode=26|XSize=0.76mm|YSize=0.6604mm|CornerRadius=0.0825mm|HoleSize=0mm|Usage=FLASHONLY|Rotation=270.000|XOffset=0mm|YOffset=0mm|HoleType=Round|Shape=RoundedRectangle|*
%AMROUNDEDRECTD26*
21,1,0.7600,0.4953,0,0,270.0*
21,1,0.5949,0.6604,0,0,270.0*
1,1,0.1651,-0.2477,-0.2975*
1,1,0.1651,-0.2477,0.2975*
1,1,0.1651,0.2477,0.2975*
1,1,0.1651,0.2477,-0.2975*
%
%ADD26ROUNDEDRECTD26*%
%ADD27R,0.9000X0.7500*%
%ADD28R,0.7500X1.0000*%
%ADD29R,0.9500X1.7000*%
%ADD30R,0.8000X1.7000*%
%ADD31R,0.5000X1.1250*%
%ADD32R,2.0500X2.2500*%
%ADD33R,2.5000X1.5200*%
%ADD34R,1.5500X0.7000*%
%ADD35O,1.4000X0.2500*%
%ADD36R,1.7600X2.9500*%
%ADD37R,1.9000X1.3000*%
%ADD38R,1.5000X0.9000*%
%ADD39R,1.9000X3.0000*%
%ADD40R,0.9000X1.0000*%
%ADD41R,1.1000X3.1500*%
%ADD42O,1.4000X0.3500*%
%ADD43R,2.4000X6.1700*%
%ADD44R,0.8682X0.8065*%
%ADD45R,0.9062X0.9051*%
%ADD46R,0.9000X0.8000*%
G04:AMPARAMS|DCode=47|XSize=0.76mm|YSize=0.6604mm|CornerRadius=0.0825mm|HoleSize=0mm|Usage=FLASHONLY|Rotation=0.000|XOffset=0mm|YOffset=0mm|HoleType=Round|Shape=RoundedRectangle|*
%AMROUNDEDRECTD47*
21,1,0.7600,0.4953,0,0,0.0*
21,1,0.5949,0.6604,0,0,0.0*
1,1,0.1651,0.2975,-0.2477*
1,1,0.1651,-0.2975,-0.2477*
1,1,0.1651,-0.2975,0.2477*
1,1,0.1651,0.2975,0.2477*
%
%ADD47ROUNDEDRECTD47*%
%ADD48R,0.9000X0.8000*%
%ADD49R,0.7000X0.7000*%
%ADD50R,0.7500X0.9000*%
%ADD51R,1.7000X0.9500*%
%ADD52R,1.5000X2.0000*%
%ADD53R,3.8000X2.0000*%
%ADD54R,2.0000X2.0000*%
%ADD55R,2.8000X1.4000*%
%ADD56R,1.0121X1.2084*%
%ADD57R,1.5000X1.7500*%
%ADD58R,0.8065X0.8682*%
%ADD59P,0.3536X4X180.0*%
G04:AMPARAMS|DCode=60|XSize=0.6mm|YSize=0.24mm|CornerRadius=0mm|HoleSize=0mm|Usage=FLASHONLY|Rotation=135.000|XOffset=0mm|YOffset=0mm|HoleType=Round|Shape=Rectangle|*
%AMROTATEDRECTD60*
4,1,4,0.2970,-0.1273,0.1273,-0.2970,-0.2970,0.1273,-0.1273,0.2970,0.2970,-0.1273,0.0*
%
%ADD60ROTATEDRECTD60*%

%ADD61P,2.9699X4X180.0*%
%ADD62R,0.8000X0.9000*%
G04:AMPARAMS|DCode=63|XSize=0.6mm|YSize=0.24mm|CornerRadius=0mm|HoleSize=0mm|Usage=FLASHONLY|Rotation=45.000|XOffset=0mm|YOffset=0mm|HoleType=Round|Shape=Rectangle|*
%AMROTATEDRECTD63*
4,1,4,-0.1273,-0.2970,-0.2970,-0.1273,0.1273,0.2970,0.2970,0.1273,-0.1273,-0.2970,0.0*
%
%ADD63ROTATEDRECTD63*%

%ADD64R,0.7500X0.8500*%
%ADD65R,0.9000X0.9000*%
%ADD66R,3.0000X1.5000*%
%ADD67R,0.8587X0.9121*%
%ADD68R,0.7350X0.8621*%
%ADD69R,10.5500X7.5000*%
%ADD70R,10.4900X8.3800*%
%ADD71R,1.0160X3.5040*%
%ADD72R,3.0000X1.9000*%
%ADD73R,0.8500X0.7500*%
%ADD74R,0.8582X0.8563*%
%ADD75R,1.0000X0.7500*%
%ADD76R,0.9500X0.8000*%
%ADD77R,1.0500X0.9500*%
%ADD78R,0.6500X0.9000*%
%ADD79R,0.8000X1.0000*%
%ADD80R,1.0200X2.8200*%
%ADD81R,0.6500X0.9000*%
%ADD82R,1.4700X1.0200*%
%ADD83R,0.9000X1.5000*%
%ADD84R,1.1250X0.5000*%
%ADD85R,0.9621X0.9581*%
%ADD86R,1.1561X1.7582*%
%ADD87R,1.0621X1.1350*%
%ADD88R,1.7000X2.3500*%
%ADD89R,4.6000X1.2000*%
%ADD90R,9.4000X10.8000*%
%ADD91R,1.6500X1.1000*%
%ADD92R,0.8121X0.6587*%
%ADD93R,3.3000X2.4500*%
%ADD94R,0.9500X1.0500*%
%ADD95R,0.9121X0.8587*%
%ADD101C,7.2000*%
%ADD133C,0.7088*%
%ADD135R,2.5000X0.8000*%
%ADD145C,0.7500*%
%ADD146C,1.3000*%
%ADD147R,1.3000X1.3000*%
%ADD150R,1.5500X1.5500*%
%ADD162C,1.5500*%
%ADD167C,2.5000*%
%ADD168R,2.5000X2.5000*%
%ADD174C,1.2700*%
%ADD175C,0.7620*%
%ADD176C,0.5080*%
%ADD177C,2.7040*%
%ADD178C,1.1500*%
%ADD179C,1.6000*%
%ADD180C,1.3650*%
%ADD181R,2.4300X2.4300*%
G04:AMPARAMS|DCode=182|XSize=1.6mm|YSize=1.6mm|CornerRadius=0.4mm|HoleSize=0mm|Usage=FLASHONLY|Rotation=90.000|XOffset=0mm|YOffset=0mm|HoleType=Round|Shape=RoundedRectangle|*
%AMROUNDEDRECTD182*
21,1,1.6000,0.8000,0,0,90.0*
21,1,0.8000,1.6000,0,0,90.0*
1,1,0.8000,0.4000,0.4000*
1,1,0.8000,0.4000,-0.4000*
1,1,0.8000,-0.4000,-0.4000*
1,1,0.8000,-0.4000,0.4000*
%
%ADD182ROUNDEDRECTD182*%
%ADD183C,2.4300*%
%ADD184C,1.2000*%
%ADD185R,1.5000X1.5000*%
%ADD186R,1.3650X1.3650*%
%ADD187R,1.2000X1.2000*%
%ADD188R,1.1500X1.1500*%
%ADD189C,1.5000*%
%ADD190C,2.5950*%
%ADD191R,1.9500X1.9500*%
%ADD192C,1.9500*%
%ADD193C,0.5000*%
%ADD194R,1.6500X1.6500*%
%ADD195C,1.6500*%
%ADD196C,5.0000*%
%ADD197C,1.2700*%
G36*
X764080Y321610D02*
Y422610D01*
X779080D01*
Y415610D01*
X807080D01*
Y420610D01*
X844080D01*
Y323610D01*
X807080D01*
Y328610D01*
X779080D01*
Y321610D01*
X764080D01*
D01*
D02*
G37*
G36*
X897080Y418110D02*
Y410110D01*
X877080D01*
Y406110D01*
X897080D01*
Y398110D01*
X877080D01*
Y394110D01*
X897080D01*
Y386110D01*
X877080D01*
Y382110D01*
X897080D01*
Y374110D01*
X877080D01*
Y370110D01*
X897080D01*
Y362110D01*
X877080D01*
Y358110D01*
X897080D01*
Y350110D01*
X872080D01*
Y418110D01*
X897080D01*
D01*
D02*
G37*
G36*
X764080Y499410D02*
Y600410D01*
X779080D01*
Y593410D01*
X807080D01*
Y598410D01*
X844080D01*
Y501410D01*
X807080D01*
Y506410D01*
X779080D01*
Y499410D01*
X764080D01*
D01*
D02*
G37*
G36*
X897080Y595910D02*
Y587910D01*
X877080D01*
Y583910D01*
X897080D01*
Y575910D01*
X877080D01*
Y571910D01*
X897080D01*
Y563910D01*
X877080D01*
Y559910D01*
X897080D01*
Y551910D01*
X877080D01*
Y547910D01*
X897080D01*
Y539910D01*
X877080D01*
Y535910D01*
X897080D01*
Y527910D01*
X872080D01*
Y595910D01*
X897080D01*
D01*
D02*
G37*
G36*
X1090470Y326110D02*
Y334110D01*
X1110470D01*
Y338110D01*
X1090470D01*
Y346110D01*
X1110470D01*
Y350110D01*
X1090470D01*
Y358110D01*
X1110470D01*
Y362110D01*
X1090470D01*
Y370110D01*
X1110470D01*
Y374110D01*
X1090470D01*
Y382110D01*
X1110470D01*
Y386110D01*
X1090470D01*
Y394110D01*
X1115470D01*
Y326110D01*
X1090470D01*
D01*
D02*
G37*
G36*
X1223470Y422610D02*
Y321610D01*
X1208470D01*
Y328610D01*
X1180470D01*
Y323610D01*
X1143470D01*
Y420610D01*
X1180470D01*
Y415610D01*
X1208470D01*
Y422610D01*
X1223470D01*
D01*
D02*
G37*
G36*
X1090470Y503910D02*
Y511910D01*
X1110470D01*
Y515910D01*
X1090470D01*
Y523910D01*
X1110470D01*
Y527910D01*
X1090470D01*
Y535910D01*
X1110470D01*
Y539910D01*
X1090470D01*
Y547910D01*
X1110470D01*
Y551910D01*
X1090470D01*
Y559910D01*
X1110470D01*
Y563910D01*
X1090470D01*
Y571910D01*
X1115470D01*
Y503910D01*
X1090470D01*
D01*
D02*
G37*
G36*
X1223470Y600410D02*
Y499410D01*
X1208470D01*
Y506410D01*
X1180470D01*
Y501410D01*
X1143470D01*
Y598410D01*
X1180470D01*
Y593410D01*
X1208470D01*
Y600410D01*
X1223470D01*
D01*
D02*
G37*
D23*
X811577Y662940D02*
D03*
X753064D02*
D03*
D24*
X751820Y704850D02*
D03*
X812820D02*
D03*
X669270D02*
D03*
X730270D02*
D03*
D25*
X845820Y655274D02*
D03*
Y713786D02*
D03*
D26*
X1637680Y585470D02*
D03*
X1623680D02*
D03*
X1623030Y570230D02*
D03*
X1637030D02*
D03*
X1609740Y570230D02*
D03*
X1595740D02*
D03*
X1631330Y623570D02*
D03*
X1617330D02*
D03*
D27*
X1658620Y550830D02*
D03*
Y538830D02*
D03*
X1639570Y550830D02*
D03*
Y538830D02*
D03*
X1620520Y550480D02*
D03*
Y538480D02*
D03*
X1666240Y749650D02*
D03*
Y761650D02*
D03*
D28*
X1602620Y549910D02*
D03*
X1587620D02*
D03*
X1554600Y548640D02*
D03*
X1569600D02*
D03*
X1526660D02*
D03*
X1541660D02*
D03*
D29*
X1550640Y528320D02*
D03*
X1578640D02*
D03*
X1659860Y609600D02*
D03*
X603280Y654050D02*
D03*
X575280D02*
D03*
X1687860Y609600D02*
D03*
D30*
X1558780Y494030D02*
D03*
X1524780D02*
D03*
D31*
X693420Y652970D02*
D03*
Y629730D02*
D03*
D32*
X543560Y885280D02*
D03*
Y928280D02*
D03*
D33*
X585970Y961410D02*
D03*
X889770Y848610D02*
D03*
Y811010D02*
D03*
Y773410D02*
D03*
X585970D02*
D03*
X889770Y961410D02*
D03*
Y923810D02*
D03*
Y886210D02*
D03*
X585970Y811010D02*
D03*
Y848610D02*
D03*
Y886210D02*
D03*
Y923810D02*
D03*
D34*
X1024200Y496570D02*
D03*
X969700Y420370D02*
D03*
Y433070D02*
D03*
X1024200Y445770D02*
D03*
Y483870D02*
D03*
Y471170D02*
D03*
Y458470D02*
D03*
Y433070D02*
D03*
Y420370D02*
D03*
X969700Y445770D02*
D03*
Y458470D02*
D03*
Y471170D02*
D03*
Y483870D02*
D03*
Y496570D02*
D03*
D35*
X662920Y586879D02*
D03*
Y551879D02*
D03*
Y556879D02*
D03*
Y561879D02*
D03*
Y566879D02*
D03*
Y576879D02*
D03*
Y581879D02*
D03*
X621920Y551879D02*
D03*
Y556879D02*
D03*
Y561879D02*
D03*
Y566879D02*
D03*
Y571879D02*
D03*
Y576879D02*
D03*
Y581879D02*
D03*
Y586879D02*
D03*
X662920Y571879D02*
D03*
D36*
X642420Y569379D02*
D03*
D37*
X1377440Y578680D02*
D03*
Y523680D02*
D03*
X1345440D02*
D03*
Y578680D02*
D03*
D38*
X1569460Y383540D02*
D03*
Y370840D02*
D03*
Y281940D02*
D03*
X1394460D02*
D03*
X1569460Y294640D02*
D03*
Y307340D02*
D03*
Y320040D02*
D03*
Y332740D02*
D03*
Y345440D02*
D03*
Y358140D02*
D03*
Y396240D02*
D03*
Y408940D02*
D03*
Y421640D02*
D03*
Y434340D02*
D03*
Y447040D02*
D03*
X1394460D02*
D03*
Y434340D02*
D03*
Y421640D02*
D03*
Y408940D02*
D03*
Y396240D02*
D03*
Y383540D02*
D03*
Y370840D02*
D03*
Y358140D02*
D03*
Y345440D02*
D03*
Y332740D02*
D03*
Y320040D02*
D03*
Y307340D02*
D03*
Y294640D02*
D03*
D39*
X1601790Y451887D02*
D03*
X1655790D02*
D03*
X1601790Y491257D02*
D03*
X1655790D02*
D03*
D40*
X1463930Y916940D02*
D03*
X1479930D02*
D03*
X1422780Y948690D02*
D03*
X1406780D02*
D03*
D41*
X1422400Y917210D02*
D03*
X1397000D02*
D03*
X1371600D02*
D03*
D42*
X1460620Y651580D02*
D03*
Y645080D02*
D03*
Y664580D02*
D03*
X1404620Y645080D02*
D03*
Y677580D02*
D03*
X1460620Y703580D02*
D03*
X1404620D02*
D03*
Y697080D02*
D03*
Y625580D02*
D03*
Y619080D02*
D03*
X1460620Y625580D02*
D03*
Y619080D02*
D03*
X1404620Y690580D02*
D03*
Y684080D02*
D03*
Y671080D02*
D03*
Y664580D02*
D03*
Y658080D02*
D03*
Y651580D02*
D03*
Y638580D02*
D03*
Y632080D02*
D03*
X1460620Y697080D02*
D03*
Y690580D02*
D03*
Y684080D02*
D03*
Y677580D02*
D03*
Y671080D02*
D03*
Y638580D02*
D03*
Y632080D02*
D03*
Y658080D02*
D03*
D43*
X1432620Y661330D02*
D03*
D44*
X1711960Y774700D02*
D03*
Y762183D02*
D03*
D45*
X1734820Y774356D02*
D03*
Y762344D02*
D03*
D46*
X1529080Y706220D02*
D03*
X1482090Y643990D02*
D03*
X1701800Y930810D02*
D03*
X1512570Y641450D02*
D03*
X1529080Y718720D02*
D03*
X1498600Y643990D02*
D03*
X1482090Y656490D02*
D03*
X575280Y537210D02*
D03*
X558280D02*
D03*
X1701800Y918310D02*
D03*
X1512570Y653950D02*
D03*
X1498600Y656490D02*
D03*
D47*
X1764030Y747410D02*
D03*
Y733410D02*
D03*
D48*
X1640840Y658360D02*
D03*
X1675130Y727590D02*
D03*
X1761490Y762120D02*
D03*
X1597660Y657740D02*
D03*
X1640840Y643360D02*
D03*
X1597660Y642740D02*
D03*
X1761490Y777120D02*
D03*
X1675130Y712590D02*
D03*
D49*
X1619250Y657860D02*
D03*
X1661160D02*
D03*
X1544320Y669910D02*
D03*
X1619250Y643860D02*
D03*
X1661160D02*
D03*
X1544320Y683910D02*
D03*
D50*
X1438560Y742950D02*
D03*
Y722630D02*
D03*
X1426560Y742950D02*
D03*
Y722630D02*
D03*
X595980Y501650D02*
D03*
Y519430D02*
D03*
X639730Y518160D02*
D03*
X627730D02*
D03*
X607980Y501650D02*
D03*
Y519430D02*
D03*
D51*
X1681480Y430500D02*
D03*
Y519460D02*
D03*
X1348740Y604490D02*
D03*
Y693390D02*
D03*
X1380490Y637510D02*
D03*
X1348740Y721390D02*
D03*
X1380490Y665510D02*
D03*
X1348740Y676940D02*
D03*
Y648940D02*
D03*
Y632490D02*
D03*
X1681480Y458500D02*
D03*
Y491460D02*
D03*
D52*
X1747660Y897640D02*
D03*
X1701660D02*
D03*
X1724660D02*
D03*
D53*
Y834640D02*
D03*
D54*
X1675130Y936940D02*
D03*
Y896940D02*
D03*
D55*
X1506220Y917910D02*
D03*
Y943910D02*
D03*
D56*
X1752600Y927971D02*
D03*
Y944009D02*
D03*
D57*
X1455420Y552750D02*
D03*
X1431290Y551480D02*
D03*
X1405890D02*
D03*
X1455420Y590250D02*
D03*
X1431290Y588980D02*
D03*
X1405890D02*
D03*
D58*
X1590131Y623570D02*
D03*
X1602649D02*
D03*
D59*
X1593850Y674105D02*
D03*
X1569455Y698500D02*
D03*
X1618245D02*
D03*
X1593850Y722895D02*
D03*
D60*
X1598446Y676226D02*
D03*
X1601982Y679762D02*
D03*
X1609053Y686833D02*
D03*
X1605517Y683297D02*
D03*
X1616124Y693904D02*
D03*
X1575112Y706632D02*
D03*
X1612588Y690368D02*
D03*
X1589254Y720774D02*
D03*
X1585718Y717238D02*
D03*
X1582183Y713703D02*
D03*
X1578647Y710167D02*
D03*
X1571576Y703096D02*
D03*
D61*
X1593850Y698500D02*
D03*
D62*
X1643480Y727710D02*
D03*
X1482090Y592210D02*
D03*
Y609210D02*
D03*
X1494690Y706120D02*
D03*
X1655980Y727710D02*
D03*
X1480920Y693420D02*
D03*
X1482190Y706120D02*
D03*
X1493420Y693420D02*
D03*
D63*
X1582183Y683297D02*
D03*
X1616124Y703096D02*
D03*
X1609053Y710167D02*
D03*
X1605517Y713703D02*
D03*
X1612588Y706632D02*
D03*
X1598446Y720774D02*
D03*
X1601982Y717238D02*
D03*
X1589254Y676226D02*
D03*
X1571576Y693904D02*
D03*
X1575112Y690368D02*
D03*
X1578647Y686833D02*
D03*
X1585718Y679762D02*
D03*
D64*
X1643230Y712470D02*
D03*
X1656230D02*
D03*
D65*
X1496960Y373140D02*
D03*
X1510960D02*
D03*
X1496960Y359140D02*
D03*
X1482960Y373140D02*
D03*
Y359140D02*
D03*
X1510960D02*
D03*
Y345140D02*
D03*
X1496960D02*
D03*
X1482960D02*
D03*
D66*
X957580Y986790D02*
D03*
X1546860Y930910D02*
D03*
X1584960D02*
D03*
X1497330Y506730D02*
D03*
X1449705D02*
D03*
X1402080D02*
D03*
D67*
X1481943Y626110D02*
D03*
X1627017Y728980D02*
D03*
X1611483D02*
D03*
X1592727Y754380D02*
D03*
X1577193D02*
D03*
X1540363Y732790D02*
D03*
X1555897D02*
D03*
X1497477Y626110D02*
D03*
D68*
X1733746Y739140D02*
D03*
X1746054D02*
D03*
D69*
X1397000Y814210D02*
D03*
D70*
X1197610Y921650D02*
D03*
D71*
X1223010Y819150D02*
D03*
X1172210D02*
D03*
D72*
X1711960Y701370D02*
D03*
X1753870D02*
D03*
Y647370D02*
D03*
X1711960D02*
D03*
D73*
X1482090Y680870D02*
D03*
Y667870D02*
D03*
D74*
X674370Y601050D02*
D03*
Y613070D02*
D03*
D75*
X717550Y550030D02*
D03*
Y589178D02*
D03*
Y604178D02*
D03*
Y565030D02*
D03*
D76*
X601980Y589680D02*
D03*
X659130Y622200D02*
D03*
Y609700D02*
D03*
X601980Y576180D02*
D03*
D77*
X693420Y550280D02*
D03*
Y564780D02*
D03*
D78*
X601450Y603250D02*
D03*
X615950D02*
D03*
D79*
X594480Y537210D02*
D03*
X609480D02*
D03*
D80*
X880850Y449580D02*
D03*
X909850D02*
D03*
D81*
X1068970Y414020D02*
D03*
X1058280Y591820D02*
D03*
X1072780D02*
D03*
X885560Y482600D02*
D03*
X947050Y330200D02*
D03*
X1054470Y414020D02*
D03*
X900060Y482600D02*
D03*
X932550Y330200D02*
D03*
D82*
X1056640Y440310D02*
D03*
Y456310D02*
D03*
X944880Y491110D02*
D03*
Y507110D02*
D03*
D83*
X1551810Y459540D02*
D03*
X1539110D02*
D03*
X1526410D02*
D03*
X1513710D02*
D03*
X1501010D02*
D03*
X1488310D02*
D03*
X1475610D02*
D03*
X1462910D02*
D03*
X1450210D02*
D03*
X1437510D02*
D03*
X1424810D02*
D03*
X1412110D02*
D03*
D84*
X717360Y631190D02*
D03*
X740600D02*
D03*
D85*
X739140Y605440D02*
D03*
Y590900D02*
D03*
D86*
X635291Y623570D02*
D03*
X606769D02*
D03*
D87*
X693420Y590016D02*
D03*
Y606324D02*
D03*
D88*
X544830Y852080D02*
D03*
Y809080D02*
D03*
D89*
X340070Y922020D02*
D03*
Y871220D02*
D03*
D90*
X431570Y896620D02*
D03*
D91*
X648970Y646150D02*
D03*
Y674650D02*
D03*
D92*
X558800Y566837D02*
D03*
Y553303D02*
D03*
D93*
X1755140Y367160D02*
D03*
Y415160D02*
D03*
X1714500Y367160D02*
D03*
Y415160D02*
D03*
D94*
X1645550Y754380D02*
D03*
X1631050D02*
D03*
X1543420D02*
D03*
X1557920D02*
D03*
D95*
X1611630Y762147D02*
D03*
Y746613D02*
D03*
D101*
X1183470Y549910D02*
D03*
X804080D02*
D03*
X1183470Y372110D02*
D03*
X804080D02*
D03*
D133*
X1107657Y330047D02*
D03*
X879893Y414173D02*
D03*
X1107657Y507848D02*
D03*
X879893Y591973D02*
D03*
D135*
X1102970Y402110D02*
D03*
Y414110D02*
D03*
Y579910D02*
D03*
Y591910D02*
D03*
X884580Y342110D02*
D03*
Y330110D02*
D03*
Y519910D02*
D03*
Y507910D02*
D03*
D145*
X1541780Y494030D02*
D03*
D146*
X1642110Y853160D02*
D03*
X1549400D02*
D03*
X601170Y333200D02*
D03*
X471170D02*
D03*
Y413200D02*
D03*
X601170D02*
D03*
D147*
X1642110Y818160D02*
D03*
X1549400D02*
D03*
D150*
X1015330Y923290D02*
D03*
Y731520D02*
D03*
D162*
X1090330Y923290D02*
D03*
Y731520D02*
D03*
D167*
X290270Y640080D02*
D03*
D168*
Y594080D02*
D03*
D174*
X804080Y617390D02*
X819150Y632460D01*
X1173480D02*
X1183470Y622470D01*
X819150Y632460D02*
X1173480D01*
X1183470Y549910D02*
Y622470D01*
X804080Y549910D02*
Y617390D01*
X1195970Y923290D02*
X1197610Y921650D01*
X958730Y985640D02*
X976510D01*
X1015330Y946820D01*
X957580Y986790D02*
X958730Y985640D01*
X1015330Y731520D02*
Y923290D01*
Y946820D01*
X894850Y772910D02*
Y810510D01*
Y735310D02*
Y772910D01*
Y735310D02*
X1011540D01*
X1015330Y731520D01*
X1090330Y923290D02*
X1195970D01*
X1090330Y731520D02*
Y923290D01*
X972550Y417520D02*
X1060023Y330047D01*
X1107657D01*
X969700Y418920D02*
Y420370D01*
Y418920D02*
X971100Y417520D01*
X963503Y414173D02*
X969700Y420370D01*
X971100Y417520D02*
X972550D01*
X879893Y414173D02*
X963503D01*
X804080Y430700D02*
X826770Y453390D01*
X804080Y372110D02*
Y430700D01*
X879893Y591973D02*
X935837D01*
X688200Y281940D02*
X1134562D01*
X1162839Y310217D01*
X662940Y307200D02*
X688200Y281940D01*
X1162839Y351479D02*
X1183470Y372110D01*
X1162839Y310217D02*
Y351479D01*
X662940Y457200D02*
X691597D01*
X776687Y372110D01*
X804080D01*
X660540Y304800D02*
X662940Y307200D01*
X601170Y333200D02*
X629570Y304800D01*
X660540D01*
X662500Y456760D02*
X662940Y457200D01*
X644730Y456760D02*
X662500D01*
X601170Y413200D02*
X644730Y456760D01*
X935837Y591973D02*
X969700Y558110D01*
Y498020D02*
Y558110D01*
X945880Y505860D02*
X961860D01*
X969700Y496570D02*
Y498020D01*
X961860Y505860D02*
X969700Y498020D01*
X944880Y506860D02*
Y507110D01*
Y506860D02*
X945880Y505860D01*
X404825Y639445D02*
X405460Y638810D01*
X290905Y639445D02*
X404825D01*
X290270Y640080D02*
X290905Y639445D01*
X471170Y604520D02*
X505460Y638810D01*
X471170Y413200D02*
Y604520D01*
X432540Y371830D02*
X471170Y333200D01*
X398780Y371830D02*
X432540D01*
X396245Y459365D02*
X398780Y456830D01*
X396245Y459365D02*
Y488105D01*
X290270Y594080D02*
X396245Y488105D01*
D175*
X1197610Y921650D02*
X1369910D01*
X1549400Y853160D02*
Y854616D01*
X1546860Y857156D02*
X1549400Y854616D01*
X1546860Y857156D02*
Y930910D01*
X1569500Y985520D02*
X1584960Y970060D01*
Y930910D02*
Y970060D01*
X1549400Y818160D02*
X1642110D01*
X1549400Y853160D02*
X1642110D01*
X1648460Y895350D02*
X1649255Y896145D01*
X1674335D01*
X1675130Y896940D01*
X1360645Y985045D02*
X1397000Y948690D01*
X1406780Y948690D02*
X1407357Y949267D01*
X1380490Y965200D02*
X1478934D01*
X1496030Y948104D01*
X1397000Y814210D02*
Y917210D01*
Y948690D01*
X1701310Y897290D02*
X1701660Y897640D01*
X1675480Y897290D02*
X1701310D01*
X1675130Y896940D02*
X1675480Y897290D01*
X1701800Y897780D02*
Y918310D01*
X1701660Y897640D02*
X1701800Y897780D01*
X1724660Y897640D02*
Y920114D01*
X1746322Y941777D01*
X1751349D01*
X1752600Y943027D01*
Y944009D01*
Y985520D01*
X1546860Y930910D02*
Y973040D01*
X1534380Y985520D02*
X1546860Y973040D01*
X1496030Y947100D02*
Y948104D01*
X1397000Y948690D02*
X1406780D01*
X1496030Y947100D02*
X1499220Y943910D01*
X1506220D01*
X1505735Y917425D02*
X1506220Y917910D01*
X1480415Y917425D02*
X1505735D01*
X1479930Y916940D02*
X1480415Y917425D01*
X1422400Y917210D02*
X1463040D01*
X1369910Y921650D02*
X1371600Y919960D01*
Y917210D02*
Y919960D01*
X1422400Y917210D02*
Y948310D01*
X1422780Y948690D01*
X1351755Y985045D02*
X1360645D01*
X1351280Y985520D02*
X1351755Y985045D01*
D176*
X1482825Y359275D02*
X1482960Y359140D01*
X1464445Y359275D02*
X1482825D01*
X1464310Y359410D02*
X1464445Y359275D01*
X1355090Y359410D02*
Y421640D01*
Y447040D02*
X1394460D01*
X1355090Y283210D02*
X1357782Y280518D01*
Y271628D02*
X1365250Y264160D01*
X1357782Y271628D02*
Y280518D01*
X1365250Y264160D02*
X1455338D01*
X1485818Y294640D01*
X1569460D01*
X1355090Y308610D02*
X1366520Y320040D01*
X1394460D01*
X1355090Y334010D02*
X1355725Y333375D01*
X1393825D01*
X1394460Y332740D01*
X1411684Y494586D02*
X1435550Y470720D01*
X1402080Y506730D02*
X1406724D01*
X1435550Y461500D02*
Y470720D01*
X1406724Y506730D02*
X1411684Y501770D01*
Y494586D02*
Y501770D01*
X1462910Y459540D02*
X1464738Y461368D01*
Y470328D02*
X1488996Y494586D01*
Y501770D02*
X1493956Y506730D01*
X1464738Y461368D02*
Y470328D01*
X1488996Y494586D02*
Y501770D01*
X1493956Y506730D02*
X1497330D01*
X1449705D02*
X1450210Y506225D01*
Y459540D02*
Y506225D01*
X1435550Y461500D02*
X1437510Y459540D01*
X880850Y415673D02*
Y449580D01*
X879893Y414716D02*
X880850Y415673D01*
X879893Y414173D02*
Y414716D01*
X1072780Y591820D02*
X1072825Y591865D01*
X1102925D01*
X1102970Y591910D01*
X1025160Y472130D02*
X1046170D01*
X1058280Y484240D01*
Y591820D01*
X1024200Y471170D02*
X1025160Y472130D01*
X1024200Y445770D02*
X1028450D01*
X1032260Y441960D01*
X1054990D01*
X1056640Y440310D01*
X1055440Y457510D02*
X1056640Y456310D01*
X1025160Y457510D02*
X1055440D01*
X1024200Y458470D02*
X1025160Y457510D01*
X1024200Y420370D02*
X1028450D01*
X1034800Y414020D01*
X1054470D01*
X1068970D02*
X1069015Y414065D01*
X1102925D01*
X1102970Y414110D01*
X884580Y330110D02*
X884625Y330155D01*
X932505D01*
X932550Y330200D01*
X946600Y330650D02*
X947050Y330200D01*
X946600Y330650D02*
Y351340D01*
X946150Y351790D02*
X946600Y351340D01*
X944880Y445770D02*
X969700D01*
X917360Y433070D02*
X969700D01*
X932180Y471170D02*
X969700D01*
X921573Y481777D02*
X932180Y471170D01*
X900770Y481777D02*
X921573D01*
X900060Y482487D02*
X900770Y481777D01*
X900060Y482487D02*
Y482600D01*
X885560D02*
Y483850D01*
X884580Y484830D02*
X885560Y483850D01*
X884580Y484830D02*
Y507910D01*
X944880Y491110D02*
X947130D01*
X949690Y488550D01*
Y488510D02*
Y488550D01*
Y488510D02*
X954330Y483870D01*
X969700D01*
X909850Y440580D02*
Y449580D01*
Y440580D02*
X917360Y433070D01*
D177*
X1663460Y348340D02*
D03*
X1620960Y401340D02*
D03*
X1675960D02*
D03*
D178*
X1482090Y854710D02*
D03*
D179*
X1355090Y359410D02*
D03*
Y421640D02*
D03*
Y334010D02*
D03*
Y308610D02*
D03*
D180*
X1534380Y985520D02*
D03*
X1569500D02*
D03*
D181*
X1490980Y769620D02*
D03*
D182*
X1355090Y283210D02*
D03*
Y447040D02*
D03*
D183*
X1490980Y718820D02*
D03*
D184*
X458470Y770890D02*
D03*
D185*
X662940Y307200D02*
D03*
D186*
X1351280Y985520D02*
D03*
X1752600D02*
D03*
D187*
X408470Y770890D02*
D03*
D188*
X1482090Y874710D02*
D03*
D189*
X662940Y457200D02*
D03*
X347980Y474330D02*
D03*
Y354330D02*
D03*
D190*
X398780Y371830D02*
D03*
Y456830D02*
D03*
D191*
X405460Y638810D02*
D03*
D192*
X505460D02*
D03*
D193*
X1648460Y307340D02*
D03*
Y382340D02*
D03*
X636920Y569379D02*
D03*
X647920D02*
D03*
X636920Y580379D02*
D03*
X647920D02*
D03*
Y558379D02*
D03*
X636920D02*
D03*
X1438120Y655830D02*
D03*
Y688830D02*
D03*
Y666830D02*
D03*
Y677830D02*
D03*
Y633830D02*
D03*
X1427120Y644830D02*
D03*
X1438120D02*
D03*
X1427120Y633830D02*
D03*
Y677830D02*
D03*
Y666830D02*
D03*
Y688830D02*
D03*
Y655830D02*
D03*
D194*
X1727200Y572060D02*
D03*
Y454660D02*
D03*
D195*
Y607060D02*
D03*
Y489660D02*
D03*
D196*
X1731010Y297180D02*
D03*
X297180Y971550D02*
D03*
D197*
X1342390Y922020D02*
D03*
X1648460Y895350D02*
D03*
X1464310Y359410D02*
D03*
X910590Y591820D02*
D03*
X826770Y453390D02*
D03*
X946150Y351790D02*
D03*
X944880Y445770D02*
D03*
M02*
