G04*
G04 #@! TF.GenerationSoftware,Altium Limited,Altium Designer,25.5.2 (35)*
G04*
G04 Layer_Color=16711935*
%FSLAX25Y25*%
%MOIN*%
G70*
G04*
G04 #@! TF.SameCoordinates,CCCDE38D-7695-4EB3-ABC8-F25FB468ABE4*
G04*
G04*
G04 #@! TF.FilePolarity,Negative*
G04*
G01*
G75*
%ADD71R,0.06693X0.03740*%
%ADD140C,0.06706*%
%ADD141R,0.06706X0.06706*%
%ADD142R,0.05524X0.05524*%
%ADD143C,0.05524*%
%ADD144R,0.09843X0.09843*%
%ADD145C,0.09843*%
%ADD146C,0.08477*%
%ADD147R,0.08477X0.08477*%
%ADD148C,0.05918*%
%ADD149C,0.11017*%
%ADD150C,0.06174*%
G04:AMPARAMS|DCode=151|XSize=70.99mil|YSize=70.99mil|CornerRadius=19.75mil|HoleSize=0mil|Usage=FLASHONLY|Rotation=90.000|XOffset=0mil|YOffset=0mil|HoleType=Round|Shape=RoundedRectangle|*
%AMROUNDEDRECTD151*
21,1,0.07099,0.03150,0,0,90.0*
21,1,0.03150,0.07099,0,0,90.0*
1,1,0.03950,0.01575,0.01575*
1,1,0.03950,0.01575,-0.01575*
1,1,0.03950,-0.01575,-0.01575*
1,1,0.03950,-0.01575,0.01575*
%
%ADD151ROUNDEDRECTD151*%
%ADD152C,0.11446*%
%ADD153C,0.05328*%
%ADD154R,0.06102X0.06102*%
%ADD155R,0.05118X0.05118*%
%ADD156C,0.07099*%
%ADD157C,0.20485*%
%ADD158C,0.06102*%
%ADD159C,0.10367*%
%ADD160R,0.10367X0.10367*%
%ADD161R,0.06174X0.06174*%
%ADD162C,0.05118*%
%ADD163C,0.02769*%
%ADD164C,0.07296*%
%ADD165R,0.07296X0.07296*%
%ADD166C,0.02953*%
%ADD167R,0.05328X0.05328*%
%ADD168C,0.03300*%
%ADD169C,0.06800*%
%ADD170C,0.02800*%
%ADD171C,0.04737*%
D71*
X645500Y260988D02*
D03*
Y272012D02*
D03*
Y278488D02*
D03*
Y289512D02*
D03*
D140*
X261000Y180000D02*
D03*
X134500Y136256D02*
D03*
Y183500D02*
D03*
D141*
X261000Y120945D02*
D03*
D142*
X160815Y303500D02*
D03*
D143*
X180500D02*
D03*
D144*
X114779Y224890D02*
D03*
D145*
Y243000D02*
D03*
D146*
X197000Y233000D02*
D03*
D147*
X157630D02*
D03*
D148*
X236681Y131181D02*
D03*
X185500D02*
D03*
Y162677D02*
D03*
X236681D02*
D03*
D149*
X154500Y176610D02*
D03*
Y143146D02*
D03*
D150*
X617913Y388000D02*
D03*
X604087D02*
D03*
D151*
X533500Y111500D02*
D03*
Y176000D02*
D03*
D152*
X651405Y138142D02*
D03*
X656327Y159008D02*
D03*
X634673D02*
D03*
D153*
X583500Y336500D02*
D03*
D154*
X399736Y363500D02*
D03*
Y288000D02*
D03*
D155*
X580000Y279110D02*
D03*
X543500D02*
D03*
D156*
X533500Y166000D02*
D03*
Y141500D02*
D03*
Y131500D02*
D03*
Y121500D02*
D03*
D157*
X117000Y382500D02*
D03*
X681500Y117000D02*
D03*
D158*
X429264Y288000D02*
D03*
Y363500D02*
D03*
D159*
X635000Y305500D02*
D03*
D160*
X615000D02*
D03*
D161*
X532000Y388000D02*
D03*
X690000D02*
D03*
D162*
X543500Y292890D02*
D03*
X580000D02*
D03*
D163*
X645500Y151528D02*
D03*
Y122000D02*
D03*
X265220Y223264D02*
D03*
Y227594D02*
D03*
X256559D02*
D03*
Y223264D02*
D03*
X260890Y227594D02*
D03*
Y223264D02*
D03*
X628189Y267209D02*
D03*
Y254217D02*
D03*
Y262878D02*
D03*
Y258547D02*
D03*
Y275870D02*
D03*
X623858Y271539D02*
D03*
X628189D02*
D03*
X623858Y275870D02*
D03*
Y258547D02*
D03*
Y262878D02*
D03*
Y254217D02*
D03*
Y267209D02*
D03*
D164*
X680000Y239000D02*
D03*
Y192780D02*
D03*
D165*
Y225220D02*
D03*
Y179000D02*
D03*
D166*
X607000Y194500D02*
D03*
D167*
X583500Y344374D02*
D03*
D168*
X665975Y261475D02*
D03*
X653896Y267239D02*
D03*
X285000Y252500D02*
D03*
X254000Y260000D02*
D03*
X573000Y225500D02*
D03*
X243865Y266500D02*
D03*
X253500Y268000D02*
D03*
X107000Y344500D02*
D03*
X118000Y349000D02*
D03*
X662677Y269000D02*
D03*
X586500Y205500D02*
D03*
X582500Y216500D02*
D03*
X622500Y228500D02*
D03*
X576500Y141500D02*
D03*
X652500Y289500D02*
D03*
X655000Y253500D02*
D03*
X653000Y272000D02*
D03*
X639070Y176019D02*
D03*
X653782Y278000D02*
D03*
X668753Y276370D02*
D03*
X665000Y273649D02*
D03*
X636835Y193000D02*
D03*
X632000Y250000D02*
D03*
Y281500D02*
D03*
X573500Y261500D02*
D03*
X690000Y311000D02*
D03*
X602001Y261603D02*
D03*
X609000Y266500D02*
D03*
X602000Y248500D02*
D03*
X627500Y243000D02*
D03*
X579000Y261500D02*
D03*
X596000Y191000D02*
D03*
X610500Y294000D02*
D03*
X611000Y151500D02*
D03*
X563500Y219000D02*
D03*
X624000Y190500D02*
D03*
Y121000D02*
D03*
X611000Y146500D02*
D03*
X563500Y214000D02*
D03*
X528500Y363000D02*
D03*
X649000Y352500D02*
D03*
X358500Y233000D02*
D03*
X325500Y178500D02*
D03*
X372500Y138500D02*
D03*
X372000Y175500D02*
D03*
D169*
X228000Y222500D02*
D03*
X295000Y208000D02*
D03*
D170*
X590500Y218528D02*
D03*
D171*
X446500Y325000D02*
D03*
X368000Y349000D02*
D03*
M02*
