G04*
G04 #@! TF.GenerationSoftware,Altium Limited,Altium Designer,25.5.2 (35)*
G04*
G04 Layer_Color=32896*
%FSLAX25Y25*%
%MOIN*%
G70*
G04*
G04 #@! TF.SameCoordinates,CCCDE38D-7695-4EB3-ABC8-F25FB468ABE4*
G04*
G04*
G04 #@! TF.FilePolarity,Positive*
G04*
G01*
G75*
%ADD11C,0.00787*%
G36*
X644243Y266498D02*
X644309Y266494D01*
X644374Y266489D01*
X644434Y266479D01*
X644494Y266470D01*
X644549Y266459D01*
X644602Y266445D01*
X644651Y266434D01*
X644695Y266421D01*
X644735Y266409D01*
X644769Y266398D01*
X644799Y266389D01*
X644822Y266379D01*
X644838Y266373D01*
X644850Y266370D01*
X644854Y266368D01*
X644910Y266341D01*
X644965Y266313D01*
X645016Y266283D01*
X645061Y266251D01*
X645105Y266218D01*
X645145Y266186D01*
X645181Y266154D01*
X645213Y266122D01*
X645241Y266094D01*
X645266Y266065D01*
X645287Y266041D01*
X645305Y266020D01*
X645319Y266003D01*
X645328Y265990D01*
X645334Y265982D01*
X645336Y265978D01*
X645364Y265929D01*
X645390Y265876D01*
X645411Y265823D01*
X645430Y265767D01*
X645447Y265712D01*
X645460Y265657D01*
X645470Y265604D01*
X645479Y265551D01*
X645487Y265504D01*
X645491Y265459D01*
X645494Y265419D01*
X645498Y265385D01*
Y265357D01*
X645500Y265345D01*
Y265317D01*
X645498Y265245D01*
X645491Y265175D01*
X645479Y265109D01*
X645466Y265047D01*
X645451Y264986D01*
X645432Y264931D01*
X645413Y264882D01*
X645392Y264835D01*
X645371Y264793D01*
X645353Y264757D01*
X645334Y264725D01*
X645319Y264699D01*
X645303Y264678D01*
X645294Y264663D01*
X645287Y264653D01*
X645285Y264650D01*
X645241Y264601D01*
X645196Y264555D01*
X645147Y264514D01*
X645096Y264476D01*
X645043Y264442D01*
X644992Y264410D01*
X644941Y264383D01*
X644890Y264359D01*
X644842Y264338D01*
X644799Y264319D01*
X644759Y264304D01*
X644725Y264293D01*
X644697Y264283D01*
X644685Y264279D01*
X644676Y264277D01*
X644666Y264274D01*
X644661D01*
X644659Y264272D01*
X644657D01*
X644574Y264606D01*
X644632Y264621D01*
X644685Y264638D01*
X644736Y264657D01*
X644784Y264676D01*
X644825Y264699D01*
X644865Y264722D01*
X644901Y264742D01*
X644933Y264765D01*
X644961Y264786D01*
X644986Y264805D01*
X645007Y264824D01*
X645024Y264839D01*
X645037Y264852D01*
X645046Y264861D01*
X645052Y264869D01*
X645054Y264871D01*
X645082Y264909D01*
X645107Y264947D01*
X645128Y264986D01*
X645147Y265026D01*
X645162Y265066D01*
X645175Y265105D01*
X645186Y265143D01*
X645194Y265179D01*
X645201Y265213D01*
X645205Y265245D01*
X645209Y265273D01*
X645213Y265296D01*
Y265317D01*
X645215Y265330D01*
Y265343D01*
X645213Y265387D01*
X645209Y265428D01*
X645203Y265468D01*
X645196Y265508D01*
X645188Y265546D01*
X645177Y265580D01*
X645167Y265614D01*
X645156Y265644D01*
X645145Y265672D01*
X645135Y265697D01*
X645124Y265720D01*
X645116Y265738D01*
X645109Y265752D01*
X645103Y265763D01*
X645099Y265771D01*
X645097Y265772D01*
X645073Y265808D01*
X645048Y265840D01*
X645020Y265873D01*
X644992Y265901D01*
X644961Y265927D01*
X644931Y265950D01*
X644903Y265973D01*
X644873Y265992D01*
X644846Y266009D01*
X644820Y266024D01*
X644797Y266035D01*
X644778Y266047D01*
X644761Y266054D01*
X644750Y266060D01*
X644740Y266062D01*
X644738Y266063D01*
X644693Y266080D01*
X644644Y266094D01*
X644597Y266107D01*
X644548Y266116D01*
X644453Y266133D01*
X644410Y266139D01*
X644366Y266145D01*
X644326Y266148D01*
X644290Y266150D01*
X644256Y266152D01*
X644230Y266154D01*
X644207Y266156D01*
X644190D01*
X644179D01*
X644175D01*
X644082Y266152D01*
X643994Y266145D01*
X643952Y266137D01*
X643912Y266131D01*
X643875Y266124D01*
X643839Y266116D01*
X643807Y266111D01*
X643778Y266103D01*
X643754Y266096D01*
X643731Y266090D01*
X643714Y266086D01*
X643703Y266082D01*
X643693Y266079D01*
X643691D01*
X643648Y266062D01*
X643608Y266045D01*
X643569Y266024D01*
X643533Y266003D01*
X643499Y265980D01*
X643468Y265958D01*
X643440Y265935D01*
X643415Y265912D01*
X643393Y265890D01*
X643372Y265871D01*
X643355Y265852D01*
X643340Y265837D01*
X643330Y265823D01*
X643321Y265812D01*
X643317Y265806D01*
X643315Y265805D01*
X643291Y265767D01*
X643270Y265727D01*
X643251Y265687D01*
X643234Y265646D01*
X643221Y265604D01*
X643209Y265564D01*
X643200Y265525D01*
X643192Y265487D01*
X643187Y265453D01*
X643183Y265421D01*
X643179Y265392D01*
X643177Y265366D01*
X643175Y265347D01*
Y265319D01*
X643177Y265271D01*
X643181Y265228D01*
X643187Y265187D01*
X643194Y265147D01*
X643206Y265109D01*
X643215Y265075D01*
X643226Y265043D01*
X643238Y265015D01*
X643251Y264988D01*
X643262Y264965D01*
X643272Y264945D01*
X643281Y264930D01*
X643291Y264916D01*
X643296Y264907D01*
X643300Y264901D01*
X643302Y264899D01*
X643327Y264869D01*
X643355Y264841D01*
X643385Y264814D01*
X643417Y264790D01*
X643451Y264767D01*
X643483Y264746D01*
X643517Y264727D01*
X643549Y264708D01*
X643580Y264693D01*
X643610Y264680D01*
X643635Y264670D01*
X643657Y264661D01*
X643676Y264653D01*
X643691Y264648D01*
X643699Y264646D01*
X643703Y264644D01*
X643625Y264315D01*
X643561Y264336D01*
X643502Y264361D01*
X643446Y264387D01*
X643393Y264415D01*
X643343Y264444D01*
X643300Y264474D01*
X643258Y264504D01*
X643223Y264534D01*
X643190Y264563D01*
X643162Y264589D01*
X643138Y264614D01*
X643119Y264635D01*
X643104Y264652D01*
X643092Y264665D01*
X643085Y264672D01*
X643083Y264676D01*
X643049Y264725D01*
X643018Y264776D01*
X642994Y264829D01*
X642971Y264884D01*
X642952Y264937D01*
X642937Y264990D01*
X642924Y265041D01*
X642914Y265090D01*
X642907Y265136D01*
X642899Y265179D01*
X642896Y265215D01*
X642894Y265249D01*
X642892Y265275D01*
X642890Y265294D01*
Y265311D01*
X642892Y265374D01*
X642896Y265434D01*
X642903Y265493D01*
X642914Y265547D01*
X642926Y265602D01*
X642939Y265651D01*
X642952Y265699D01*
X642966Y265742D01*
X642981Y265782D01*
X642994Y265818D01*
X643007Y265848D01*
X643018Y265875D01*
X643028Y265895D01*
X643036Y265910D01*
X643041Y265920D01*
X643043Y265924D01*
X643073Y265975D01*
X643105Y266022D01*
X643141Y266065D01*
X643177Y266107D01*
X643215Y266145D01*
X643251Y266181D01*
X643289Y266213D01*
X643323Y266241D01*
X643357Y266266D01*
X643389Y266288D01*
X643417Y266307D01*
X643440Y266322D01*
X643461Y266336D01*
X643476Y266343D01*
X643485Y266349D01*
X643489Y266351D01*
X643546Y266377D01*
X643603Y266400D01*
X643661Y266421D01*
X643720Y266438D01*
X643778Y266451D01*
X643835Y266464D01*
X643890Y266474D01*
X643943Y266481D01*
X643992Y266487D01*
X644037Y266493D01*
X644077Y266496D01*
X644111Y266498D01*
X644139D01*
X644151Y266500D01*
X644160D01*
X644168D01*
X644173D01*
X644175D01*
X644177D01*
X644243Y266498D01*
D02*
G37*
G36*
X644788Y263986D02*
X644846Y263979D01*
X644901Y263967D01*
X644952Y263952D01*
X645001Y263935D01*
X645046Y263916D01*
X645088Y263896D01*
X645128Y263873D01*
X645162Y263852D01*
X645192Y263831D01*
X645217Y263812D01*
X645239Y263795D01*
X645256Y263780D01*
X645269Y263769D01*
X645277Y263761D01*
X645279Y263759D01*
X645319Y263714D01*
X645353Y263669D01*
X645381Y263620D01*
X645407Y263569D01*
X645428Y263520D01*
X645445Y263469D01*
X645460Y263419D01*
X645472Y263374D01*
X645481Y263329D01*
X645489Y263289D01*
X645493Y263251D01*
X645496Y263221D01*
X645498Y263194D01*
X645500Y263176D01*
Y263158D01*
X645498Y263090D01*
X645491Y263026D01*
X645479Y262964D01*
X645466Y262907D01*
X645449Y262854D01*
X645430Y262805D01*
X645411Y262760D01*
X645390Y262718D01*
X645370Y262682D01*
X645351Y262650D01*
X645332Y262622D01*
X645315Y262599D01*
X645302Y262580D01*
X645290Y262569D01*
X645283Y262559D01*
X645281Y262558D01*
X645237Y262516D01*
X645194Y262482D01*
X645149Y262450D01*
X645103Y262423D01*
X645056Y262403D01*
X645011Y262384D01*
X644967Y262368D01*
X644925Y262355D01*
X644886Y262346D01*
X644850Y262338D01*
X644818Y262334D01*
X644791Y262331D01*
X644769Y262329D01*
X644752Y262327D01*
X644740D01*
X644736D01*
X644693Y262329D01*
X644651Y262333D01*
X644612Y262338D01*
X644574Y262346D01*
X644540Y262355D01*
X644506Y262367D01*
X644476Y262376D01*
X644447Y262387D01*
X644423Y262401D01*
X644400Y262410D01*
X644379Y262421D01*
X644364Y262431D01*
X644351Y262438D01*
X644342Y262444D01*
X644336Y262448D01*
X644334Y262450D01*
X644304Y262474D01*
X644275Y262499D01*
X644249Y262527D01*
X644224Y262556D01*
X644202Y262586D01*
X644181Y262614D01*
X644164Y262645D01*
X644147Y262671D01*
X644134Y262699D01*
X644120Y262724D01*
X644111Y262745D01*
X644103Y262765D01*
X644096Y262780D01*
X644092Y262794D01*
X644088Y262801D01*
Y262803D01*
X644075Y262769D01*
X644060Y262737D01*
X644043Y262709D01*
X644028Y262680D01*
X644011Y262656D01*
X643994Y262633D01*
X643977Y262612D01*
X643962Y262593D01*
X643947Y262576D01*
X643933Y262563D01*
X643920Y262550D01*
X643909Y262541D01*
X643901Y262533D01*
X643893Y262527D01*
X643890Y262525D01*
X643888Y262524D01*
X643863Y262507D01*
X643837Y262493D01*
X643810Y262480D01*
X643786Y262471D01*
X643733Y262454D01*
X643686Y262442D01*
X643665Y262438D01*
X643644Y262437D01*
X643627Y262433D01*
X643612D01*
X643599Y262431D01*
X643589D01*
X643584D01*
X643582D01*
X643531Y262433D01*
X643483Y262440D01*
X643436Y262450D01*
X643393Y262463D01*
X643351Y262478D01*
X643313Y262495D01*
X643277Y262512D01*
X643245Y262531D01*
X643217Y262550D01*
X643190Y262569D01*
X643168Y262586D01*
X643149Y262601D01*
X643134Y262614D01*
X643124Y262624D01*
X643117Y262631D01*
X643115Y262633D01*
X643081Y262673D01*
X643051Y262713D01*
X643026Y262756D01*
X643003Y262801D01*
X642984Y262845D01*
X642969Y262888D01*
X642956Y262932D01*
X642947Y262973D01*
X642939Y263013D01*
X642932Y263049D01*
X642928Y263081D01*
X642926Y263109D01*
X642924Y263132D01*
X642922Y263149D01*
Y263164D01*
X642924Y263225D01*
X642930Y263281D01*
X642939Y263334D01*
X642952Y263383D01*
X642966Y263431D01*
X642982Y263474D01*
X643000Y263514D01*
X643017Y263550D01*
X643034Y263582D01*
X643051Y263610D01*
X643068Y263633D01*
X643081Y263654D01*
X643094Y263669D01*
X643104Y263680D01*
X643109Y263688D01*
X643111Y263690D01*
X643147Y263724D01*
X643185Y263754D01*
X643223Y263780D01*
X643262Y263803D01*
X643302Y263822D01*
X643340Y263839D01*
X643378Y263850D01*
X643413Y263862D01*
X643446Y263869D01*
X643478Y263875D01*
X643504Y263880D01*
X643529Y263882D01*
X643548Y263884D01*
X643563Y263886D01*
X643570D01*
X643574D01*
X643608Y263884D01*
X643640Y263882D01*
X643701Y263871D01*
X643727Y263865D01*
X643754Y263856D01*
X643778Y263848D01*
X643799Y263839D01*
X643820Y263831D01*
X643837Y263822D01*
X643852Y263814D01*
X643865Y263809D01*
X643875Y263801D01*
X643882Y263797D01*
X643886Y263795D01*
X643888Y263794D01*
X643912Y263775D01*
X643933Y263754D01*
X643975Y263710D01*
X644009Y263663D01*
X644037Y263616D01*
X644049Y263595D01*
X644060Y263574D01*
X644067Y263555D01*
X644075Y263540D01*
X644081Y263527D01*
X644084Y263516D01*
X644088Y263510D01*
Y263508D01*
X644101Y263550D01*
X644115Y263589D01*
X644132Y263627D01*
X644149Y263661D01*
X644168Y263693D01*
X644186Y263722D01*
X644205Y263748D01*
X644224Y263773D01*
X644241Y263794D01*
X644258Y263812D01*
X644275Y263828D01*
X644288Y263841D01*
X644300Y263850D01*
X644307Y263858D01*
X644313Y263862D01*
X644315Y263863D01*
X644347Y263886D01*
X644381Y263905D01*
X644415Y263922D01*
X644449Y263935D01*
X644485Y263948D01*
X644519Y263958D01*
X644551Y263966D01*
X644583Y263973D01*
X644614Y263977D01*
X644640Y263981D01*
X644665Y263984D01*
X644685Y263986D01*
X644702Y263988D01*
X644716D01*
X644723D01*
X644727D01*
X644788Y263986D01*
D02*
G37*
G36*
X645840Y286903D02*
X645870Y286924D01*
X645901Y286947D01*
X645929Y286967D01*
X645955Y286990D01*
X645976Y287007D01*
X645991Y287022D01*
X646003Y287032D01*
X646006Y287035D01*
X646024Y287052D01*
X646044Y287073D01*
X646067Y287098D01*
X646092Y287124D01*
X646144Y287183D01*
X646197Y287243D01*
X646222Y287273D01*
X646246Y287300D01*
X646267Y287326D01*
X646286Y287347D01*
X646301Y287366D01*
X646314Y287381D01*
X646322Y287389D01*
X646324Y287392D01*
X646375Y287453D01*
X646424Y287510D01*
X646469Y287561D01*
X646513Y287608D01*
X646553Y287651D01*
X646589Y287691D01*
X646623Y287725D01*
X646653Y287757D01*
X646679Y287784D01*
X646702Y287808D01*
X646723Y287827D01*
X646738Y287842D01*
X646751Y287856D01*
X646761Y287863D01*
X646766Y287869D01*
X646768Y287871D01*
X646798Y287897D01*
X646829Y287922D01*
X646885Y287963D01*
X646936Y287999D01*
X646961Y288014D01*
X646984Y288028D01*
X647004Y288039D01*
X647021Y288050D01*
X647038Y288058D01*
X647052Y288065D01*
X647061Y288069D01*
X647071Y288073D01*
X647074Y288077D01*
X647076D01*
X647131Y288098D01*
X647186Y288113D01*
X647237Y288124D01*
X647282Y288131D01*
X647303Y288133D01*
X647320Y288135D01*
X647337Y288137D01*
X647350Y288139D01*
X647362D01*
X647369D01*
X647375D01*
X647377D01*
X647432Y288137D01*
X647482Y288130D01*
X647534Y288120D01*
X647581Y288105D01*
X647624Y288090D01*
X647666Y288071D01*
X647704Y288052D01*
X647738Y288033D01*
X647768Y288012D01*
X647796Y287994D01*
X647819Y287975D01*
X647840Y287960D01*
X647855Y287944D01*
X647866Y287935D01*
X647874Y287927D01*
X647876Y287926D01*
X647912Y287884D01*
X647942Y287840D01*
X647970Y287793D01*
X647993Y287746D01*
X648012Y287699D01*
X648029Y287651D01*
X648042Y287604D01*
X648053Y287559D01*
X648061Y287517D01*
X648067Y287478D01*
X648072Y287442D01*
X648074Y287411D01*
X648076Y287385D01*
X648078Y287368D01*
Y287351D01*
X648076Y287285D01*
X648070Y287222D01*
X648061Y287166D01*
X648049Y287111D01*
X648034Y287060D01*
X648019Y287013D01*
X648002Y286969D01*
X647985Y286929D01*
X647966Y286895D01*
X647949Y286865D01*
X647934Y286839D01*
X647921Y286818D01*
X647908Y286801D01*
X647898Y286788D01*
X647893Y286780D01*
X647891Y286778D01*
X647853Y286740D01*
X647813Y286706D01*
X647772Y286676D01*
X647726Y286650D01*
X647683Y286627D01*
X647638Y286606D01*
X647592Y286589D01*
X647549Y286576D01*
X647509Y286563D01*
X647471Y286553D01*
X647437Y286546D01*
X647407Y286540D01*
X647382Y286536D01*
X647364Y286534D01*
X647358D01*
X647352Y286532D01*
X647350D01*
X647348D01*
X647316Y286850D01*
X647360Y286852D01*
X647399Y286856D01*
X647439Y286863D01*
X647473Y286871D01*
X647507Y286880D01*
X647537Y286892D01*
X647566Y286905D01*
X647590Y286918D01*
X647613Y286929D01*
X647632Y286943D01*
X647649Y286954D01*
X647662Y286964D01*
X647673Y286971D01*
X647681Y286979D01*
X647685Y286982D01*
X647687Y286984D01*
X647711Y287011D01*
X647730Y287039D01*
X647749Y287067D01*
X647764Y287098D01*
X647777Y287128D01*
X647789Y287158D01*
X647796Y287188D01*
X647804Y287217D01*
X647810Y287243D01*
X647813Y287268D01*
X647817Y287288D01*
X647819Y287308D01*
X647821Y287325D01*
Y287345D01*
X647819Y287385D01*
X647815Y287421D01*
X647810Y287455D01*
X647802Y287489D01*
X647791Y287519D01*
X647781Y287547D01*
X647770Y287574D01*
X647758Y287597D01*
X647745Y287617D01*
X647734Y287636D01*
X647724Y287651D01*
X647715Y287665D01*
X647706Y287676D01*
X647700Y287684D01*
X647696Y287687D01*
X647694Y287689D01*
X647670Y287712D01*
X647645Y287733D01*
X647619Y287750D01*
X647592Y287767D01*
X647566Y287778D01*
X647539Y287789D01*
X647515Y287799D01*
X647490Y287805D01*
X647469Y287810D01*
X647448Y287814D01*
X647430Y287818D01*
X647413Y287820D01*
X647401Y287822D01*
X647390D01*
X647384D01*
X647382D01*
X647348Y287820D01*
X647316Y287816D01*
X647282Y287808D01*
X647250Y287799D01*
X647188Y287776D01*
X647157Y287763D01*
X647129Y287750D01*
X647105Y287735D01*
X647080Y287721D01*
X647059Y287710D01*
X647042Y287699D01*
X647027Y287689D01*
X647018Y287682D01*
X647010Y287678D01*
X647008Y287676D01*
X646970Y287646D01*
X646929Y287610D01*
X646885Y287570D01*
X646842Y287527D01*
X646797Y287481D01*
X646753Y287436D01*
X646709Y287389D01*
X646668Y287343D01*
X646628Y287298D01*
X646591Y287256D01*
X646558Y287219D01*
X646530Y287185D01*
X646505Y287158D01*
X646496Y287147D01*
X646488Y287137D01*
X646483Y287128D01*
X646477Y287122D01*
X646475Y287120D01*
X646473Y287118D01*
X646434Y287071D01*
X646396Y287026D01*
X646358Y286982D01*
X646322Y286943D01*
X646290Y286907D01*
X646258Y286873D01*
X646230Y286842D01*
X646201Y286816D01*
X646177Y286791D01*
X646156Y286771D01*
X646137Y286754D01*
X646122Y286739D01*
X646108Y286727D01*
X646099Y286720D01*
X646093Y286714D01*
X646092Y286712D01*
X646029Y286663D01*
X645970Y286621D01*
X645914Y286587D01*
X645887Y286572D01*
X645863Y286559D01*
X645840Y286548D01*
X645819Y286536D01*
X645802Y286529D01*
X645785Y286521D01*
X645774Y286517D01*
X645764Y286514D01*
X645759Y286510D01*
X645757D01*
X645719Y286497D01*
X645681Y286487D01*
X645646Y286481D01*
X645611Y286478D01*
X645585Y286476D01*
X645572Y286474D01*
X645562D01*
X645555D01*
X645549D01*
X645545D01*
X645543D01*
Y288143D01*
X645840D01*
Y286903D01*
D02*
G37*
G36*
X646426Y285894D02*
X646367Y285879D01*
X646314Y285862D01*
X646264Y285843D01*
X646216Y285824D01*
X646175Y285801D01*
X646135Y285778D01*
X646099Y285758D01*
X646067Y285735D01*
X646039Y285714D01*
X646014Y285695D01*
X645993Y285676D01*
X645976Y285661D01*
X645963Y285648D01*
X645954Y285639D01*
X645948Y285631D01*
X645946Y285629D01*
X645918Y285591D01*
X645893Y285554D01*
X645872Y285514D01*
X645853Y285474D01*
X645838Y285435D01*
X645825Y285395D01*
X645814Y285357D01*
X645806Y285321D01*
X645798Y285287D01*
X645795Y285255D01*
X645791Y285227D01*
X645787Y285204D01*
Y285183D01*
X645785Y285170D01*
Y285157D01*
X645787Y285113D01*
X645791Y285072D01*
X645797Y285032D01*
X645804Y284992D01*
X645812Y284954D01*
X645823Y284920D01*
X645833Y284886D01*
X645844Y284856D01*
X645855Y284828D01*
X645865Y284803D01*
X645876Y284781D01*
X645884Y284762D01*
X645891Y284748D01*
X645897Y284737D01*
X645901Y284730D01*
X645902Y284728D01*
X645927Y284692D01*
X645952Y284660D01*
X645980Y284627D01*
X646008Y284599D01*
X646039Y284573D01*
X646069Y284550D01*
X646097Y284527D01*
X646127Y284508D01*
X646154Y284491D01*
X646180Y284476D01*
X646203Y284465D01*
X646222Y284454D01*
X646239Y284446D01*
X646250Y284440D01*
X646260Y284438D01*
X646262Y284436D01*
X646307Y284419D01*
X646356Y284406D01*
X646403Y284393D01*
X646453Y284384D01*
X646547Y284367D01*
X646591Y284361D01*
X646634Y284355D01*
X646674Y284351D01*
X646709Y284350D01*
X646743Y284348D01*
X646770Y284346D01*
X646793Y284344D01*
X646810D01*
X646821D01*
X646825D01*
X646917Y284348D01*
X647006Y284355D01*
X647048Y284363D01*
X647087Y284368D01*
X647125Y284376D01*
X647161Y284384D01*
X647193Y284389D01*
X647222Y284397D01*
X647246Y284404D01*
X647269Y284410D01*
X647286Y284414D01*
X647297Y284418D01*
X647307Y284421D01*
X647309D01*
X647352Y284438D01*
X647392Y284455D01*
X647432Y284476D01*
X647467Y284497D01*
X647501Y284520D01*
X647532Y284542D01*
X647560Y284565D01*
X647585Y284588D01*
X647607Y284610D01*
X647628Y284629D01*
X647645Y284648D01*
X647660Y284663D01*
X647670Y284677D01*
X647679Y284688D01*
X647683Y284694D01*
X647685Y284696D01*
X647709Y284733D01*
X647730Y284773D01*
X647749Y284813D01*
X647766Y284854D01*
X647779Y284896D01*
X647791Y284935D01*
X647800Y284975D01*
X647808Y285013D01*
X647813Y285047D01*
X647817Y285079D01*
X647821Y285107D01*
X647823Y285134D01*
X647825Y285153D01*
Y285181D01*
X647823Y285228D01*
X647819Y285272D01*
X647813Y285314D01*
X647806Y285353D01*
X647794Y285391D01*
X647785Y285425D01*
X647774Y285457D01*
X647762Y285486D01*
X647749Y285512D01*
X647738Y285535D01*
X647728Y285555D01*
X647719Y285571D01*
X647709Y285584D01*
X647704Y285593D01*
X647700Y285599D01*
X647698Y285601D01*
X647673Y285631D01*
X647645Y285659D01*
X647615Y285686D01*
X647583Y285710D01*
X647549Y285733D01*
X647517Y285754D01*
X647482Y285773D01*
X647450Y285792D01*
X647420Y285807D01*
X647390Y285820D01*
X647365Y285829D01*
X647343Y285839D01*
X647324Y285846D01*
X647309Y285852D01*
X647301Y285854D01*
X647297Y285856D01*
X647375Y286185D01*
X647439Y286164D01*
X647498Y286139D01*
X647554Y286113D01*
X647607Y286085D01*
X647656Y286056D01*
X647700Y286026D01*
X647742Y285996D01*
X647777Y285965D01*
X647810Y285937D01*
X647838Y285911D01*
X647862Y285886D01*
X647881Y285865D01*
X647896Y285848D01*
X647908Y285835D01*
X647915Y285828D01*
X647917Y285824D01*
X647951Y285775D01*
X647982Y285724D01*
X648006Y285671D01*
X648029Y285616D01*
X648048Y285563D01*
X648063Y285510D01*
X648076Y285459D01*
X648085Y285410D01*
X648093Y285365D01*
X648101Y285321D01*
X648104Y285285D01*
X648106Y285251D01*
X648108Y285225D01*
X648110Y285206D01*
Y285189D01*
X648108Y285126D01*
X648104Y285066D01*
X648097Y285007D01*
X648085Y284952D01*
X648074Y284898D01*
X648061Y284849D01*
X648048Y284801D01*
X648034Y284758D01*
X648019Y284718D01*
X648006Y284682D01*
X647993Y284652D01*
X647982Y284626D01*
X647972Y284605D01*
X647964Y284590D01*
X647959Y284580D01*
X647957Y284576D01*
X647927Y284525D01*
X647895Y284478D01*
X647859Y284435D01*
X647823Y284393D01*
X647785Y284355D01*
X647749Y284319D01*
X647711Y284287D01*
X647677Y284259D01*
X647643Y284234D01*
X647611Y284212D01*
X647583Y284193D01*
X647560Y284178D01*
X647539Y284164D01*
X647524Y284157D01*
X647515Y284151D01*
X647511Y284149D01*
X647454Y284123D01*
X647398Y284100D01*
X647339Y284079D01*
X647280Y284062D01*
X647222Y284049D01*
X647165Y284036D01*
X647110Y284026D01*
X647057Y284019D01*
X647008Y284013D01*
X646963Y284008D01*
X646923Y284004D01*
X646889Y284002D01*
X646861D01*
X646849Y284000D01*
X646840D01*
X646832D01*
X646827D01*
X646825D01*
X646823D01*
X646757Y284002D01*
X646691Y284006D01*
X646626Y284011D01*
X646566Y284021D01*
X646505Y284030D01*
X646451Y284042D01*
X646398Y284055D01*
X646348Y284066D01*
X646305Y284079D01*
X646265Y284091D01*
X646231Y284102D01*
X646201Y284111D01*
X646178Y284121D01*
X646161Y284127D01*
X646150Y284130D01*
X646146Y284132D01*
X646090Y284159D01*
X646035Y284187D01*
X645984Y284217D01*
X645938Y284249D01*
X645895Y284282D01*
X645855Y284314D01*
X645819Y284346D01*
X645787Y284378D01*
X645759Y284406D01*
X645734Y284435D01*
X645714Y284459D01*
X645695Y284480D01*
X645681Y284497D01*
X645672Y284510D01*
X645666Y284518D01*
X645664Y284522D01*
X645636Y284571D01*
X645610Y284624D01*
X645589Y284677D01*
X645570Y284733D01*
X645553Y284788D01*
X645540Y284843D01*
X645530Y284896D01*
X645521Y284949D01*
X645513Y284996D01*
X645509Y285041D01*
X645506Y285081D01*
X645502Y285115D01*
Y285143D01*
X645500Y285155D01*
Y285183D01*
X645502Y285255D01*
X645509Y285325D01*
X645521Y285391D01*
X645534Y285453D01*
X645549Y285514D01*
X645568Y285569D01*
X645587Y285618D01*
X645608Y285665D01*
X645628Y285707D01*
X645647Y285742D01*
X645666Y285775D01*
X645681Y285801D01*
X645696Y285822D01*
X645706Y285837D01*
X645714Y285846D01*
X645715Y285850D01*
X645759Y285899D01*
X645804Y285945D01*
X645853Y285986D01*
X645904Y286024D01*
X645957Y286058D01*
X646008Y286090D01*
X646059Y286117D01*
X646110Y286141D01*
X646158Y286162D01*
X646201Y286181D01*
X646241Y286196D01*
X646275Y286208D01*
X646303Y286217D01*
X646314Y286221D01*
X646324Y286223D01*
X646333Y286226D01*
X646339D01*
X646341Y286228D01*
X646343D01*
X646426Y285894D01*
D02*
G37*
%LPC*%
G36*
X643582Y263569D02*
X643572D01*
X643567D01*
X643565D01*
X643536Y263567D01*
X643508Y263563D01*
X643480Y263557D01*
X643455Y263550D01*
X643408Y263533D01*
X643368Y263510D01*
X643351Y263501D01*
X643336Y263489D01*
X643323Y263480D01*
X643313Y263470D01*
X643304Y263465D01*
X643298Y263459D01*
X643294Y263455D01*
X643293Y263453D01*
X643272Y263431D01*
X643255Y263408D01*
X643240Y263383D01*
X643226Y263359D01*
X643215Y263334D01*
X643206Y263310D01*
X643192Y263263D01*
X643187Y263242D01*
X643183Y263221D01*
X643181Y263204D01*
X643179Y263189D01*
X643177Y263176D01*
Y263158D01*
X643179Y263126D01*
X643183Y263096D01*
X643189Y263066D01*
X643196Y263039D01*
X643215Y262988D01*
X643224Y262966D01*
X643236Y262947D01*
X643247Y262928D01*
X643257Y262911D01*
X643268Y262898D01*
X643275Y262886D01*
X643283Y262877D01*
X643289Y262871D01*
X643293Y262867D01*
X643294Y262866D01*
X643317Y262845D01*
X643340Y262828D01*
X643364Y262811D01*
X643387Y262797D01*
X643412Y262786D01*
X643436Y262777D01*
X643481Y262764D01*
X643502Y262758D01*
X643521Y262754D01*
X643538Y262752D01*
X643553Y262750D01*
X643565Y262748D01*
X643574D01*
X643580D01*
X643582D01*
X643612Y262750D01*
X643640Y262754D01*
X643667Y262760D01*
X643693Y262765D01*
X643740Y262784D01*
X643761Y262796D01*
X643780Y262805D01*
X643797Y262816D01*
X643812Y262828D01*
X643825Y262837D01*
X643837Y262845D01*
X643846Y262852D01*
X643852Y262858D01*
X643856Y262862D01*
X643858Y262864D01*
X643877Y262886D01*
X643893Y262909D01*
X643909Y262934D01*
X643922Y262956D01*
X643933Y262983D01*
X643943Y263005D01*
X643956Y263053D01*
X643960Y263073D01*
X643963Y263094D01*
X643965Y263111D01*
X643967Y263126D01*
X643969Y263140D01*
Y263157D01*
X643967Y263191D01*
X643963Y263223D01*
X643958Y263253D01*
X643952Y263281D01*
X643943Y263308D01*
X643933Y263332D01*
X643924Y263355D01*
X643912Y263374D01*
X643901Y263393D01*
X643892Y263410D01*
X643882Y263423D01*
X643873Y263435D01*
X643867Y263444D01*
X643861Y263450D01*
X643858Y263453D01*
X643856Y263455D01*
X643833Y263476D01*
X643810Y263493D01*
X643786Y263508D01*
X643763Y263521D01*
X643739Y263531D01*
X643714Y263540D01*
X643667Y263554D01*
X643646Y263559D01*
X643627Y263563D01*
X643610Y263565D01*
X643595Y263567D01*
X643582Y263569D01*
D02*
G37*
G36*
X644742Y263671D02*
X644735D01*
X644731D01*
X644729D01*
X644689Y263669D01*
X644651Y263665D01*
X644616Y263657D01*
X644582Y263648D01*
X644549Y263639D01*
X644519Y263625D01*
X644493Y263612D01*
X644468Y263599D01*
X644445Y263586D01*
X644425Y263574D01*
X644408Y263561D01*
X644394Y263552D01*
X644383Y263542D01*
X644374Y263535D01*
X644370Y263531D01*
X644368Y263529D01*
X644342Y263501D01*
X644321Y263472D01*
X644300Y263442D01*
X644283Y263412D01*
X644270Y263382D01*
X644258Y263351D01*
X644249Y263321D01*
X644241Y263293D01*
X644234Y263268D01*
X644230Y263244D01*
X644226Y263221D01*
X644224Y263202D01*
X644222Y263187D01*
Y263166D01*
X644224Y263124D01*
X644228Y263085D01*
X644236Y263049D01*
X644245Y263013D01*
X644256Y262981D01*
X644270Y262949D01*
X644283Y262920D01*
X644296Y262896D01*
X644309Y262873D01*
X644323Y262852D01*
X644336Y262835D01*
X644347Y262820D01*
X644357Y262809D01*
X644364Y262801D01*
X644368Y262796D01*
X644370Y262794D01*
X644398Y262767D01*
X644426Y262745D01*
X644459Y262724D01*
X644489Y262707D01*
X644521Y262694D01*
X644551Y262680D01*
X644582Y262671D01*
X644610Y262663D01*
X644636Y262658D01*
X644661Y262652D01*
X644684Y262648D01*
X644702Y262646D01*
X644718Y262645D01*
X644731D01*
X644738D01*
X644740D01*
X644780Y262646D01*
X644820Y262650D01*
X644855Y262658D01*
X644890Y262667D01*
X644922Y262679D01*
X644952Y262690D01*
X644978Y262703D01*
X645003Y262716D01*
X645026Y262731D01*
X645046Y262745D01*
X645063Y262756D01*
X645077Y262767D01*
X645088Y262777D01*
X645096Y262784D01*
X645101Y262788D01*
X645103Y262790D01*
X645128Y262818D01*
X645150Y262847D01*
X645169Y262877D01*
X645184Y262907D01*
X645199Y262939D01*
X645211Y262969D01*
X645220Y262998D01*
X645228Y263026D01*
X645233Y263055D01*
X645237Y263079D01*
X645241Y263100D01*
X645243Y263119D01*
Y263136D01*
X645245Y263147D01*
Y263157D01*
X645241Y263210D01*
X645233Y263259D01*
X645224Y263304D01*
X645211Y263344D01*
X645205Y263361D01*
X645199Y263376D01*
X645194Y263389D01*
X645188Y263401D01*
X645184Y263410D01*
X645181Y263418D01*
X645179Y263421D01*
Y263423D01*
X645150Y263467D01*
X645120Y263504D01*
X645088Y263537D01*
X645056Y263563D01*
X645029Y263584D01*
X645007Y263599D01*
X644997Y263603D01*
X644992Y263607D01*
X644988Y263610D01*
X644986D01*
X644939Y263631D01*
X644893Y263644D01*
X644850Y263656D01*
X644810Y263663D01*
X644778Y263667D01*
X644763Y263669D01*
X644752D01*
X644742Y263671D01*
D02*
G37*
%LPD*%
D11*
X641563Y258626D02*
Y274374D01*
Y258626D02*
X649437D01*
Y274374D01*
X641563D02*
X649437D01*
Y276126D02*
Y291874D01*
X641563D02*
X649437D01*
X641563Y276126D02*
Y291874D01*
Y276126D02*
X649437D01*
M02*
