G04*
G04 #@! TF.GenerationSoftware,Altium Limited,Altium Designer,25.5.2 (35)*
G04*
G04 Layer_Color=255*
%FSLAX25Y25*%
%MOIN*%
G70*
G04*
G04 #@! TF.SameCoordinates,CCCDE38D-7695-4EB3-ABC8-F25FB468ABE4*
G04*
G04*
G04 #@! TF.FilePolarity,Positive*
G04*
G01*
G75*
%ADD24R,0.03394X0.02894*%
%ADD25R,0.04429X0.01968*%
%ADD26R,0.03772X0.03788*%
%ADD27R,0.03740X0.06693*%
%ADD28R,0.03150X0.03740*%
%ADD29R,0.06922X0.04551*%
%ADD30R,0.04469X0.04182*%
%ADD31R,0.03379X0.03371*%
%ADD32O,0.00984X0.05512*%
%ADD33R,0.11614X0.06929*%
%ADD34R,0.02953X0.03937*%
%ADD35R,0.03740X0.04134*%
%ADD36R,0.02953X0.03543*%
%ADD37R,0.03543X0.03150*%
%ADD38R,0.02593X0.03197*%
%ADD39R,0.03150X0.03937*%
%ADD40R,0.02559X0.03543*%
%ADD41R,0.04016X0.11102*%
%ADD42R,0.04331X0.13386*%
%ADD43R,0.09843X0.05984*%
%ADD44R,0.06102X0.02756*%
%ADD45R,0.03543X0.02559*%
%ADD46R,0.06496X0.04331*%
%ADD47R,0.18110X0.04724*%
%ADD48R,0.37008X0.42520*%
%ADD49R,0.06693X0.09252*%
%ADD50R,0.05787X0.04016*%
%ADD51O,0.05512X0.01378*%
%ADD52R,0.09449X0.24291*%
%ADD53R,0.02362X0.00945*%
%ADD54R,0.00945X0.02362*%
%ADD55R,0.00984X0.00984*%
%ADD56R,0.08268X0.08268*%
%ADD57R,0.11811X0.05906*%
%ADD58R,0.03543X0.05906*%
%ADD59R,0.03591X0.03381*%
%ADD60R,0.03543X0.03150*%
%ADD61R,0.02756X0.02756*%
%ADD62R,0.03937X0.02953*%
%ADD63R,0.03175X0.03418*%
%ADD64R,0.03563X0.03568*%
%ADD65R,0.05906X0.03543*%
%ADD66R,0.03985X0.04758*%
%ADD67R,0.05906X0.07874*%
%ADD68R,0.14961X0.07874*%
%ADD69R,0.07874X0.07874*%
%ADD70R,0.03150X0.03150*%
%ADD71R,0.06693X0.03740*%
G04:AMPARAMS|DCode=72|XSize=29.92mil|YSize=26mil|CornerRadius=3.25mil|HoleSize=0mil|Usage=FLASHONLY|Rotation=0.000|XOffset=0mil|YOffset=0mil|HoleType=Round|Shape=RoundedRectangle|*
%AMROUNDEDRECTD72*
21,1,0.02992,0.01950,0,0,0.0*
21,1,0.02342,0.02600,0,0,0.0*
1,1,0.00650,0.01171,-0.00975*
1,1,0.00650,-0.01171,-0.00975*
1,1,0.00650,-0.01171,0.00975*
1,1,0.00650,0.01171,0.00975*
%
%ADD72ROUNDEDRECTD72*%
%ADD73R,0.03347X0.02953*%
%ADD74R,0.03418X0.03175*%
%ADD75R,0.03150X0.06693*%
%ADD76R,0.03543X0.03543*%
%ADD77R,0.11024X0.05512*%
%ADD78R,0.03543X0.03937*%
%ADD79R,0.03543X0.02953*%
%ADD80R,0.13024X0.05334*%
%ADD81R,0.41535X0.29528*%
%ADD82R,0.04331X0.12402*%
%ADD83R,0.03381X0.03591*%
%ADD84R,0.07480X0.11811*%
%ADD85R,0.12992X0.09646*%
%ADD86R,0.11811X0.07480*%
%ADD87R,0.03150X0.03543*%
G04:AMPARAMS|DCode=88|XSize=29.92mil|YSize=26mil|CornerRadius=3.25mil|HoleSize=0mil|Usage=FLASHONLY|Rotation=90.000|XOffset=0mil|YOffset=0mil|HoleType=Round|Shape=RoundedRectangle|*
%AMROUNDEDRECTD88*
21,1,0.02992,0.01950,0,0,90.0*
21,1,0.02342,0.02600,0,0,90.0*
1,1,0.00650,0.00975,0.01171*
1,1,0.00650,0.00975,-0.01171*
1,1,0.00650,-0.00975,-0.01171*
1,1,0.00650,-0.00975,0.01171*
%
%ADD88ROUNDEDRECTD88*%
%ADD89R,0.07480X0.05118*%
%ADD90R,0.08071X0.08858*%
%ADD91R,0.41299X0.32992*%
%ADD92R,0.04000X0.13795*%
%ADD103C,0.02790*%
%ADD110C,0.28347*%
%ADD139R,0.09843X0.03150*%
%ADD144R,0.09843X0.09843*%
%ADD145C,0.09843*%
%ADD154R,0.06102X0.06102*%
%ADD155R,0.05118X0.05118*%
%ADD158C,0.06102*%
%ADD162C,0.05118*%
%ADD166C,0.02953*%
%ADD189C,0.05906*%
%ADD190R,0.05906X0.05906*%
%ADD191R,0.04724X0.04724*%
%ADD192C,0.04724*%
%ADD193C,0.07677*%
%ADD194R,0.07677X0.07677*%
%ADD195C,0.10217*%
%ADD196C,0.05374*%
G04:AMPARAMS|DCode=197|XSize=62.99mil|YSize=62.99mil|CornerRadius=15.75mil|HoleSize=0mil|Usage=FLASHONLY|Rotation=90.000|XOffset=0mil|YOffset=0mil|HoleType=Round|Shape=RoundedRectangle|*
%AMROUNDEDRECTD197*
21,1,0.06299,0.03150,0,0,90.0*
21,1,0.03150,0.06299,0,0,90.0*
1,1,0.03150,0.01575,0.01575*
1,1,0.03150,0.01575,-0.01575*
1,1,0.03150,-0.01575,-0.01575*
1,1,0.03150,-0.01575,0.01575*
%
%ADD197ROUNDEDRECTD197*%
%ADD198C,0.10646*%
%ADD199C,0.04528*%
%ADD200C,0.06299*%
%ADD201C,0.19685*%
%ADD202C,0.09567*%
%ADD203R,0.09567X0.09567*%
%ADD204R,0.05374X0.05374*%
%ADD205C,0.01968*%
%ADD206C,0.06496*%
%ADD207R,0.06496X0.06496*%
%ADD208R,0.04528X0.04528*%
D24*
X631500Y205077D02*
D03*
Y209923D02*
D03*
D25*
X250575Y278500D02*
D03*
X241425D02*
D03*
X146575Y304500D02*
D03*
X137425D02*
D03*
D26*
X262862Y278500D02*
D03*
X257138D02*
D03*
D27*
X268988D02*
D03*
X280012D02*
D03*
X662988Y253500D02*
D03*
X696512Y253000D02*
D03*
X674012Y253500D02*
D03*
X685488Y253000D02*
D03*
D28*
X262858Y267000D02*
D03*
X257937D02*
D03*
X244657Y210500D02*
D03*
X239342D02*
D03*
D29*
X280000Y270114D02*
D03*
Y258886D02*
D03*
D30*
X270263Y259500D02*
D03*
X263843D02*
D03*
D31*
X257500Y251366D02*
D03*
Y246634D02*
D03*
D32*
X259906Y233500D02*
D03*
X254000Y217358D02*
D03*
X255968D02*
D03*
X257937D02*
D03*
X259906D02*
D03*
X261874D02*
D03*
X263843D02*
D03*
X265811D02*
D03*
X267779D02*
D03*
X255968Y233500D02*
D03*
X257937D02*
D03*
X261874D02*
D03*
X263843D02*
D03*
X265811D02*
D03*
X267779D02*
D03*
X254000D02*
D03*
D33*
X260890Y225429D02*
D03*
D34*
X279047Y247000D02*
D03*
X284953D02*
D03*
Y233500D02*
D03*
X279047D02*
D03*
D35*
X279146Y241500D02*
D03*
X284854D02*
D03*
X592354Y256500D02*
D03*
X586646D02*
D03*
X578854D02*
D03*
X573146D02*
D03*
D36*
X270138Y198000D02*
D03*
X274862D02*
D03*
X263362D02*
D03*
X258638D02*
D03*
X263362Y192000D02*
D03*
X258638D02*
D03*
X650854Y247500D02*
D03*
Y241500D02*
D03*
Y235500D02*
D03*
X635638Y237000D02*
D03*
X646130Y235500D02*
D03*
Y247500D02*
D03*
Y241500D02*
D03*
X640362Y237000D02*
D03*
D37*
X254346Y205000D02*
D03*
X247654D02*
D03*
X670000Y366461D02*
D03*
X627500Y234539D02*
D03*
X622500D02*
D03*
X617500Y225039D02*
D03*
X627500Y239461D02*
D03*
X622500D02*
D03*
X617500Y229961D02*
D03*
X614153Y288000D02*
D03*
X620847D02*
D03*
X670000Y361539D02*
D03*
D38*
X254664Y210500D02*
D03*
X249336D02*
D03*
D39*
X241453Y205000D02*
D03*
X235547D02*
D03*
D40*
X415146Y163000D02*
D03*
X420854D02*
D03*
X354354Y190000D02*
D03*
X348646D02*
D03*
X416646Y233000D02*
D03*
X422354D02*
D03*
X372854Y130000D02*
D03*
X367146D02*
D03*
D41*
X358209Y177000D02*
D03*
X346791D02*
D03*
D42*
X130508Y291000D02*
D03*
X106492D02*
D03*
Y307500D02*
D03*
X130508D02*
D03*
D43*
X230697Y363705D02*
D03*
Y348902D02*
D03*
Y334098D02*
D03*
Y319295D02*
D03*
X350303Y348902D02*
D03*
Y363705D02*
D03*
Y378508D02*
D03*
X230697Y304492D02*
D03*
X350303D02*
D03*
Y319295D02*
D03*
Y334098D02*
D03*
X230697Y378508D02*
D03*
D44*
X381772Y165500D02*
D03*
X403228Y175500D02*
D03*
Y180500D02*
D03*
Y195500D02*
D03*
X381772Y170500D02*
D03*
X403228Y190500D02*
D03*
Y185500D02*
D03*
Y170500D02*
D03*
Y165500D02*
D03*
X381772Y175500D02*
D03*
Y180500D02*
D03*
Y185500D02*
D03*
Y190500D02*
D03*
Y195500D02*
D03*
D45*
X118000Y337146D02*
D03*
Y342854D02*
D03*
D46*
X107000Y361610D02*
D03*
Y350390D02*
D03*
D47*
X133886Y343000D02*
D03*
Y363000D02*
D03*
D48*
X169909Y353000D02*
D03*
D49*
X213500Y326571D02*
D03*
Y343500D02*
D03*
D50*
X416000Y179650D02*
D03*
Y173350D02*
D03*
X372000Y193350D02*
D03*
Y199650D02*
D03*
D51*
X615000Y266323D02*
D03*
Y276559D02*
D03*
Y274000D02*
D03*
Y261205D02*
D03*
Y258646D02*
D03*
Y256087D02*
D03*
Y253528D02*
D03*
Y250969D02*
D03*
X637047Y276559D02*
D03*
Y274000D02*
D03*
Y268882D02*
D03*
Y266323D02*
D03*
Y263764D02*
D03*
Y261205D02*
D03*
Y256087D02*
D03*
Y253528D02*
D03*
X615000Y281677D02*
D03*
Y279118D02*
D03*
X637047Y281677D02*
D03*
Y279118D02*
D03*
Y250969D02*
D03*
Y248410D02*
D03*
X615000D02*
D03*
X637047Y258646D02*
D03*
Y271441D02*
D03*
X615000Y263764D02*
D03*
Y271441D02*
D03*
Y268882D02*
D03*
D52*
X626024Y265043D02*
D03*
D53*
X576020Y223579D02*
D03*
Y227516D02*
D03*
Y229484D02*
D03*
Y231453D02*
D03*
Y233421D02*
D03*
X590980Y231453D02*
D03*
X576020Y225547D02*
D03*
X590980Y233421D02*
D03*
Y227516D02*
D03*
Y229484D02*
D03*
Y225547D02*
D03*
Y223579D02*
D03*
D54*
X586453Y221020D02*
D03*
X582516D02*
D03*
X580547D02*
D03*
X578579D02*
D03*
X588421D02*
D03*
X580547Y235980D02*
D03*
X578579D02*
D03*
X586453D02*
D03*
X582516D02*
D03*
X584484D02*
D03*
X588421D02*
D03*
X584484Y221020D02*
D03*
D55*
X576709Y235291D02*
D03*
X590291D02*
D03*
X576709Y221709D02*
D03*
X590291D02*
D03*
D56*
X583500Y228500D02*
D03*
D57*
X587500Y196000D02*
D03*
X572250D02*
D03*
X557000D02*
D03*
X624000Y366500D02*
D03*
X377000Y388500D02*
D03*
X609000Y366500D02*
D03*
D58*
X575949Y180921D02*
D03*
X570949D02*
D03*
X565949D02*
D03*
X555949D02*
D03*
X560949D02*
D03*
X580949D02*
D03*
X585949D02*
D03*
X590949D02*
D03*
X595949D02*
D03*
X600949D02*
D03*
X605949D02*
D03*
X610949D02*
D03*
D59*
X573500Y244442D02*
D03*
X580000D02*
D03*
X593000D02*
D03*
X586500D02*
D03*
X593000Y250558D02*
D03*
X586500D02*
D03*
X580000D02*
D03*
X573500D02*
D03*
D60*
X567000Y241453D02*
D03*
X559000Y225047D02*
D03*
X610000Y215453D02*
D03*
X591000D02*
D03*
X610000Y209547D02*
D03*
X591000D02*
D03*
X567000Y235547D02*
D03*
X559000Y230953D02*
D03*
D61*
X567000Y224744D02*
D03*
X603500Y216043D02*
D03*
X597500D02*
D03*
X603500Y210531D02*
D03*
X597500D02*
D03*
X567000Y230256D02*
D03*
D62*
X638000Y222453D02*
D03*
X645500D02*
D03*
X653500Y210453D02*
D03*
Y204547D02*
D03*
X645500Y216547D02*
D03*
X638000D02*
D03*
D63*
X626536Y222000D02*
D03*
X631464D02*
D03*
D64*
X631364Y216000D02*
D03*
X626636D02*
D03*
D65*
X617898Y116000D02*
D03*
Y111000D02*
D03*
X549000D02*
D03*
Y116000D02*
D03*
Y121000D02*
D03*
Y126000D02*
D03*
Y131000D02*
D03*
Y136000D02*
D03*
Y141000D02*
D03*
Y146000D02*
D03*
Y151000D02*
D03*
Y156000D02*
D03*
Y161000D02*
D03*
Y166000D02*
D03*
Y171000D02*
D03*
Y176000D02*
D03*
X617898D02*
D03*
Y171000D02*
D03*
Y166000D02*
D03*
Y161000D02*
D03*
Y156000D02*
D03*
Y141000D02*
D03*
Y136000D02*
D03*
Y131000D02*
D03*
Y126000D02*
D03*
Y121000D02*
D03*
Y146000D02*
D03*
Y151000D02*
D03*
D66*
X690000Y365343D02*
D03*
Y371657D02*
D03*
D67*
X688055Y353402D02*
D03*
X679000D02*
D03*
X669945D02*
D03*
D68*
X679000Y328598D02*
D03*
D69*
X659500Y368874D02*
D03*
Y353126D02*
D03*
D70*
X653500Y221953D02*
D03*
X645500Y205435D02*
D03*
X638000D02*
D03*
X645500Y211340D02*
D03*
X638000D02*
D03*
X653500Y216047D02*
D03*
D71*
X662000Y204512D02*
D03*
Y169488D02*
D03*
X690000Y305012D02*
D03*
Y293988D02*
D03*
X674500D02*
D03*
Y305012D02*
D03*
X662000Y180512D02*
D03*
Y193488D02*
D03*
D72*
X625000Y210256D02*
D03*
Y204744D02*
D03*
X619500Y196256D02*
D03*
Y190744D02*
D03*
D73*
X612500Y224941D02*
D03*
X617500Y239559D02*
D03*
Y234441D02*
D03*
X612500Y230059D02*
D03*
D74*
X619500Y206464D02*
D03*
Y201536D02*
D03*
D75*
X600307Y194500D02*
D03*
X613693D02*
D03*
D76*
X594866Y146906D02*
D03*
Y141394D02*
D03*
Y135882D02*
D03*
X589354Y146906D02*
D03*
X583843D02*
D03*
X589354Y141394D02*
D03*
Y135882D02*
D03*
X583843Y141394D02*
D03*
Y135882D02*
D03*
D77*
X593000Y361382D02*
D03*
Y371618D02*
D03*
D78*
X582650Y361000D02*
D03*
X553850Y373500D02*
D03*
X560150D02*
D03*
X576350Y361000D02*
D03*
D79*
X547000Y234362D02*
D03*
X530000D02*
D03*
Y229638D02*
D03*
X547000D02*
D03*
D80*
X243000Y234482D02*
D03*
Y257518D02*
D03*
X228000Y234482D02*
D03*
Y257518D02*
D03*
D81*
X550000Y320555D02*
D03*
D82*
X540000Y361106D02*
D03*
X550000D02*
D03*
X560000D02*
D03*
D83*
X614663Y294000D02*
D03*
X620779D02*
D03*
D84*
X651886Y193408D02*
D03*
X630626D02*
D03*
X651886Y177908D02*
D03*
X630626D02*
D03*
D85*
X691000Y163449D02*
D03*
Y144551D02*
D03*
X675000Y163449D02*
D03*
Y144551D02*
D03*
D86*
X690000Y263870D02*
D03*
Y285130D02*
D03*
X674500Y263870D02*
D03*
Y285130D02*
D03*
D87*
X602039Y271500D02*
D03*
X606961D02*
D03*
X602039Y277500D02*
D03*
X606961D02*
D03*
X601539Y257500D02*
D03*
X606461D02*
D03*
X601539Y252500D02*
D03*
X606461D02*
D03*
D88*
X557756Y219500D02*
D03*
X552244D02*
D03*
X557756Y214500D02*
D03*
X552244D02*
D03*
X541256Y229500D02*
D03*
X535744D02*
D03*
D89*
X532701Y219827D02*
D03*
Y198173D02*
D03*
X545299D02*
D03*
Y219827D02*
D03*
D90*
X213500Y377929D02*
D03*
Y361000D02*
D03*
D91*
X471500Y362854D02*
D03*
D92*
X481500Y322500D02*
D03*
X461500D02*
D03*
D103*
X436086Y129940D02*
D03*
X346414Y163060D02*
D03*
X436086Y199940D02*
D03*
X346414Y233060D02*
D03*
D110*
X465933Y146500D02*
D03*
Y216500D02*
D03*
X316567D02*
D03*
Y146500D02*
D03*
D139*
X434240Y158311D02*
D03*
Y163035D02*
D03*
Y228311D02*
D03*
Y233035D02*
D03*
X348260Y134689D02*
D03*
Y129965D02*
D03*
Y204689D02*
D03*
Y199965D02*
D03*
D144*
X114779Y224890D02*
D03*
D145*
Y243000D02*
D03*
D154*
X399736Y363500D02*
D03*
Y288000D02*
D03*
D155*
X580000Y279110D02*
D03*
X543500D02*
D03*
D158*
X429264Y288000D02*
D03*
Y363500D02*
D03*
D162*
X236681Y131181D02*
D03*
X543500Y292890D02*
D03*
X580000D02*
D03*
X185500Y131181D02*
D03*
Y162677D02*
D03*
X236681D02*
D03*
D166*
X607000Y194500D02*
D03*
D189*
X261000Y180000D02*
D03*
X134500Y136256D02*
D03*
Y183500D02*
D03*
D190*
X261000Y120945D02*
D03*
D191*
X160815Y303500D02*
D03*
D192*
X180500D02*
D03*
D193*
X197000Y233000D02*
D03*
D194*
X157630D02*
D03*
D195*
X154500Y176610D02*
D03*
Y143146D02*
D03*
D196*
X617913Y388000D02*
D03*
X604087D02*
D03*
D197*
X533500Y111500D02*
D03*
Y176000D02*
D03*
D198*
X651405Y138142D02*
D03*
X656327Y159008D02*
D03*
X634673D02*
D03*
D199*
X583500Y336500D02*
D03*
D200*
X533500Y166000D02*
D03*
Y141500D02*
D03*
Y131500D02*
D03*
Y121500D02*
D03*
D201*
X117000Y382500D02*
D03*
X681500Y117000D02*
D03*
D202*
X635000Y305500D02*
D03*
D203*
X615000D02*
D03*
D204*
X532000Y388000D02*
D03*
X690000D02*
D03*
D205*
X645500Y151528D02*
D03*
Y122000D02*
D03*
D206*
X680000Y239000D02*
D03*
Y192780D02*
D03*
D207*
Y225220D02*
D03*
Y179000D02*
D03*
D208*
X583500Y344374D02*
D03*
M02*
