G04*
G04 #@! TF.GenerationSoftware,Altium Limited,Altium Designer,25.5.2 (35)*
G04*
G04 Layer_Color=8388736*
%FSLAX25Y25*%
%MOIN*%
G70*
G04*
G04 #@! TF.SameCoordinates,0CD17ABA-5868-42C4-872B-F719D901D850*
G04*
G04*
G04 #@! TF.FilePolarity,Negative*
G04*
G01*
G75*
%ADD24R,0.03394X0.02894*%
%ADD26R,0.03772X0.03788*%
%ADD27R,0.03740X0.06693*%
%ADD29R,0.06922X0.04551*%
%ADD30R,0.04469X0.04182*%
%ADD31R,0.03379X0.03371*%
%ADD34R,0.02953X0.03937*%
%ADD36R,0.02953X0.03543*%
%ADD37R,0.03543X0.03150*%
%ADD38R,0.02593X0.03197*%
%ADD40R,0.02559X0.03543*%
%ADD59R,0.03591X0.03381*%
%ADD60R,0.03543X0.03150*%
%ADD61R,0.02756X0.02756*%
%ADD62R,0.03937X0.02953*%
%ADD63R,0.03175X0.03418*%
%ADD64R,0.03563X0.03568*%
%ADD66R,0.03985X0.04758*%
%ADD70R,0.03150X0.03150*%
%ADD71R,0.06693X0.03740*%
%ADD74R,0.03418X0.03175*%
%ADD75R,0.03150X0.06693*%
%ADD77R,0.11024X0.05512*%
%ADD79R,0.03543X0.02953*%
%ADD80R,0.13024X0.05334*%
%ADD83R,0.03381X0.03591*%
%ADD89R,0.07480X0.05118*%
%ADD93R,0.05229X0.02769*%
%ADD94R,0.03950X0.04540*%
%ADD95O,0.01784X0.06312*%
%ADD96R,0.12414X0.07729*%
%ADD97R,0.04540X0.04934*%
%ADD98R,0.03950X0.04737*%
%ADD99R,0.04816X0.11902*%
%ADD100R,0.05131X0.14186*%
%ADD101R,0.10642X0.06784*%
%ADD102R,0.06902X0.03556*%
%ADD103C,0.02790*%
%ADD104R,0.04343X0.03359*%
%ADD105R,0.07296X0.05131*%
%ADD106R,0.18910X0.05524*%
%ADD107R,0.37808X0.43320*%
%ADD108R,0.07493X0.10052*%
%ADD109R,0.06587X0.04816*%
%ADD110C,0.28347*%
%ADD111O,0.06312X0.02178*%
%ADD112R,0.10249X0.25091*%
%ADD113R,0.03162X0.01745*%
%ADD114R,0.01745X0.03162*%
%ADD115R,0.01784X0.01784*%
%ADD116R,0.09068X0.09068*%
%ADD117R,0.12611X0.06706*%
%ADD118R,0.04343X0.06706*%
%ADD119R,0.06706X0.04343*%
%ADD120R,0.04343X0.03950*%
%ADD121R,0.06706X0.08674*%
%ADD122R,0.15761X0.08674*%
%ADD123R,0.08674X0.08674*%
%ADD124R,0.03950X0.03950*%
G04:AMPARAMS|DCode=125|XSize=37.92mil|YSize=34mil|CornerRadius=7.25mil|HoleSize=0mil|Usage=FLASHONLY|Rotation=0.000|XOffset=0mil|YOffset=0mil|HoleType=Round|Shape=RoundedRectangle|*
%AMROUNDEDRECTD125*
21,1,0.03792,0.01950,0,0,0.0*
21,1,0.02342,0.03400,0,0,0.0*
1,1,0.01450,0.01171,-0.00975*
1,1,0.01450,-0.01171,-0.00975*
1,1,0.01450,-0.01171,0.00975*
1,1,0.01450,0.01171,0.00975*
%
%ADD125ROUNDEDRECTD125*%
%ADD126R,0.04147X0.03753*%
%ADD127R,0.04343X0.04343*%
%ADD128R,0.04343X0.04737*%
%ADD129R,0.42335X0.30328*%
%ADD130R,0.05131X0.13202*%
%ADD131R,0.08280X0.12611*%
%ADD132R,0.13792X0.10446*%
%ADD133R,0.12611X0.08280*%
%ADD134R,0.03950X0.04343*%
G04:AMPARAMS|DCode=135|XSize=37.92mil|YSize=34mil|CornerRadius=7.25mil|HoleSize=0mil|Usage=FLASHONLY|Rotation=90.000|XOffset=0mil|YOffset=0mil|HoleType=Round|Shape=RoundedRectangle|*
%AMROUNDEDRECTD135*
21,1,0.03792,0.01950,0,0,90.0*
21,1,0.02342,0.03400,0,0,90.0*
1,1,0.01450,0.00975,0.01171*
1,1,0.01450,0.00975,-0.01171*
1,1,0.01450,-0.00975,-0.01171*
1,1,0.01450,-0.00975,0.01171*
%
%ADD135ROUNDEDRECTD135*%
%ADD136R,0.08871X0.09658*%
%ADD137R,0.42099X0.33792*%
%ADD138R,0.04800X0.14595*%
%ADD139R,0.09843X0.03150*%
%ADD140C,0.06706*%
%ADD141R,0.06706X0.06706*%
%ADD142R,0.05524X0.05524*%
%ADD143C,0.05524*%
%ADD144R,0.09843X0.09843*%
%ADD145C,0.09843*%
%ADD146C,0.08477*%
%ADD147R,0.08477X0.08477*%
%ADD148C,0.05918*%
%ADD149C,0.11017*%
%ADD150C,0.06174*%
G04:AMPARAMS|DCode=151|XSize=70.99mil|YSize=70.99mil|CornerRadius=19.75mil|HoleSize=0mil|Usage=FLASHONLY|Rotation=90.000|XOffset=0mil|YOffset=0mil|HoleType=Round|Shape=RoundedRectangle|*
%AMROUNDEDRECTD151*
21,1,0.07099,0.03150,0,0,90.0*
21,1,0.03150,0.07099,0,0,90.0*
1,1,0.03950,0.01575,0.01575*
1,1,0.03950,0.01575,-0.01575*
1,1,0.03950,-0.01575,-0.01575*
1,1,0.03950,-0.01575,0.01575*
%
%ADD151ROUNDEDRECTD151*%
%ADD152C,0.11446*%
%ADD153C,0.05328*%
%ADD154R,0.06102X0.06102*%
%ADD155R,0.05118X0.05118*%
%ADD156C,0.07099*%
%ADD157C,0.20485*%
%ADD158C,0.06102*%
%ADD159C,0.10367*%
%ADD160R,0.10367X0.10367*%
%ADD161R,0.06174X0.06174*%
%ADD162C,0.05118*%
%ADD163C,0.02769*%
%ADD164C,0.07296*%
%ADD165R,0.07296X0.07296*%
%ADD166C,0.02953*%
%ADD167R,0.05328X0.05328*%
%ADD168C,0.03300*%
%ADD169C,0.06800*%
%ADD170C,0.02800*%
%ADD171C,0.04737*%
G36*
X306724Y163626D02*
X317748D01*
Y165594D01*
X332315D01*
Y127406D01*
X317748D01*
Y129374D01*
X306724D01*
Y126618D01*
X300819D01*
Y166382D01*
X306724D01*
Y163626D01*
D02*
G37*
G36*
X353181Y161461D02*
X345307D01*
Y159886D01*
X353181D01*
Y156736D01*
X345307D01*
Y155161D01*
X353181D01*
Y152012D01*
X345307D01*
Y150437D01*
X353181D01*
Y147287D01*
X345307D01*
Y145713D01*
X353181D01*
Y142563D01*
X345307D01*
Y140988D01*
X353181D01*
Y137839D01*
X343339D01*
Y164610D01*
X353181D01*
Y161461D01*
D02*
G37*
G36*
X306724Y233626D02*
X317748D01*
Y235595D01*
X332315D01*
Y197406D01*
X317748D01*
Y199374D01*
X306724D01*
Y196618D01*
X300819D01*
Y236382D01*
X306724D01*
Y233626D01*
D02*
G37*
G36*
X353181Y231461D02*
X345307D01*
Y229886D01*
X353181D01*
Y226736D01*
X345307D01*
Y225161D01*
X353181D01*
Y222012D01*
X345307D01*
Y220437D01*
X353181D01*
Y217287D01*
X345307D01*
Y215713D01*
X353181D01*
Y212563D01*
X345307D01*
Y210988D01*
X353181D01*
Y207839D01*
X343339D01*
Y234610D01*
X353181D01*
Y231461D01*
D02*
G37*
G36*
X439161Y128390D02*
X429319D01*
Y131539D01*
X437193D01*
Y133114D01*
X429319D01*
Y136264D01*
X437193D01*
Y137839D01*
X429319D01*
Y140988D01*
X437193D01*
Y142563D01*
X429319D01*
Y145713D01*
X437193D01*
Y147287D01*
X429319D01*
Y150437D01*
X437193D01*
Y152012D01*
X429319D01*
Y155161D01*
X439161D01*
Y128390D01*
D02*
G37*
G36*
X481681Y126618D02*
X475776D01*
Y129374D01*
X464752D01*
Y127406D01*
X450185D01*
Y165594D01*
X464752D01*
Y163626D01*
X475776D01*
Y166382D01*
X481681D01*
Y126618D01*
D02*
G37*
G36*
X439161Y198390D02*
X429319D01*
Y201539D01*
X437193D01*
Y203114D01*
X429319D01*
Y206264D01*
X437193D01*
Y207839D01*
X429319D01*
Y210988D01*
X437193D01*
Y212563D01*
X429319D01*
Y215713D01*
X437193D01*
Y217287D01*
X429319D01*
Y220437D01*
X437193D01*
Y222012D01*
X429319D01*
Y225161D01*
X439161D01*
Y198390D01*
D02*
G37*
G36*
X481681Y196618D02*
X475776D01*
Y199374D01*
X464752D01*
Y197406D01*
X450185D01*
Y235595D01*
X464752D01*
Y233626D01*
X475776D01*
Y236382D01*
X481681D01*
Y196618D01*
D02*
G37*
D24*
X631500Y205077D02*
D03*
Y209923D02*
D03*
D26*
X262862Y278500D02*
D03*
X257138D02*
D03*
D27*
X268988D02*
D03*
X280012D02*
D03*
X662988Y253500D02*
D03*
X696512Y253000D02*
D03*
X674012Y253500D02*
D03*
X685488Y253000D02*
D03*
D29*
X280000Y270114D02*
D03*
Y258886D02*
D03*
D30*
X270263Y259500D02*
D03*
X263843D02*
D03*
D31*
X257500Y251366D02*
D03*
Y246634D02*
D03*
D34*
X279047Y247000D02*
D03*
X284953D02*
D03*
Y233500D02*
D03*
X279047D02*
D03*
D36*
X270138Y198000D02*
D03*
X274862D02*
D03*
X263362D02*
D03*
X258638D02*
D03*
X263362Y192000D02*
D03*
X258638D02*
D03*
X650854Y247500D02*
D03*
Y241500D02*
D03*
Y235500D02*
D03*
X635638Y237000D02*
D03*
X646130Y235500D02*
D03*
Y247500D02*
D03*
Y241500D02*
D03*
X640362Y237000D02*
D03*
D37*
X254346Y205000D02*
D03*
X247654D02*
D03*
X614153Y288000D02*
D03*
X620847D02*
D03*
D38*
X254664Y210500D02*
D03*
X249336D02*
D03*
D40*
X415146Y163000D02*
D03*
X420854D02*
D03*
X354354Y190000D02*
D03*
X348646D02*
D03*
X416646Y233000D02*
D03*
X422354D02*
D03*
X372854Y130000D02*
D03*
X367146D02*
D03*
D59*
X573500Y244442D02*
D03*
X580000D02*
D03*
X593000D02*
D03*
X586500D02*
D03*
X593000Y250558D02*
D03*
X586500D02*
D03*
X580000D02*
D03*
X573500D02*
D03*
D60*
X567000Y241453D02*
D03*
X559000Y225047D02*
D03*
X610000Y215453D02*
D03*
X591000D02*
D03*
X610000Y209547D02*
D03*
X591000D02*
D03*
X567000Y235547D02*
D03*
X559000Y230953D02*
D03*
D61*
X567000Y224744D02*
D03*
X603500Y216043D02*
D03*
X597500D02*
D03*
X603500Y210531D02*
D03*
X597500D02*
D03*
X567000Y230256D02*
D03*
D62*
X638000Y222453D02*
D03*
X645500D02*
D03*
X653500Y210453D02*
D03*
Y204547D02*
D03*
X645500Y216547D02*
D03*
X638000D02*
D03*
D63*
X626536Y222000D02*
D03*
X631464D02*
D03*
D64*
X631364Y216000D02*
D03*
X626636D02*
D03*
D66*
X690000Y365343D02*
D03*
Y371657D02*
D03*
D70*
X653500Y221953D02*
D03*
Y216047D02*
D03*
D71*
X662000Y204512D02*
D03*
Y169488D02*
D03*
X690000Y305012D02*
D03*
Y293988D02*
D03*
X674500D02*
D03*
Y305012D02*
D03*
X662000Y180512D02*
D03*
Y193488D02*
D03*
D74*
X619500Y206464D02*
D03*
Y201536D02*
D03*
D75*
X600307Y194500D02*
D03*
X613693D02*
D03*
D77*
X593000Y361382D02*
D03*
Y371618D02*
D03*
D79*
X547000Y234362D02*
D03*
X530000D02*
D03*
Y229638D02*
D03*
X547000D02*
D03*
D80*
X243000Y234482D02*
D03*
Y257518D02*
D03*
X228000Y234482D02*
D03*
Y257518D02*
D03*
D83*
X614663Y294000D02*
D03*
X620779D02*
D03*
D89*
X532701Y219827D02*
D03*
Y198173D02*
D03*
X545299D02*
D03*
Y219827D02*
D03*
D93*
X250575Y278500D02*
D03*
X241425D02*
D03*
X146575Y304500D02*
D03*
X137425D02*
D03*
D94*
X262858Y267000D02*
D03*
X257937D02*
D03*
X244657Y210500D02*
D03*
X239342D02*
D03*
D95*
X259906Y233500D02*
D03*
X254000Y217358D02*
D03*
X255968D02*
D03*
X257937D02*
D03*
X259906D02*
D03*
X261874D02*
D03*
X263843D02*
D03*
X265811D02*
D03*
X267779D02*
D03*
X255968Y233500D02*
D03*
X257937D02*
D03*
X261874D02*
D03*
X263843D02*
D03*
X265811D02*
D03*
X267779D02*
D03*
X254000D02*
D03*
D96*
X260890Y225429D02*
D03*
D97*
X279146Y241500D02*
D03*
X284854D02*
D03*
X592354Y256500D02*
D03*
X586646D02*
D03*
X578854D02*
D03*
X573146D02*
D03*
D98*
X241453Y205000D02*
D03*
X235547D02*
D03*
D99*
X358209Y177000D02*
D03*
X346791D02*
D03*
D100*
X130508Y291000D02*
D03*
X106492D02*
D03*
Y307500D02*
D03*
X130508D02*
D03*
D101*
X230697Y363705D02*
D03*
Y348902D02*
D03*
Y334098D02*
D03*
Y319295D02*
D03*
X350303Y348902D02*
D03*
Y363705D02*
D03*
Y378508D02*
D03*
X230697Y304492D02*
D03*
X350303D02*
D03*
Y319295D02*
D03*
Y334098D02*
D03*
X230697Y378508D02*
D03*
D102*
X381772Y165500D02*
D03*
X403228Y175500D02*
D03*
Y180500D02*
D03*
Y195500D02*
D03*
X381772Y170500D02*
D03*
X403228Y190500D02*
D03*
Y185500D02*
D03*
Y170500D02*
D03*
Y165500D02*
D03*
X381772Y175500D02*
D03*
Y180500D02*
D03*
Y185500D02*
D03*
Y190500D02*
D03*
Y195500D02*
D03*
D103*
X436086Y129940D02*
D03*
X346414Y163060D02*
D03*
X436086Y199940D02*
D03*
X346414Y233060D02*
D03*
D104*
X118000Y337146D02*
D03*
Y342854D02*
D03*
D105*
X107000Y361610D02*
D03*
Y350390D02*
D03*
D106*
X133886Y343000D02*
D03*
Y363000D02*
D03*
D107*
X169909Y353000D02*
D03*
D108*
X213500Y326571D02*
D03*
Y343500D02*
D03*
D109*
X416000Y179650D02*
D03*
Y173350D02*
D03*
X372000Y193350D02*
D03*
Y199650D02*
D03*
D110*
X465933Y146500D02*
D03*
Y216500D02*
D03*
X316567D02*
D03*
Y146500D02*
D03*
D111*
X615000Y266323D02*
D03*
Y276559D02*
D03*
Y274000D02*
D03*
Y261205D02*
D03*
Y258646D02*
D03*
Y256087D02*
D03*
Y253528D02*
D03*
Y250969D02*
D03*
X637047Y276559D02*
D03*
Y274000D02*
D03*
Y268882D02*
D03*
Y266323D02*
D03*
Y263764D02*
D03*
Y261205D02*
D03*
Y256087D02*
D03*
Y253528D02*
D03*
X615000Y281677D02*
D03*
Y279118D02*
D03*
X637047Y281677D02*
D03*
Y279118D02*
D03*
Y250969D02*
D03*
Y248410D02*
D03*
X615000D02*
D03*
X637047Y258646D02*
D03*
Y271441D02*
D03*
X615000Y263764D02*
D03*
Y271441D02*
D03*
Y268882D02*
D03*
D112*
X626024Y265043D02*
D03*
D113*
X576020Y223579D02*
D03*
Y227516D02*
D03*
Y229484D02*
D03*
Y231453D02*
D03*
Y233421D02*
D03*
X590980Y231453D02*
D03*
X576020Y225547D02*
D03*
X590980Y233421D02*
D03*
Y227516D02*
D03*
Y229484D02*
D03*
Y225547D02*
D03*
Y223579D02*
D03*
D114*
X586453Y221020D02*
D03*
X582516D02*
D03*
X580547D02*
D03*
X578579D02*
D03*
X588421D02*
D03*
X580547Y235980D02*
D03*
X578579D02*
D03*
X586453D02*
D03*
X582516D02*
D03*
X584484D02*
D03*
X588421D02*
D03*
X584484Y221020D02*
D03*
D115*
X576709Y235291D02*
D03*
X590291D02*
D03*
X576709Y221709D02*
D03*
X590291D02*
D03*
D116*
X583500Y228500D02*
D03*
D117*
X587500Y196000D02*
D03*
X572250D02*
D03*
X557000D02*
D03*
X624000Y366500D02*
D03*
X377000Y388500D02*
D03*
X609000Y366500D02*
D03*
D118*
X575949Y180921D02*
D03*
X570949D02*
D03*
X565949D02*
D03*
X555949D02*
D03*
X560949D02*
D03*
X580949D02*
D03*
X585949D02*
D03*
X590949D02*
D03*
X595949D02*
D03*
X600949D02*
D03*
X605949D02*
D03*
X610949D02*
D03*
D119*
X617898Y116000D02*
D03*
Y111000D02*
D03*
X549000D02*
D03*
Y116000D02*
D03*
Y121000D02*
D03*
Y126000D02*
D03*
Y131000D02*
D03*
Y136000D02*
D03*
Y141000D02*
D03*
Y146000D02*
D03*
Y151000D02*
D03*
Y156000D02*
D03*
Y161000D02*
D03*
Y166000D02*
D03*
Y171000D02*
D03*
Y176000D02*
D03*
X617898D02*
D03*
Y171000D02*
D03*
Y166000D02*
D03*
Y161000D02*
D03*
Y156000D02*
D03*
Y141000D02*
D03*
Y136000D02*
D03*
Y131000D02*
D03*
Y126000D02*
D03*
Y121000D02*
D03*
Y146000D02*
D03*
Y151000D02*
D03*
D120*
X670000Y366461D02*
D03*
X627500Y234539D02*
D03*
X622500D02*
D03*
X617500Y225039D02*
D03*
X627500Y239461D02*
D03*
X622500D02*
D03*
X617500Y229961D02*
D03*
X670000Y361539D02*
D03*
D121*
X688055Y353402D02*
D03*
X679000D02*
D03*
X669945D02*
D03*
D122*
X679000Y328598D02*
D03*
D123*
X659500Y368874D02*
D03*
Y353126D02*
D03*
D124*
X645500Y205435D02*
D03*
X638000D02*
D03*
X645500Y211340D02*
D03*
X638000D02*
D03*
D125*
X625000Y210256D02*
D03*
Y204744D02*
D03*
X619500Y196256D02*
D03*
Y190744D02*
D03*
D126*
X612500Y224941D02*
D03*
X617500Y239559D02*
D03*
Y234441D02*
D03*
X612500Y230059D02*
D03*
D127*
X594866Y146906D02*
D03*
Y141394D02*
D03*
Y135882D02*
D03*
X589354Y146906D02*
D03*
X583843D02*
D03*
X589354Y141394D02*
D03*
Y135882D02*
D03*
X583843Y141394D02*
D03*
Y135882D02*
D03*
D128*
X582650Y361000D02*
D03*
X553850Y373500D02*
D03*
X560150D02*
D03*
X576350Y361000D02*
D03*
D129*
X550000Y320555D02*
D03*
D130*
X540000Y361106D02*
D03*
X550000D02*
D03*
X560000D02*
D03*
D131*
X651886Y193408D02*
D03*
X630626D02*
D03*
X651886Y177908D02*
D03*
X630626D02*
D03*
D132*
X691000Y163449D02*
D03*
Y144551D02*
D03*
X675000Y163449D02*
D03*
Y144551D02*
D03*
D133*
X690000Y263870D02*
D03*
Y285130D02*
D03*
X674500Y263870D02*
D03*
Y285130D02*
D03*
D134*
X602039Y271500D02*
D03*
X606961D02*
D03*
X602039Y277500D02*
D03*
X606961D02*
D03*
X601539Y257500D02*
D03*
X606461D02*
D03*
X601539Y252500D02*
D03*
X606461D02*
D03*
D135*
X557756Y219500D02*
D03*
X552244D02*
D03*
X557756Y214500D02*
D03*
X552244D02*
D03*
X541256Y229500D02*
D03*
X535744D02*
D03*
D136*
X213500Y377929D02*
D03*
Y361000D02*
D03*
D137*
X471500Y362854D02*
D03*
D138*
X481500Y322500D02*
D03*
X461500D02*
D03*
D139*
X434240Y158311D02*
D03*
Y163035D02*
D03*
Y228311D02*
D03*
Y233035D02*
D03*
X348260Y134689D02*
D03*
Y129965D02*
D03*
Y204689D02*
D03*
Y199965D02*
D03*
D140*
X261000Y180000D02*
D03*
X134500Y136256D02*
D03*
Y183500D02*
D03*
D141*
X261000Y120945D02*
D03*
D142*
X160815Y303500D02*
D03*
D143*
X180500D02*
D03*
D144*
X114779Y224890D02*
D03*
D145*
Y243000D02*
D03*
D146*
X197000Y233000D02*
D03*
D147*
X157630D02*
D03*
D148*
X236681Y131181D02*
D03*
X185500D02*
D03*
Y162677D02*
D03*
X236681D02*
D03*
D149*
X154500Y176610D02*
D03*
Y143146D02*
D03*
D150*
X617913Y388000D02*
D03*
X604087D02*
D03*
D151*
X533500Y111500D02*
D03*
Y176000D02*
D03*
D152*
X651405Y138142D02*
D03*
X656327Y159008D02*
D03*
X634673D02*
D03*
D153*
X583500Y336500D02*
D03*
D154*
X399736Y363500D02*
D03*
Y288000D02*
D03*
D155*
X580000Y279110D02*
D03*
X543500D02*
D03*
D156*
X533500Y166000D02*
D03*
Y141500D02*
D03*
Y131500D02*
D03*
Y121500D02*
D03*
D157*
X117000Y382500D02*
D03*
X681500Y117000D02*
D03*
D158*
X429264Y288000D02*
D03*
Y363500D02*
D03*
D159*
X635000Y305500D02*
D03*
D160*
X615000D02*
D03*
D161*
X532000Y388000D02*
D03*
X690000D02*
D03*
D162*
X543500Y292890D02*
D03*
X580000D02*
D03*
D163*
X645500Y151528D02*
D03*
Y122000D02*
D03*
X265220Y223264D02*
D03*
Y227594D02*
D03*
X256559D02*
D03*
Y223264D02*
D03*
X260890Y227594D02*
D03*
Y223264D02*
D03*
X628189Y267209D02*
D03*
Y254217D02*
D03*
Y262878D02*
D03*
Y258547D02*
D03*
Y275870D02*
D03*
X623858Y271539D02*
D03*
X628189D02*
D03*
X623858Y275870D02*
D03*
Y258547D02*
D03*
Y262878D02*
D03*
Y254217D02*
D03*
Y267209D02*
D03*
D164*
X680000Y239000D02*
D03*
Y192780D02*
D03*
D165*
Y225220D02*
D03*
Y179000D02*
D03*
D166*
X607000Y194500D02*
D03*
D167*
X583500Y344374D02*
D03*
D168*
X665975Y261475D02*
D03*
X653896Y267239D02*
D03*
X285000Y252500D02*
D03*
X254000Y260000D02*
D03*
X573000Y225500D02*
D03*
X243865Y266500D02*
D03*
X253500Y268000D02*
D03*
X107000Y344500D02*
D03*
X118000Y349000D02*
D03*
X662677Y269000D02*
D03*
X586500Y205500D02*
D03*
X582500Y216500D02*
D03*
X622500Y228500D02*
D03*
X576500Y141500D02*
D03*
X652500Y289500D02*
D03*
X655000Y253500D02*
D03*
X653000Y272000D02*
D03*
X639070Y176019D02*
D03*
X653782Y278000D02*
D03*
X668753Y276370D02*
D03*
X665000Y273649D02*
D03*
X636835Y193000D02*
D03*
X632000Y250000D02*
D03*
Y281500D02*
D03*
X573500Y261500D02*
D03*
X690000Y311000D02*
D03*
X602001Y261603D02*
D03*
X609000Y266500D02*
D03*
X602000Y248500D02*
D03*
X627500Y243000D02*
D03*
X579000Y261500D02*
D03*
X596000Y191000D02*
D03*
X610500Y294000D02*
D03*
X611000Y151500D02*
D03*
X563500Y219000D02*
D03*
X624000Y190500D02*
D03*
Y121000D02*
D03*
X611000Y146500D02*
D03*
X563500Y214000D02*
D03*
X528500Y363000D02*
D03*
X649000Y352500D02*
D03*
X358500Y233000D02*
D03*
X325500Y178500D02*
D03*
X372500Y138500D02*
D03*
X372000Y175500D02*
D03*
D169*
X228000Y222500D02*
D03*
X295000Y208000D02*
D03*
D170*
X590500Y218528D02*
D03*
D171*
X446500Y325000D02*
D03*
X368000Y349000D02*
D03*
M02*
