G04*
G04 #@! TF.GenerationSoftware,Altium Limited,Altium Designer,25.5.2 (35)*
G04*
G04 Layer_Color=255*
%FSLAX25Y25*%
%MOIN*%
G70*
G04*
G04 #@! TF.SameCoordinates,CCCDE38D-7695-4EB3-ABC8-F25FB468ABE4*
G04*
G04*
G04 #@! TF.FilePolarity,Positive*
G04*
G01*
G75*
%ADD71R,0.06693X0.03740*%
%ADD144R,0.09843X0.09843*%
%ADD145C,0.09843*%
%ADD154R,0.06102X0.06102*%
%ADD155R,0.05118X0.05118*%
%ADD158C,0.06102*%
%ADD162C,0.05118*%
%ADD166C,0.02953*%
%ADD189C,0.05906*%
%ADD190R,0.05906X0.05906*%
%ADD191R,0.04724X0.04724*%
%ADD192C,0.04724*%
%ADD193C,0.07677*%
%ADD194R,0.07677X0.07677*%
%ADD195C,0.10217*%
%ADD196C,0.05374*%
G04:AMPARAMS|DCode=197|XSize=62.99mil|YSize=62.99mil|CornerRadius=15.75mil|HoleSize=0mil|Usage=FLASHONLY|Rotation=90.000|XOffset=0mil|YOffset=0mil|HoleType=Round|Shape=RoundedRectangle|*
%AMROUNDEDRECTD197*
21,1,0.06299,0.03150,0,0,90.0*
21,1,0.03150,0.06299,0,0,90.0*
1,1,0.03150,0.01575,0.01575*
1,1,0.03150,0.01575,-0.01575*
1,1,0.03150,-0.01575,-0.01575*
1,1,0.03150,-0.01575,0.01575*
%
%ADD197ROUNDEDRECTD197*%
%ADD198C,0.10646*%
%ADD199C,0.04528*%
%ADD200C,0.06299*%
%ADD201C,0.19685*%
%ADD202C,0.09567*%
%ADD203R,0.09567X0.09567*%
%ADD204R,0.05374X0.05374*%
%ADD205C,0.01968*%
%ADD206C,0.06496*%
%ADD207R,0.06496X0.06496*%
%ADD208R,0.04528X0.04528*%
D71*
X645500Y260988D02*
D03*
Y272012D02*
D03*
Y278488D02*
D03*
Y289512D02*
D03*
D144*
X114779Y224890D02*
D03*
D145*
Y243000D02*
D03*
D154*
X399736Y363500D02*
D03*
Y288000D02*
D03*
D155*
X580000Y279110D02*
D03*
X543500D02*
D03*
D158*
X429264Y288000D02*
D03*
Y363500D02*
D03*
D162*
X236681Y131181D02*
D03*
X543500Y292890D02*
D03*
X580000D02*
D03*
X185500Y131181D02*
D03*
Y162677D02*
D03*
X236681D02*
D03*
D166*
X607000Y194500D02*
D03*
D189*
X261000Y180000D02*
D03*
X134500Y136256D02*
D03*
Y183500D02*
D03*
D190*
X261000Y120945D02*
D03*
D191*
X160815Y303500D02*
D03*
D192*
X180500D02*
D03*
D193*
X197000Y233000D02*
D03*
D194*
X157630D02*
D03*
D195*
X154500Y176610D02*
D03*
Y143146D02*
D03*
D196*
X617913Y388000D02*
D03*
X604087D02*
D03*
D197*
X533500Y111500D02*
D03*
Y176000D02*
D03*
D198*
X651405Y138142D02*
D03*
X656327Y159008D02*
D03*
X634673D02*
D03*
D199*
X583500Y336500D02*
D03*
D200*
X533500Y166000D02*
D03*
Y141500D02*
D03*
Y131500D02*
D03*
Y121500D02*
D03*
D201*
X117000Y382500D02*
D03*
X681500Y117000D02*
D03*
D202*
X635000Y305500D02*
D03*
D203*
X615000D02*
D03*
D204*
X532000Y388000D02*
D03*
X690000D02*
D03*
D205*
X645500Y151528D02*
D03*
Y122000D02*
D03*
D206*
X680000Y239000D02*
D03*
Y192780D02*
D03*
D207*
Y225220D02*
D03*
Y179000D02*
D03*
D208*
X583500Y344374D02*
D03*
M02*
