G04*
G04 #@! TF.GenerationSoftware,Altium Limited,Altium Designer,25.5.2 (35)*
G04*
G04 Layer_Color=0*
%FSLAX25Y25*%
%MOIN*%
G70*
G04*
G04 #@! TF.SameCoordinates,0CD17ABA-5868-42C4-872B-F719D901D850*
G04*
G04*
G04 #@! TF.FilePolarity,Positive*
G04*
G01*
G75*
%ADD12C,0.00394*%
%ADD213C,0.00197*%
D12*
X631500Y205532D02*
Y209469D01*
X629531Y207500D02*
X633468D01*
X258032Y278500D02*
X261968D01*
X260000Y276532D02*
Y280469D01*
X272532Y278500D02*
X276468D01*
X274500Y276532D02*
Y280469D01*
X280000Y262531D02*
Y266469D01*
X278031Y264500D02*
X281968D01*
X265084Y259500D02*
X269021D01*
X267053Y257531D02*
Y261469D01*
X255532Y249000D02*
X259469D01*
X257500Y247031D02*
Y250969D01*
X280031Y247000D02*
X283968D01*
X282000Y245031D02*
Y248969D01*
X280031Y233500D02*
X283968D01*
X282000Y231532D02*
Y235469D01*
X270532Y198000D02*
X274468D01*
X272500Y196031D02*
Y199969D01*
X259032Y198000D02*
X262968D01*
X261000Y196031D02*
Y199969D01*
X259032Y192000D02*
X262968D01*
X261000Y190032D02*
Y193968D01*
X249031Y205000D02*
X252969D01*
X251000Y203031D02*
Y206968D01*
X250031Y210500D02*
X253969D01*
X252000Y208531D02*
Y212469D01*
X416032Y163000D02*
X419969D01*
X418000Y161031D02*
Y164969D01*
X416032Y163000D02*
X419969D01*
X418000Y161031D02*
Y164969D01*
X349532Y190000D02*
X353468D01*
X351500Y188031D02*
Y191969D01*
X349532Y190000D02*
X353468D01*
X351500Y188031D02*
Y191969D01*
X124031Y243000D02*
X127969D01*
X126000Y241032D02*
Y244969D01*
X648492Y233531D02*
Y237469D01*
X646523Y235500D02*
X650460D01*
X412532Y288000D02*
X416468D01*
X414500Y286032D02*
Y289968D01*
X412532Y363500D02*
X416468D01*
X414500Y361531D02*
Y365469D01*
X241032Y246000D02*
X244969D01*
X243000Y244032D02*
Y247969D01*
X541532Y286000D02*
X545469D01*
X543500Y284032D02*
Y287968D01*
X578031Y286000D02*
X581968D01*
X580000Y284032D02*
Y287968D01*
X615752Y294000D02*
X619689D01*
X617721Y292032D02*
Y295969D01*
X666532Y253500D02*
X670469D01*
X668500Y251532D02*
Y255469D01*
X646523Y247500D02*
X650460D01*
X648492Y245532D02*
Y249468D01*
X646523Y241500D02*
X650460D01*
X648492Y239531D02*
Y243468D01*
X636031Y237000D02*
X639968D01*
X638000Y235032D02*
Y238968D01*
X651532Y207500D02*
X655469D01*
X653500Y205532D02*
Y209469D01*
X651532Y219000D02*
X655469D01*
X653500Y217032D02*
Y220969D01*
X643532Y219500D02*
X647469D01*
X645500Y217531D02*
Y221468D01*
X636031Y219500D02*
X639968D01*
X638000Y217531D02*
Y221468D01*
X627032Y222000D02*
X630969D01*
X629000Y220031D02*
Y223969D01*
X627032Y216000D02*
X630969D01*
X629000Y214032D02*
Y217969D01*
X597500Y211319D02*
Y215256D01*
X595532Y213287D02*
X599469D01*
X610000Y210531D02*
Y214469D01*
X608032Y212500D02*
X611969D01*
X619500Y202031D02*
Y205968D01*
X617531Y204000D02*
X621468D01*
X691000Y251031D02*
Y254969D01*
X689032Y253000D02*
X692969D01*
X690000Y297532D02*
Y301468D01*
X688031Y299500D02*
X691968D01*
X617500Y286032D02*
Y289968D01*
X615531Y288000D02*
X619468D01*
X593000Y245532D02*
Y249468D01*
X591032Y247500D02*
X594969D01*
X586500Y245532D02*
Y249468D01*
X584531Y247500D02*
X588469D01*
X580000Y245532D02*
Y249468D01*
X578031Y247500D02*
X581968D01*
X573500Y245532D02*
Y249468D01*
X571531Y247500D02*
X575468D01*
X567000Y236531D02*
Y240469D01*
X565031Y238500D02*
X568968D01*
X567000Y225532D02*
Y229468D01*
X565031Y227500D02*
X568968D01*
X559000Y226031D02*
Y229969D01*
X557031Y228000D02*
X560968D01*
X539000Y207031D02*
Y210968D01*
X537032Y209000D02*
X540969D01*
X605031Y194500D02*
X608968D01*
X607000Y192532D02*
Y196468D01*
X591000Y210531D02*
Y214469D01*
X589032Y212500D02*
X592969D01*
X603500Y211319D02*
Y215256D01*
X601532Y213287D02*
X605469D01*
X528031Y232000D02*
X531968D01*
X530000Y230031D02*
Y233968D01*
X545031Y232000D02*
X548969D01*
X547000Y230031D02*
Y233968D01*
X228000Y244032D02*
Y247969D01*
X226031Y246000D02*
X229969D01*
X453532Y146500D02*
X457469D01*
X455500Y144532D02*
Y148468D01*
X453532Y216500D02*
X457469D01*
X455500Y214531D02*
Y218468D01*
X419500Y231031D02*
Y234968D01*
X417531Y233000D02*
X421468D01*
X419500Y231031D02*
Y234968D01*
X417531Y233000D02*
X421468D01*
X325031Y146500D02*
X328969D01*
X327000Y144532D02*
Y148468D01*
X325031Y216500D02*
X328969D01*
X327000Y214531D02*
Y218468D01*
X370000Y128032D02*
Y131968D01*
X368032Y130000D02*
X371969D01*
X370000Y128032D02*
Y131968D01*
X368032Y130000D02*
X371969D01*
X591032Y366500D02*
X594969D01*
X593000Y364531D02*
Y368468D01*
X688031Y368500D02*
X691968D01*
X690000Y366531D02*
Y370468D01*
X660032Y175000D02*
X663969D01*
X662000Y173031D02*
Y176969D01*
X660032Y199000D02*
X663969D01*
X662000Y197031D02*
Y200969D01*
X672532Y299500D02*
X676469D01*
X674500Y297532D02*
Y301468D01*
D213*
X533500Y124531D02*
Y128469D01*
X531531Y126500D02*
X535468D01*
X531531Y171000D02*
X535468D01*
X533500Y169032D02*
Y172968D01*
M02*
