G04*
G04 #@! TF.GenerationSoftware,Altium Limited,Altium Designer,25.5.2 (35)*
G04*
G04 Layer_Physical_Order=1*
G04 Layer_Color=255*
%FSLAX25Y25*%
%MOIN*%
G70*
G04*
G04 #@! TF.SameCoordinates,CCCDE38D-7695-4EB3-ABC8-F25FB468ABE4*
G04*
G04*
G04 #@! TF.FilePolarity,Positive*
G04*
G01*
G75*
%ADD15C,0.00500*%
%ADD24R,0.03394X0.02894*%
%ADD25R,0.04429X0.01968*%
%ADD26R,0.03772X0.03788*%
%ADD27R,0.03740X0.06693*%
%ADD28R,0.03150X0.03740*%
%ADD29R,0.06922X0.04551*%
%ADD30R,0.04469X0.04182*%
%ADD31R,0.03379X0.03371*%
%ADD32O,0.00984X0.05512*%
%ADD33R,0.11614X0.06929*%
%ADD34R,0.02953X0.03937*%
%ADD35R,0.03740X0.04134*%
%ADD36R,0.02953X0.03543*%
%ADD37R,0.03543X0.03150*%
%ADD38R,0.02593X0.03197*%
%ADD39R,0.03150X0.03937*%
%ADD40R,0.02559X0.03543*%
%ADD41R,0.04016X0.11102*%
%ADD42R,0.04331X0.13386*%
%ADD43R,0.09843X0.05984*%
%ADD44R,0.06102X0.02756*%
%ADD45R,0.03543X0.02559*%
%ADD46R,0.06496X0.04331*%
%ADD47R,0.18110X0.04724*%
%ADD48R,0.37008X0.42520*%
%ADD49R,0.06693X0.09252*%
%ADD50R,0.05787X0.04016*%
%ADD51O,0.05512X0.01378*%
%ADD52R,0.09449X0.24291*%
%ADD53R,0.02362X0.00945*%
%ADD54R,0.00945X0.02362*%
%ADD55R,0.00984X0.00984*%
%ADD56R,0.08268X0.08268*%
%ADD57R,0.11811X0.05906*%
%ADD58R,0.03543X0.05906*%
%ADD59R,0.03591X0.03381*%
%ADD60R,0.03543X0.03150*%
%ADD61R,0.02756X0.02756*%
%ADD62R,0.03937X0.02953*%
%ADD63R,0.03175X0.03418*%
%ADD64R,0.03563X0.03568*%
%ADD65R,0.05906X0.03543*%
%ADD66R,0.03985X0.04758*%
%ADD67R,0.05906X0.07874*%
%ADD68R,0.14961X0.07874*%
%ADD69R,0.07874X0.07874*%
%ADD70R,0.03150X0.03150*%
%ADD71R,0.06693X0.03740*%
G04:AMPARAMS|DCode=72|XSize=29.92mil|YSize=26mil|CornerRadius=3.25mil|HoleSize=0mil|Usage=FLASHONLY|Rotation=0.000|XOffset=0mil|YOffset=0mil|HoleType=Round|Shape=RoundedRectangle|*
%AMROUNDEDRECTD72*
21,1,0.02992,0.01950,0,0,0.0*
21,1,0.02342,0.02600,0,0,0.0*
1,1,0.00650,0.01171,-0.00975*
1,1,0.00650,-0.01171,-0.00975*
1,1,0.00650,-0.01171,0.00975*
1,1,0.00650,0.01171,0.00975*
%
%ADD72ROUNDEDRECTD72*%
%ADD73R,0.03347X0.02953*%
%ADD74R,0.03418X0.03175*%
%ADD75R,0.03150X0.06693*%
%ADD76R,0.03543X0.03543*%
%ADD77R,0.11024X0.05512*%
%ADD78R,0.03543X0.03937*%
%ADD79R,0.03543X0.02953*%
%ADD80R,0.13024X0.05334*%
%ADD81R,0.41535X0.29528*%
%ADD82R,0.04331X0.12402*%
%ADD83R,0.03381X0.03591*%
%ADD84R,0.07480X0.11811*%
%ADD85R,0.12992X0.09646*%
%ADD86R,0.11811X0.07480*%
%ADD87R,0.03150X0.03543*%
G04:AMPARAMS|DCode=88|XSize=29.92mil|YSize=26mil|CornerRadius=3.25mil|HoleSize=0mil|Usage=FLASHONLY|Rotation=90.000|XOffset=0mil|YOffset=0mil|HoleType=Round|Shape=RoundedRectangle|*
%AMROUNDEDRECTD88*
21,1,0.02992,0.01950,0,0,90.0*
21,1,0.02342,0.02600,0,0,90.0*
1,1,0.00650,0.00975,0.01171*
1,1,0.00650,0.00975,-0.01171*
1,1,0.00650,-0.00975,-0.01171*
1,1,0.00650,-0.00975,0.01171*
%
%ADD88ROUNDEDRECTD88*%
%ADD89R,0.07480X0.05118*%
%ADD90R,0.08071X0.08858*%
%ADD91R,0.41299X0.32992*%
%ADD92R,0.04000X0.13795*%
%ADD103C,0.02790*%
%ADD110C,0.28347*%
%ADD139R,0.09843X0.03150*%
%ADD144R,0.09843X0.09843*%
%ADD145C,0.09843*%
%ADD154R,0.06102X0.06102*%
%ADD155R,0.05118X0.05118*%
%ADD158C,0.06102*%
%ADD162C,0.05118*%
%ADD166C,0.02953*%
%ADD172C,0.02500*%
%ADD173C,0.02000*%
%ADD174C,0.01500*%
%ADD175C,0.05000*%
%ADD176C,0.01000*%
%ADD177C,0.04000*%
%ADD178C,0.02300*%
%ADD179C,0.03000*%
%ADD180C,0.00500*%
%ADD181C,0.01925*%
%ADD182C,0.00481*%
%ADD183C,0.01918*%
%ADD184C,0.01416*%
%ADD185C,0.01378*%
%ADD186C,0.01451*%
%ADD187C,0.02458*%
%ADD188C,0.02320*%
%ADD189C,0.05906*%
%ADD190R,0.05906X0.05906*%
%ADD191R,0.04724X0.04724*%
%ADD192C,0.04724*%
%ADD193C,0.07677*%
%ADD194R,0.07677X0.07677*%
%ADD195C,0.10217*%
%ADD196C,0.05374*%
G04:AMPARAMS|DCode=197|XSize=62.99mil|YSize=62.99mil|CornerRadius=15.75mil|HoleSize=0mil|Usage=FLASHONLY|Rotation=90.000|XOffset=0mil|YOffset=0mil|HoleType=Round|Shape=RoundedRectangle|*
%AMROUNDEDRECTD197*
21,1,0.06299,0.03150,0,0,90.0*
21,1,0.03150,0.06299,0,0,90.0*
1,1,0.03150,0.01575,0.01575*
1,1,0.03150,0.01575,-0.01575*
1,1,0.03150,-0.01575,-0.01575*
1,1,0.03150,-0.01575,0.01575*
%
%ADD197ROUNDEDRECTD197*%
%ADD198C,0.10646*%
%ADD199C,0.04528*%
%ADD200C,0.06299*%
%ADD201C,0.19685*%
%ADD202C,0.09567*%
%ADD203R,0.09567X0.09567*%
%ADD204R,0.05374X0.05374*%
%ADD205C,0.01968*%
%ADD206C,0.06496*%
%ADD207R,0.06496X0.06496*%
%ADD208R,0.04528X0.04528*%
%ADD209C,0.02500*%
%ADD210C,0.06000*%
%ADD211C,0.02000*%
%ADD212C,0.03937*%
G36*
X692552Y398462D02*
X694156Y397800D01*
X695599Y396838D01*
X696827Y395613D01*
X697792Y394171D01*
X698457Y392569D01*
X698796Y390867D01*
X698796Y390000D01*
Y257347D01*
X697512D01*
Y253000D01*
Y248654D01*
X698796D01*
Y110014D01*
X698796Y110013D01*
X698796Y110012D01*
X698797Y109145D01*
X698461Y107444D01*
X697799Y105841D01*
X696837Y104398D01*
X695611Y103171D01*
X694170Y102207D01*
X692568Y101543D01*
X690867Y101204D01*
X690000Y101204D01*
X525803D01*
Y275184D01*
X542890D01*
X543748Y275297D01*
X544361Y275551D01*
X547059D01*
Y278110D01*
X543500D01*
Y279110D01*
X542500D01*
Y282669D01*
X539941D01*
Y281816D01*
X525803D01*
Y360522D01*
X537047D01*
Y354118D01*
X542953D01*
Y368094D01*
X537047D01*
Y365187D01*
X525803D01*
Y398796D01*
X689980Y398796D01*
X689981Y398796D01*
X689982Y398796D01*
X690850Y398797D01*
X692552Y398462D01*
D02*
G37*
G36*
X481681Y196618D02*
X475776D01*
Y199374D01*
X464752D01*
Y197406D01*
X450185D01*
Y235595D01*
X464752D01*
Y233626D01*
X475776D01*
Y236382D01*
X481681D01*
Y196618D01*
D02*
G37*
G36*
X353181Y231461D02*
X345307D01*
Y229886D01*
X353181D01*
Y226736D01*
X345307D01*
Y225161D01*
X353181D01*
Y222012D01*
X345307D01*
Y220437D01*
X353181D01*
Y217287D01*
X345307D01*
Y215713D01*
X353181D01*
Y212563D01*
X345307D01*
Y210988D01*
X353181D01*
Y207839D01*
X343339D01*
Y234610D01*
X353181D01*
Y231461D01*
D02*
G37*
G36*
X439161Y198390D02*
X429319D01*
Y201539D01*
X437193D01*
Y203114D01*
X429319D01*
Y206264D01*
X437193D01*
Y207839D01*
X429319D01*
Y210988D01*
X437193D01*
Y212563D01*
X429319D01*
Y215713D01*
X437193D01*
Y217287D01*
X429319D01*
Y220437D01*
X437193D01*
Y222012D01*
X429319D01*
Y225161D01*
X439161D01*
Y198390D01*
D02*
G37*
G36*
X306724Y233626D02*
X317748D01*
Y235595D01*
X332315D01*
Y197406D01*
X317748D01*
Y199374D01*
X306724D01*
Y196618D01*
X300819D01*
Y236382D01*
X306724D01*
Y233626D01*
D02*
G37*
G36*
X481681Y126618D02*
X475776D01*
Y129374D01*
X464752D01*
Y127406D01*
X450185D01*
Y165594D01*
X464752D01*
Y163626D01*
X475776D01*
Y166382D01*
X481681D01*
Y126618D01*
D02*
G37*
G36*
X353181Y161461D02*
X345307D01*
Y159886D01*
X353181D01*
Y156736D01*
X345307D01*
Y155161D01*
X353181D01*
Y152012D01*
X345307D01*
Y150437D01*
X353181D01*
Y147287D01*
X345307D01*
Y145713D01*
X353181D01*
Y142563D01*
X345307D01*
Y140988D01*
X353181D01*
Y137839D01*
X343339D01*
Y164610D01*
X353181D01*
Y161461D01*
D02*
G37*
G36*
X439161Y128390D02*
X429319D01*
Y131539D01*
X437193D01*
Y133114D01*
X429319D01*
Y136264D01*
X437193D01*
Y137839D01*
X429319D01*
Y140988D01*
X437193D01*
Y142563D01*
X429319D01*
Y145713D01*
X437193D01*
Y147287D01*
X429319D01*
Y150437D01*
X437193D01*
Y152012D01*
X429319D01*
Y155161D01*
X439161D01*
Y128390D01*
D02*
G37*
G36*
X306724Y163626D02*
X317748D01*
Y165594D01*
X332315D01*
Y127406D01*
X317748D01*
Y129374D01*
X306724D01*
Y126618D01*
X300819D01*
Y166382D01*
X306724D01*
Y163626D01*
D02*
G37*
%LPC*%
G36*
X664437Y373811D02*
X660500D01*
Y369874D01*
X664437D01*
Y373811D01*
D02*
G37*
G36*
X658500D02*
X654563D01*
Y369874D01*
X658500D01*
Y373811D01*
D02*
G37*
G36*
X535474Y391474D02*
X528526D01*
Y384526D01*
X535474D01*
X535474Y384526D01*
Y384526D01*
X535786Y384416D01*
X547668Y372534D01*
Y368094D01*
X547047D01*
Y354118D01*
X547668D01*
Y336106D01*
X528445D01*
Y305004D01*
X571555D01*
Y336106D01*
X552332D01*
Y354118D01*
X552953D01*
Y368094D01*
X552332D01*
Y370744D01*
X556409D01*
Y373725D01*
X556410Y373727D01*
X556409Y373729D01*
Y376256D01*
X551291D01*
Y375892D01*
X550941Y375857D01*
X549454Y377344D01*
X549588Y377668D01*
X581291D01*
X586701Y372258D01*
Y368075D01*
X599299D01*
Y375161D01*
X590394D01*
X583907Y381649D01*
X583150Y382155D01*
X582257Y382332D01*
X544466D01*
X537336Y389462D01*
X536580Y389968D01*
X535687Y390145D01*
X535474D01*
Y391474D01*
D02*
G37*
G36*
X672772Y369035D02*
X671000D01*
Y367461D01*
X672772D01*
Y369035D01*
D02*
G37*
G36*
X669000D02*
X667228D01*
Y367461D01*
X669000D01*
Y369035D01*
D02*
G37*
G36*
X693474Y391474D02*
X686526D01*
Y384526D01*
X687668D01*
Y374823D01*
X687220D01*
Y373049D01*
X686636Y372933D01*
X685879Y372427D01*
X677351Y363899D01*
X676845Y363142D01*
X676668Y362250D01*
Y358126D01*
X675260D01*
Y348677D01*
X682740D01*
Y358126D01*
X681332D01*
Y361284D01*
X686684Y366636D01*
X687008Y366502D01*
Y366343D01*
X690000D01*
X692992D01*
Y368722D01*
X692780D01*
Y374823D01*
X692332D01*
Y384526D01*
X693474D01*
Y391474D01*
D02*
G37*
G36*
X664437Y367874D02*
X660500D01*
Y363937D01*
X664437D01*
Y367874D01*
D02*
G37*
G36*
X658500D02*
X654563D01*
Y363937D01*
X658500D01*
Y367874D01*
D02*
G37*
G36*
X592000Y365138D02*
X586488D01*
Y363523D01*
X585421D01*
Y363968D01*
X583650D01*
Y361000D01*
Y358032D01*
X585421D01*
Y358859D01*
X586488D01*
Y357626D01*
X592000D01*
Y361382D01*
Y365138D01*
D02*
G37*
G36*
X618371Y391474D02*
X617456D01*
X616572Y391238D01*
X615780Y390780D01*
X615133Y390133D01*
X614676Y389341D01*
X614439Y388457D01*
Y387543D01*
X614676Y386659D01*
X615133Y385867D01*
X615780Y385220D01*
X616572Y384762D01*
X617456Y384526D01*
X618090D01*
X621668Y380947D01*
Y370240D01*
X617307D01*
Y362760D01*
X630693D01*
Y370240D01*
X626332D01*
Y381913D01*
X626155Y382806D01*
X625649Y383562D01*
X621388Y387824D01*
Y388457D01*
X621151Y389341D01*
X620694Y390133D01*
X620047Y390780D01*
X619254Y391238D01*
X618371Y391474D01*
D02*
G37*
G36*
X599512Y365138D02*
X594000D01*
Y362382D01*
X599512D01*
Y365138D01*
D02*
G37*
G36*
X581650Y363968D02*
X579878D01*
Y362000D01*
X581650D01*
Y363968D01*
D02*
G37*
G36*
X692992Y364343D02*
X691000D01*
Y361964D01*
X692992D01*
Y364343D01*
D02*
G37*
G36*
X689000D02*
X687008D01*
Y361964D01*
X689000D01*
Y364343D01*
D02*
G37*
G36*
X562709Y376256D02*
X557591D01*
Y370744D01*
X557668D01*
Y368094D01*
X557047D01*
Y354118D01*
X562953D01*
Y358774D01*
X573791D01*
Y358244D01*
X578909D01*
Y363756D01*
X573791D01*
Y363439D01*
X562953D01*
Y368094D01*
X562332D01*
Y370744D01*
X562709D01*
Y376256D01*
D02*
G37*
G36*
X581650Y360000D02*
X579878D01*
Y358032D01*
X581650D01*
Y360000D01*
D02*
G37*
G36*
X599512Y360382D02*
X594000D01*
Y357626D01*
X599512D01*
Y360382D01*
D02*
G37*
G36*
X672772Y365461D02*
X670000D01*
X667228D01*
Y363886D01*
X667441D01*
Y359177D01*
X667668D01*
Y358126D01*
X666205D01*
Y355596D01*
X664224D01*
Y357850D01*
X654776D01*
Y355145D01*
X649313D01*
X648420Y354968D01*
X647664Y354462D01*
X647351Y354149D01*
X646845Y353393D01*
X646668Y352500D01*
X646845Y351607D01*
X647351Y350851D01*
X648107Y350345D01*
X649000Y350168D01*
X649893Y350345D01*
X650095Y350481D01*
X654776D01*
Y348402D01*
X664224D01*
Y350932D01*
X666205D01*
Y348677D01*
X673685D01*
Y358126D01*
X672332D01*
Y359177D01*
X672559D01*
Y363886D01*
X672772D01*
Y365461D01*
D02*
G37*
G36*
X692008Y358339D02*
X689055D01*
Y354402D01*
X692008D01*
Y358339D01*
D02*
G37*
G36*
X687055D02*
X684102D01*
Y354402D01*
X687055D01*
Y358339D01*
D02*
G37*
G36*
X692008Y352402D02*
X689055D01*
Y348465D01*
X692008D01*
Y352402D01*
D02*
G37*
G36*
X687055D02*
X684102D01*
Y348465D01*
X687055D01*
Y352402D01*
D02*
G37*
G36*
X586551Y347425D02*
X580449D01*
Y341323D01*
X586551D01*
Y347425D01*
D02*
G37*
G36*
X584500Y339611D02*
Y337500D01*
X586611D01*
X586541Y337760D01*
X586112Y338504D01*
X585504Y339112D01*
X584760Y339541D01*
X584500Y339611D01*
D02*
G37*
G36*
X582500D02*
X582240Y339541D01*
X581496Y339112D01*
X580888Y338504D01*
X580459Y337760D01*
X580389Y337500D01*
X582500D01*
Y339611D01*
D02*
G37*
G36*
X586611Y335500D02*
X584500D01*
Y333389D01*
X584760Y333459D01*
X585504Y333888D01*
X586112Y334496D01*
X586541Y335240D01*
X586611Y335500D01*
D02*
G37*
G36*
X582500D02*
X580389D01*
X580459Y335240D01*
X580888Y334496D01*
X581496Y333888D01*
X582240Y333459D01*
X582500Y333389D01*
Y335500D01*
D02*
G37*
G36*
X687480Y333535D02*
X680000D01*
Y329598D01*
X687480D01*
Y333535D01*
D02*
G37*
G36*
X678000D02*
X670520D01*
Y329598D01*
X678000D01*
Y333535D01*
D02*
G37*
G36*
X687480Y327598D02*
X680000D01*
Y323661D01*
X687480D01*
Y327598D01*
D02*
G37*
G36*
X678000D02*
X670520D01*
Y323661D01*
X678000D01*
Y327598D01*
D02*
G37*
G36*
X690000Y313077D02*
X689799Y313037D01*
X689595D01*
X689406Y312959D01*
X689205Y312919D01*
X689035Y312806D01*
X688846Y312727D01*
X688701Y312583D01*
X688531Y312469D01*
X688417Y312299D01*
X688273Y312154D01*
X688195Y311965D01*
X688081Y311795D01*
X688041Y311594D01*
X687963Y311405D01*
Y311201D01*
X687923Y311000D01*
Y307669D01*
X685866D01*
Y302354D01*
X694134D01*
Y307669D01*
X692077D01*
Y311000D01*
X692037Y311201D01*
Y311405D01*
X691959Y311594D01*
X691919Y311795D01*
X691806Y311965D01*
X691727Y312154D01*
X691583Y312299D01*
X691469Y312469D01*
X691299Y312583D01*
X691154Y312727D01*
X690965Y312806D01*
X690795Y312919D01*
X690594Y312959D01*
X690405Y313037D01*
X690201D01*
X690000Y313077D01*
D02*
G37*
G36*
X635733Y311071D02*
X634267D01*
X632850Y310691D01*
X631579Y309958D01*
X630542Y308921D01*
X629809Y307650D01*
X629429Y306233D01*
Y304767D01*
X629809Y303350D01*
X630542Y302079D01*
X631579Y301042D01*
X632850Y300309D01*
X634267Y299929D01*
X635733D01*
X637150Y300309D01*
X638421Y301042D01*
X639458Y302079D01*
X640191Y303350D01*
X640571Y304767D01*
Y306233D01*
X640191Y307650D01*
X639458Y308921D01*
X638421Y309958D01*
X637150Y310691D01*
X635733Y311071D01*
D02*
G37*
G36*
X617141Y296583D02*
X612185D01*
Y295654D01*
X611862Y295520D01*
X611654Y295727D01*
X610905Y296037D01*
X610095D01*
X609346Y295727D01*
X608773Y295154D01*
X608463Y294405D01*
Y293595D01*
X608773Y292846D01*
X609346Y292273D01*
X610095Y291963D01*
X610905D01*
X611654Y292273D01*
X611862Y292480D01*
X612185Y292346D01*
Y291417D01*
X617141D01*
Y296583D01*
D02*
G37*
G36*
X623256D02*
X618301D01*
Y291417D01*
X620000D01*
Y290362D01*
X618287D01*
Y285638D01*
X618287Y285638D01*
X618287D01*
X618054Y285402D01*
X616111Y283459D01*
X615927Y283183D01*
X612933D01*
X612357Y283068D01*
X611869Y282742D01*
X611542Y282253D01*
X611428Y281677D01*
X611542Y281101D01*
X611869Y280613D01*
X611929Y280573D01*
Y280223D01*
X611869Y280183D01*
X611542Y279694D01*
X611428Y279118D01*
X611485Y278828D01*
X611263Y278558D01*
X609323D01*
Y280059D01*
X604752D01*
X604500Y280059D01*
X604248Y280059D01*
X599677D01*
Y278070D01*
X599366Y277861D01*
X587518Y266014D01*
X587289Y265670D01*
X587208Y265266D01*
Y259354D01*
X583988D01*
Y253646D01*
X585442D01*
Y253036D01*
X583917D01*
Y248080D01*
X589083D01*
Y253036D01*
X587558D01*
Y253646D01*
X589303D01*
Y258018D01*
X589324Y258120D01*
Y264828D01*
X599347Y274851D01*
X599677Y274941D01*
Y274941D01*
X599677Y274941D01*
X604248D01*
X604500Y274941D01*
X604752Y274941D01*
X609323D01*
Y276442D01*
X611451D01*
X611542Y275983D01*
X611869Y275495D01*
X611929Y275454D01*
Y275104D01*
X611869Y275064D01*
X611542Y274576D01*
X611428Y274000D01*
X611429Y273992D01*
X609995Y272558D01*
X609323D01*
Y274059D01*
X604752D01*
X604500Y274059D01*
X604248Y274059D01*
X599677D01*
Y270634D01*
X591606Y262563D01*
X591377Y262220D01*
X591297Y261815D01*
Y259354D01*
X589697D01*
Y253646D01*
X591942D01*
Y253036D01*
X590417D01*
Y248080D01*
X595583D01*
Y253036D01*
X594058D01*
Y253646D01*
X595012D01*
Y259354D01*
X593412D01*
Y261377D01*
X600976Y268941D01*
X604248D01*
X604500Y268941D01*
X604752Y268941D01*
X609323D01*
Y270442D01*
X610433D01*
X610838Y270523D01*
X611037Y270656D01*
X611037Y270656D01*
X611425Y270602D01*
X611488Y270564D01*
X611715Y270223D01*
Y270100D01*
X611570Y269882D01*
X615000D01*
X618430D01*
X618285Y270100D01*
Y270223D01*
X618430Y270441D01*
X615000D01*
Y272441D01*
X618430D01*
X618285Y272659D01*
X618245Y273106D01*
X618458Y273424D01*
X618572Y274000D01*
X618458Y274576D01*
X618131Y275064D01*
X618071Y275104D01*
Y275454D01*
X618131Y275495D01*
X618458Y275983D01*
X618572Y276559D01*
X618458Y277135D01*
X618131Y277624D01*
X618071Y277664D01*
Y278014D01*
X618131Y278054D01*
X618458Y278542D01*
X618572Y279118D01*
X618458Y279694D01*
X618131Y280183D01*
X618071Y280223D01*
Y280573D01*
X618131Y280613D01*
X618458Y281101D01*
X618572Y281677D01*
X618458Y282253D01*
X618233Y282589D01*
X620867Y285223D01*
X621096Y285566D01*
X621110Y285638D01*
X623406D01*
Y290362D01*
X622116D01*
Y291417D01*
X623256D01*
Y296583D01*
D02*
G37*
G36*
X583559Y282669D02*
X581000D01*
Y280110D01*
X583559D01*
Y282669D01*
D02*
G37*
G36*
X547059D02*
X544500D01*
Y280110D01*
X547059D01*
Y282669D01*
D02*
G37*
G36*
X579000D02*
X576441D01*
Y280110D01*
X579000D01*
Y282669D01*
D02*
G37*
G36*
X583559Y278110D02*
X581000D01*
Y275551D01*
X583559D01*
Y278110D01*
D02*
G37*
G36*
X579000D02*
X576441D01*
Y275551D01*
X579000D01*
Y278110D01*
D02*
G37*
G36*
X631748Y278189D02*
X627024D01*
Y266043D01*
X631748D01*
Y278189D01*
D02*
G37*
G36*
X625024D02*
X620299D01*
Y266043D01*
X625024D01*
Y278189D01*
D02*
G37*
G36*
X609405Y268537D02*
X608595D01*
X607846Y268227D01*
X607273Y267654D01*
X606963Y266905D01*
Y266095D01*
X607273Y265346D01*
X607846Y264773D01*
X608595Y264463D01*
X609405D01*
X610154Y264773D01*
X610464Y265083D01*
X611362D01*
X611532Y264764D01*
X615000D01*
X618430D01*
X618285Y264981D01*
X618245Y265429D01*
X618458Y265747D01*
X618572Y266323D01*
X618458Y266899D01*
X618245Y267217D01*
X618285Y267664D01*
X618430Y267882D01*
X615000D01*
X611408D01*
X611315Y267708D01*
X610674D01*
X610154Y268227D01*
X609405Y268537D01*
D02*
G37*
G36*
X625024Y264043D02*
X620299D01*
Y261406D01*
X619976Y261272D01*
X619115Y262133D01*
X618689Y262417D01*
X618628Y262430D01*
X618489Y262764D01*
X615000D01*
X611570D01*
X611715Y262546D01*
X611755Y262099D01*
X611542Y261781D01*
X611428Y261205D01*
X611542Y260629D01*
X611869Y260140D01*
X611929Y260100D01*
Y259750D01*
X611869Y259710D01*
X611542Y259222D01*
X611428Y258646D01*
X611542Y258070D01*
X611869Y257581D01*
X611718Y257261D01*
X611598Y257144D01*
X608823D01*
Y260059D01*
X604252D01*
X604098Y260059D01*
X603796D01*
X603662Y260382D01*
X603728Y260449D01*
X604038Y261198D01*
Y262008D01*
X603728Y262757D01*
X603155Y263330D01*
X602406Y263640D01*
X601596D01*
X600847Y263330D01*
X600274Y262757D01*
X599964Y262008D01*
Y261198D01*
X600274Y260449D01*
X600341Y260382D01*
X600207Y260059D01*
X599177D01*
Y254941D01*
Y249941D01*
X600102D01*
X600247Y249591D01*
X599963Y248905D01*
Y248095D01*
X600273Y247346D01*
X600846Y246773D01*
X601595Y246463D01*
X602405D01*
X603154Y246773D01*
X603727Y247346D01*
X604037Y248095D01*
Y248905D01*
X603753Y249591D01*
X603898Y249941D01*
X604252Y249941D01*
X608823D01*
Y251442D01*
X611246D01*
X611468Y251172D01*
X611428Y250969D01*
X611542Y250393D01*
X611755Y250074D01*
X611715Y249627D01*
X611570Y249409D01*
X615000D01*
Y248409D01*
X616000D01*
Y246687D01*
X616374D01*
X616508Y246364D01*
X613072Y242928D01*
X612787Y242502D01*
X612687Y242000D01*
Y234836D01*
X612787Y234334D01*
X613072Y233908D01*
X613467Y233513D01*
X613893Y233228D01*
X614395Y233128D01*
X615039D01*
Y232323D01*
X610039D01*
Y227795D01*
X614139D01*
X614399Y227445D01*
X614391Y227417D01*
X613500D01*
Y224941D01*
Y222465D01*
X615173D01*
Y222465D01*
X616500D01*
Y225039D01*
X617500D01*
Y226039D01*
X620272D01*
Y227614D01*
X620059D01*
Y231965D01*
X621500D01*
Y234539D01*
X623500D01*
Y231965D01*
X626500D01*
Y234539D01*
X627500D01*
Y235539D01*
X630272D01*
Y237114D01*
X630059D01*
Y241823D01*
X629577D01*
Y243000D01*
X629537Y243201D01*
Y243405D01*
X629459Y243594D01*
X629419Y243795D01*
X629306Y243965D01*
X629227Y244154D01*
X629083Y244299D01*
X628969Y244469D01*
X628799Y244583D01*
X628654Y244727D01*
X628465Y244806D01*
X628295Y244919D01*
X628094Y244959D01*
X627905Y245037D01*
X627701D01*
X627500Y245077D01*
X627299Y245037D01*
X627095D01*
X626906Y244959D01*
X626705Y244919D01*
X626535Y244806D01*
X626346Y244727D01*
X626201Y244583D01*
X626031Y244469D01*
X625917Y244299D01*
X625773Y244154D01*
X625695Y243965D01*
X625581Y243795D01*
X625541Y243594D01*
X625463Y243405D01*
Y243201D01*
X625423Y243000D01*
Y241823D01*
X621269D01*
Y251898D01*
X625024D01*
Y264043D01*
D02*
G37*
G36*
X695512Y257347D02*
X693642D01*
Y254000D01*
X695512D01*
Y257347D01*
D02*
G37*
G36*
X604544Y391474D02*
X603629D01*
X602745Y391238D01*
X601953Y390780D01*
X601306Y390133D01*
X600849Y389341D01*
X600612Y388457D01*
Y387543D01*
X600849Y386659D01*
X601306Y385867D01*
X601953Y385220D01*
X602745Y384762D01*
X603629Y384526D01*
X604544D01*
X604606Y384542D01*
X608423Y380726D01*
Y370240D01*
X602307D01*
Y362760D01*
X609802D01*
X612923Y359640D01*
Y311071D01*
X609429D01*
Y307577D01*
X592610D01*
X591815Y307419D01*
X591141Y306969D01*
X580409Y296236D01*
X579559D01*
X578708Y296008D01*
X577945Y295568D01*
X577345Y294967D01*
X546155D01*
X545555Y295568D01*
X544792Y296008D01*
X543941Y296236D01*
X543059D01*
X542208Y296008D01*
X541445Y295568D01*
X540822Y294945D01*
X540382Y294181D01*
X540154Y293330D01*
Y292449D01*
X540382Y291598D01*
X540822Y290835D01*
X541445Y290212D01*
X542208Y289771D01*
X543059Y289543D01*
X543941D01*
X544792Y289771D01*
X545555Y290212D01*
X546155Y290812D01*
X577345D01*
X577945Y290212D01*
X578708Y289771D01*
X579559Y289543D01*
X580409D01*
X583421Y286531D01*
X583421Y286531D01*
X584095Y286081D01*
X584890Y285923D01*
X611594D01*
Y285638D01*
X616713D01*
Y290362D01*
X611594D01*
Y290077D01*
X585750D01*
X583347Y292481D01*
Y293298D01*
X593471Y303423D01*
X609429D01*
Y299929D01*
X620571D01*
Y302534D01*
X620894Y302668D01*
X634970Y288592D01*
Y283682D01*
X632105D01*
X631310Y283524D01*
X630898Y283249D01*
X630846Y283227D01*
X630806Y283187D01*
X630636Y283074D01*
X630636Y283074D01*
X630531Y282969D01*
X630417Y282799D01*
X630273Y282654D01*
X630195Y282465D01*
X630081Y282295D01*
X630041Y282094D01*
X629963Y281905D01*
Y281701D01*
X629923Y281500D01*
X629963Y281299D01*
Y281095D01*
X630041Y280906D01*
X630081Y280705D01*
X630195Y280535D01*
X630273Y280346D01*
X630417Y280201D01*
X630531Y280031D01*
X630701Y279918D01*
X630846Y279773D01*
X631035Y279695D01*
X631205Y279581D01*
X631406Y279541D01*
X631595Y279463D01*
X631799D01*
X632000Y279423D01*
X632201Y279463D01*
X632405D01*
X632562Y279527D01*
X633281D01*
X633503Y279257D01*
X633475Y279118D01*
X633590Y278542D01*
X633916Y278054D01*
X633976Y278014D01*
Y277664D01*
X633916Y277624D01*
X633590Y277135D01*
X633475Y276559D01*
X633590Y275983D01*
X633916Y275495D01*
X633976Y275454D01*
Y275104D01*
X633916Y275064D01*
X633590Y274576D01*
X633475Y274000D01*
X633590Y273424D01*
X633802Y273106D01*
X633763Y272659D01*
X633617Y272441D01*
X635713D01*
X636252Y272081D01*
X637047Y271922D01*
Y270883D01*
X636634Y270801D01*
X636096Y270441D01*
X633617D01*
X633763Y270223D01*
X633802Y269776D01*
X633590Y269458D01*
X633475Y268882D01*
X633590Y268306D01*
X633916Y267817D01*
X633976Y267777D01*
Y267427D01*
X633916Y267387D01*
X633590Y266899D01*
X633475Y266323D01*
X633590Y265747D01*
X633916Y265258D01*
X633976Y265218D01*
Y264868D01*
X633916Y264828D01*
X633590Y264340D01*
X633475Y263764D01*
X633590Y263188D01*
X633916Y262699D01*
X633976Y262659D01*
Y262309D01*
X633916Y262269D01*
X633590Y261781D01*
X633475Y261205D01*
X633590Y260629D01*
X633802Y260311D01*
X633763Y259863D01*
X633617Y259646D01*
X637004D01*
X637047Y259637D01*
Y258381D01*
X636522Y258276D01*
X635848Y257826D01*
X635668Y257646D01*
X633617D01*
X633763Y257428D01*
X633802Y256981D01*
X633590Y256663D01*
X633475Y256087D01*
X633590Y255511D01*
X633916Y255022D01*
X633976Y254982D01*
Y254632D01*
X633916Y254592D01*
X633590Y254104D01*
X633475Y253528D01*
X633590Y252952D01*
X633916Y252463D01*
X633976Y252423D01*
Y252073D01*
X633916Y252033D01*
X633687Y251690D01*
X633303Y251615D01*
X633255Y251626D01*
X633154Y251727D01*
X632405Y252037D01*
X631748D01*
Y264043D01*
X627024D01*
Y251898D01*
X630521D01*
X630666Y251548D01*
X630273Y251154D01*
X629963Y250405D01*
Y249595D01*
X630273Y248846D01*
X630846Y248273D01*
X631595Y247963D01*
X632405D01*
X633146Y248269D01*
X633154Y248273D01*
X633527Y248150D01*
X633590Y247833D01*
X633916Y247345D01*
X634404Y247019D01*
X634980Y246904D01*
X635975D01*
X636070Y246810D01*
X636070Y246810D01*
X636661Y246415D01*
X637358Y246276D01*
X637358Y246276D01*
X639874D01*
X639938Y246211D01*
X639938Y246211D01*
X640530Y245816D01*
X641227Y245678D01*
X641227Y245678D01*
X643866D01*
Y244941D01*
X644307D01*
Y244059D01*
X643866D01*
Y241541D01*
X642728D01*
X642226Y241441D01*
X641800Y241157D01*
X640410Y239767D01*
X640272Y239559D01*
X638114D01*
Y239772D01*
X636638D01*
Y237000D01*
Y234228D01*
X638114D01*
Y234441D01*
X639050D01*
Y230138D01*
X639150Y229636D01*
X639434Y229210D01*
X643211Y225433D01*
Y224716D01*
X642744D01*
Y220189D01*
X648256D01*
Y224716D01*
X645836D01*
Y225976D01*
X645736Y226479D01*
X645452Y226905D01*
X641675Y230681D01*
Y234441D01*
X642626D01*
Y237850D01*
X642651Y237976D01*
Y238295D01*
X643272Y238916D01*
X644307D01*
Y238059D01*
X643866D01*
Y232941D01*
X648378D01*
Y232728D01*
X649854D01*
Y235500D01*
Y238272D01*
X648378D01*
Y238059D01*
X647952D01*
Y238941D01*
X648378D01*
Y238728D01*
X649854D01*
Y241500D01*
Y244272D01*
X648378D01*
Y244059D01*
X647952D01*
Y244941D01*
X648378D01*
Y244728D01*
X649854D01*
Y247500D01*
Y250272D01*
X648378D01*
Y250059D01*
X643866D01*
Y249322D01*
X641982D01*
X641917Y249387D01*
X641326Y249782D01*
X640629Y249921D01*
X640629Y249921D01*
X640561D01*
X640396Y250230D01*
X640505Y250393D01*
X640620Y250969D01*
X640561Y251261D01*
X640859Y251558D01*
X641403Y251450D01*
X654861D01*
X655000Y251423D01*
X655201Y251463D01*
X655405D01*
X655594Y251541D01*
X655795Y251581D01*
X655965Y251694D01*
X656154Y251773D01*
X656299Y251917D01*
X656469Y252031D01*
X656583Y252201D01*
X656727Y252346D01*
X656806Y252535D01*
X656919Y252705D01*
X656959Y252906D01*
X657037Y253095D01*
Y253299D01*
X657077Y253500D01*
X657037Y253701D01*
Y253905D01*
X656959Y254094D01*
X656919Y254295D01*
X656806Y254465D01*
X656727Y254654D01*
X656582Y254799D01*
X656550Y254848D01*
X656698Y255174D01*
X656724Y255198D01*
X656775D01*
X657570Y255356D01*
X658244Y255806D01*
X658672Y256234D01*
X659175Y256570D01*
X659528Y256923D01*
X660118D01*
Y254500D01*
X665858D01*
Y257846D01*
X665741D01*
X665608Y258170D01*
X667444Y260006D01*
X667457Y260026D01*
X667807Y259920D01*
Y259343D01*
X671935D01*
Y257634D01*
X671354D01*
Y249366D01*
X673732D01*
X677923Y245175D01*
Y242460D01*
X677522Y242229D01*
X676771Y241478D01*
X676240Y240558D01*
X675965Y239531D01*
Y238469D01*
X676240Y237442D01*
X676771Y236522D01*
X677522Y235771D01*
X678442Y235240D01*
X679469Y234965D01*
X680531D01*
X681558Y235240D01*
X682478Y235771D01*
X683229Y236522D01*
X683760Y237442D01*
X684035Y238469D01*
Y239531D01*
X683760Y240558D01*
X683229Y241478D01*
X682478Y242229D01*
X682077Y242460D01*
Y246035D01*
X681919Y246830D01*
X681469Y247504D01*
X676669Y252304D01*
Y257634D01*
X676089D01*
Y259343D01*
X681193D01*
Y268398D01*
X670514D01*
X670380Y268721D01*
X673582Y271923D01*
X683000D01*
X683795Y272081D01*
X684469Y272531D01*
X691093Y279156D01*
X691544Y279830D01*
X691697Y280602D01*
X696693D01*
Y289657D01*
X691364D01*
Y291331D01*
X694134D01*
Y296646D01*
X685866D01*
Y291331D01*
X687209D01*
Y289657D01*
X683307D01*
Y280602D01*
X686207D01*
X686341Y280279D01*
X682139Y276077D01*
X672721D01*
X671927Y275919D01*
X671349Y275533D01*
X671126Y275805D01*
X671313Y275993D01*
X671764Y276667D01*
X671922Y277462D01*
X671922Y277462D01*
Y280602D01*
X681193D01*
Y289657D01*
X676577D01*
Y291331D01*
X678634D01*
Y296646D01*
X670366D01*
Y291331D01*
X672423D01*
Y289657D01*
X667807D01*
Y282840D01*
X667767Y282640D01*
Y278322D01*
X667427Y277982D01*
X667077Y278127D01*
Y299317D01*
X670031Y302271D01*
X670366Y302354D01*
Y302354D01*
X670366Y302354D01*
X678634D01*
Y307669D01*
X670366D01*
Y307089D01*
X669835D01*
X669040Y306931D01*
X668366Y306481D01*
X663531Y301646D01*
X663081Y300972D01*
X662923Y300177D01*
Y273649D01*
X662963Y273448D01*
Y273243D01*
X663041Y273054D01*
X663081Y272854D01*
X663195Y272684D01*
X663273Y272494D01*
X663417Y272350D01*
X663531Y272180D01*
X663701Y272066D01*
X663846Y271921D01*
X664035Y271843D01*
X664205Y271729D01*
X664406Y271689D01*
X664595Y271611D01*
X664799D01*
X665000Y271571D01*
X665201Y271611D01*
X665405D01*
X665594Y271689D01*
X665795Y271729D01*
X665965Y271843D01*
X666154Y271921D01*
X666299Y272066D01*
X666469Y272180D01*
X666583Y272350D01*
X666727Y272494D01*
X666806Y272684D01*
X666919Y272854D01*
X666959Y273054D01*
X667037Y273243D01*
Y273448D01*
X667077Y273649D01*
Y274629D01*
X667427Y274806D01*
X667454Y274788D01*
X667599Y274643D01*
X667788Y274565D01*
X667958Y274451D01*
X668159Y274411D01*
X668348Y274333D01*
X668553D01*
X668753Y274293D01*
X668954Y274333D01*
X669159D01*
X669348Y274411D01*
X669548Y274451D01*
X669718Y274565D01*
X669907Y274643D01*
X669929Y274641D01*
X670058Y274274D01*
X665038Y269254D01*
X664714Y269388D01*
Y269405D01*
X664404Y270154D01*
X663831Y270727D01*
X663082Y271037D01*
X662272D01*
X661523Y270727D01*
X660950Y270154D01*
X660888Y270005D01*
X657620Y266737D01*
X657416Y266777D01*
X656306D01*
X656255Y266767D01*
X655933Y267039D01*
X655973Y267239D01*
X655933Y267440D01*
Y267645D01*
X655855Y267834D01*
X655815Y268034D01*
X655701Y268204D01*
X655623Y268393D01*
X655478Y268538D01*
X655365Y268708D01*
X655195Y268822D01*
X655050Y268967D01*
X654861Y269045D01*
X654691Y269159D01*
X654490Y269198D01*
X654301Y269277D01*
X654096D01*
X653896Y269317D01*
X653695Y269277D01*
X653490D01*
X653301Y269198D01*
X653101Y269159D01*
X652931Y269045D01*
X652742Y268967D01*
X652597Y268822D01*
X652427Y268708D01*
X652385Y268667D01*
X645602D01*
X645468Y268990D01*
X646413Y269935D01*
X652941D01*
X653000Y269923D01*
X653201Y269963D01*
X653405D01*
X653594Y270041D01*
X653795Y270081D01*
X653965Y270195D01*
X654154Y270273D01*
X654299Y270417D01*
X654469Y270531D01*
X654583Y270701D01*
X654727Y270846D01*
X654806Y271035D01*
X654919Y271205D01*
X654959Y271406D01*
X655037Y271595D01*
Y271799D01*
X655077Y272000D01*
X655037Y272201D01*
Y272405D01*
X654959Y272594D01*
X654919Y272795D01*
X654806Y272965D01*
X654727Y273154D01*
X654583Y273299D01*
X654469Y273469D01*
X654457Y273481D01*
X654287Y273594D01*
X654154Y273727D01*
X653980Y273799D01*
X653783Y273931D01*
X653550Y273977D01*
X653405Y274037D01*
X653248D01*
X652988Y274089D01*
X645552D01*
X644934Y273966D01*
X644762Y274289D01*
X646884Y276411D01*
X652104D01*
X652598Y276081D01*
X653393Y275923D01*
X653782D01*
X653982Y275963D01*
X654187D01*
X654376Y276041D01*
X654576Y276081D01*
X654747Y276195D01*
X654936Y276273D01*
X655080Y276417D01*
X655250Y276531D01*
X655364Y276701D01*
X655509Y276846D01*
X655587Y277035D01*
X655701Y277205D01*
X655741Y277406D01*
X655819Y277595D01*
Y277799D01*
X655859Y278000D01*
X655819Y278201D01*
Y278405D01*
X655741Y278594D01*
X655701Y278795D01*
X655587Y278965D01*
X655509Y279154D01*
X655364Y279299D01*
X655250Y279469D01*
X655080Y279583D01*
X654936Y279727D01*
X654747Y279805D01*
X654576Y279919D01*
X654376Y279959D01*
X654361Y279965D01*
X653699Y280407D01*
X652904Y280566D01*
X646024D01*
X645229Y280407D01*
X644891Y280182D01*
X644541Y280369D01*
Y286603D01*
X645361Y287423D01*
X652500D01*
X652701Y287463D01*
X652905D01*
X653094Y287541D01*
X653295Y287581D01*
X653465Y287695D01*
X653654Y287773D01*
X653799Y287917D01*
X653969Y288031D01*
X654083Y288201D01*
X654227Y288346D01*
X654306Y288535D01*
X654419Y288705D01*
X654459Y288906D01*
X654537Y289095D01*
Y289299D01*
X654577Y289500D01*
X654537Y289701D01*
Y289905D01*
X654459Y290094D01*
X654419Y290295D01*
X654306Y290465D01*
X654227Y290654D01*
X654083Y290799D01*
X653969Y290969D01*
X653799Y291083D01*
X653654Y291227D01*
X653465Y291305D01*
X653295Y291419D01*
X653094Y291459D01*
X652905Y291537D01*
X652701D01*
X652500Y291577D01*
X644500D01*
X643705Y291419D01*
X643031Y290969D01*
X640995Y288933D01*
X640545Y288259D01*
X640386Y287464D01*
Y283013D01*
X640036Y282837D01*
X639690Y283068D01*
X639125Y283180D01*
Y289453D01*
X638966Y290248D01*
X638516Y290922D01*
X638516Y290922D01*
X622469Y306969D01*
X621795Y307419D01*
X621000Y307577D01*
X620571D01*
Y311071D01*
X617077D01*
Y360500D01*
X616919Y361295D01*
X616469Y361969D01*
X615917Y362521D01*
X615693Y362760D01*
X615693D01*
X615693Y362760D01*
Y370240D01*
X612577D01*
Y381587D01*
X612419Y382382D01*
X611969Y383055D01*
X611969Y383055D01*
X607544Y387480D01*
X607561Y387543D01*
Y388457D01*
X607324Y389341D01*
X606867Y390133D01*
X606220Y390780D01*
X605428Y391238D01*
X604544Y391474D01*
D02*
G37*
G36*
X665858Y252500D02*
X663988D01*
Y249153D01*
X665858D01*
Y252500D01*
D02*
G37*
G36*
X661988D02*
X660118D01*
Y249153D01*
X661988D01*
Y252500D01*
D02*
G37*
G36*
X695512Y252000D02*
X693642D01*
Y248654D01*
X695512D01*
Y252000D01*
D02*
G37*
G36*
X653331Y250272D02*
X651854D01*
Y248500D01*
X653331D01*
Y250272D01*
D02*
G37*
G36*
X579405Y263537D02*
X578595D01*
X577846Y263227D01*
X577273Y262654D01*
X576963Y261905D01*
Y261095D01*
X577273Y260346D01*
X577846Y259773D01*
X577942Y259733D01*
Y259354D01*
X576197D01*
Y253646D01*
X578942D01*
Y253036D01*
X577417D01*
Y248080D01*
X582583D01*
Y253036D01*
X581058D01*
Y253646D01*
X581512D01*
Y259354D01*
X580058D01*
Y259733D01*
X580154Y259773D01*
X580727Y260346D01*
X581037Y261095D01*
Y261905D01*
X580727Y262654D01*
X580154Y263227D01*
X579405Y263537D01*
D02*
G37*
G36*
X573905D02*
X573095D01*
X572346Y263227D01*
X571773Y262654D01*
X571463Y261905D01*
Y261095D01*
X571773Y260346D01*
X572346Y259773D01*
X572442Y259733D01*
Y259354D01*
X570488D01*
Y253646D01*
X572442D01*
Y253036D01*
X570917D01*
Y248080D01*
X576083D01*
Y253036D01*
X574558D01*
Y253646D01*
X575803D01*
Y259354D01*
X574558D01*
Y259733D01*
X574654Y259773D01*
X575227Y260346D01*
X575537Y261095D01*
Y261905D01*
X575227Y262654D01*
X574654Y263227D01*
X573905Y263537D01*
D02*
G37*
G36*
X614000Y247409D02*
X611570D01*
X611715Y247192D01*
X612274Y246818D01*
X612933Y246687D01*
X614000D01*
Y247409D01*
D02*
G37*
G36*
X595583Y246920D02*
X590417D01*
Y245463D01*
X590200Y245419D01*
X589856Y245190D01*
X589406Y244740D01*
X589083Y244874D01*
Y246920D01*
X583917D01*
Y244810D01*
X583605Y244601D01*
X582906Y243902D01*
X582583Y244036D01*
Y246920D01*
X577417D01*
Y244810D01*
X577106Y244601D01*
X576406Y243902D01*
X576083Y244036D01*
Y246920D01*
X570917D01*
Y243104D01*
X570897Y243002D01*
Y242664D01*
X570547Y242481D01*
X570271Y242666D01*
X569769Y242765D01*
X569559D01*
Y243815D01*
X564441D01*
Y239091D01*
X568570D01*
X568815Y238841D01*
X568802Y238122D01*
X568000D01*
Y235547D01*
X567000D01*
Y234547D01*
X564228D01*
Y232972D01*
X564595D01*
X564622Y232634D01*
X564622D01*
Y231256D01*
X567000D01*
Y230256D01*
X568000D01*
Y227878D01*
X568788D01*
Y226909D01*
X564835D01*
Y226057D01*
X561559D01*
Y227409D01*
X556441D01*
Y222685D01*
X561559D01*
Y223431D01*
X564835D01*
Y222579D01*
X565687D01*
Y222000D01*
X565787Y221498D01*
X566072Y221072D01*
X569388Y217755D01*
X569814Y217471D01*
X570317Y217371D01*
X577124D01*
X577258Y217047D01*
X561477Y201267D01*
X561193Y200841D01*
X561093Y200339D01*
Y199740D01*
X550307D01*
Y192260D01*
X558161D01*
X558195Y192090D01*
X558479Y191665D01*
X564256Y185887D01*
Y184661D01*
X553390D01*
Y177181D01*
X613508D01*
Y184187D01*
X626098D01*
Y171215D01*
X635153D01*
Y175831D01*
X636656D01*
X637122Y175364D01*
X637150Y175224D01*
X637264Y175054D01*
X637342Y174865D01*
X637487Y174720D01*
X637601Y174550D01*
X637771Y174436D01*
X637915Y174292D01*
X638104Y174213D01*
X638275Y174100D01*
X638475Y174060D01*
X638664Y173981D01*
X638869D01*
X639070Y173941D01*
X639270Y173981D01*
X639475D01*
X639664Y174060D01*
X639864Y174100D01*
X640035Y174213D01*
X640224Y174292D01*
X640368Y174436D01*
X640538Y174550D01*
X640652Y174720D01*
X640797Y174865D01*
X640875Y175054D01*
X640989Y175224D01*
X641029Y175425D01*
X641107Y175613D01*
Y175818D01*
X641147Y176019D01*
Y176355D01*
X640989Y177150D01*
X640538Y177824D01*
X638985Y179377D01*
X638311Y179827D01*
X637516Y179986D01*
X635153D01*
Y184187D01*
X639000D01*
X639502Y184287D01*
X639928Y184572D01*
X642428Y187072D01*
X642713Y187498D01*
X642813Y188000D01*
Y193326D01*
X647035Y197549D01*
X647358Y197415D01*
Y186715D01*
X656413D01*
Y191411D01*
X657866D01*
Y190831D01*
X666134D01*
Y191057D01*
X676335D01*
X676771Y190302D01*
X677522Y189550D01*
X678442Y189019D01*
X679469Y188744D01*
X680531D01*
X681558Y189019D01*
X682478Y189550D01*
X683229Y190302D01*
X683760Y191222D01*
X684035Y192248D01*
Y193311D01*
X683760Y194337D01*
X683229Y195257D01*
X682478Y196009D01*
X681558Y196540D01*
X680531Y196815D01*
X679469D01*
X678442Y196540D01*
X677522Y196009D01*
X676771Y195257D01*
X676744Y195211D01*
X666134D01*
Y196146D01*
X657866D01*
Y195565D01*
X656413D01*
Y200101D01*
X650045D01*
X649911Y200425D01*
X651744Y202258D01*
X652524D01*
X652650Y202284D01*
X656256D01*
Y206811D01*
X650744D01*
Y204793D01*
X650698Y204784D01*
X650273Y204499D01*
X640572Y194798D01*
X640287Y194372D01*
X640187Y193870D01*
Y188544D01*
X638456Y186813D01*
X635153D01*
Y190923D01*
X636835D01*
X637035Y190963D01*
X637240D01*
X637429Y191041D01*
X637630Y191081D01*
X637800Y191194D01*
X637989Y191273D01*
X638133Y191417D01*
X638304Y191531D01*
X638417Y191701D01*
X638562Y191846D01*
X638640Y192035D01*
X638754Y192205D01*
X638794Y192406D01*
X638872Y192595D01*
Y192799D01*
X638912Y193000D01*
X638872Y193201D01*
Y193405D01*
X638794Y193594D01*
X638754Y193795D01*
X638640Y193965D01*
X638562Y194154D01*
X638417Y194299D01*
X638304Y194469D01*
X638133Y194583D01*
X637989Y194727D01*
X637800Y194806D01*
X637630Y194919D01*
X637429Y194959D01*
X637240Y195037D01*
X637035D01*
X636835Y195077D01*
X635153D01*
Y200101D01*
X626098D01*
Y191673D01*
X625748Y191603D01*
X625727Y191654D01*
X625313Y192069D01*
Y202635D01*
X626171D01*
X626605Y202721D01*
X626973Y202967D01*
X627219Y203335D01*
X627271Y203598D01*
X629015D01*
Y202843D01*
X633985D01*
Y207312D01*
X629015D01*
Y206223D01*
X627172D01*
X626973Y206521D01*
X626605Y206767D01*
X626171Y206853D01*
X623829D01*
X623395Y206767D01*
X623027Y206521D01*
X622781Y206153D01*
X622695Y205719D01*
Y203961D01*
X622691Y203944D01*
Y203569D01*
X622687Y203549D01*
Y192069D01*
X622553Y191935D01*
X621762D01*
X621719Y192153D01*
X621473Y192521D01*
X621105Y192767D01*
X620671Y192853D01*
X618329D01*
X617895Y192767D01*
X617527Y192521D01*
X617281Y192153D01*
X617195Y191719D01*
Y189769D01*
X617281Y189335D01*
X617527Y188967D01*
X617895Y188721D01*
X618329Y188635D01*
X620671D01*
X621105Y188721D01*
X621473Y188967D01*
X621702Y189309D01*
X622309D01*
X622846Y188773D01*
X623595Y188463D01*
X624405D01*
X625154Y188773D01*
X625727Y189346D01*
X625748Y189397D01*
X626098Y189328D01*
Y186813D01*
X594147D01*
X594019Y187163D01*
X595819Y188963D01*
X596405D01*
X597154Y189273D01*
X597727Y189846D01*
X597855Y190154D01*
X599307D01*
Y193500D01*
X597732D01*
Y192644D01*
X597382Y192499D01*
X597154Y192727D01*
X596405Y193037D01*
X595595D01*
X594846Y192727D01*
X594543Y192424D01*
X594193Y192569D01*
Y199740D01*
X588813D01*
Y204500D01*
X588713Y205002D01*
X588537Y205265D01*
Y205905D01*
X588240Y206622D01*
X588297Y206780D01*
X588404Y206972D01*
X588506Y206972D01*
X590000D01*
Y208547D01*
X588228D01*
X588228Y207250D01*
Y207246D01*
Y207246D01*
X588228Y207148D01*
X587878Y207003D01*
X587654Y207227D01*
X586905Y207537D01*
X586095D01*
X585346Y207227D01*
X584773Y206654D01*
X584463Y205905D01*
Y205095D01*
X584773Y204346D01*
X585346Y203773D01*
X586095Y203463D01*
X586187D01*
Y199740D01*
X580807D01*
Y192260D01*
X581446D01*
X581580Y191937D01*
X575021Y185377D01*
X574736Y184951D01*
X574679Y184661D01*
X572261D01*
Y192260D01*
X578943D01*
Y199740D01*
X573563D01*
Y201764D01*
X587381Y215583D01*
X587666Y216008D01*
X587765Y216511D01*
Y218671D01*
X588115Y218816D01*
X588713Y218218D01*
Y218172D01*
X588740Y218106D01*
X588546Y217815D01*
X588441D01*
Y213091D01*
X593559D01*
Y214731D01*
X595335D01*
Y213878D01*
X599665D01*
Y214731D01*
X601335D01*
Y213878D01*
X605665D01*
Y214731D01*
X607441D01*
Y213091D01*
X612559D01*
Y217815D01*
X607441D01*
Y217356D01*
X605665D01*
Y218209D01*
X601335D01*
Y217356D01*
X599665D01*
Y218209D01*
X595335D01*
Y217356D01*
X593559D01*
Y217815D01*
X592442D01*
X592281Y218157D01*
X592287Y218172D01*
Y218883D01*
X592015Y219540D01*
X591689Y219866D01*
X591784Y220216D01*
X591784D01*
X591784Y220217D01*
Y222106D01*
X593161D01*
Y222579D01*
X590980D01*
Y224579D01*
D01*
Y226547D01*
D01*
Y228516D01*
D01*
Y230193D01*
X592949D01*
Y230484D01*
X593161D01*
Y230957D01*
X592949D01*
Y231949D01*
X593161D01*
Y232421D01*
X592949D01*
Y232713D01*
X590980D01*
Y234421D01*
X593161D01*
Y234894D01*
X591784D01*
Y236784D01*
X589894D01*
Y238161D01*
X589421D01*
Y235980D01*
X587421D01*
Y235980D01*
X585453D01*
Y235980D01*
X583516D01*
Y235980D01*
X581516D01*
Y235980D01*
X579547D01*
Y235980D01*
X577579D01*
Y238248D01*
X577481Y238485D01*
X578438Y239442D01*
X586892D01*
X587297Y239523D01*
X587640Y239752D01*
X590067Y242179D01*
X590417Y242034D01*
Y241964D01*
X595583D01*
Y246920D01*
D02*
G37*
G36*
X653331Y246500D02*
X651854D01*
Y244728D01*
X653331D01*
Y246500D01*
D02*
G37*
G36*
Y244272D02*
X651854D01*
Y242500D01*
X653331D01*
Y244272D01*
D02*
G37*
G36*
Y240500D02*
X651854D01*
Y238728D01*
X653331D01*
Y240500D01*
D02*
G37*
G36*
X634638Y239772D02*
X633161D01*
Y238000D01*
X634638D01*
Y239772D01*
D02*
G37*
G36*
X566000Y238122D02*
X564228D01*
Y236547D01*
X566000D01*
Y238122D01*
D02*
G37*
G36*
X653331Y238272D02*
X651854D01*
Y236500D01*
X653331D01*
Y238272D01*
D02*
G37*
G36*
X549772Y236839D02*
X548000D01*
Y235362D01*
X549772D01*
Y236839D01*
D02*
G37*
G36*
X532772D02*
X531000D01*
Y235362D01*
X532772D01*
Y236839D01*
D02*
G37*
G36*
X546000D02*
X544228D01*
Y235362D01*
X546000D01*
Y236839D01*
D02*
G37*
G36*
X529000D02*
X527228D01*
Y235362D01*
X529000D01*
Y236839D01*
D02*
G37*
G36*
X634638Y236000D02*
X633161D01*
Y234228D01*
X634638D01*
Y236000D01*
D02*
G37*
G36*
X653331Y234500D02*
X651854D01*
Y232728D01*
X653331D01*
Y234500D01*
D02*
G37*
G36*
X630272Y233539D02*
X628500D01*
Y231965D01*
X630272D01*
Y233539D01*
D02*
G37*
G36*
X561772Y233528D02*
X560000D01*
Y231953D01*
X561772D01*
Y233528D01*
D02*
G37*
G36*
X558000D02*
X556228D01*
Y231953D01*
X558000D01*
Y233528D01*
D02*
G37*
G36*
X549772Y233362D02*
X547000D01*
X544228D01*
Y231886D01*
X544441D01*
Y230882D01*
X543323D01*
X543279Y231105D01*
X543033Y231473D01*
X542665Y231719D01*
X542231Y231805D01*
X540281D01*
X539847Y231719D01*
X539479Y231473D01*
X539233Y231105D01*
X539147Y230671D01*
Y228329D01*
X539233Y227895D01*
X539479Y227527D01*
X539847Y227281D01*
X540281Y227195D01*
X542231D01*
X542665Y227281D01*
X543033Y227527D01*
X543279Y227895D01*
X543351Y228256D01*
X544441D01*
Y227374D01*
X545687D01*
Y223173D01*
X540772D01*
Y216480D01*
X549827D01*
Y218084D01*
X550177Y218119D01*
X550221Y217895D01*
X550467Y217527D01*
X550835Y217281D01*
X551269Y217195D01*
X553219D01*
X553653Y217281D01*
X554021Y217527D01*
X554267Y217895D01*
X554353Y218329D01*
Y220671D01*
X554267Y221105D01*
X554021Y221473D01*
X553653Y221719D01*
X553219Y221805D01*
X551269D01*
X550835Y221719D01*
X550467Y221473D01*
X550221Y221105D01*
X550177Y220882D01*
X549827Y220916D01*
Y223173D01*
X548313D01*
Y227374D01*
X549559D01*
Y231886D01*
X549772D01*
Y233362D01*
D02*
G37*
G36*
X561772Y229953D02*
X560000D01*
Y228378D01*
X561772D01*
Y229953D01*
D02*
G37*
G36*
X558000D02*
X556228D01*
Y228378D01*
X558000D01*
Y229953D01*
D02*
G37*
G36*
X566000Y229256D02*
X564622D01*
Y227878D01*
X566000D01*
Y229256D01*
D02*
G37*
G36*
X611500Y227417D02*
X609827D01*
Y225941D01*
X611500D01*
Y227417D01*
D02*
G37*
G36*
X656075Y224528D02*
X654500D01*
Y222953D01*
X656075D01*
Y224528D01*
D02*
G37*
G36*
X652500D02*
X650925D01*
Y222953D01*
X652500D01*
Y224528D01*
D02*
G37*
G36*
X620272Y224039D02*
X618500D01*
Y222465D01*
X620272D01*
Y224039D01*
D02*
G37*
G36*
X611500Y223941D02*
X609827D01*
Y222465D01*
X611500D01*
Y223941D01*
D02*
G37*
G36*
X622905Y230537D02*
X622095D01*
X621346Y230227D01*
X620773Y229654D01*
X620463Y228905D01*
Y228095D01*
X620773Y227346D01*
X621187Y226931D01*
Y226157D01*
X621287Y225655D01*
X621572Y225229D01*
X624161Y222640D01*
Y219503D01*
X627055D01*
X627451Y219107D01*
X627317Y218784D01*
X623854D01*
Y217000D01*
X626636D01*
Y216000D01*
X627636D01*
Y213216D01*
X629417D01*
Y213429D01*
X630187D01*
Y212157D01*
X629015D01*
Y207688D01*
X633985D01*
Y212157D01*
X632813D01*
Y213429D01*
X633933D01*
Y218571D01*
X631426D01*
X631393Y218736D01*
X631257Y218941D01*
X631444Y219291D01*
X634052D01*
Y221000D01*
X631464D01*
Y223000D01*
X634052D01*
Y223595D01*
X634375Y223729D01*
X635244Y222860D01*
Y220189D01*
X640756D01*
Y224716D01*
X637100D01*
X632389Y229428D01*
X631963Y229713D01*
X631461Y229813D01*
X624069D01*
X623654Y230227D01*
X622905Y230537D01*
D02*
G37*
G36*
X656075Y220953D02*
X654500D01*
Y219378D01*
X656075D01*
Y220953D01*
D02*
G37*
G36*
X652500D02*
X650925D01*
Y219378D01*
X652500D01*
Y220953D01*
D02*
G37*
G36*
X558731Y221805D02*
X556781D01*
X556347Y221719D01*
X555979Y221473D01*
X555733Y221105D01*
X555647Y220671D01*
Y218329D01*
X555733Y217895D01*
X555979Y217527D01*
X556347Y217281D01*
X556781Y217195D01*
X558731D01*
X559165Y217281D01*
X559533Y217527D01*
X559779Y217895D01*
X559787Y217937D01*
X561735D01*
X561773Y217846D01*
X562346Y217273D01*
X563095Y216963D01*
X563905D01*
X564654Y217273D01*
X565227Y217846D01*
X565537Y218595D01*
Y219405D01*
X565227Y220154D01*
X564654Y220727D01*
X563905Y221037D01*
X563095D01*
X562346Y220727D01*
X562181Y220563D01*
X559865D01*
Y220671D01*
X559779Y221105D01*
X559533Y221473D01*
X559165Y221719D01*
X558731Y221805D01*
D02*
G37*
G36*
X625636Y215000D02*
X623854D01*
Y213216D01*
X625636D01*
Y215000D01*
D02*
G37*
G36*
X532772Y233362D02*
X530000D01*
X527228D01*
Y231886D01*
X527441D01*
Y227374D01*
X532559D01*
Y228256D01*
X533649D01*
X533721Y227895D01*
X533967Y227527D01*
X534335Y227281D01*
X534432Y227262D01*
Y223173D01*
X528173D01*
Y216480D01*
X535372D01*
X538280Y213572D01*
X538706Y213287D01*
X539209Y213187D01*
X550163D01*
X550221Y212895D01*
X550467Y212527D01*
X550835Y212281D01*
X551269Y212195D01*
X553219D01*
X553653Y212281D01*
X554021Y212527D01*
X554267Y212895D01*
X554353Y213329D01*
Y215671D01*
X554267Y216105D01*
X554021Y216473D01*
X553653Y216719D01*
X553219Y216805D01*
X551269D01*
X550835Y216719D01*
X550467Y216473D01*
X550221Y216105D01*
X550163Y215813D01*
X539752D01*
X537228Y218337D01*
Y223173D01*
X537057D01*
Y227262D01*
X537153Y227281D01*
X537521Y227527D01*
X537767Y227895D01*
X537853Y228329D01*
Y230671D01*
X537767Y231105D01*
X537521Y231473D01*
X537153Y231719D01*
X536719Y231805D01*
X534769D01*
X534335Y231719D01*
X533967Y231473D01*
X533721Y231105D01*
X533677Y230882D01*
X532559D01*
Y231886D01*
X532772D01*
Y233362D01*
D02*
G37*
G36*
X558731Y216805D02*
X556781D01*
X556347Y216719D01*
X555979Y216473D01*
X555733Y216105D01*
X555647Y215671D01*
Y213329D01*
X555733Y212895D01*
X555979Y212527D01*
X556347Y212281D01*
X556781Y212195D01*
X558731D01*
X559165Y212281D01*
X559533Y212527D01*
X559779Y212895D01*
X559787Y212937D01*
X561735D01*
X561773Y212846D01*
X562346Y212273D01*
X563095Y211963D01*
X563905D01*
X564654Y212273D01*
X565227Y212846D01*
X565537Y213595D01*
Y214405D01*
X565227Y215154D01*
X564654Y215727D01*
X563905Y216037D01*
X563095D01*
X562346Y215727D01*
X562181Y215563D01*
X559865D01*
Y215671D01*
X559779Y216105D01*
X559533Y216473D01*
X559165Y216719D01*
X558731Y216805D01*
D02*
G37*
G36*
X605878Y212909D02*
X604500D01*
Y211531D01*
X605878D01*
Y212909D01*
D02*
G37*
G36*
X599878D02*
X598500D01*
Y211531D01*
X599878D01*
Y212909D01*
D02*
G37*
G36*
X602500D02*
X601122D01*
Y211531D01*
X602500D01*
Y212909D01*
D02*
G37*
G36*
X596500D02*
X595122D01*
Y211531D01*
X596500D01*
Y212909D01*
D02*
G37*
G36*
X626171Y212582D02*
X626000D01*
Y211256D01*
X627517D01*
X627419Y211748D01*
X627126Y212186D01*
X626688Y212479D01*
X626171Y212582D01*
D02*
G37*
G36*
X624000D02*
X623829D01*
X623312Y212479D01*
X622874Y212186D01*
X622581Y211748D01*
X622483Y211256D01*
X624000D01*
Y212582D01*
D02*
G37*
G36*
X612772Y212122D02*
X611000D01*
Y210547D01*
X612772D01*
Y212122D01*
D02*
G37*
G36*
X593772D02*
X592000D01*
Y210547D01*
X593772D01*
Y212122D01*
D02*
G37*
G36*
X609000D02*
X607228D01*
Y210547D01*
X609000D01*
Y212122D01*
D02*
G37*
G36*
X590000D02*
X588228D01*
Y210547D01*
X590000D01*
Y212122D01*
D02*
G37*
G36*
X648256Y218811D02*
X642744D01*
Y214283D01*
X644187D01*
Y213702D01*
X643138D01*
Y208978D01*
X647862D01*
Y213702D01*
X646813D01*
Y214283D01*
X648256D01*
Y218811D01*
D02*
G37*
G36*
X640756D02*
X635244D01*
Y214283D01*
X636687D01*
Y213702D01*
X635638D01*
Y208978D01*
X640362D01*
Y213702D01*
X639313D01*
Y214283D01*
X640756D01*
Y218811D01*
D02*
G37*
G36*
X655862Y218409D02*
X651138D01*
Y213685D01*
X652187D01*
Y212717D01*
X650744D01*
Y208189D01*
X656256D01*
Y212717D01*
X654813D01*
Y213685D01*
X655862D01*
Y218409D01*
D02*
G37*
G36*
X605878Y209531D02*
X604500D01*
Y208154D01*
X605878D01*
Y209531D01*
D02*
G37*
G36*
X602500D02*
X601122D01*
Y208154D01*
X602500D01*
Y209531D01*
D02*
G37*
G36*
X599878D02*
X598500D01*
Y208154D01*
X599878D01*
Y209531D01*
D02*
G37*
G36*
X596500D02*
X595122D01*
Y208154D01*
X596500D01*
Y209531D01*
D02*
G37*
G36*
X627517Y209256D02*
X626000D01*
Y207930D01*
X626171D01*
X626688Y208033D01*
X627126Y208326D01*
X627419Y208764D01*
X627517Y209256D01*
D02*
G37*
G36*
X624000D02*
X622483D01*
X622491Y209216D01*
X622167Y209052D01*
X621947Y209052D01*
X620500D01*
Y207464D01*
X622209D01*
Y208719D01*
X622209Y208731D01*
X622209Y208731D01*
X622209Y208839D01*
X622559Y208873D01*
X622581Y208764D01*
X622874Y208326D01*
X623312Y208033D01*
X623829Y207930D01*
X624000D01*
Y209256D01*
D02*
G37*
G36*
X618500Y209052D02*
X616791D01*
Y207464D01*
X618500D01*
Y209052D01*
D02*
G37*
G36*
X612772Y208547D02*
X611000D01*
Y206972D01*
X612772D01*
Y208547D01*
D02*
G37*
G36*
X609000D02*
X607228D01*
Y206972D01*
X609000D01*
Y208547D01*
D02*
G37*
G36*
X593772D02*
X592000D01*
Y206972D01*
X593772D01*
Y208547D01*
D02*
G37*
G36*
X648075Y208009D02*
X646500D01*
Y206435D01*
X648075D01*
Y208009D01*
D02*
G37*
G36*
X640575D02*
X639000D01*
Y206435D01*
X640575D01*
Y208009D01*
D02*
G37*
G36*
X644500D02*
X642925D01*
Y206435D01*
X644500D01*
Y208009D01*
D02*
G37*
G36*
X637000D02*
X635425D01*
Y206435D01*
X637000D01*
Y208009D01*
D02*
G37*
G36*
X666347Y207382D02*
X663000D01*
Y205512D01*
X666347D01*
Y207382D01*
D02*
G37*
G36*
X661000D02*
X657654D01*
Y205512D01*
X661000D01*
Y207382D01*
D02*
G37*
G36*
X648075Y204435D02*
X646500D01*
Y202860D01*
X648075D01*
Y204435D01*
D02*
G37*
G36*
X644500D02*
X642925D01*
Y202860D01*
X644500D01*
Y204435D01*
D02*
G37*
G36*
X640575D02*
X639000D01*
Y202860D01*
X640575D01*
Y204435D01*
D02*
G37*
G36*
X637000D02*
X635425D01*
Y202860D01*
X637000D01*
Y204435D01*
D02*
G37*
G36*
X666347Y203512D02*
X663000D01*
Y201642D01*
X666347D01*
Y203512D01*
D02*
G37*
G36*
X661000D02*
X657654D01*
Y201642D01*
X661000D01*
Y203512D01*
D02*
G37*
G36*
X622209Y205464D02*
X619500D01*
X616791D01*
Y203876D01*
X617003D01*
Y199161D01*
X618187D01*
Y198337D01*
X617895Y198279D01*
X617527Y198033D01*
X617281Y197665D01*
X617262Y197569D01*
X616055D01*
Y198634D01*
X611331D01*
Y190366D01*
X616055D01*
Y194943D01*
X617262D01*
X617281Y194847D01*
X617527Y194479D01*
X617895Y194233D01*
X618329Y194147D01*
X620671D01*
X621105Y194233D01*
X621473Y194479D01*
X621719Y194847D01*
X621805Y195281D01*
Y197231D01*
X621719Y197665D01*
X621473Y198033D01*
X621105Y198279D01*
X620813Y198337D01*
Y199161D01*
X621996D01*
Y203876D01*
X622209D01*
Y205464D01*
D02*
G37*
G36*
X602882Y198846D02*
X601307D01*
Y195500D01*
X602882D01*
Y198846D01*
D02*
G37*
G36*
X599307D02*
X597732D01*
Y195500D01*
X599307D01*
Y198846D01*
D02*
G37*
G36*
X549827Y201520D02*
X540772D01*
Y194827D01*
X549827D01*
Y201520D01*
D02*
G37*
G36*
X537228D02*
X528173D01*
Y194827D01*
X537228D01*
Y201520D01*
D02*
G37*
G36*
X607450Y196764D02*
X606550D01*
X605718Y196419D01*
X605081Y195782D01*
X604736Y194950D01*
Y194050D01*
X605081Y193218D01*
X605718Y192581D01*
X606550Y192236D01*
X607450D01*
X608282Y192581D01*
X608919Y193218D01*
X609264Y194050D01*
Y194950D01*
X608919Y195782D01*
X608282Y196419D01*
X607450Y196764D01*
D02*
G37*
G36*
X602882Y193500D02*
X601307D01*
Y190154D01*
X602882D01*
Y193500D01*
D02*
G37*
G36*
X666347Y172358D02*
X663000D01*
Y170488D01*
X666347D01*
Y172358D01*
D02*
G37*
G36*
X661000D02*
X657654D01*
Y170488D01*
X661000D01*
Y172358D01*
D02*
G37*
G36*
X534500Y170028D02*
Y167000D01*
X537528D01*
X537367Y167602D01*
X536821Y168548D01*
X536048Y169320D01*
X535102Y169867D01*
X534500Y170028D01*
D02*
G37*
G36*
X532500D02*
X531898Y169867D01*
X530952Y169320D01*
X530180Y168548D01*
X529633Y167602D01*
X529472Y167000D01*
X532500D01*
Y170028D01*
D02*
G37*
G36*
X666347Y168488D02*
X663000D01*
Y166618D01*
X666347D01*
Y168488D01*
D02*
G37*
G36*
X661000D02*
X657654D01*
Y166618D01*
X661000D01*
Y168488D01*
D02*
G37*
G36*
X696693Y268398D02*
X683307D01*
Y259343D01*
X683411D01*
Y257134D01*
X682831D01*
Y248866D01*
X686684D01*
X686923Y248628D01*
Y235081D01*
X681098Y229256D01*
X675965D01*
Y221185D01*
X681098D01*
X688923Y213360D01*
Y169059D01*
X683716D01*
Y157839D01*
X698283D01*
Y169059D01*
X693077D01*
Y214220D01*
X692919Y215015D01*
X692469Y215689D01*
X684035Y224123D01*
Y226318D01*
X690469Y232752D01*
X690919Y233425D01*
X691077Y234221D01*
Y249488D01*
X690919Y250283D01*
X690469Y250957D01*
X688146Y253280D01*
Y257134D01*
X687566D01*
Y259343D01*
X696693D01*
Y268398D01*
D02*
G37*
G36*
X656413Y184601D02*
X647358D01*
Y171215D01*
X656413D01*
Y178435D01*
X657866D01*
Y177854D01*
X666134D01*
Y178435D01*
X675965D01*
Y174965D01*
X677923D01*
Y169059D01*
X667717D01*
Y157839D01*
X682283D01*
Y169059D01*
X682077D01*
Y174965D01*
X684035D01*
Y183035D01*
X675965D01*
Y182589D01*
X666134D01*
Y183169D01*
X657866D01*
Y182589D01*
X656413D01*
Y184601D01*
D02*
G37*
G36*
X621638Y178559D02*
X614157D01*
Y173441D01*
Y168441D01*
Y163441D01*
Y158441D01*
Y152813D01*
X612569D01*
X612154Y153227D01*
X611405Y153537D01*
X610595D01*
X609846Y153227D01*
X609273Y152654D01*
X608963Y151905D01*
Y151095D01*
X609273Y150346D01*
X609846Y149773D01*
X610595Y149463D01*
X611405D01*
X612154Y149773D01*
X612569Y150187D01*
X614157D01*
Y147313D01*
X612869D01*
X612727Y147654D01*
X612154Y148227D01*
X611405Y148537D01*
X610595D01*
X609846Y148227D01*
X609273Y147654D01*
X608963Y146905D01*
Y146095D01*
X609273Y145346D01*
X609846Y144773D01*
X610595Y144463D01*
X611405D01*
X611948Y144687D01*
X614157D01*
Y138441D01*
Y133441D01*
Y128441D01*
Y123441D01*
Y117822D01*
X612500D01*
X611803Y117684D01*
X611211Y117289D01*
X611211Y117289D01*
X599745Y105822D01*
X538255D01*
X536438Y107639D01*
X536463Y108012D01*
X536778Y108222D01*
X537300Y109003D01*
X537483Y109925D01*
Y113075D01*
X537300Y113997D01*
X536778Y114778D01*
X535996Y115300D01*
X535075Y115483D01*
X531925D01*
X531004Y115300D01*
X530222Y114778D01*
X529700Y113997D01*
X529517Y113075D01*
Y109925D01*
X529700Y109003D01*
X530222Y108222D01*
X531004Y107700D01*
X531925Y107517D01*
X532737D01*
Y106940D01*
X532737Y106940D01*
X532876Y106243D01*
X533271Y105652D01*
X536211Y102711D01*
X536803Y102316D01*
X537500Y102178D01*
X537500Y102178D01*
X600500D01*
X600500Y102178D01*
X601197Y102316D01*
X601789Y102711D01*
X613255Y114178D01*
X614157D01*
Y113772D01*
X613945D01*
Y112000D01*
X617898D01*
X621850D01*
Y113772D01*
X621638D01*
Y119687D01*
X622431D01*
X622846Y119273D01*
X623595Y118963D01*
X624405D01*
X625154Y119273D01*
X625727Y119846D01*
X626037Y120595D01*
Y121405D01*
X625727Y122154D01*
X625154Y122727D01*
X624405Y123037D01*
X623595D01*
X622846Y122727D01*
X622431Y122313D01*
X621638D01*
Y128441D01*
Y133441D01*
Y138441D01*
Y143441D01*
Y148441D01*
Y153441D01*
Y158441D01*
Y163441D01*
Y168441D01*
Y173441D01*
Y178559D01*
D02*
G37*
G36*
X645863Y154283D02*
X645137D01*
X644436Y154096D01*
X643808Y153733D01*
X643295Y153220D01*
X642932Y152591D01*
X642744Y151890D01*
Y151165D01*
X642932Y150464D01*
X643295Y149835D01*
X643808Y149322D01*
X644436Y148960D01*
X645137Y148772D01*
X645863D01*
X646564Y148960D01*
X647192Y149322D01*
X647705Y149835D01*
X648068Y150464D01*
X648256Y151165D01*
Y151890D01*
X648068Y152591D01*
X647705Y153220D01*
X647192Y153733D01*
X646564Y154096D01*
X645863Y154283D01*
D02*
G37*
G36*
X597638Y149677D02*
X595866D01*
Y147906D01*
X597638D01*
Y149677D01*
D02*
G37*
G36*
X582842D02*
X581071D01*
Y147906D01*
X582842D01*
Y149677D01*
D02*
G37*
G36*
X537528Y165000D02*
X533500D01*
X529472D01*
X529633Y164398D01*
X530180Y163452D01*
X530952Y162680D01*
X531678Y162261D01*
Y145239D01*
X530952Y144820D01*
X530180Y144048D01*
X529633Y143102D01*
X529472Y142500D01*
X533500D01*
X537528D01*
X537367Y143102D01*
X536821Y144048D01*
X536048Y144820D01*
X535322Y145239D01*
Y162261D01*
X536048Y162680D01*
X536821Y163452D01*
X537367Y164398D01*
X537528Y165000D01*
D02*
G37*
G36*
X652406Y144389D02*
Y139142D01*
X657653D01*
X657485Y139986D01*
X657009Y141137D01*
X656317Y142172D01*
X655436Y143053D01*
X654400Y143745D01*
X653250Y144222D01*
X652406Y144389D01*
D02*
G37*
G36*
X650406Y144389D02*
X649561Y144222D01*
X648411Y143745D01*
X647375Y143053D01*
X646494Y142172D01*
X645802Y141137D01*
X645326Y139986D01*
X645158Y139142D01*
X650406D01*
Y144389D01*
D02*
G37*
G36*
X656929Y165118D02*
X655725D01*
X654544Y164883D01*
X653433Y164423D01*
X652432Y163754D01*
X651581Y162903D01*
X650912Y161902D01*
X650451Y160790D01*
X650216Y159610D01*
Y158406D01*
X650451Y157226D01*
X650912Y156114D01*
X651581Y155113D01*
X652432Y154262D01*
X653433Y153593D01*
X654544Y153132D01*
X655725Y152898D01*
X656929D01*
X658109Y153132D01*
X659221Y153593D01*
X660222Y154262D01*
X660991Y155031D01*
X667717Y148305D01*
Y138941D01*
X682283D01*
Y150161D01*
X669573D01*
X662253Y157481D01*
X662437Y158406D01*
Y159610D01*
X662202Y160790D01*
X661742Y161902D01*
X661073Y162903D01*
X660222Y163754D01*
X659221Y164423D01*
X658109Y164883D01*
X656929Y165118D01*
D02*
G37*
G36*
X537528Y140500D02*
X534500D01*
Y137472D01*
X535102Y137633D01*
X536048Y138180D01*
X536821Y138952D01*
X537367Y139898D01*
X537528Y140500D01*
D02*
G37*
G36*
X532500D02*
X529472D01*
X529633Y139898D01*
X530180Y138952D01*
X530952Y138180D01*
X531898Y137633D01*
X532500Y137472D01*
Y140500D01*
D02*
G37*
G36*
X635275Y165118D02*
X634071D01*
X632891Y164883D01*
X631779Y164423D01*
X630778Y163754D01*
X629927Y162903D01*
X629258Y161902D01*
X628798Y160790D01*
X628563Y159610D01*
Y158406D01*
X628798Y157226D01*
X629258Y156114D01*
X629927Y155113D01*
X630778Y154262D01*
X631779Y153593D01*
X632891Y153132D01*
X634071Y152898D01*
X635275D01*
X636455Y153132D01*
X637568Y153593D01*
X638568Y154262D01*
X639419Y155113D01*
X640088Y156114D01*
X640329Y156695D01*
X645580D01*
X667204Y135072D01*
X667630Y134787D01*
X668132Y134687D01*
X687500D01*
X688002Y134787D01*
X688428Y135072D01*
X691702Y138346D01*
X691986Y138771D01*
X692020Y138941D01*
X698283D01*
Y150161D01*
X683716D01*
Y138941D01*
X688127D01*
X688261Y138618D01*
X686956Y137313D01*
X668676D01*
X647052Y158936D01*
X646627Y159221D01*
X646124Y159320D01*
X640784D01*
Y159610D01*
X640549Y160790D01*
X640088Y161902D01*
X639419Y162903D01*
X638568Y163754D01*
X637568Y164423D01*
X636455Y164883D01*
X635275Y165118D01*
D02*
G37*
G36*
X597638Y134882D02*
X595866D01*
Y133110D01*
X597638D01*
Y134882D01*
D02*
G37*
G36*
X535075Y179983D02*
X531925D01*
X531004Y179800D01*
X530222Y179278D01*
X529700Y178497D01*
X529517Y177575D01*
Y174425D01*
X529700Y173503D01*
X530222Y172722D01*
X531004Y172200D01*
X531925Y172017D01*
X535075D01*
X535996Y172200D01*
X536778Y172722D01*
X537300Y173503D01*
X537434Y174178D01*
X545260D01*
Y168441D01*
Y163441D01*
Y158441D01*
Y153441D01*
Y148441D01*
Y143441D01*
Y138441D01*
Y132563D01*
X537291D01*
X537169Y133020D01*
X536650Y133917D01*
X535917Y134650D01*
X535020Y135169D01*
X534018Y135437D01*
X532982D01*
X531980Y135169D01*
X531083Y134650D01*
X530350Y133917D01*
X529831Y133020D01*
X529563Y132018D01*
Y130982D01*
X529831Y129980D01*
X530350Y129083D01*
X531083Y128350D01*
X531980Y127831D01*
X532982Y127563D01*
X534018D01*
X535020Y127831D01*
X535917Y128350D01*
X536650Y129083D01*
X537144Y129937D01*
X545260D01*
Y127313D01*
X538000D01*
X537498Y127213D01*
X537072Y126928D01*
X535205Y125062D01*
X535020Y125169D01*
X534018Y125437D01*
X532982D01*
X531980Y125169D01*
X531083Y124650D01*
X530350Y123917D01*
X529831Y123020D01*
X529563Y122018D01*
Y120982D01*
X529831Y119980D01*
X530350Y119083D01*
X531083Y118350D01*
X531980Y117831D01*
X532982Y117563D01*
X534018D01*
X535020Y117831D01*
X535917Y118350D01*
X536650Y119083D01*
X537169Y119980D01*
X537437Y120982D01*
Y122018D01*
X537169Y123020D01*
X537062Y123205D01*
X538544Y124687D01*
X545260D01*
Y118441D01*
Y113772D01*
X545047D01*
Y112000D01*
X549000D01*
Y111000D01*
X550000D01*
Y108228D01*
X552953D01*
Y108668D01*
X553500D01*
X554392Y108845D01*
X555149Y109351D01*
X578149Y132351D01*
X578655Y133107D01*
X578832Y134000D01*
Y139624D01*
X581071D01*
Y136882D01*
X583843D01*
Y135882D01*
X584842D01*
Y133110D01*
X588354D01*
Y135882D01*
X590354D01*
Y133110D01*
X593866D01*
Y135882D01*
X594866D01*
Y136882D01*
X597638D01*
Y138622D01*
Y140394D01*
X594866D01*
Y142394D01*
X597638D01*
Y144134D01*
Y145905D01*
X594866D01*
Y146906D01*
X593866D01*
Y149677D01*
X590354D01*
Y146906D01*
X588354D01*
Y149677D01*
X584842D01*
Y146906D01*
X583843D01*
Y145905D01*
X581071D01*
Y143269D01*
X577969D01*
X577392Y143655D01*
X576500Y143832D01*
X575607Y143655D01*
X574851Y143149D01*
X574345Y142393D01*
X574168Y141500D01*
Y134966D01*
X553090Y113888D01*
X552740Y114033D01*
Y118441D01*
Y123441D01*
Y128441D01*
Y133441D01*
Y138441D01*
Y143441D01*
Y148441D01*
Y153441D01*
Y158441D01*
Y163441D01*
Y168441D01*
Y173441D01*
Y178559D01*
X545260D01*
Y177822D01*
X537434D01*
X537300Y178497D01*
X536778Y179278D01*
X535996Y179800D01*
X535075Y179983D01*
D02*
G37*
G36*
X582842Y134882D02*
X581071D01*
Y133110D01*
X582842D01*
Y134882D01*
D02*
G37*
G36*
X657653Y137142D02*
X652406D01*
Y131894D01*
X653250Y132062D01*
X654400Y132538D01*
X655436Y133230D01*
X656317Y134111D01*
X657009Y135147D01*
X657485Y136297D01*
X657653Y137142D01*
D02*
G37*
G36*
X650406D02*
X645158D01*
X645326Y136297D01*
X645802Y135147D01*
X646494Y134111D01*
X647375Y133230D01*
X648411Y132538D01*
X649561Y132062D01*
X650406Y131894D01*
Y137142D01*
D02*
G37*
G36*
X645863Y124756D02*
X645137D01*
X644436Y124568D01*
X643808Y124205D01*
X643295Y123692D01*
X642932Y123064D01*
X642744Y122363D01*
Y121637D01*
X642932Y120936D01*
X643295Y120308D01*
X643808Y119795D01*
X644436Y119432D01*
X645137Y119244D01*
X645863D01*
X646564Y119432D01*
X647192Y119795D01*
X647705Y120308D01*
X648068Y120936D01*
X648256Y121637D01*
Y122363D01*
X648068Y123064D01*
X647705Y123692D01*
X647192Y124205D01*
X646564Y124568D01*
X645863Y124756D01*
D02*
G37*
G36*
X621850Y110000D02*
X618898D01*
Y108228D01*
X621850D01*
Y110000D01*
D02*
G37*
G36*
X616898D02*
X613945D01*
Y108228D01*
X616898D01*
Y110000D01*
D02*
G37*
G36*
X548000D02*
X545047D01*
Y108228D01*
X548000D01*
Y110000D01*
D02*
G37*
G36*
X681500Y129744D02*
X679506Y129587D01*
X677562Y129120D01*
X675714Y128355D01*
X674009Y127310D01*
X672489Y126011D01*
X671190Y124491D01*
X670145Y122786D01*
X669380Y120938D01*
X668913Y118994D01*
X668756Y117000D01*
X668913Y115006D01*
X669380Y113062D01*
X670145Y111214D01*
X671190Y109509D01*
X672489Y107989D01*
X674009Y106690D01*
X675714Y105645D01*
X677562Y104880D01*
X679506Y104413D01*
X681500Y104256D01*
X683494Y104413D01*
X685438Y104880D01*
X687286Y105645D01*
X688991Y106690D01*
X690511Y107989D01*
X691810Y109509D01*
X692855Y111214D01*
X693620Y113062D01*
X694087Y115006D01*
X694244Y117000D01*
X694087Y118994D01*
X693620Y120938D01*
X692855Y122786D01*
X691810Y124491D01*
X690511Y126011D01*
X688991Y127310D01*
X687286Y128355D01*
X685438Y129120D01*
X683494Y129587D01*
X681500Y129744D01*
D02*
G37*
%LPD*%
G36*
X594172Y191910D02*
X593963Y191405D01*
Y190819D01*
X592456Y189313D01*
X586846D01*
X586344Y189213D01*
X585918Y188928D01*
X581652Y184661D01*
X578475D01*
X578341Y184985D01*
X585021Y191665D01*
X585305Y192090D01*
X585339Y192260D01*
X593938D01*
X594172Y191910D01*
D02*
G37*
G36*
X580477Y216059D02*
X580773Y215346D01*
X581346Y214773D01*
X582065Y214475D01*
X582225Y214139D01*
X571322Y203236D01*
X571037Y202810D01*
X570937Y202308D01*
Y199740D01*
X565557D01*
Y192260D01*
X569636D01*
Y184661D01*
X566882D01*
Y186431D01*
X566782Y186933D01*
X566497Y187359D01*
X561920Y191937D01*
X562054Y192260D01*
X563693D01*
Y198326D01*
X563718Y198453D01*
Y199795D01*
X580139Y216216D01*
X580477Y216059D01*
D02*
G37*
D15*
X592354Y261815D02*
X602039Y271500D01*
X593000Y250558D02*
Y255854D01*
X592354Y256500D02*
X593000Y255854D01*
X592354Y256500D02*
Y261815D01*
X586500Y256354D02*
X586646Y256500D01*
X586500Y250558D02*
Y256354D01*
X601653Y277114D02*
X602039Y277500D01*
X600113Y277114D02*
X601653D01*
X588266Y258120D02*
Y265266D01*
X586646Y256500D02*
X588266Y258120D01*
Y265266D02*
X600113Y277114D01*
X602000Y248500D02*
Y252039D01*
X601539Y252500D02*
X602000Y252039D01*
X602001Y257962D02*
Y261603D01*
X601539Y257500D02*
X602001Y257962D01*
X606461Y252500D02*
X611905D01*
X612933Y253528D01*
X615000D01*
X606461Y257411D02*
X607785Y256087D01*
X606461Y257411D02*
Y257500D01*
X607785Y256087D02*
X615000D01*
X578854Y256500D02*
X580000Y255354D01*
X579000Y256646D02*
Y261500D01*
X580000Y250558D02*
Y255354D01*
X578854Y256500D02*
X579000Y256646D01*
X573146Y256500D02*
X573500Y256146D01*
Y250558D02*
Y256146D01*
Y256854D02*
Y261500D01*
X573146Y256500D02*
X573500Y256854D01*
X571950Y229007D02*
Y239152D01*
Y229007D02*
X572199Y228758D01*
X571950Y239152D02*
X571954Y239157D01*
Y243002D01*
X572199Y228758D02*
X572507Y228498D01*
X572853Y228272D01*
X576020Y227516D01*
X571954Y243002D02*
X573395Y244442D01*
X573500D01*
X575991Y229512D02*
X576020Y229484D01*
X572800Y231200D02*
X574488Y229512D01*
X577853Y243853D02*
X579411D01*
X580000Y244442D01*
X574488Y229512D02*
X575991D01*
X572800Y238800D02*
X577853Y243853D01*
X572800Y231200D02*
Y238800D01*
X584353Y243853D02*
X585911D01*
X573650Y232290D02*
X574488Y231453D01*
X576020D01*
X577798Y241500D02*
X582000D01*
X585911Y243853D02*
X586500Y244442D01*
X573650Y237352D02*
X577798Y241500D01*
X573650Y232290D02*
Y237352D01*
X582000Y241500D02*
X584353Y243853D01*
X574500Y233893D02*
Y237000D01*
X574749Y233644D02*
X575797D01*
X586892Y240500D02*
X589574Y243182D01*
X574500Y233893D02*
X574749Y233644D01*
X578000Y240500D02*
X586892D01*
X589574Y243412D02*
X590604Y244442D01*
X593000D01*
X575797Y233644D02*
X576020Y233421D01*
X589574Y243182D02*
Y243412D01*
X574500Y237000D02*
X578000Y240500D01*
X576709Y235291D02*
X583500Y228500D01*
X590291Y235291D01*
X584484Y227516D02*
X590291Y221709D01*
X584484Y221020D02*
Y227516D01*
X576709Y221709D02*
X583500Y228500D01*
X582516Y234218D02*
Y235980D01*
Y234218D02*
X583500Y233234D01*
Y228500D02*
Y233234D01*
X610500Y294000D02*
X614942D01*
X606961Y277500D02*
X611992D01*
X612933Y276559D01*
X615000D01*
X610433Y271500D02*
X612933Y274000D01*
X606961Y271500D02*
X610433D01*
X612933Y274000D02*
X615000D01*
X620119Y287272D02*
X621058Y288211D01*
X620119Y285971D02*
Y287272D01*
X616859Y281852D02*
Y282711D01*
X615825Y281677D02*
X616685D01*
X615000D02*
X615825D01*
X616685D02*
X616859Y281852D01*
Y282711D02*
X620119Y285971D01*
X615825Y279118D02*
X616000Y279293D01*
X615825Y281677D02*
X616000Y281503D01*
X615000Y279118D02*
X615825D01*
X616000Y279293D02*
Y281503D01*
X621058Y288211D02*
Y294000D01*
D24*
X631500Y205077D02*
D03*
Y209923D02*
D03*
D25*
X250575Y278500D02*
D03*
X241425D02*
D03*
X146575Y304500D02*
D03*
X137425D02*
D03*
D26*
X262862Y278500D02*
D03*
X257138D02*
D03*
D27*
X268988D02*
D03*
X280012D02*
D03*
X662988Y253500D02*
D03*
X696512Y253000D02*
D03*
X674012Y253500D02*
D03*
X685488Y253000D02*
D03*
D28*
X262858Y267000D02*
D03*
X257937D02*
D03*
X244657Y210500D02*
D03*
X239342D02*
D03*
D29*
X280000Y270114D02*
D03*
Y258886D02*
D03*
D30*
X270263Y259500D02*
D03*
X263843D02*
D03*
D31*
X257500Y251366D02*
D03*
Y246634D02*
D03*
D32*
X259906Y233500D02*
D03*
X254000Y217358D02*
D03*
X255968D02*
D03*
X257937D02*
D03*
X259906D02*
D03*
X261874D02*
D03*
X263843D02*
D03*
X265811D02*
D03*
X267779D02*
D03*
X255968Y233500D02*
D03*
X257937D02*
D03*
X261874D02*
D03*
X263843D02*
D03*
X265811D02*
D03*
X267779D02*
D03*
X254000D02*
D03*
D33*
X260890Y225429D02*
D03*
D34*
X279047Y247000D02*
D03*
X284953D02*
D03*
Y233500D02*
D03*
X279047D02*
D03*
D35*
X279146Y241500D02*
D03*
X284854D02*
D03*
X592354Y256500D02*
D03*
X586646D02*
D03*
X578854D02*
D03*
X573146D02*
D03*
D36*
X270138Y198000D02*
D03*
X274862D02*
D03*
X263362D02*
D03*
X258638D02*
D03*
X263362Y192000D02*
D03*
X258638D02*
D03*
X650854Y247500D02*
D03*
Y241500D02*
D03*
Y235500D02*
D03*
X635638Y237000D02*
D03*
X646130Y235500D02*
D03*
Y247500D02*
D03*
Y241500D02*
D03*
X640362Y237000D02*
D03*
D37*
X254346Y205000D02*
D03*
X247654D02*
D03*
X670000Y366461D02*
D03*
X627500Y234539D02*
D03*
X622500D02*
D03*
X617500Y225039D02*
D03*
X627500Y239461D02*
D03*
X622500D02*
D03*
X617500Y229961D02*
D03*
X614153Y288000D02*
D03*
X620847D02*
D03*
X670000Y361539D02*
D03*
D38*
X254664Y210500D02*
D03*
X249336D02*
D03*
D39*
X241453Y205000D02*
D03*
X235547D02*
D03*
D40*
X415146Y163000D02*
D03*
X420854D02*
D03*
X354354Y190000D02*
D03*
X348646D02*
D03*
X416646Y233000D02*
D03*
X422354D02*
D03*
X372854Y130000D02*
D03*
X367146D02*
D03*
D41*
X358209Y177000D02*
D03*
X346791D02*
D03*
D42*
X130508Y291000D02*
D03*
X106492D02*
D03*
Y307500D02*
D03*
X130508D02*
D03*
D43*
X230697Y363705D02*
D03*
Y348902D02*
D03*
Y334098D02*
D03*
Y319295D02*
D03*
X350303Y348902D02*
D03*
Y363705D02*
D03*
Y378508D02*
D03*
X230697Y304492D02*
D03*
X350303D02*
D03*
Y319295D02*
D03*
Y334098D02*
D03*
X230697Y378508D02*
D03*
D44*
X381772Y165500D02*
D03*
X403228Y175500D02*
D03*
Y180500D02*
D03*
Y195500D02*
D03*
X381772Y170500D02*
D03*
X403228Y190500D02*
D03*
Y185500D02*
D03*
Y170500D02*
D03*
Y165500D02*
D03*
X381772Y175500D02*
D03*
Y180500D02*
D03*
Y185500D02*
D03*
Y190500D02*
D03*
Y195500D02*
D03*
D45*
X118000Y337146D02*
D03*
Y342854D02*
D03*
D46*
X107000Y361610D02*
D03*
Y350390D02*
D03*
D47*
X133886Y343000D02*
D03*
Y363000D02*
D03*
D48*
X169909Y353000D02*
D03*
D49*
X213500Y326571D02*
D03*
Y343500D02*
D03*
D50*
X416000Y179650D02*
D03*
Y173350D02*
D03*
X372000Y193350D02*
D03*
Y199650D02*
D03*
D51*
X615000Y266323D02*
D03*
Y276559D02*
D03*
Y274000D02*
D03*
Y261205D02*
D03*
Y258646D02*
D03*
Y256087D02*
D03*
Y253528D02*
D03*
Y250969D02*
D03*
X637047Y276559D02*
D03*
Y274000D02*
D03*
Y268882D02*
D03*
Y266323D02*
D03*
Y263764D02*
D03*
Y261205D02*
D03*
Y256087D02*
D03*
Y253528D02*
D03*
X615000Y281677D02*
D03*
Y279118D02*
D03*
X637047Y281677D02*
D03*
Y279118D02*
D03*
Y250969D02*
D03*
Y248410D02*
D03*
X615000D02*
D03*
X637047Y258646D02*
D03*
Y271441D02*
D03*
X615000Y263764D02*
D03*
Y271441D02*
D03*
Y268882D02*
D03*
D52*
X626024Y265043D02*
D03*
D53*
X576020Y223579D02*
D03*
Y227516D02*
D03*
Y229484D02*
D03*
Y231453D02*
D03*
Y233421D02*
D03*
X590980Y231453D02*
D03*
X576020Y225547D02*
D03*
X590980Y233421D02*
D03*
Y227516D02*
D03*
Y229484D02*
D03*
Y225547D02*
D03*
Y223579D02*
D03*
D54*
X586453Y221020D02*
D03*
X582516D02*
D03*
X580547D02*
D03*
X578579D02*
D03*
X588421D02*
D03*
X580547Y235980D02*
D03*
X578579D02*
D03*
X586453D02*
D03*
X582516D02*
D03*
X584484D02*
D03*
X588421D02*
D03*
X584484Y221020D02*
D03*
D55*
X576709Y235291D02*
D03*
X590291D02*
D03*
X576709Y221709D02*
D03*
X590291D02*
D03*
D56*
X583500Y228500D02*
D03*
D57*
X587500Y196000D02*
D03*
X572250D02*
D03*
X557000D02*
D03*
X624000Y366500D02*
D03*
X377000Y388500D02*
D03*
X609000Y366500D02*
D03*
D58*
X575949Y180921D02*
D03*
X570949D02*
D03*
X565949D02*
D03*
X555949D02*
D03*
X560949D02*
D03*
X580949D02*
D03*
X585949D02*
D03*
X590949D02*
D03*
X595949D02*
D03*
X600949D02*
D03*
X605949D02*
D03*
X610949D02*
D03*
D59*
X573500Y244442D02*
D03*
X580000D02*
D03*
X593000D02*
D03*
X586500D02*
D03*
X593000Y250558D02*
D03*
X586500D02*
D03*
X580000D02*
D03*
X573500D02*
D03*
D60*
X567000Y241453D02*
D03*
X559000Y225047D02*
D03*
X610000Y215453D02*
D03*
X591000D02*
D03*
X610000Y209547D02*
D03*
X591000D02*
D03*
X567000Y235547D02*
D03*
X559000Y230953D02*
D03*
D61*
X567000Y224744D02*
D03*
X603500Y216043D02*
D03*
X597500D02*
D03*
X603500Y210531D02*
D03*
X597500D02*
D03*
X567000Y230256D02*
D03*
D62*
X638000Y222453D02*
D03*
X645500D02*
D03*
X653500Y210453D02*
D03*
Y204547D02*
D03*
X645500Y216547D02*
D03*
X638000D02*
D03*
D63*
X626536Y222000D02*
D03*
X631464D02*
D03*
D64*
X631364Y216000D02*
D03*
X626636D02*
D03*
D65*
X617898Y116000D02*
D03*
Y111000D02*
D03*
X549000D02*
D03*
Y116000D02*
D03*
Y121000D02*
D03*
Y126000D02*
D03*
Y131000D02*
D03*
Y136000D02*
D03*
Y141000D02*
D03*
Y146000D02*
D03*
Y151000D02*
D03*
Y156000D02*
D03*
Y161000D02*
D03*
Y166000D02*
D03*
Y171000D02*
D03*
Y176000D02*
D03*
X617898D02*
D03*
Y171000D02*
D03*
Y166000D02*
D03*
Y161000D02*
D03*
Y156000D02*
D03*
Y141000D02*
D03*
Y136000D02*
D03*
Y131000D02*
D03*
Y126000D02*
D03*
Y121000D02*
D03*
Y146000D02*
D03*
Y151000D02*
D03*
D66*
X690000Y365343D02*
D03*
Y371657D02*
D03*
D67*
X688055Y353402D02*
D03*
X679000D02*
D03*
X669945D02*
D03*
D68*
X679000Y328598D02*
D03*
D69*
X659500Y368874D02*
D03*
Y353126D02*
D03*
D70*
X653500Y221953D02*
D03*
X645500Y205435D02*
D03*
X638000D02*
D03*
X645500Y211340D02*
D03*
X638000D02*
D03*
X653500Y216047D02*
D03*
D71*
X662000Y204512D02*
D03*
Y169488D02*
D03*
X690000Y305012D02*
D03*
Y293988D02*
D03*
X674500D02*
D03*
Y305012D02*
D03*
X662000Y180512D02*
D03*
Y193488D02*
D03*
D72*
X625000Y210256D02*
D03*
Y204744D02*
D03*
X619500Y196256D02*
D03*
Y190744D02*
D03*
D73*
X612500Y224941D02*
D03*
X617500Y239559D02*
D03*
Y234441D02*
D03*
X612500Y230059D02*
D03*
D74*
X619500Y206464D02*
D03*
Y201536D02*
D03*
D75*
X600307Y194500D02*
D03*
X613693D02*
D03*
D76*
X594866Y146906D02*
D03*
Y141394D02*
D03*
Y135882D02*
D03*
X589354Y146906D02*
D03*
X583843D02*
D03*
X589354Y141394D02*
D03*
Y135882D02*
D03*
X583843Y141394D02*
D03*
Y135882D02*
D03*
D77*
X593000Y361382D02*
D03*
Y371618D02*
D03*
D78*
X582650Y361000D02*
D03*
X553850Y373500D02*
D03*
X560150D02*
D03*
X576350Y361000D02*
D03*
D79*
X547000Y234362D02*
D03*
X530000D02*
D03*
Y229638D02*
D03*
X547000D02*
D03*
D80*
X243000Y234482D02*
D03*
Y257518D02*
D03*
X228000Y234482D02*
D03*
Y257518D02*
D03*
D81*
X550000Y320555D02*
D03*
D82*
X540000Y361106D02*
D03*
X550000D02*
D03*
X560000D02*
D03*
D83*
X614663Y294000D02*
D03*
X620779D02*
D03*
D84*
X651886Y193408D02*
D03*
X630626D02*
D03*
X651886Y177908D02*
D03*
X630626D02*
D03*
D85*
X691000Y163449D02*
D03*
Y144551D02*
D03*
X675000Y163449D02*
D03*
Y144551D02*
D03*
D86*
X690000Y263870D02*
D03*
Y285130D02*
D03*
X674500Y263870D02*
D03*
Y285130D02*
D03*
D87*
X602039Y271500D02*
D03*
X606961D02*
D03*
X602039Y277500D02*
D03*
X606961D02*
D03*
X601539Y257500D02*
D03*
X606461D02*
D03*
X601539Y252500D02*
D03*
X606461D02*
D03*
D88*
X557756Y219500D02*
D03*
X552244D02*
D03*
X557756Y214500D02*
D03*
X552244D02*
D03*
X541256Y229500D02*
D03*
X535744D02*
D03*
D89*
X532701Y219827D02*
D03*
Y198173D02*
D03*
X545299D02*
D03*
Y219827D02*
D03*
D90*
X213500Y377929D02*
D03*
Y361000D02*
D03*
D91*
X471500Y362854D02*
D03*
D92*
X481500Y322500D02*
D03*
X461500D02*
D03*
D103*
X436086Y129940D02*
D03*
X346414Y163060D02*
D03*
X436086Y199940D02*
D03*
X346414Y233060D02*
D03*
D110*
X465933Y146500D02*
D03*
Y216500D02*
D03*
X316567D02*
D03*
Y146500D02*
D03*
D139*
X434240Y158311D02*
D03*
Y163035D02*
D03*
Y228311D02*
D03*
Y233035D02*
D03*
X348260Y134689D02*
D03*
Y129965D02*
D03*
Y204689D02*
D03*
Y199965D02*
D03*
D144*
X114779Y224890D02*
D03*
D145*
Y243000D02*
D03*
D154*
X399736Y363500D02*
D03*
Y288000D02*
D03*
D155*
X580000Y279110D02*
D03*
X543500D02*
D03*
D158*
X429264Y288000D02*
D03*
Y363500D02*
D03*
D162*
X236681Y131181D02*
D03*
X543500Y292890D02*
D03*
X580000D02*
D03*
X185500Y131181D02*
D03*
Y162677D02*
D03*
X236681D02*
D03*
D166*
X607000Y194500D02*
D03*
D172*
X663500Y259000D02*
X665975Y261475D01*
X638494Y263739D02*
X655345D01*
X658667Y259000D02*
X663500D01*
X657706Y258039D02*
X658667Y259000D01*
X657539Y258039D02*
X657706D01*
X641403Y260889D02*
X656526D01*
X657487Y261850D01*
X655345Y263739D02*
X656306Y264700D01*
X257500Y251366D02*
X257502D01*
X257937Y251802D01*
Y267000D01*
X270263Y259500D02*
Y268237D01*
X248124Y272500D02*
X266000D01*
X270263Y268237D01*
X242124Y278500D02*
X248124Y272500D01*
X241425Y278500D02*
X242124D01*
X107000Y344500D02*
Y350390D01*
X228000Y257518D02*
X243000D01*
X656306Y264700D02*
X657416D01*
X657487Y261850D02*
X660571D01*
X656775Y257275D02*
X657539Y258039D01*
X641057Y257275D02*
X656775D01*
X660571Y261850D02*
X672721Y274000D01*
X683000D01*
X637314Y266589D02*
X653246D01*
X653896Y267239D01*
X589354Y135882D02*
Y141394D01*
X644500Y289500D02*
X652500D01*
X642464Y287464D02*
X644500Y289500D01*
X641403Y253528D02*
X654972D01*
X655000Y253500D01*
X637317Y256357D02*
X640139D01*
X641057Y257275D01*
X637047Y256087D02*
X637317Y256357D01*
X640350Y269439D02*
X642980D01*
X645552Y272012D02*
X652988D01*
X642980Y269439D02*
X645552Y272012D01*
X637047Y266323D02*
X637314Y266589D01*
X652988Y272012D02*
X653000Y272000D01*
X639070Y176019D02*
Y176355D01*
X630626Y177908D02*
X637516D01*
X639070Y176355D01*
X652904Y278488D02*
X653393Y278000D01*
X653782D01*
X646024Y278488D02*
X652904D01*
X641535Y274000D02*
X646024Y278488D01*
X669844Y277462D02*
Y282640D01*
X672335Y285130D02*
X674500D01*
X668753Y276370D02*
X669844Y277462D01*
Y282640D02*
X672335Y285130D01*
X683000Y274000D02*
X689625Y280625D01*
X665000Y273649D02*
Y300177D01*
X669835Y305012D01*
X674500D01*
X689286Y285844D02*
X690000Y285130D01*
X689286Y285844D02*
Y293368D01*
X689906Y293988D01*
X690000D01*
Y305012D02*
Y311000D01*
X689625Y284754D02*
X690000Y285130D01*
X680000Y225220D02*
X691000Y214220D01*
Y163449D02*
Y214220D01*
X685488Y253000D02*
X689000Y249488D01*
Y234221D02*
Y249488D01*
X680000Y225220D02*
X689000Y234221D01*
X685488Y253000D02*
Y262130D01*
X688228Y264870D01*
X690000D01*
X689625Y280625D02*
Y284754D01*
X637047Y279658D02*
Y281677D01*
X631034Y193000D02*
X636835D01*
X638553Y276829D02*
X640062D01*
X641036Y277803D01*
Y277874D01*
X641403Y274000D02*
X641535D01*
X642464Y279302D02*
Y287464D01*
X641036Y277874D02*
X642464Y279302D01*
X621000Y305500D02*
X637047Y289453D01*
Y281677D02*
Y289453D01*
Y274000D02*
X637352D01*
X636975Y281605D02*
X637047Y281677D01*
X632105Y281605D02*
X636975D01*
X632000Y281500D02*
X632105Y281605D01*
X630626Y193408D02*
X631034Y193000D01*
X615000Y305500D02*
Y360500D01*
X609000Y366500D02*
X615000Y360500D01*
X609000Y366500D02*
X610500Y368000D01*
X615000Y305500D02*
X621000D01*
X592610D02*
X615000D01*
X604087Y388000D02*
X610500Y381587D01*
Y368000D02*
Y381587D01*
X580000Y292890D02*
X592610Y305500D01*
X543500Y292890D02*
X580000D01*
X584890Y288000D01*
X614153D01*
X674500Y285130D02*
Y293988D01*
X627500Y239461D02*
Y243000D01*
X674012Y252024D02*
Y253500D01*
Y252024D02*
X680000Y246035D01*
Y239000D02*
Y246035D01*
X674012Y253500D02*
Y263382D01*
X674500Y263870D01*
X675000Y163449D02*
X676177D01*
X680000Y167272D02*
Y179000D01*
X676177Y163449D02*
X680000Y167272D01*
X678488Y180512D02*
X680000Y179000D01*
X654489Y180512D02*
X678488D01*
X651886Y177908D02*
X654489Y180512D01*
X651886Y193408D02*
X651966Y193488D01*
X662000D01*
X662354Y193134D01*
X679646D01*
X680000Y192780D01*
D173*
X284976Y247024D02*
Y252476D01*
X285000Y252500D01*
X284953Y247000D02*
X284976Y247024D01*
X253500Y268000D02*
X254500Y267000D01*
X257937D01*
X293000Y237902D02*
Y280500D01*
X267598Y286902D02*
X286598D01*
X293000Y280500D01*
X287598Y232500D02*
X293000Y237902D01*
X284953Y233008D02*
X285429Y232531D01*
X286086D02*
X286117Y232500D01*
X284953Y233008D02*
Y233500D01*
X285429Y232531D02*
X286086D01*
X286117Y232500D02*
X287598D01*
X259114Y189886D02*
Y191524D01*
X258638Y192000D02*
X259114Y191524D01*
Y189886D02*
X262500Y186500D01*
X315669D01*
X318048Y188878D01*
X337622D01*
X258138Y192000D02*
Y198000D01*
Y192000D02*
X258638D01*
X248153D02*
X258138D01*
X344949Y181551D02*
X345783D01*
X337622Y188878D02*
X344949Y181551D01*
X346791Y177000D02*
Y180543D01*
X345783Y181551D02*
X346791Y180543D01*
X235547Y204606D02*
X248153Y192000D01*
X235547Y204606D02*
Y205000D01*
X239342Y210500D02*
Y210795D01*
X251512Y222965D01*
X256260D01*
X256559Y223264D01*
X284854Y241500D02*
Y246902D01*
X235547Y209047D02*
X237000Y210500D01*
X239342D01*
X235547Y205000D02*
Y209047D01*
X243000Y234482D02*
X243491Y233991D01*
X253509D01*
X263362Y192000D02*
Y198000D01*
X358209Y173457D02*
X361165Y170500D01*
X381772D01*
X358209Y173457D02*
Y177000D01*
X403606Y180122D02*
X415528D01*
X403228Y180500D02*
X403606Y180122D01*
X415528D02*
X416000Y179650D01*
X612500Y116000D02*
X617898D01*
X600500Y104000D02*
X612500Y116000D01*
X537500Y104000D02*
X600500D01*
X533500Y111500D02*
X534560Y110440D01*
Y106940D02*
X537500Y104000D01*
X534560Y106940D02*
Y110440D01*
X576553Y141447D02*
X583789D01*
X583843Y141394D01*
X576500Y141500D02*
X576553Y141447D01*
X533500Y141500D02*
Y166000D01*
X641227Y247500D02*
X646130D01*
X640629Y248098D02*
X641227Y247500D01*
X637358Y248098D02*
X640629D01*
X637047Y248410D02*
X637358Y248098D01*
X646130Y235500D02*
Y241267D01*
Y247500D01*
X533500Y176000D02*
X549000D01*
X422354Y233000D02*
X422372Y233018D01*
X434222D01*
X434240Y233035D01*
X403606Y185878D02*
X411878D01*
X416646Y190646D01*
Y233000D01*
X403228Y185500D02*
X403606Y185878D01*
X403228Y165500D02*
X404902D01*
X407402Y163000D01*
X415146D01*
X420854D02*
X420872Y163018D01*
X434223D01*
X434240Y163035D01*
X348260Y129965D02*
X348278Y129982D01*
X367128D01*
X367146Y130000D01*
X372677Y130177D02*
X372854Y130000D01*
X372677Y130177D02*
Y138323D01*
X372500Y138500D02*
X372677Y138323D01*
X372000Y175500D02*
X381772D01*
X367000Y185500D02*
X381772D01*
X362824Y189676D02*
X367000Y185500D01*
X354634Y189676D02*
X362824D01*
X354354Y189955D02*
X354634Y189676D01*
X354354Y189955D02*
Y190000D01*
X348646D02*
Y190492D01*
X348260Y190878D02*
X348646Y190492D01*
X348260Y190878D02*
Y199965D01*
X372000Y193350D02*
X372886D01*
X373894Y192342D01*
Y192327D02*
Y192342D01*
Y192327D02*
X375721Y190500D01*
X381772D01*
D174*
X253500Y241132D02*
Y250181D01*
X254000Y250680D02*
Y260000D01*
X253500Y250181D02*
X254000Y250680D01*
X247458Y266500D02*
X251000Y262958D01*
Y241000D02*
Y262958D01*
Y241000D02*
X254644Y237356D01*
X259906Y233500D02*
Y239094D01*
X257500Y241500D02*
Y246634D01*
Y241500D02*
X259906Y239094D01*
X243865Y266500D02*
X247458D01*
X257276Y237356D02*
X257276D01*
X253500Y241132D02*
X257276Y237356D01*
X257276D02*
X257819Y236813D01*
Y233618D02*
X257937Y233500D01*
X257819Y233618D02*
Y236813D01*
X255968Y233500D02*
Y236047D01*
X254660Y237356D02*
X255968Y236047D01*
X254644Y237356D02*
X254660D01*
X279097Y233549D02*
Y246951D01*
X279047Y233500D02*
X279097Y233549D01*
X267779Y233500D02*
X279047D01*
Y247000D02*
X279097Y246951D01*
X278815Y258886D02*
X280000D01*
X265811Y245882D02*
X278815Y258886D01*
X265811Y233500D02*
Y245882D01*
X263683Y264734D02*
Y266175D01*
X263843Y259500D02*
Y264575D01*
Y252988D02*
Y259500D01*
X262858Y267000D02*
X263683Y266175D01*
Y264734D02*
X263843Y264575D01*
X270263Y256263D02*
Y259500D01*
X263843Y233500D02*
Y249843D01*
X261874Y251020D02*
X263843Y252988D01*
X261874Y233500D02*
Y251020D01*
X263843Y249843D02*
X270263Y256263D01*
X263843Y198480D02*
Y217358D01*
X261874Y207626D02*
Y217358D01*
X263362Y198000D02*
X263843Y198480D01*
X256574Y202325D02*
X261874Y207626D01*
X247654Y205000D02*
X247850D01*
X250525Y202325D01*
X256574D01*
X265811Y209479D02*
X270138Y205153D01*
X265811Y209479D02*
Y217358D01*
X255968D02*
X257937D01*
X259906D01*
X255968Y212106D02*
Y217358D01*
X254664Y210802D02*
X255968Y212106D01*
X267779Y215610D02*
Y217358D01*
Y215610D02*
X274862Y208528D01*
Y198000D02*
Y208528D01*
X270138Y198000D02*
Y205153D01*
X241453Y205000D02*
X247654D01*
X254346D02*
X254505Y205159D01*
Y210341D01*
X254664Y210500D01*
X244657D02*
X249336D01*
Y214446D02*
X250500Y215610D01*
X253742D02*
X254000Y215868D01*
X249336Y210500D02*
Y214446D01*
X254000Y215868D02*
Y217358D01*
X250500Y215610D02*
X253742D01*
X637047Y261205D02*
X641088D01*
D175*
X230697Y378508D02*
X245992D01*
X308500Y270500D02*
X316567Y262433D01*
X245992Y378508D02*
X308500Y316000D01*
Y270500D02*
Y316000D01*
X316567Y243067D02*
Y262433D01*
Y243067D02*
X322500Y249000D01*
X402500D02*
X403228Y248272D01*
Y195500D02*
Y248272D01*
X402500Y249000D02*
X462000D01*
X322500D02*
X402500D01*
X381772Y160228D02*
Y165500D01*
X352303Y304492D02*
X352724Y304071D01*
Y301276D02*
X364508Y289492D01*
X352303Y304492D02*
Y319098D01*
X364508Y289492D02*
X398244D01*
X352724Y301276D02*
Y304071D01*
X295000Y208000D02*
X303500Y216500D01*
X228000Y222500D02*
Y234482D01*
X303500Y216500D02*
X316567D01*
Y243067D01*
X185815Y278500D02*
X241425D01*
X268402Y279303D02*
X268988Y278716D01*
X267598Y280106D02*
X268402Y279303D01*
X253831Y179827D02*
X260827D01*
X261000Y180000D01*
X236681Y162677D02*
X253831Y179827D01*
X261000Y180000D02*
X272282D01*
X118000Y342854D02*
X125858D01*
X118000D02*
Y349000D01*
X125858Y342854D02*
X125866Y342862D01*
X127331D01*
X190500Y268000D02*
X223851Y234649D01*
X227833D01*
X158000Y268000D02*
X190500D01*
X227833Y234649D02*
X228000Y234482D01*
X235697Y318803D02*
X267598Y286902D01*
X231189Y318803D02*
X235697D01*
X230697Y319295D02*
X231189Y318803D01*
X267598Y280106D02*
Y286902D01*
X268988Y278500D02*
Y278717D01*
X197000Y174177D02*
Y233000D01*
X185500Y162677D02*
X197000Y174177D01*
X114779Y243000D02*
X115706Y242073D01*
X118194D01*
X149130Y241500D02*
X157630Y233000D01*
X118194Y242073D02*
X118768Y241500D01*
X149130D01*
X135000Y291000D02*
X158000Y268000D01*
X130508Y291000D02*
X135000D01*
X160815Y303500D02*
X185815Y278500D01*
X280000Y270114D02*
X280006Y270120D01*
Y278494D01*
X280012Y278500D01*
X147575Y303500D02*
X160815D01*
X106492Y291000D02*
Y307500D01*
X130508Y304835D02*
Y307500D01*
Y304835D02*
X130842Y304500D01*
X137425D01*
X146575D02*
X147575Y303500D01*
X114779Y224890D02*
X154500Y185169D01*
Y176610D02*
Y185169D01*
X381772Y160228D02*
X412060Y129940D01*
X379332Y163060D02*
X381772Y165500D01*
X412060Y129940D02*
X436086D01*
X346791Y163651D02*
Y177000D01*
X346414Y163060D02*
Y163274D01*
X346791Y163651D01*
X346414Y163060D02*
X379332D01*
X230205Y304000D02*
X230697Y304492D01*
X227209Y304000D02*
X230205D01*
X226709Y303500D02*
X227209Y304000D01*
X134823Y320323D02*
X163677D01*
X118000Y337146D02*
X134823Y320323D01*
X180500Y303500D02*
X226709D01*
X163677Y320323D02*
X180500Y303500D01*
X107000Y361610D02*
X107413D01*
X108803Y363000D01*
X133886D01*
X213500Y327004D02*
X222004D01*
X228276Y333276D01*
Y333606D02*
X228768Y334098D01*
X228276Y333276D02*
Y333606D01*
X228768Y334098D02*
X230697D01*
X193583Y326571D02*
X213500D01*
X169909Y350244D02*
X193583Y326571D01*
X169909Y350244D02*
Y353000D01*
X346414Y233060D02*
X368440D01*
X416000Y173350D02*
X421650D01*
X403228Y175500D02*
X408107D01*
X410256Y173350D02*
X416000D01*
X408107Y175500D02*
X410256Y173350D01*
X421650D02*
X439083D01*
X421650D02*
X426914Y178615D01*
X439083Y173350D02*
X446898Y165535D01*
X453472Y158961D01*
X465933Y146500D01*
X426914Y190768D02*
X436086Y199940D01*
X426914Y178615D02*
Y190768D01*
X247862Y120000D02*
X260055D01*
X236681Y131181D02*
X247862Y120000D01*
X260055D02*
X261000Y120945D01*
X457811Y122133D02*
Y138378D01*
X465933Y146500D01*
X261000Y120945D02*
X270945Y111000D01*
X446678D02*
X457811Y122133D01*
X270945Y111000D02*
X446678D01*
X153636Y143146D02*
X173535D01*
X185500Y131181D01*
X399736Y363500D02*
Y372764D01*
X377453Y388047D02*
X384453D01*
X377000Y388500D02*
X377453Y388047D01*
X384453D02*
X399736Y372764D01*
X352500Y319787D02*
Y333606D01*
X352008Y319295D02*
X352500Y319787D01*
X399736Y288000D02*
Y363500D01*
X398244Y289492D02*
X399736Y288000D01*
X352008Y334098D02*
X352500Y333606D01*
X350303Y334098D02*
X352008D01*
X350303Y319295D02*
X352008D01*
X542890Y278500D02*
X543500Y279110D01*
X399736Y288000D02*
X400287Y287449D01*
Y284213D02*
Y287449D01*
X406000Y278500D02*
X542890D01*
X400287Y284213D02*
X406000Y278500D01*
X213500Y343500D02*
Y361000D01*
Y377929D02*
X213789Y378219D01*
X230408D01*
X230697Y378508D01*
Y348902D02*
Y363705D01*
X461500Y322500D02*
X481500D01*
X449000D02*
X461500D01*
X446500Y325000D02*
X449000Y322500D01*
X368000Y348902D02*
Y349000D01*
X350303Y348902D02*
X368000D01*
X350303D02*
Y363705D01*
Y378508D01*
X462000Y249000D02*
X465933Y245067D01*
Y216500D02*
Y245067D01*
X470854Y363500D02*
X471500Y362854D01*
X429264Y363500D02*
X470854D01*
X429264Y288000D02*
Y363500D01*
X316567Y169567D02*
X325500Y178500D01*
X316567Y146500D02*
Y169567D01*
X272282Y180000D02*
X305782Y146500D01*
X316567D01*
X368440Y233060D02*
X381772Y219728D01*
Y196071D02*
Y219728D01*
X372394Y199158D02*
X378685D01*
X381772Y195500D02*
Y196071D01*
X378685Y199158D02*
X381772Y196071D01*
X372000Y199551D02*
Y199650D01*
Y199551D02*
X372394Y199158D01*
D176*
X572881Y221500D02*
X575063Y222173D01*
X575233Y222343D02*
X576020Y223579D01*
X575063Y222173D02*
X575233Y222343D01*
X570100Y223900D02*
X572500Y221500D01*
X572881D01*
X570100Y223900D02*
Y237365D01*
X573000Y225500D02*
X573024Y225524D01*
X575996D02*
X576020Y225547D01*
X573024Y225524D02*
X575996D01*
X570164Y240771D02*
Y241057D01*
X567000Y241453D02*
X569769D01*
X570164Y241057D01*
X570100Y237365D02*
X570164Y240771D01*
X626536Y221879D02*
X630181Y218234D01*
Y217186D02*
Y218234D01*
Y217186D02*
X631364Y216002D01*
Y216000D02*
X631500Y215864D01*
X622500Y228500D02*
X631461D01*
X637508Y222453D01*
X638000D01*
X626536Y222000D02*
Y222122D01*
X622500Y226157D02*
X626536Y222122D01*
X622500Y226157D02*
Y228500D01*
X631500Y209923D02*
Y215864D01*
X588449Y220339D02*
X590260Y218528D01*
X590500D01*
Y218257D02*
X591000Y217757D01*
X590500Y218257D02*
Y218528D01*
X591000Y215453D02*
Y217757D01*
X609410Y216043D02*
X610000Y215453D01*
X603500Y216043D02*
X609410D01*
X597500D02*
X603500D01*
X591590D02*
X597500D01*
X591000Y215453D02*
X591590Y216043D01*
X586500Y205500D02*
X587500Y204500D01*
Y196000D02*
Y204500D01*
X582508Y216508D02*
Y221012D01*
X582500Y216500D02*
X582508Y216508D01*
Y221012D02*
X582516Y221020D01*
X584093Y193547D02*
X586545Y196000D01*
X587500D01*
X584093Y192593D02*
Y193547D01*
X575949Y184449D02*
X584093Y192593D01*
X575949Y180921D02*
Y184449D01*
X572250Y202308D02*
X586453Y216511D01*
X572250Y196000D02*
Y202308D01*
X586453Y216511D02*
Y221020D01*
X570949Y180921D02*
Y194699D01*
X572250Y196000D01*
X562405Y200339D02*
X580520Y218453D01*
Y220992D01*
X562405Y198453D02*
Y200339D01*
X580520Y220992D02*
X580547Y221020D01*
X559953Y196000D02*
X562405Y198453D01*
X557000Y196000D02*
X559953D01*
X559407Y192593D02*
Y193593D01*
X565569Y181301D02*
Y186431D01*
X559407Y192593D02*
X565569Y186431D01*
Y181301D02*
X565949Y180921D01*
X557000Y196000D02*
X559407Y193593D01*
X559303Y224744D02*
X567000D01*
X559000Y225047D02*
X559303Y224744D01*
X578579Y219079D02*
Y221020D01*
X567000Y222000D02*
Y224744D01*
X578183Y218683D02*
X578579Y219079D01*
X570317Y218683D02*
X578183D01*
X567000Y222000D02*
X570317Y218683D01*
X639000Y185500D02*
X641500Y188000D01*
Y193870D02*
X651201Y203571D01*
X641500Y188000D02*
Y193870D01*
X632000Y250000D02*
X634012D01*
X634857Y250845D02*
X636924D01*
X634012Y250000D02*
X634857Y250845D01*
X636924D02*
X637047Y250969D01*
X652524Y203571D02*
X653500Y204547D01*
X651201Y203571D02*
X652524D01*
X641339Y237976D02*
Y238839D01*
X642728Y240228D01*
X645153D01*
X640362Y237000D02*
X641339Y237976D01*
X640362Y230138D02*
Y237295D01*
X645153Y240228D02*
X645463Y240538D01*
Y240896D02*
X645834Y241267D01*
X646130D01*
X645463Y240538D02*
Y240896D01*
X637047Y248410D02*
Y250969D01*
X644524Y223429D02*
X645500Y222453D01*
X640362Y230138D02*
X644524Y225976D01*
Y223429D02*
Y225976D01*
X645500Y211340D02*
Y216547D01*
X638000Y211340D02*
Y216547D01*
X589347Y185500D02*
X639000D01*
X585949Y182102D02*
X589347Y185500D01*
X585949Y180921D02*
Y182102D01*
X653500Y210453D02*
Y216047D01*
X614395Y234441D02*
X617500D01*
X614000Y234836D02*
X614395Y234441D01*
X614000Y242000D02*
X618606Y246606D01*
X614000Y234836D02*
Y242000D01*
X618606Y246606D02*
Y257529D01*
X617169Y258646D02*
X617358Y258457D01*
X617678D02*
X618606Y257529D01*
X615000Y258646D02*
X617169D01*
X617358Y258457D02*
X617678D01*
X618187Y261205D02*
X619956Y259436D01*
Y241818D02*
Y259436D01*
X615000Y261205D02*
X618187D01*
X617697Y239559D02*
X619956Y241818D01*
X617500Y239559D02*
X617697D01*
X609000Y266500D02*
X609105Y266395D01*
X614928D01*
X615000Y266323D01*
X622402Y239559D02*
X622500Y239461D01*
X617500Y239559D02*
X622402D01*
X617402Y230059D02*
X617500Y229961D01*
X612500Y230059D02*
X617402D01*
X617500Y229961D02*
Y234441D01*
X586846Y188000D02*
X593000D01*
X596000Y191000D01*
X580949Y182102D02*
X586846Y188000D01*
X580949Y180921D02*
Y182102D01*
X624804Y204744D02*
X625000D01*
X624004Y203553D02*
Y203944D01*
X624000Y190500D02*
Y203549D01*
X624004Y203553D01*
Y203944D02*
X624804Y204744D01*
X625000D02*
X625167Y204911D01*
X631333D01*
X631500Y205077D01*
X619500Y196256D02*
Y201536D01*
X619500Y201536D02*
X619500Y201536D01*
X545299Y219827D02*
X545626Y219500D01*
X552244D01*
X545299Y219827D02*
X547000Y221528D01*
Y229638D01*
X546931Y229569D02*
X547000Y229638D01*
X541325Y229569D02*
X546931D01*
X541256Y229500D02*
X541325Y229569D01*
X535675D02*
X535744Y229500D01*
X530069Y229569D02*
X535675D01*
X530000Y229638D02*
X530069Y229569D01*
X617398Y151500D02*
X617898Y151000D01*
X611000Y151500D02*
X617398D01*
X563250Y219250D02*
X563500Y219000D01*
X558006Y219250D02*
X563250D01*
X557756Y219500D02*
X558006Y219250D01*
X533500Y131500D02*
X533750Y131250D01*
X548750D01*
X549000Y131000D01*
X619500Y190744D02*
X619622Y190622D01*
X623878D01*
X624000Y190500D01*
X617898Y121000D02*
X624000D01*
X533500Y121500D02*
X538000Y126000D01*
X549000D01*
X611771Y146000D02*
X617898D01*
X611000Y146500D02*
X611271D01*
X611771Y146000D01*
X563250Y214250D02*
X563500Y214000D01*
X558006Y214250D02*
X563250D01*
X557756Y214500D02*
X558006Y214250D01*
X532701Y219827D02*
X533882D01*
X539209Y214500D01*
X552244D01*
X535744Y220370D02*
Y229500D01*
X532701Y219827D02*
X532744Y219870D01*
X614768Y196256D02*
X619500D01*
X613693Y194500D02*
Y195181D01*
X614768Y196256D01*
X634673Y159008D02*
X635673Y158008D01*
X659827D02*
X659870D01*
X673327Y144551D01*
X668132Y136000D02*
X687500D01*
X646124Y158008D02*
X668132Y136000D01*
X687500D02*
X690774Y139274D01*
Y144325D01*
X691000Y144551D01*
X635673Y158008D02*
X646124D01*
X673327Y144551D02*
X675000D01*
D177*
X262862Y278500D02*
X267598D01*
X250575D02*
X257138D01*
D178*
X657416Y264700D02*
X658377D01*
X662677Y269000D01*
D179*
X617913Y388000D02*
X624000Y381913D01*
Y366500D02*
Y381913D01*
X592809Y361191D02*
X593000Y361382D01*
X582840Y361191D02*
X592809D01*
X582650Y361000D02*
X582840Y361191D01*
X576500Y134000D02*
Y141500D01*
X553500Y111000D02*
X576500Y134000D01*
X549000Y111000D02*
X553500D01*
X471500Y362854D02*
X539335D01*
X649000Y352500D02*
X649313Y352813D01*
X659187D01*
X659500Y353126D01*
X535687Y387813D02*
X550000Y373500D01*
X553850Y373500D02*
X554078Y373727D01*
X543500Y380000D02*
X582257D01*
X588988Y373269D01*
X550000Y320555D02*
Y361106D01*
Y373500D01*
X669807Y353264D02*
X669945Y353402D01*
X659638Y353264D02*
X669807D01*
X659500Y353126D02*
X659638Y353264D01*
X670000Y353457D02*
Y361539D01*
X669945Y353402D02*
X670000Y353457D01*
X679000Y353402D02*
Y362250D01*
X687529Y370778D01*
X689508D01*
X690000Y371271D01*
Y371657D01*
Y388000D01*
X588988Y372874D02*
Y373269D01*
X550000Y373500D02*
X553850D01*
X588988Y372874D02*
X590244Y371618D01*
X593000D01*
X560000Y361106D02*
X576000D01*
X539335Y362854D02*
X540000Y362189D01*
Y361106D02*
Y362189D01*
X560000Y361106D02*
Y373350D01*
X560150Y373500D01*
X532187Y387813D02*
X535687D01*
X532000Y388000D02*
X532187Y387813D01*
D180*
X638331Y253528D02*
X641403D01*
D181*
X640062Y269152D02*
X640350Y269439D01*
X637317Y269152D02*
X640062D01*
D182*
X641088Y261205D02*
X641403Y260889D01*
D183*
X637047Y263764D02*
X637072Y263739D01*
X638494D01*
X637047Y276559D02*
X637317Y276829D01*
D184*
X637047Y268882D02*
X637317Y269152D01*
D185*
X637047Y253528D02*
X637992D01*
D186*
X637047Y279118D02*
Y279658D01*
D187*
X637317Y276829D02*
X638553D01*
D188*
X637352Y274000D02*
X641403D01*
D189*
X261000Y180000D02*
D03*
X134500Y136256D02*
D03*
Y183500D02*
D03*
D190*
X261000Y120945D02*
D03*
D191*
X160815Y303500D02*
D03*
D192*
X180500D02*
D03*
D193*
X197000Y233000D02*
D03*
D194*
X157630D02*
D03*
D195*
X154500Y176610D02*
D03*
Y143146D02*
D03*
D196*
X617913Y388000D02*
D03*
X604087D02*
D03*
D197*
X533500Y111500D02*
D03*
Y176000D02*
D03*
D198*
X651405Y138142D02*
D03*
X656327Y159008D02*
D03*
X634673D02*
D03*
D199*
X583500Y336500D02*
D03*
D200*
X533500Y166000D02*
D03*
Y141500D02*
D03*
Y131500D02*
D03*
Y121500D02*
D03*
D201*
X117000Y382500D02*
D03*
X681500Y117000D02*
D03*
D202*
X635000Y305500D02*
D03*
D203*
X615000D02*
D03*
D204*
X532000Y388000D02*
D03*
X690000D02*
D03*
D205*
X645500Y151528D02*
D03*
Y122000D02*
D03*
X265220Y223264D02*
D03*
Y227594D02*
D03*
X256559D02*
D03*
Y223264D02*
D03*
X260890Y227594D02*
D03*
Y223264D02*
D03*
X628189Y267209D02*
D03*
Y254217D02*
D03*
Y262878D02*
D03*
Y258547D02*
D03*
Y275870D02*
D03*
X623858Y271539D02*
D03*
X628189D02*
D03*
X623858Y275870D02*
D03*
Y258547D02*
D03*
Y262878D02*
D03*
Y254217D02*
D03*
Y267209D02*
D03*
D206*
X680000Y239000D02*
D03*
Y192780D02*
D03*
D207*
Y225220D02*
D03*
Y179000D02*
D03*
D208*
X583500Y344374D02*
D03*
D209*
X665975Y261475D02*
D03*
X653896Y267239D02*
D03*
X285000Y252500D02*
D03*
X254000Y260000D02*
D03*
X573000Y225500D02*
D03*
X243865Y266500D02*
D03*
X253500Y268000D02*
D03*
X107000Y344500D02*
D03*
X118000Y349000D02*
D03*
X662677Y269000D02*
D03*
X586500Y205500D02*
D03*
X582500Y216500D02*
D03*
X622500Y228500D02*
D03*
X576500Y141500D02*
D03*
X652500Y289500D02*
D03*
X655000Y253500D02*
D03*
X653000Y272000D02*
D03*
X639070Y176019D02*
D03*
X653782Y278000D02*
D03*
X668753Y276370D02*
D03*
X665000Y273649D02*
D03*
X636835Y193000D02*
D03*
X632000Y250000D02*
D03*
Y281500D02*
D03*
X573500Y261500D02*
D03*
X690000Y311000D02*
D03*
X602001Y261603D02*
D03*
X609000Y266500D02*
D03*
X602000Y248500D02*
D03*
X627500Y243000D02*
D03*
X579000Y261500D02*
D03*
X596000Y191000D02*
D03*
X610500Y294000D02*
D03*
X611000Y151500D02*
D03*
X563500Y219000D02*
D03*
X624000Y190500D02*
D03*
Y121000D02*
D03*
X611000Y146500D02*
D03*
X563500Y214000D02*
D03*
X528500Y363000D02*
D03*
X649000Y352500D02*
D03*
X358500Y233000D02*
D03*
X325500Y178500D02*
D03*
X372500Y138500D02*
D03*
X372000Y175500D02*
D03*
D210*
X228000Y222500D02*
D03*
X295000Y208000D02*
D03*
D211*
X590500Y218528D02*
D03*
D212*
X446500Y325000D02*
D03*
X368000Y349000D02*
D03*
M02*
