G04*
G04 #@! TF.GenerationSoftware,Altium Limited,Altium Designer,25.5.2 (35)*
G04*
G04 Layer_Color=32768*
%FSLAX25Y25*%
%MOIN*%
G70*
G04*
G04 #@! TF.SameCoordinates,CCCDE38D-7695-4EB3-ABC8-F25FB468ABE4*
G04*
G04*
G04 #@! TF.FilePolarity,Positive*
G04*
G01*
G75*
%ADD11C,0.00787*%
%ADD213C,0.00197*%
D11*
X447374Y288000D02*
G03*
X381626Y288000I-32874J0D01*
G01*
D02*
G03*
X447374Y288000I32874J0D01*
G01*
Y363500D02*
G03*
X381626Y363500I-32874J0D01*
G01*
D02*
G03*
X447374Y363500I32874J0D01*
G01*
X543500Y268874D02*
G03*
X543500Y303126I0J17126D01*
G01*
D02*
G03*
X543500Y268874I0J-17126D01*
G01*
X580000D02*
G03*
X580000Y303126I0J17126D01*
G01*
D02*
G03*
X580000Y268874I0J-17126D01*
G01*
X633764Y203237D02*
Y211763D01*
X629236Y203237D02*
X633764D01*
X629236D02*
Y211763D01*
X633764D01*
X254268Y275622D02*
X265733D01*
X254268D02*
Y281378D01*
X265733D01*
Y275622D02*
Y281378D01*
X266626Y282437D02*
X282374D01*
Y274563D02*
Y282437D01*
X266626Y274563D02*
X282374D01*
X266626D02*
Y282437D01*
X284445Y255626D02*
Y273374D01*
X275555Y255626D02*
X284445D01*
X275555D02*
Y273374D01*
X284445D01*
X259640Y255441D02*
X274466D01*
X259640D02*
Y263559D01*
X274466D01*
Y255441D02*
Y263559D01*
X255236Y244555D02*
X259764D01*
Y253445D01*
X255236D02*
X259764D01*
X255236Y244555D02*
Y253445D01*
X277177Y249362D02*
X286823D01*
Y244638D02*
Y249362D01*
X277177Y244638D02*
X286823D01*
X277177D02*
Y249362D01*
Y231138D02*
X286823D01*
X277177D02*
Y235862D01*
X286823D01*
Y231138D02*
Y235862D01*
X267776Y200362D02*
X277224D01*
Y195638D02*
Y200362D01*
X267776Y195638D02*
X277224D01*
X267776D02*
Y200362D01*
X256276Y195638D02*
X265724D01*
X256276D02*
Y200362D01*
X265724D01*
Y195638D02*
Y200362D01*
X256276Y189638D02*
X265724D01*
X256276D02*
Y194362D01*
X265724D01*
Y189638D02*
Y194362D01*
X245488Y202835D02*
X256512D01*
X245488D02*
Y207165D01*
X256512D01*
Y202835D02*
Y207165D01*
X247645Y208335D02*
X256355D01*
X247645D02*
Y212665D01*
X256355D01*
Y208335D02*
Y212665D01*
X413472Y160736D02*
X422528D01*
X413472D02*
Y165264D01*
X422528D01*
Y160736D02*
Y165264D01*
X346972Y192264D02*
X356028D01*
Y187736D02*
Y192264D01*
X346972Y187736D02*
X356028D01*
X346972D02*
Y192264D01*
X104366Y280992D02*
X147634D01*
Y205008D02*
Y280992D01*
X104366Y205008D02*
X147634D01*
X104366D02*
Y280992D01*
X643767Y233138D02*
Y237862D01*
Y233138D02*
X653216D01*
Y237862D01*
X643767D02*
X653216D01*
X235504Y261170D02*
X250497D01*
X235504Y230830D02*
Y261170D01*
Y230830D02*
X250497D01*
Y261170D01*
X611988Y291220D02*
X623453D01*
X611988D02*
Y296780D01*
X623453D01*
Y291220D02*
Y296780D01*
X660626Y257437D02*
X676374D01*
Y249563D02*
Y257437D01*
X660626Y249563D02*
X676374D01*
X660626D02*
Y257437D01*
X643767Y249862D02*
X653216D01*
Y245138D02*
Y249862D01*
X643767Y245138D02*
X653216D01*
X643767D02*
Y249862D01*
Y243862D02*
X653216D01*
Y239138D02*
Y243862D01*
X643767Y239138D02*
X653216D01*
X643767D02*
Y243862D01*
X633276Y234638D02*
X642724D01*
X633276D02*
Y239362D01*
X642724D01*
Y234638D02*
Y239362D01*
X651138Y202677D02*
X655862D01*
Y212323D01*
X651138D02*
X655862D01*
X651138Y202677D02*
Y212323D01*
X651039Y223921D02*
X655961D01*
X651039Y214079D02*
Y223921D01*
Y214079D02*
X655961D01*
Y223921D01*
X643138Y224323D02*
X647862D01*
X643138Y214677D02*
Y224323D01*
Y214677D02*
X647862D01*
Y224323D01*
X635638D02*
X640362D01*
X635638Y214677D02*
Y224323D01*
Y214677D02*
X640362D01*
Y224323D01*
X624555Y224284D02*
X633445D01*
Y219717D02*
Y224284D01*
X624555Y219717D02*
X633445D01*
X624555D02*
Y224284D01*
X624460Y213638D02*
X633540D01*
X624460D02*
Y218362D01*
X633540D01*
Y213638D02*
Y218362D01*
X599862Y208760D02*
Y217815D01*
X595138Y208760D02*
X599862D01*
X595138D02*
Y217815D01*
X599862D01*
X612953Y207185D02*
Y217815D01*
X607047Y207185D02*
X612953D01*
X607047D02*
Y217815D01*
X612953D01*
X617216Y199555D02*
Y208445D01*
X621783D01*
Y199555D02*
Y208445D01*
X617216Y199555D02*
X621783D01*
X683126Y249063D02*
Y256937D01*
Y249063D02*
X698874D01*
Y256937D01*
X683126D02*
X698874D01*
X686063Y291626D02*
Y307374D01*
X693937D01*
Y291626D02*
Y307374D01*
X686063Y291626D02*
X693937D01*
X611988Y285835D02*
Y290165D01*
Y285835D02*
X623012D01*
Y290165D01*
X611988D02*
X623012D01*
X590220Y241768D02*
Y253233D01*
X595780D01*
Y241768D02*
Y253233D01*
X590220Y241768D02*
X595780D01*
X583720D02*
Y253233D01*
X589280D01*
Y241768D02*
Y253233D01*
X583720Y241768D02*
X589280D01*
X577220D02*
Y253233D01*
X582780D01*
Y241768D02*
Y253233D01*
X577220Y241768D02*
X582780D01*
X570720D02*
Y253233D01*
X576280D01*
Y241768D02*
Y253233D01*
X570720Y241768D02*
X576280D01*
X569953Y233185D02*
Y243815D01*
X564047Y233185D02*
X569953D01*
X564047D02*
Y243815D01*
X569953D01*
X564638Y222972D02*
Y232028D01*
X569362D01*
Y222972D02*
Y232028D01*
X564638Y222972D02*
X569362D01*
X556047Y222685D02*
Y233315D01*
X561953D01*
Y222685D02*
Y233315D01*
X556047Y222685D02*
X561953D01*
X549433Y192071D02*
Y225929D01*
X528567Y192071D02*
X549433D01*
X528567D02*
Y225929D01*
X549433D01*
X598339Y200209D02*
X615661D01*
Y188791D02*
Y200209D01*
X598339Y188791D02*
X615661D01*
X598339D02*
Y200209D01*
X593953Y207185D02*
Y217815D01*
X588047Y207185D02*
X593953D01*
X588047D02*
Y217815D01*
X593953D01*
X605862Y208760D02*
Y217815D01*
X601138Y208760D02*
X605862D01*
X601138D02*
Y217815D01*
X605862D01*
X527638Y227276D02*
X532362D01*
Y236724D01*
X527638D02*
X532362D01*
X527638Y227276D02*
Y236724D01*
X544638Y227276D02*
X549362D01*
Y236724D01*
X544638D02*
X549362D01*
X544638Y227276D02*
Y236724D01*
X220503Y230830D02*
Y261170D01*
X235496D01*
Y230830D02*
Y261170D01*
X220503Y230830D02*
X235496D01*
X428925Y166776D02*
X482075D01*
X428925Y126224D02*
Y166776D01*
Y126224D02*
X482075D01*
Y166776D01*
X428925Y236776D02*
X482075D01*
X428925Y196224D02*
Y236776D01*
Y196224D02*
X482075D01*
Y236776D01*
X424028Y230736D02*
Y235264D01*
X414972D02*
X424028D01*
X414972Y230736D02*
Y235264D01*
Y230736D02*
X424028D01*
X300425Y126224D02*
X353575D01*
Y166776D01*
X300425D02*
X353575D01*
X300425Y126224D02*
Y166776D01*
Y196224D02*
X353575D01*
Y236776D01*
X300425D02*
X353575D01*
X300425Y196224D02*
Y236776D01*
X365472Y127736D02*
Y132264D01*
Y127736D02*
X374528D01*
Y132264D01*
X365472D02*
X374528D01*
X586701Y358232D02*
X599299D01*
Y374768D01*
X586701D02*
X599299D01*
X586701Y358232D02*
Y374768D01*
X686039Y376004D02*
X693961D01*
X686039Y360996D02*
Y376004D01*
Y360996D02*
X693961D01*
Y376004D01*
X658063Y182874D02*
X665937D01*
X658063Y167126D02*
Y182874D01*
Y167126D02*
X665937D01*
Y182874D01*
X658063Y206874D02*
X665937D01*
X658063Y191126D02*
Y206874D01*
Y191126D02*
X665937D01*
Y206874D01*
X670563Y291626D02*
X678437D01*
Y307374D01*
X670563D02*
X678437D01*
X670563Y291626D02*
Y307374D01*
D213*
X288531Y341500D02*
X292469D01*
X290500Y339531D02*
Y343468D01*
X224988Y395496D02*
X356012D01*
Y287504D02*
Y395496D01*
X224988Y287504D02*
X356012D01*
X224988D02*
Y395496D01*
X623130Y207500D02*
X626870D01*
X625000Y205630D02*
Y209370D01*
X622638Y202776D02*
Y212224D01*
X627362Y202776D02*
Y212224D01*
X622638Y202776D02*
X627362D01*
X622638Y212224D02*
X627362D01*
X617138Y198224D02*
X621862D01*
X617138Y188776D02*
X621862D01*
Y198224D01*
X617138Y188776D02*
Y198224D01*
X619500Y191630D02*
Y195370D01*
X617630Y193500D02*
X621370D01*
X626098Y200889D02*
X656413D01*
X626098Y185928D02*
Y200889D01*
Y185928D02*
X656413D01*
Y200889D01*
X641256Y191440D02*
Y195377D01*
X639287Y193408D02*
X643224D01*
X639287Y177908D02*
X643224D01*
X641256Y175940D02*
Y179877D01*
X656413Y170428D02*
Y185389D01*
X626098Y170428D02*
X656413D01*
X626098D02*
Y185389D01*
X656413D01*
X697480Y259343D02*
Y289657D01*
X682520D02*
X697480D01*
X682520Y259343D02*
Y289657D01*
Y259343D02*
X697480D01*
X688031Y274500D02*
X691968D01*
X690000Y272532D02*
Y276468D01*
X681980Y259343D02*
Y289657D01*
X667020D02*
X681980D01*
X667020Y259343D02*
Y289657D01*
Y259343D02*
X681980D01*
X672532Y274500D02*
X676469D01*
X674500Y272532D02*
Y276468D01*
X555000Y217630D02*
Y221370D01*
X553130Y219500D02*
X556870D01*
X550276Y217138D02*
X559724D01*
X550276Y221862D02*
X559724D01*
Y217138D02*
Y221862D01*
X550276Y217138D02*
Y221862D01*
X555000Y212630D02*
Y216370D01*
X553130Y214500D02*
X556870D01*
X550276Y212138D02*
X559724D01*
X550276Y216862D02*
X559724D01*
Y212138D02*
Y216862D01*
X550276Y212138D02*
Y216862D01*
X538500Y227630D02*
Y231370D01*
X536630Y229500D02*
X540370D01*
X533776Y227138D02*
X543224D01*
X533776Y231862D02*
X543224D01*
Y227138D02*
Y231862D01*
X533776Y227138D02*
Y231862D01*
X527417Y105122D02*
Y147878D01*
X539583D01*
Y105122D02*
Y147878D01*
X527417Y105122D02*
X539583D01*
Y159622D02*
Y182378D01*
X527417Y159622D02*
X539583D01*
X527417D02*
Y182378D01*
X539583D01*
M02*
