G04*
G04 #@! TF.GenerationSoftware,Altium Limited,Altium Designer,25.5.2 (35)*
G04*
G04 Layer_Color=32768*
%FSLAX44Y44*%
%MOMM*%
G71*
G04*
G04 #@! TF.SameCoordinates,5C3ED261-42B6-482D-99A8-9BAFA3442630*
G04*
G04*
G04 #@! TF.FilePolarity,Positive*
G04*
G01*
G75*
%ADD13C,0.1000*%
D13*
X627870Y987560D02*
G03*
X627870Y987560I-5000J0D01*
G01*
X1606290Y467887D02*
X1651290D01*
Y435887D02*
Y467887D01*
X1606290Y435887D02*
X1651290D01*
X1606290D02*
Y467887D01*
X1342390Y270510D02*
Y372110D01*
X1367790Y270510D02*
Y372110D01*
X1342390Y270510D02*
X1367790D01*
X1342390Y372110D02*
X1367790D01*
Y408940D02*
Y459740D01*
X1342390Y408940D02*
X1367790D01*
X1342390D02*
Y459740D01*
X1367790D01*
X1606290Y475257D02*
Y507257D01*
Y475257D02*
X1651290D01*
Y507257D01*
X1606290D02*
X1651290D01*
X1737870Y696870D02*
X1769870D01*
X1737870Y651870D02*
Y696870D01*
Y651870D02*
X1769870D01*
Y696870D01*
X1695960D02*
X1727960D01*
X1695960Y651870D02*
Y696870D01*
Y651870D02*
X1727960D01*
Y696870D01*
X867870Y891710D02*
X895370D01*
Y880710D02*
Y891710D01*
X867870Y880710D02*
X895370D01*
X867870Y918310D02*
X895370D01*
Y929310D01*
X867870D02*
X895370D01*
X867870Y955910D02*
X895370D01*
Y966910D01*
X867870D02*
X895370D01*
X867870Y843110D02*
X895370D01*
Y854110D01*
X867870D02*
X895370D01*
X867870Y805510D02*
X895370D01*
Y816510D01*
X867870D02*
X895370D01*
X867870Y767910D02*
X895370D01*
Y778910D01*
X867870D02*
X895370D01*
X580370D02*
X607870D01*
X580370Y767910D02*
Y778910D01*
Y767910D02*
X607870D01*
X580370Y816510D02*
X607870D01*
X580370Y805510D02*
Y816510D01*
Y805510D02*
X607870D01*
X580370Y854110D02*
X607870D01*
X580370Y843110D02*
Y854110D01*
Y843110D02*
X607870D01*
X580370Y966910D02*
X607870D01*
X580370Y955910D02*
Y966910D01*
Y955910D02*
X607870D01*
X580370Y929310D02*
X607870D01*
X580370Y918310D02*
Y929310D01*
Y918310D02*
X607870D01*
X580370Y880710D02*
X607870D01*
X580370D02*
Y891710D01*
X607870D01*
Y1002560D02*
X867870D01*
Y732260D02*
Y1002560D01*
X607870Y732260D02*
X867870D01*
X607870D02*
Y1002560D01*
M02*
