G04*
G04 #@! TF.GenerationSoftware,Altium Limited,Altium Designer,25.5.2 (35)*
G04*
G04 Layer_Color=2752767*
%FSLAX44Y44*%
%MOMM*%
G71*
G04*
G04 #@! TF.SameCoordinates,5C3ED261-42B6-482D-99A8-9BAFA3442630*
G04*
G04*
G04 #@! TF.FilePolarity,Positive*
G04*
G01*
G75*
%ADD15C,0.1270*%
%ADD199C,0.1693*%
D15*
X1541780Y488950D02*
X1544320Y491490D01*
X1546860D01*
X1544320Y494030D01*
X1546860Y496570D01*
X1544320D01*
X1541780Y499110D01*
X1539240Y496570D01*
X1536700D01*
X1539240Y494030D01*
X1536700Y491490D01*
X1539240D01*
X1541780Y488950D01*
X1637030Y848080D02*
X1639570D01*
X1642110Y850620D01*
X1644650Y848080D01*
X1647190D01*
Y850620D01*
X1644650Y853160D01*
X1647190Y855700D01*
Y858240D01*
X1644650D01*
X1642110Y855700D01*
X1639570Y858240D01*
X1637030D01*
Y855700D01*
X1639570Y853160D01*
X1637030Y850620D01*
Y848080D01*
Y813080D02*
X1639570D01*
X1642110Y815620D01*
X1644650Y813080D01*
X1647190D01*
Y815620D01*
X1644650Y818160D01*
X1647190Y820700D01*
Y823240D01*
X1644650D01*
X1642110Y820700D01*
X1639570Y823240D01*
X1637030D01*
Y820700D01*
X1639570Y818160D01*
X1637030Y815620D01*
Y813080D01*
X1544320D02*
X1546860D01*
X1549400Y815620D01*
X1551940Y813080D01*
X1554480D01*
Y815620D01*
X1551940Y818160D01*
X1554480Y820700D01*
Y823240D01*
X1551940D01*
X1549400Y820700D01*
X1546860Y823240D01*
X1544320D01*
Y820700D01*
X1546860Y818160D01*
X1544320Y815620D01*
Y813080D01*
X1658380Y343260D02*
X1660920Y348340D01*
X1658380Y353420D01*
X1663460Y350880D01*
X1668540Y353420D01*
X1666000Y348340D01*
X1668540Y343260D01*
X1663460Y345800D01*
X1658380Y343260D01*
X1660412Y345292D02*
X1661936Y348340D01*
X1660412Y351388D01*
X1663460Y349864D01*
X1666508Y351388D01*
X1664984Y348340D01*
X1666508Y345292D01*
X1663460Y346816D01*
X1660412Y345292D01*
X1482090Y849630D02*
X1484630Y852170D01*
X1487170D01*
X1484630Y854710D01*
X1487170Y857250D01*
X1484630D01*
X1482090Y859790D01*
X1479550Y857250D01*
X1477010D01*
X1479550Y854710D01*
X1477010Y852170D01*
X1479550D01*
X1482090Y849630D01*
Y851662D02*
X1483614Y853186D01*
X1485138D01*
X1483614Y854710D01*
X1485138Y856234D01*
X1483614D01*
X1482090Y857758D01*
X1480566Y856234D01*
X1479042D01*
X1480566Y854710D01*
X1479042Y853186D01*
X1480566D01*
X1482090Y851662D01*
X1023794Y935986D02*
X1015330D01*
Y923290D01*
X1023794D01*
X1015330Y929638D02*
X1019562D01*
X1352550Y356870D02*
Y354330D01*
X1357630D01*
Y356870D01*
X1360170D01*
Y361950D01*
X1357630D01*
Y364490D01*
X1352550D01*
Y361950D01*
X1350010D01*
Y356870D01*
X1352550D01*
Y419100D02*
Y416560D01*
X1357630D01*
Y419100D01*
X1360170D01*
Y424180D01*
X1357630D01*
Y426720D01*
X1352550D01*
Y424180D01*
X1350010D01*
Y419100D01*
X1352550D01*
X1023794Y744216D02*
X1015330D01*
Y731520D01*
X1023794D01*
X1015330Y737868D02*
X1019562D01*
X1544320Y848080D02*
X1546860D01*
X1549400Y850620D01*
X1551940Y848080D01*
X1554480D01*
Y850620D01*
X1551940Y853160D01*
X1554480Y855700D01*
Y858240D01*
X1551940D01*
X1549400Y855700D01*
X1546860Y858240D01*
X1544320D01*
Y855700D01*
X1546860Y853160D01*
X1544320Y850620D01*
Y848080D01*
X1490980Y764540D02*
X1485900Y774700D01*
X1496060D01*
X1490980Y764540D01*
Y766572D02*
X1487932Y772668D01*
X1494028D01*
X1490980Y766572D01*
X1352550Y280670D02*
Y278130D01*
X1357630D01*
Y280670D01*
X1360170D01*
Y285750D01*
X1357630D01*
Y288290D01*
X1352550D01*
Y285750D01*
X1350010D01*
Y280670D01*
X1352550D01*
X1490980Y713740D02*
X1485900Y723900D01*
X1496060D01*
X1490980Y713740D01*
Y715772D02*
X1487932Y721868D01*
X1494028D01*
X1490980Y715772D01*
X453390Y765810D02*
X455930D01*
X458470Y768350D01*
X461010Y765810D01*
X463550D01*
Y768350D01*
X461010Y770890D01*
X463550Y773430D01*
Y775970D01*
X461010D01*
X458470Y773430D01*
X455930Y775970D01*
X453390D01*
Y773430D01*
X455930Y770890D01*
X453390Y768350D01*
Y765810D01*
X596090Y328120D02*
X598630D01*
X601170Y330660D01*
X603710Y328120D01*
X606250D01*
Y330660D01*
X603710Y333200D01*
X606250Y335740D01*
Y338280D01*
X603710D01*
X601170Y335740D01*
X598630Y338280D01*
X596090D01*
Y335740D01*
X598630Y333200D01*
X596090Y330660D01*
Y328120D01*
X671404Y319896D02*
X662940D01*
Y307200D01*
X671404D01*
X662940Y313548D02*
X667172D01*
X1352550Y331470D02*
Y328930D01*
X1357630D01*
Y331470D01*
X1360170D01*
Y336550D01*
X1357630D01*
Y339090D01*
X1352550D01*
Y336550D01*
X1350010D01*
Y331470D01*
X1352550D01*
Y306070D02*
Y303530D01*
X1357630D01*
Y306070D01*
X1360170D01*
Y311150D01*
X1357630D01*
Y313690D01*
X1352550D01*
Y311150D01*
X1350010D01*
Y306070D01*
X1352550D01*
X403390Y765810D02*
X405930D01*
X408470Y768350D01*
X411010Y765810D01*
X413550D01*
Y768350D01*
X411010Y770890D01*
X413550Y773430D01*
Y775970D01*
X411010D01*
X408470Y773430D01*
X405930Y775970D01*
X403390D01*
Y773430D01*
X405930Y770890D01*
X403390Y768350D01*
Y765810D01*
X1482090Y869630D02*
X1484630Y872170D01*
X1487170D01*
X1484630Y874710D01*
X1487170Y877250D01*
X1484630D01*
X1482090Y879790D01*
X1479550Y877250D01*
X1477010D01*
X1479550Y874710D01*
X1477010Y872170D01*
X1479550D01*
X1482090Y869630D01*
Y871662D02*
X1483614Y873186D01*
X1485138D01*
X1483614Y874710D01*
X1485138Y876234D01*
X1483614D01*
X1482090Y877758D01*
X1480566Y876234D01*
X1479042D01*
X1480566Y874710D01*
X1479042Y873186D01*
X1480566D01*
X1482090Y871662D01*
X1098794Y935986D02*
X1090330D01*
Y923290D01*
X1098794D01*
X1090330Y929638D02*
X1094562D01*
X1098794Y744216D02*
X1090330D01*
Y731520D01*
X1098794D01*
X1090330Y737868D02*
X1094562D01*
X1352550Y444500D02*
Y441960D01*
X1357630D01*
Y444500D01*
X1360170D01*
Y449580D01*
X1357630D01*
Y452120D01*
X1352550D01*
Y449580D01*
X1350010D01*
Y444500D01*
X1352550D01*
X671404Y469896D02*
X662940D01*
Y457200D01*
X671404D01*
X662940Y463548D02*
X667172D01*
X466090Y328120D02*
X468630D01*
X471170Y330660D01*
X473710Y328120D01*
X476250D01*
Y330660D01*
X473710Y333200D01*
X476250Y335740D01*
Y338280D01*
X473710D01*
X471170Y335740D01*
X468630Y338280D01*
X466090D01*
Y335740D01*
X468630Y333200D01*
X466090Y330660D01*
Y328120D01*
Y408120D02*
X468630D01*
X471170Y410660D01*
X473710Y408120D01*
X476250D01*
Y410660D01*
X473710Y413200D01*
X476250Y415740D01*
Y418280D01*
X473710D01*
X471170Y415740D01*
X468630Y418280D01*
X466090D01*
Y415740D01*
X468630Y413200D01*
X466090Y410660D01*
Y408120D01*
X596090D02*
X598630D01*
X601170Y410660D01*
X603710Y408120D01*
X606250D01*
Y410660D01*
X603710Y413200D01*
X606250Y415740D01*
Y418280D01*
X603710D01*
X601170Y415740D01*
X598630Y418280D01*
X596090D01*
Y415740D01*
X598630Y413200D01*
X596090Y410660D01*
Y408120D01*
X393700Y366750D02*
X396240D01*
X398780Y369290D01*
X401320Y366750D01*
X403860D01*
Y369290D01*
X401320Y371830D01*
X403860Y374370D01*
Y376910D01*
X401320D01*
X398780Y374370D01*
X396240Y376910D01*
X393700D01*
Y374370D01*
X396240Y371830D01*
X393700Y369290D01*
Y366750D01*
X395732Y368782D02*
X397256D01*
X398780Y370306D01*
X400304Y368782D01*
X401828D01*
Y370306D01*
X400304Y371830D01*
X401828Y373354D01*
Y374878D01*
X400304D01*
X398780Y373354D01*
X397256Y374878D01*
X395732D01*
Y373354D01*
X397256Y371830D01*
X395732Y370306D01*
Y368782D01*
X400380Y633730D02*
Y643890D01*
X410540D01*
Y633730D01*
X400380D01*
X402412Y635762D02*
Y641858D01*
X408508D01*
Y635762D01*
X402412D01*
X500380Y633730D02*
Y643890D01*
X510540D01*
Y633730D01*
X500380D01*
X502412Y635762D02*
Y641858D01*
X508508D01*
Y635762D01*
X502412D01*
X393700Y451750D02*
X396240D01*
X398780Y454290D01*
X401320Y451750D01*
X403860D01*
Y454290D01*
X401320Y456830D01*
X403860Y459370D01*
Y461910D01*
X401320D01*
X398780Y459370D01*
X396240Y461910D01*
X393700D01*
Y459370D01*
X396240Y456830D01*
X393700Y454290D01*
Y451750D01*
X395732Y453782D02*
X397256D01*
X398780Y455306D01*
X400304Y453782D01*
X401828D01*
Y455306D01*
X400304Y456830D01*
X401828Y458354D01*
Y459878D01*
X400304D01*
X398780Y458354D01*
X397256Y459878D01*
X395732D01*
Y458354D01*
X397256Y456830D01*
X395732Y455306D01*
Y453782D01*
X347980Y474330D02*
Y482794D01*
X352212Y487026D01*
X356444Y482794D01*
Y474330D01*
Y480678D01*
X347980D01*
Y354330D02*
Y362794D01*
X352212Y367026D01*
X356444Y362794D01*
Y354330D01*
Y360678D01*
X347980D01*
X285190Y635000D02*
Y645160D01*
X295350D01*
Y635000D01*
X285190D01*
Y589000D02*
Y599160D01*
X295350D01*
Y589000D01*
X285190D01*
X1615880Y396260D02*
X1618420Y401340D01*
X1615880Y406420D01*
X1620960Y403880D01*
X1626040Y406420D01*
X1623500Y401340D01*
X1626040Y396260D01*
X1620960Y398800D01*
X1615880Y396260D01*
X1617912Y398292D02*
X1619436Y401340D01*
X1617912Y404388D01*
X1620960Y402864D01*
X1624008Y404388D01*
X1622484Y401340D01*
X1624008Y398292D01*
X1620960Y399816D01*
X1617912Y398292D01*
X1670880Y396260D02*
X1673420Y401340D01*
X1670880Y406420D01*
X1675960Y403880D01*
X1681040Y406420D01*
X1678500Y401340D01*
X1681040Y396260D01*
X1675960Y398800D01*
X1670880Y396260D01*
X1672912Y398292D02*
X1674436Y401340D01*
X1672912Y404388D01*
X1675960Y402864D01*
X1679008Y404388D01*
X1677484Y401340D01*
X1679008Y398292D01*
X1675960Y399816D01*
X1672912Y398292D01*
X1645920Y304800D02*
Y302260D01*
X1651000D01*
Y304800D01*
X1653540D01*
Y309880D01*
X1651000D01*
Y312420D01*
X1645920D01*
Y309880D01*
X1643380D01*
Y304800D01*
X1645920D01*
X1646936Y305816D02*
Y304292D01*
X1649984D01*
Y305816D01*
X1651508D01*
Y308864D01*
X1649984D01*
Y310388D01*
X1646936D01*
Y308864D01*
X1645412D01*
Y305816D01*
X1646936D01*
X1645920Y379800D02*
Y377260D01*
X1651000D01*
Y379800D01*
X1653540D01*
Y384880D01*
X1651000D01*
Y387420D01*
X1645920D01*
Y384880D01*
X1643380D01*
Y379800D01*
X1645920D01*
X1646936Y380816D02*
Y379292D01*
X1649984D01*
Y380816D01*
X1651508D01*
Y383864D01*
X1649984D01*
Y385388D01*
X1646936D01*
Y383864D01*
X1645412D01*
Y380816D01*
X1646936D01*
X1724660Y569520D02*
Y566980D01*
X1729740D01*
Y569520D01*
X1732280D01*
Y574600D01*
X1729740D01*
Y577140D01*
X1724660D01*
Y574600D01*
X1722120D01*
Y569520D01*
X1724660D01*
Y604520D02*
Y601980D01*
X1729740D01*
Y604520D01*
X1732280D01*
Y609600D01*
X1729740D01*
Y612140D01*
X1724660D01*
Y609600D01*
X1722120D01*
Y604520D01*
X1724660D01*
Y452120D02*
Y449580D01*
X1729740D01*
Y452120D01*
X1732280D01*
Y457200D01*
X1729740D01*
Y459740D01*
X1724660D01*
Y457200D01*
X1722120D01*
Y452120D01*
X1724660D01*
Y487120D02*
Y484580D01*
X1729740D01*
Y487120D01*
X1732280D01*
Y492200D01*
X1729740D01*
Y494740D01*
X1724660D01*
Y492200D01*
X1722120D01*
Y487120D01*
X1724660D01*
X1725930Y292100D02*
X1728470Y297180D01*
X1725930Y302260D01*
X1731010Y299720D01*
X1736090Y302260D01*
X1733550Y297180D01*
X1736090Y292100D01*
X1731010Y294640D01*
X1725930Y292100D01*
X292100Y966470D02*
X294640Y971550D01*
X292100Y976630D01*
X297180Y974090D01*
X302260Y976630D01*
X299720Y971550D01*
X302260Y966470D01*
X297180Y969010D01*
X292100Y966470D01*
X631840Y569379D02*
X636920Y574459D01*
X642000Y569379D01*
X636920Y564299D01*
X631840Y569379D01*
X642840D02*
X647920Y574459D01*
X653000Y569379D01*
X647920Y564299D01*
X642840Y569379D01*
X631840Y580379D02*
X636920Y585459D01*
X642000Y580379D01*
X636920Y575299D01*
X631840Y580379D01*
X642840D02*
X647920Y585459D01*
X653000Y580379D01*
X647920Y575299D01*
X642840Y580379D01*
Y558379D02*
X647920Y563459D01*
X653000Y558379D01*
X647920Y553299D01*
X642840Y558379D01*
X631840D02*
X636920Y563459D01*
X642000Y558379D01*
X636920Y553299D01*
X631840Y558379D01*
X1342390Y916940D02*
X1337310Y927100D01*
X1347470D01*
X1342390Y916940D01*
X1648460Y890270D02*
X1643380Y900430D01*
X1653540D01*
X1648460Y890270D01*
X1433040Y655830D02*
X1438120Y660910D01*
X1443200Y655830D01*
X1438120Y650750D01*
X1433040Y655830D01*
Y688830D02*
X1438120Y693910D01*
X1443200Y688830D01*
X1438120Y683750D01*
X1433040Y688830D01*
Y666830D02*
X1438120Y671910D01*
X1443200Y666830D01*
X1438120Y661750D01*
X1433040Y666830D01*
Y677830D02*
X1438120Y682910D01*
X1443200Y677830D01*
X1438120Y672750D01*
X1433040Y677830D01*
Y633830D02*
X1438120Y638910D01*
X1443200Y633830D01*
X1438120Y628750D01*
X1433040Y633830D01*
X1422040Y644830D02*
X1427120Y649910D01*
X1432200Y644830D01*
X1427120Y639750D01*
X1422040Y644830D01*
X1433040D02*
X1438120Y649910D01*
X1443200Y644830D01*
X1438120Y639750D01*
X1433040Y644830D01*
X1422040Y633830D02*
X1427120Y638910D01*
X1432200Y633830D01*
X1427120Y628750D01*
X1422040Y633830D01*
Y677830D02*
X1427120Y682910D01*
X1432200Y677830D01*
X1427120Y672750D01*
X1422040Y677830D01*
Y666830D02*
X1427120Y671910D01*
X1432200Y666830D01*
X1427120Y661750D01*
X1422040Y666830D01*
Y688830D02*
X1427120Y693910D01*
X1432200Y688830D01*
X1427120Y683750D01*
X1422040Y688830D01*
Y655830D02*
X1427120Y660910D01*
X1432200Y655830D01*
X1427120Y650750D01*
X1422040Y655830D01*
X1464310Y354330D02*
X1459230Y364490D01*
X1469390D01*
X1464310Y354330D01*
X910590Y586740D02*
X905510Y596900D01*
X915670D01*
X910590Y586740D01*
X826770Y448310D02*
X821690Y458470D01*
X831850D01*
X826770Y448310D01*
X946150Y346710D02*
X941070Y356870D01*
X951230D01*
X946150Y346710D01*
X944880Y440690D02*
X939800Y450850D01*
X949960D01*
X944880Y440690D01*
D199*
X1539460Y985520D02*
G03*
X1539460Y985520I-5080J0D01*
G01*
X1574580D02*
G03*
X1574580Y985520I-5080J0D01*
G01*
X1356360D02*
G03*
X1356360Y985520I-5080J0D01*
G01*
X1757680D02*
G03*
X1757680Y985520I-5080J0D01*
G01*
M02*
