M48
;Layer_Color=9474304
;FILE_FORMAT=2:4
INCH,TZ
;TYPE=PLATED
T01F00S00C0.0079
T02F00S00C0.0080
T03F00S00C0.0100
T04F00S00C0.0197
T05F00S00C0.0295
T06F00S00C0.0315
T07F00S00C0.0331
T08F00S00C0.0394
T09F00S00C0.0400
T10F00S00C0.0433
T11F00S00C0.0512
T12F00S00C0.0638
T13F00S00C0.0650
T14F00S00C0.0681
T15F00S00C0.0710
T16F00S00C0.0984
;TYPE=NON_PLATED
T17F00S00C0.0295
T18F00S00C0.0394
T19F00S00C0.1181
%
T01
X62819Y25422
Y25855
Y26288
Y26721
Y27154
Y27587
X62386
Y27154
Y26721
Y26288
Y25855
Y25422
X26522Y22759
Y22326
X26089Y22326
X25656
Y22759
X26089Y22759
T02
X59050Y21853
T03
X37250Y13850
X57650Y14150
X61100Y14650
Y15150
X62400Y12100
X63907Y17602
X63683Y19300
X62750Y24300
X63200Y25000
X65500Y25350
X65390Y26724
X65300Y27200
X65378Y27800
X65250Y28950
X66500Y27365
X66875Y27637
X66268Y26900
X66597Y26147
X63200Y28150
X69000Y31100
X61050Y29400
X60900Y26650
X60200Y26160
X60200Y24850
X57900Y26150
X57350
X57300Y22550
X56350Y21900
Y21400
X58250Y21650
X58650Y20550
X59600Y19100
X62400Y19050
X62250Y22850
X35850Y23300
X37200Y17550
X32550Y17850
X28500Y25250
X25400Y26000
X25350Y26800
X24387Y26650
X11800Y34900
X10700Y34450
X52850Y36300
X64900Y35250
T04
X36800Y34900
X44650Y32500
T05
X58350Y33650
Y34437
T06
X18550Y13118
X23668
X54350Y27911
Y29289
X58000
Y27911
X18050Y30350
X16082
X18550Y16268
X23668
T07
X53200Y38800
X60409
X61791
X69000
T08
X26100Y12094
X39974Y28800
X42926
X26100Y18000
X39974Y36350
X42926
T09
X22800Y22250
X29500Y20800
T10
X53350Y11150
Y12150
Y13150
Y14150
X68000Y17900
Y19278
Y22522
Y23900
X53350Y17600
Y16600
T11
X15763Y23300
X19700
T12
X63500Y30550
X61500
T13
X11478Y22489
Y24300
T14
X15450Y14315
Y17661
T15
X65141Y13814
X65633Y15901
X63467
T16
X68150Y11700
X11700Y38250
T17
X60700Y19450
T18
X64550Y12200
Y15153
T19
X13450Y13626
Y18350
M30
