M48
;Layer_Color=9474304
;FILE_FORMAT=4:4
METRIC,LZ
;TYPE=PLATED
T01F00S00C0.2000
T02F00S00C0.7112
T03F00S00C0.7500
T04F00S00C0.8000
T05F00S00C0.8400
T06F00S00C1.0000
T07F00S00C1.1000
T08F00S00C1.3000
T09F00S00C1.6200
T10F00S00C1.6500
T11F00S00C1.7300
T12F00S00C1.8028
T13F00S00C2.5000
;TYPE=NON_PLATED
T14F00S00C0.7500
T15F00S00C1.0000
T16F00S00C3.0000
%
T01
X0142712Y0063383
X0143812
Y0064483
Y0065583
Y0066683
Y0067783
Y0068883
X0142712
Y0067783
Y0066683
Y0065583
Y0064483
X0064792Y00580379
X0064792Y00569379
X0063692
Y00580379
X0063692Y00558379
X0064792
T02
X0094615Y0035179
X0146431Y0035941
X0094488Y0044577
X0082677Y0045339
X0091059Y0059182
X0134239Y0092202
X0164846Y0089535
T03
X0148209Y0085471
Y0087471
T04
X0047117Y003332
X0060117
Y004132
X0047117
X0045847Y0077089
X0040847
X015494Y0081816
Y0085316
X0164211
Y0081816
T05
X0135128Y0098552
X0153438
X015695
X017526
T06
X0066294Y003072
X0101533Y0073152
X0109033
X0066294Y004572
X0101533Y0092329
X0109033
T07
X0135509Y0028321
Y0030861
Y0033401
Y0035941
X017272Y0045466
Y0048966
Y0057206
Y0060706
X0135509Y0044704
Y0042164
T08
X0040546Y0063881
X0050546
T09
X0149098Y0071882
Y0076962
T10
X0029027Y0059408
Y0064008
T11
X0039878Y0037183
Y0045683
T12
X0166346Y0034834
X0167596Y0040134
X0162096
T13
X0173101Y0029718
X0029718Y0097155
T14
X0154178Y0049403
T15
X0164846Y0030734
Y0038234
T16
X0034798Y0035433
Y0047433
M30
