G04*
G04 #@! TF.GenerationSoftware,Altium Limited,Altium Designer,25.5.2 (35)*
G04*
G04 Layer_Color=8388736*
%FSLAX25Y25*%
%MOIN*%
G70*
G04*
G04 #@! TF.SameCoordinates,CCCDE38D-7695-4EB3-ABC8-F25FB468ABE4*
G04*
G04*
G04 #@! TF.FilePolarity,Positive*
G04*
G01*
G75*
%ADD11C,0.00787*%
%ADD12C,0.00394*%
%ADD13C,0.00591*%
D11*
X633173Y204449D02*
Y210551D01*
X629827Y204449D02*
X633173D01*
X629827D02*
Y210551D01*
X633173D01*
X256850Y276827D02*
X263150D01*
X256850D02*
Y280173D01*
X263150D01*
Y276827D02*
Y280173D01*
X267807Y282043D02*
X281193D01*
Y274957D02*
Y282043D01*
X267807Y274957D02*
X281193D01*
X267807D02*
Y282043D01*
X283150Y258201D02*
Y270799D01*
X276850Y258201D02*
X283150D01*
X276850D02*
Y270799D01*
X283150D01*
X264001Y257827D02*
X270104D01*
X264001D02*
Y261173D01*
X270104D01*
Y257827D02*
Y261173D01*
X255925Y245850D02*
X259075D01*
Y252150D01*
X255925D02*
X259075D01*
X255925Y245850D02*
Y252150D01*
X278654Y248870D02*
X285347D01*
Y245130D02*
Y248870D01*
X278654Y245130D02*
X285347D01*
X278654D02*
Y248870D01*
Y231630D02*
X285347D01*
X278654D02*
Y235370D01*
X285347D01*
Y231630D02*
Y235370D01*
X269055Y199870D02*
X275945D01*
Y196130D02*
Y199870D01*
X269055Y196130D02*
X275945D01*
X269055D02*
Y199870D01*
X257555Y196130D02*
X264445D01*
X257555D02*
Y199870D01*
X264445D01*
Y196130D02*
Y199870D01*
X257555Y190130D02*
X264445D01*
X257555D02*
Y193870D01*
X264445D01*
Y190130D02*
Y193870D01*
X247654Y203228D02*
X254346D01*
X247654D02*
Y206772D01*
X254346D01*
Y203228D02*
Y206772D01*
X248850Y208925D02*
X255150D01*
X248850D02*
Y212075D01*
X255150D01*
Y208925D02*
Y212075D01*
X414555Y161130D02*
X421445D01*
X414555D02*
Y164870D01*
X421445D01*
Y161130D02*
Y164870D01*
X348055Y191870D02*
X354945D01*
Y188130D02*
Y191870D01*
X348055Y188130D02*
X354945D01*
X348055D02*
Y191870D01*
X104760Y280598D02*
X147240D01*
Y205402D02*
Y280598D01*
X104760Y205402D02*
X147240D01*
X104760D02*
Y280598D01*
X645047Y233630D02*
Y237370D01*
Y233630D02*
X651937D01*
Y237370D01*
X645047D02*
X651937D01*
X236799Y258402D02*
X249201D01*
X236799Y233598D02*
Y258402D01*
Y233598D02*
X249201D01*
Y258402D01*
X614571Y292425D02*
X620870D01*
X614571D02*
Y295575D01*
X620870D01*
Y292425D02*
Y295575D01*
X661807Y257043D02*
X675193D01*
Y249957D02*
Y257043D01*
X661807Y249957D02*
X675193D01*
X661807D02*
Y257043D01*
X645047Y249370D02*
X651937D01*
Y245630D02*
Y249370D01*
X645047Y245630D02*
X651937D01*
X645047D02*
Y249370D01*
Y243370D02*
X651937D01*
Y239630D02*
Y243370D01*
X645047Y239630D02*
X651937D01*
X645047D02*
Y243370D01*
X634555Y235130D02*
X641445D01*
X634555D02*
Y238870D01*
X641445D01*
Y235130D02*
Y238870D01*
X651630Y204252D02*
X655370D01*
Y210748D01*
X651630D02*
X655370D01*
X651630Y204252D02*
Y210748D01*
X651433Y222642D02*
X655567D01*
X651433Y215358D02*
Y222642D01*
Y215358D02*
X655567D01*
Y222642D01*
X643630Y222748D02*
X647370D01*
X643630Y216252D02*
Y222748D01*
Y216252D02*
X647370D01*
Y222748D01*
X636130D02*
X639870D01*
X636130Y216252D02*
Y222748D01*
Y216252D02*
X639870D01*
Y222748D01*
X625850Y223594D02*
X632150D01*
Y220406D02*
Y223594D01*
X625850Y220406D02*
X632150D01*
X625850D02*
Y223594D01*
Y214425D02*
X632150D01*
X625850D02*
Y217575D01*
X632150D01*
Y214425D02*
Y217575D01*
X599469Y209744D02*
Y216831D01*
X595532Y209744D02*
X599469D01*
X595532D02*
Y216831D01*
X599469D01*
X611772Y209154D02*
Y215846D01*
X608228Y209154D02*
X611772D01*
X608228D02*
Y215846D01*
X611772D01*
X617906Y200850D02*
Y207150D01*
X621095D01*
Y200850D02*
Y207150D01*
X617906Y200850D02*
X621095D01*
X684307Y249457D02*
Y256543D01*
Y249457D02*
X697693D01*
Y256543D01*
X684307D02*
X697693D01*
X686457Y292807D02*
Y306193D01*
X693543D01*
Y292807D02*
Y306193D01*
X686457Y292807D02*
X693543D01*
X614153Y286228D02*
Y289772D01*
Y286228D02*
X620847D01*
Y289772D01*
X614153D02*
X620847D01*
X591425Y244350D02*
Y250650D01*
X594575D01*
Y244350D02*
Y250650D01*
X591425Y244350D02*
X594575D01*
X584925D02*
Y250650D01*
X588075D01*
Y244350D02*
Y250650D01*
X584925Y244350D02*
X588075D01*
X578425D02*
Y250650D01*
X581575D01*
Y244350D02*
Y250650D01*
X578425Y244350D02*
X581575D01*
X571925D02*
Y250650D01*
X575075D01*
Y244350D02*
Y250650D01*
X571925Y244350D02*
X575075D01*
X568772Y235154D02*
Y241846D01*
X565228Y235154D02*
X568772D01*
X565228D02*
Y241846D01*
X568772D01*
X565031Y223957D02*
Y231043D01*
X568968D01*
Y223957D02*
Y231043D01*
X565031Y223957D02*
X568968D01*
X557228Y224654D02*
Y231347D01*
X560772D01*
Y224654D02*
Y231347D01*
X557228Y224654D02*
X560772D01*
X546874Y192465D02*
Y225535D01*
X531126Y192465D02*
X546874D01*
X531126D02*
Y225535D01*
X546874D01*
X600701Y199815D02*
X613299D01*
Y189185D02*
Y199815D01*
X600701Y189185D02*
X613299D01*
X600701D02*
Y199815D01*
X592772Y209154D02*
Y215846D01*
X589228Y209154D02*
X592772D01*
X589228D02*
Y215846D01*
X592772D01*
X605469Y209744D02*
Y216831D01*
X601532Y209744D02*
X605469D01*
X601532D02*
Y216831D01*
X605469D01*
X528130Y228555D02*
X531870D01*
Y235445D01*
X528130D02*
X531870D01*
X528130Y228555D02*
Y235445D01*
X545130Y228555D02*
X548870D01*
Y235445D01*
X545130D02*
X548870D01*
X545130Y228555D02*
Y235445D01*
X221799Y233598D02*
Y258402D01*
X234201D01*
Y233598D02*
Y258402D01*
X221799Y233598D02*
X234201D01*
X434683Y166382D02*
X476317D01*
X434683Y126618D02*
Y166382D01*
Y126618D02*
X476317D01*
Y166382D01*
X434683Y236382D02*
X476317D01*
X434683Y196618D02*
Y236382D01*
Y196618D02*
X476317D01*
Y236382D01*
X422945Y231130D02*
Y234870D01*
X416055D02*
X422945D01*
X416055Y231130D02*
Y234870D01*
Y231130D02*
X422945D01*
X306183Y126618D02*
X347817D01*
Y166382D01*
X306183D02*
X347817D01*
X306183Y126618D02*
Y166382D01*
Y196618D02*
X347817D01*
Y236382D01*
X306183D02*
X347817D01*
X306183Y196618D02*
Y236382D01*
X366555Y128130D02*
Y131870D01*
Y128130D02*
X373445D01*
Y131870D01*
X366555D02*
X373445D01*
X587094Y359216D02*
X598906D01*
Y373783D01*
X587094D02*
X598906D01*
X587094Y359216D02*
Y373783D01*
X688425Y371650D02*
X691575D01*
X688425Y365350D02*
Y371650D01*
Y365350D02*
X691575D01*
Y371650D01*
X658457Y181693D02*
X665543D01*
X658457Y168307D02*
Y181693D01*
Y168307D02*
X665543D01*
Y181693D01*
X658457Y205693D02*
X665543D01*
X658457Y192307D02*
Y205693D01*
Y192307D02*
X665543D01*
Y205693D01*
X670957Y292807D02*
X678043D01*
Y306193D01*
X670957D02*
X678043D01*
X670957Y292807D02*
Y306193D01*
D12*
X632398Y199707D02*
X650114D01*
Y187109D02*
Y199707D01*
X632398Y187109D02*
X650114D01*
X632398D02*
Y199707D01*
Y171609D02*
Y184207D01*
Y171609D02*
X650114D01*
Y184207D01*
X632398D02*
X650114D01*
X696299Y265642D02*
Y283358D01*
X683701Y265642D02*
X696299D01*
X683701D02*
Y283358D01*
X696299D01*
X680799Y265642D02*
Y283358D01*
X668201Y265642D02*
X680799D01*
X668201D02*
Y283358D01*
X680799D01*
D13*
X446980Y288000D02*
G03*
X446980Y288000I-32480J0D01*
G01*
Y363500D02*
G03*
X446980Y363500I-32480J0D01*
G01*
X560232Y286000D02*
G03*
X560232Y286000I-16732J0D01*
G01*
X596732D02*
G03*
X596732Y286000I-16732J0D01*
G01*
M02*
