G04*
G04 #@! TF.GenerationSoftware,Altium Limited,Altium Designer,25.5.2 (35)*
G04*
G04 Layer_Color=16711935*
%FSLAX25Y25*%
%MOIN*%
G70*
G04*
G04 #@! TF.SameCoordinates,CCCDE38D-7695-4EB3-ABC8-F25FB468ABE4*
G04*
G04*
G04 #@! TF.FilePolarity,Positive*
G04*
G01*
G75*
%ADD11C,0.00787*%
%ADD12C,0.00394*%
%ADD15C,0.00500*%
D11*
X251157Y115039D02*
Y185906D01*
X270843D01*
Y115039D02*
Y185906D01*
X251157Y115039D02*
X270843D01*
X104697Y201217D02*
X161784D01*
X104697Y118539D02*
Y201217D01*
Y118539D02*
X161784D01*
Y201217D01*
X633689Y113732D02*
X657311D01*
Y106252D02*
Y113732D01*
X633689Y106252D02*
X657311D01*
X633689D02*
Y113732D01*
X631327D02*
X659673D01*
Y161370D01*
X631327D02*
X659673D01*
X631327Y113732D02*
Y161370D01*
X119575Y336850D02*
Y343150D01*
X116425Y336850D02*
X119575D01*
X116425D02*
Y343150D01*
X119575D01*
X183531Y181378D02*
X238650D01*
X183531Y112480D02*
Y181378D01*
Y112480D02*
X238650D01*
Y181378D01*
D12*
X258331Y222870D02*
G03*
X258331Y222870I-1969J0D01*
G01*
X190835Y303500D02*
G03*
X190835Y303500I-20177J0D01*
G01*
X201724Y233000D02*
G03*
X152905Y233000I-24409J0D01*
G01*
D02*
G03*
X201724Y233000I24409J0D01*
G01*
X622677Y280791D02*
G03*
X622677Y280791I-1969J0D01*
G01*
X593342Y340437D02*
G03*
X593342Y340437I-9843J0D01*
G01*
X242504Y278847D02*
X244721Y281059D01*
X242504Y275941D02*
Y281059D01*
Y275941D02*
X249496D01*
Y281059D01*
X242504D02*
X249496D01*
X257150Y265130D02*
X263646D01*
X257150Y268870D02*
X263646D01*
Y265130D02*
Y268870D01*
X257150Y265130D02*
Y268870D01*
X252819Y219327D02*
X268961D01*
X252819Y231532D02*
X268961D01*
X252819Y219327D02*
Y231532D01*
X268961Y219327D02*
Y231532D01*
X278654Y239728D02*
X285347D01*
X278654Y243272D02*
X285347D01*
Y239728D02*
Y243272D01*
X278654Y239728D02*
Y243272D01*
X238555Y212370D02*
X245445D01*
X238555Y208630D02*
X245445D01*
X238555D02*
Y212370D01*
X245445Y208630D02*
Y212370D01*
X241846Y203228D02*
Y206772D01*
X235154Y203228D02*
Y206772D01*
Y203228D02*
X241846D01*
X235154Y206772D02*
X241846D01*
X346201Y181921D02*
X358799D01*
Y172079D02*
Y181921D01*
X346201Y172079D02*
X358799D01*
X346201D02*
Y181921D01*
X106000Y284701D02*
X131000D01*
X106000D02*
Y297299D01*
X131000D01*
Y284701D02*
Y297299D01*
X106000Y313799D02*
X131000D01*
Y301201D02*
Y313799D01*
X106000Y301201D02*
X131000D01*
X106000D02*
Y313799D01*
X110248Y349602D02*
Y362398D01*
X103752Y349602D02*
Y362398D01*
X110248D01*
X103752Y349602D02*
X110248D01*
X182114Y333205D02*
Y372795D01*
X146760D02*
X182114D01*
X146760Y333205D02*
Y372795D01*
Y333205D02*
X182114D01*
X413539Y172563D02*
X418461D01*
Y180437D01*
X413539D02*
X418461D01*
X413539Y172563D02*
Y180437D01*
X617165Y245752D02*
Y284335D01*
X634882Y245752D02*
Y284335D01*
X617165D02*
X634882D01*
X617165Y245752D02*
X634882D01*
X575626Y220626D02*
X591374D01*
Y236374D01*
X575626D02*
X591374D01*
X575626Y220626D02*
Y236374D01*
X553850Y371827D02*
Y375173D01*
Y371827D02*
X560150D01*
Y375173D01*
X553850D02*
X560150D01*
X529528Y313114D02*
Y348114D01*
X570472Y313114D02*
Y348114D01*
X529528Y313114D02*
X570472D01*
X529528Y348114D02*
X570472D01*
X603937Y304949D02*
X613937Y314949D01*
X603937Y301169D02*
Y314949D01*
Y301169D02*
X646063D01*
Y314949D01*
X603937D02*
X646063D01*
X582039Y388000D02*
X604087D01*
X532000D02*
X554047D01*
Y382488D02*
Y393512D01*
Y382488D02*
X582039D01*
Y393512D01*
X554047D02*
X582039D01*
X617913Y388000D02*
X639961D01*
X667953D02*
X690000D01*
X667953Y382488D02*
Y393512D01*
X639961D02*
X667953D01*
X639961Y382488D02*
Y393512D01*
Y382488D02*
X667953D01*
X666205Y334110D02*
Y347890D01*
Y334110D02*
X691795D01*
X666205Y347890D02*
X691795D01*
Y334110D02*
Y347890D01*
X625630Y233555D02*
X629370D01*
X625630Y240445D02*
X629370D01*
X625630Y233555D02*
Y240445D01*
X629370Y233555D02*
Y240445D01*
X620630Y233555D02*
X624370D01*
X620630Y240445D02*
X624370D01*
X620630Y233555D02*
Y240445D01*
X624370Y233555D02*
Y240445D01*
X615630Y233555D02*
Y240445D01*
X619370Y233555D02*
Y240445D01*
X615630Y233555D02*
X619370D01*
X615630Y240445D02*
X619370D01*
X615630Y224055D02*
X619370D01*
X615630Y230945D02*
X619370D01*
X615630Y224055D02*
Y230945D01*
X619370Y224055D02*
Y230945D01*
X614370Y224055D02*
Y230945D01*
X610630Y224055D02*
Y230945D01*
X614370D01*
X610630Y224055D02*
X614370D01*
X643925Y205238D02*
X647075D01*
X643925D02*
Y211537D01*
X647075D01*
Y205238D02*
Y211537D01*
X636425Y205238D02*
X639575D01*
X636425D02*
Y211537D01*
X639575D01*
Y205238D02*
Y211537D01*
X684898Y141598D02*
X697102D01*
Y166402D01*
X684898D02*
X697102D01*
X684898Y141598D02*
Y166402D01*
X668898Y141598D02*
X681102D01*
Y166402D01*
X668898D02*
X681102D01*
X668898Y141598D02*
Y166402D01*
X694961Y218331D02*
Y245890D01*
X669370D02*
X694961D01*
X669370Y218331D02*
Y245890D01*
Y218331D02*
X694961D01*
X601055Y269630D02*
Y273370D01*
X607945Y269630D02*
Y273370D01*
X601055D02*
X607945D01*
X601055Y269630D02*
X607945D01*
X601055Y275630D02*
Y279370D01*
X607945Y275630D02*
Y279370D01*
X601055D02*
X607945D01*
X601055Y275630D02*
X607945D01*
X600555Y255630D02*
Y259370D01*
X607445Y255630D02*
Y259370D01*
X600555D02*
X607445D01*
X600555Y255630D02*
X607445D01*
X600555Y250630D02*
Y254370D01*
X607445Y250630D02*
Y254370D01*
X600555D02*
X607445D01*
X600555Y250630D02*
X607445D01*
X592846Y254728D02*
Y258272D01*
X586154Y254728D02*
Y258272D01*
Y254728D02*
X592846D01*
X586154Y258272D02*
X592846D01*
X579347Y254728D02*
Y258272D01*
X572653Y254728D02*
Y258272D01*
Y254728D02*
X579347D01*
X572653Y258272D02*
X579347D01*
X618882Y106315D02*
Y181905D01*
X548016D02*
X618882D01*
X548016Y106315D02*
Y181905D01*
Y106315D02*
X618882D01*
X576350Y359327D02*
Y362673D01*
Y359327D02*
X582650D01*
Y362673D01*
X576350D02*
X582650D01*
X491126Y338445D02*
Y374449D01*
X451874Y338445D02*
Y374449D01*
X491126D01*
X451874Y338445D02*
X491126D01*
X384823Y192528D02*
X389823Y197528D01*
X384823Y163472D02*
Y197528D01*
Y163472D02*
X400177D01*
Y197528D01*
X384823D02*
X400177D01*
X138504Y301941D02*
X145496D01*
X138504D02*
Y307059D01*
X145496D01*
Y301941D02*
Y307059D01*
X143280Y301941D02*
X145496Y304153D01*
X374461Y192563D02*
Y200437D01*
X369539Y192563D02*
X374461D01*
X369539D02*
Y200437D01*
X374461D01*
X206374Y359090D02*
Y379839D01*
X220626D01*
Y359090D02*
Y379839D01*
X206374Y359090D02*
X220626D01*
X206374Y363126D02*
X210409Y359090D01*
X218626Y324831D02*
Y345240D01*
X208374Y324831D02*
X218626D01*
X208374D02*
Y345240D01*
X218626D01*
X215280D02*
X218626Y341894D01*
X664618Y352496D02*
Y369504D01*
X654382Y352496D02*
Y369504D01*
Y352496D02*
X664618D01*
X654382Y369504D02*
X664618D01*
X671870Y360555D02*
Y367445D01*
X668130Y360555D02*
Y367445D01*
X671870D01*
X668130Y360555D02*
X671870D01*
X669370Y172110D02*
X694961D01*
X669370D02*
Y199669D01*
X694961D01*
Y172110D02*
Y199669D01*
D15*
X372079Y394406D02*
X381921D01*
Y382594D02*
Y394406D01*
X372079Y382594D02*
X381921D01*
X372079D02*
Y394406D01*
X567329Y201905D02*
X577171D01*
Y190094D02*
Y201905D01*
X567329Y190094D02*
X577171D01*
X567329D02*
Y201905D01*
X582579D02*
X592421D01*
Y190094D02*
Y201905D01*
X582579Y190094D02*
X592421D01*
X582579D02*
Y201905D01*
X604079Y360595D02*
Y372406D01*
Y360595D02*
X613921D01*
Y372406D01*
X604079D02*
X613921D01*
X619079Y360595D02*
Y372406D01*
Y360595D02*
X628921D01*
Y372406D01*
X619079D02*
X628921D01*
X552079Y190094D02*
Y201905D01*
Y190094D02*
X561921D01*
Y201905D01*
X552079D02*
X561921D01*
M02*
