G04*
G04 #@! TF.GenerationSoftware,Altium Limited,Altium Designer,25.5.2 (35)*
G04*
G04 Layer_Color=2752767*
%FSLAX25Y25*%
%MOIN*%
G70*
G04*
G04 #@! TF.SameCoordinates,0CD17ABA-5868-42C4-872B-F719D901D850*
G04*
G04*
G04 #@! TF.FilePolarity,Positive*
G04*
G01*
G75*
%ADD15C,0.00500*%
%ADD215C,0.00667*%
%ADD216C,0.00400*%
D15*
X264332Y184998D02*
X261000D01*
Y180000D01*
X264332D01*
X261000Y182499D02*
X262666D01*
X264332Y125943D02*
X261000D01*
Y120945D01*
X264332D01*
X261000Y123444D02*
X262666D01*
X158815Y301500D02*
X159815D01*
X160815Y302500D01*
X161815Y301500D01*
X162815D01*
Y302500D01*
X161815Y303500D01*
X162815Y304500D01*
Y305500D01*
X161815D01*
X160815Y304500D01*
X159815Y305500D01*
X158815D01*
Y304500D01*
X159815Y303500D01*
X158815Y302500D01*
Y301500D01*
X178500D02*
X179500D01*
X180500Y302500D01*
X181500Y301500D01*
X182500D01*
Y302500D01*
X181500Y303500D01*
X182500Y304500D01*
Y305500D01*
X181500D01*
X180500Y304500D01*
X179500Y305500D01*
X178500D01*
Y304500D01*
X179500Y303500D01*
X178500Y302500D01*
Y301500D01*
X112779Y222890D02*
Y226890D01*
X116779D01*
Y222890D01*
X112779D01*
Y241000D02*
Y245000D01*
X116779D01*
Y241000D01*
X112779D01*
X195000Y231000D02*
Y235000D01*
X199000D01*
Y231000D01*
X195000D01*
X195800Y231800D02*
Y234200D01*
X198200D01*
Y231800D01*
X195800D01*
X155630Y231000D02*
Y235000D01*
X159630D01*
Y231000D01*
X155630D01*
X156430Y231800D02*
Y234200D01*
X158830D01*
Y231800D01*
X156430D01*
X234681Y129181D02*
X235681D01*
X236681Y130181D01*
X237681Y129181D01*
X238681D01*
Y130181D01*
X237681Y131181D01*
X238681Y132181D01*
Y133181D01*
X237681D01*
X236681Y132181D01*
X235681Y133181D01*
X234681D01*
Y132181D01*
X235681Y131181D01*
X234681Y130181D01*
Y129181D01*
X134500Y136256D02*
Y139588D01*
X136166Y141254D01*
X137832Y139588D01*
Y136256D01*
Y138755D01*
X134500D01*
Y183500D02*
Y186832D01*
X136166Y188498D01*
X137832Y186832D01*
Y183500D01*
Y185999D01*
X134500D01*
X152500Y174610D02*
X153500D01*
X154500Y175610D01*
X155500Y174610D01*
X156500D01*
Y175610D01*
X155500Y176610D01*
X156500Y177610D01*
Y178610D01*
X155500D01*
X154500Y177610D01*
X153500Y178610D01*
X152500D01*
Y177610D01*
X153500Y176610D01*
X152500Y175610D01*
Y174610D01*
X153300Y175410D02*
X153900D01*
X154500Y176010D01*
X155100Y175410D01*
X155700D01*
Y176010D01*
X155100Y176610D01*
X155700Y177210D01*
Y177810D01*
X155100D01*
X154500Y177210D01*
X153900Y177810D01*
X153300D01*
Y177210D01*
X153900Y176610D01*
X153300Y176010D01*
Y175410D01*
X152500Y141146D02*
X153500D01*
X154500Y142146D01*
X155500Y141146D01*
X156500D01*
Y142146D01*
X155500Y143146D01*
X156500Y144146D01*
Y145146D01*
X155500D01*
X154500Y144146D01*
X153500Y145146D01*
X152500D01*
Y144146D01*
X153500Y143146D01*
X152500Y142146D01*
Y141146D01*
X153300Y141946D02*
X153900D01*
X154500Y142546D01*
X155100Y141946D01*
X155700D01*
Y142546D01*
X155100Y143146D01*
X155700Y143746D01*
Y144346D01*
X155100D01*
X154500Y143746D01*
X153900Y144346D01*
X153300D01*
Y143746D01*
X153900Y143146D01*
X153300Y142546D01*
Y141946D01*
X532500Y110500D02*
Y109500D01*
X534500D01*
Y110500D01*
X535500D01*
Y112500D01*
X534500D01*
Y113500D01*
X532500D01*
Y112500D01*
X531500D01*
Y110500D01*
X532500D01*
X649405Y136142D02*
X650406Y138142D01*
X649405Y140142D01*
X651405Y139142D01*
X653406Y140142D01*
X652406Y138142D01*
X653406Y136142D01*
X651405Y137142D01*
X649405Y136142D01*
X650206Y136942D02*
X650806Y138142D01*
X650206Y139342D01*
X651405Y138742D01*
X652605Y139342D01*
X652005Y138142D01*
X652605Y136942D01*
X651405Y137542D01*
X650206Y136942D01*
X583500Y334500D02*
X584500Y335500D01*
X585500D01*
X584500Y336500D01*
X585500Y337500D01*
X584500D01*
X583500Y338500D01*
X582500Y337500D01*
X581500D01*
X582500Y336500D01*
X581500Y335500D01*
X582500D01*
X583500Y334500D01*
Y335300D02*
X584100Y335900D01*
X584700D01*
X584100Y336500D01*
X584700Y337100D01*
X584100D01*
X583500Y337700D01*
X582900Y337100D01*
X582300D01*
X582900Y336500D01*
X582300Y335900D01*
X582900D01*
X583500Y335300D01*
X403068Y368498D02*
X399736D01*
Y363500D01*
X403068D01*
X399736Y365999D02*
X401402D01*
X578000Y277110D02*
X579000D01*
X580000Y278110D01*
X581000Y277110D01*
X582000D01*
Y278110D01*
X581000Y279110D01*
X582000Y280110D01*
Y281110D01*
X581000D01*
X580000Y280110D01*
X579000Y281110D01*
X578000D01*
Y280110D01*
X579000Y279110D01*
X578000Y278110D01*
Y277110D01*
X541500D02*
X542500D01*
X543500Y278110D01*
X544500Y277110D01*
X545500D01*
Y278110D01*
X544500Y279110D01*
X545500Y280110D01*
Y281110D01*
X544500D01*
X543500Y280110D01*
X542500Y281110D01*
X541500D01*
Y280110D01*
X542500Y279110D01*
X541500Y278110D01*
Y277110D01*
X403068Y292998D02*
X399736D01*
Y288000D01*
X403068D01*
X399736Y290499D02*
X401402D01*
X532500Y165000D02*
Y164000D01*
X534500D01*
Y165000D01*
X535500D01*
Y167000D01*
X534500D01*
Y168000D01*
X532500D01*
Y167000D01*
X531500D01*
Y165000D01*
X532500D01*
Y140500D02*
Y139500D01*
X534500D01*
Y140500D01*
X535500D01*
Y142500D01*
X534500D01*
Y143500D01*
X532500D01*
Y142500D01*
X531500D01*
Y140500D01*
X532500D01*
X115000Y380500D02*
X116000Y382500D01*
X115000Y384500D01*
X117000Y383500D01*
X119000Y384500D01*
X118000Y382500D01*
X119000Y380500D01*
X117000Y381500D01*
X115000Y380500D01*
X432596Y292998D02*
X429264D01*
Y288000D01*
X432596D01*
X429264Y290499D02*
X430930D01*
X432596Y368498D02*
X429264D01*
Y363500D01*
X432596D01*
X429264Y365999D02*
X430930D01*
X635000Y303500D02*
X633000Y307500D01*
X637000D01*
X635000Y303500D01*
Y304300D02*
X633800Y306700D01*
X636200D01*
X635000Y304300D01*
X615000Y303500D02*
X613000Y307500D01*
X617000D01*
X615000Y303500D01*
Y304300D02*
X613800Y306700D01*
X616200D01*
X615000Y304300D01*
X541500Y290890D02*
X542500D01*
X543500Y291890D01*
X544500Y290890D01*
X545500D01*
Y291890D01*
X544500Y292890D01*
X545500Y293890D01*
Y294890D01*
X544500D01*
X543500Y293890D01*
X542500Y294890D01*
X541500D01*
Y293890D01*
X542500Y292890D01*
X541500Y291890D01*
Y290890D01*
X578000D02*
X579000D01*
X580000Y291890D01*
X581000Y290890D01*
X582000D01*
Y291890D01*
X581000Y292890D01*
X582000Y293890D01*
Y294890D01*
X581000D01*
X580000Y293890D01*
X579000Y294890D01*
X578000D01*
Y293890D01*
X579000Y292890D01*
X578000Y291890D01*
Y290890D01*
X644500Y150528D02*
Y149528D01*
X646500D01*
Y150528D01*
X647500D01*
Y152528D01*
X646500D01*
Y153528D01*
X644500D01*
Y152528D01*
X643500D01*
Y150528D01*
X644500D01*
X644900Y150928D02*
Y150328D01*
X646100D01*
Y150928D01*
X646700D01*
Y152128D01*
X646100D01*
Y152728D01*
X644900D01*
Y152128D01*
X644300D01*
Y150928D01*
X644900D01*
X644500Y121000D02*
Y120000D01*
X646500D01*
Y121000D01*
X647500D01*
Y123000D01*
X646500D01*
Y124000D01*
X644500D01*
Y123000D01*
X643500D01*
Y121000D01*
X644500D01*
X644900Y121400D02*
Y120800D01*
X646100D01*
Y121400D01*
X646700D01*
Y122600D01*
X646100D01*
Y123200D01*
X644900D01*
Y122600D01*
X644300D01*
Y121400D01*
X644900D01*
X654327Y157008D02*
X655327Y159008D01*
X654327Y161008D01*
X656327Y160008D01*
X658327Y161008D01*
X657327Y159008D01*
X658327Y157008D01*
X656327Y158008D01*
X654327Y157008D01*
X655127Y157808D02*
X655727Y159008D01*
X655127Y160208D01*
X656327Y159608D01*
X657527Y160208D01*
X656927Y159008D01*
X657527Y157808D01*
X656327Y158408D01*
X655127Y157808D01*
X632673Y157008D02*
X633673Y159008D01*
X632673Y161008D01*
X634673Y160008D01*
X636673Y161008D01*
X635673Y159008D01*
X636673Y157008D01*
X634673Y158008D01*
X632673Y157008D01*
X633473Y157808D02*
X634073Y159008D01*
X633473Y160208D01*
X634673Y159608D01*
X635873Y160208D01*
X635273Y159008D01*
X635873Y157808D01*
X634673Y158408D01*
X633473Y157808D01*
X679000Y238000D02*
Y237000D01*
X681000D01*
Y238000D01*
X682000D01*
Y240000D01*
X681000D01*
Y241000D01*
X679000D01*
Y240000D01*
X678000D01*
Y238000D01*
X679000D01*
Y224220D02*
Y223220D01*
X681000D01*
Y224220D01*
X682000D01*
Y226220D01*
X681000D01*
Y227221D01*
X679000D01*
Y226220D01*
X678000D01*
Y224220D01*
X679000D01*
X607000Y192500D02*
X608000Y193500D01*
X609000D01*
X608000Y194500D01*
X609000Y195500D01*
X608000D01*
X607000Y196500D01*
X606000Y195500D01*
X605000D01*
X606000Y194500D01*
X605000Y193500D01*
X606000D01*
X607000Y192500D01*
X532500Y175000D02*
Y174000D01*
X534500D01*
Y175000D01*
X535500D01*
Y177000D01*
X534500D01*
Y178000D01*
X532500D01*
Y177000D01*
X531500D01*
Y175000D01*
X532500D01*
Y130500D02*
Y129500D01*
X534500D01*
Y130500D01*
X535500D01*
Y132500D01*
X534500D01*
Y133500D01*
X532500D01*
Y132500D01*
X531500D01*
Y130500D01*
X532500D01*
Y120500D02*
Y119500D01*
X534500D01*
Y120500D01*
X535500D01*
Y122500D01*
X534500D01*
Y123500D01*
X532500D01*
Y122500D01*
X531500D01*
Y120500D01*
X532500D01*
X583500Y342374D02*
X584500Y343374D01*
X585500D01*
X584500Y344374D01*
X585500Y345374D01*
X584500D01*
X583500Y346374D01*
X582500Y345374D01*
X581500D01*
X582500Y344374D01*
X581500Y343374D01*
X582500D01*
X583500Y342374D01*
Y343174D02*
X584100Y343774D01*
X584700D01*
X584100Y344374D01*
X584700Y344974D01*
X584100D01*
X583500Y345574D01*
X582900Y344974D01*
X582300D01*
X582900Y344374D01*
X582300Y343774D01*
X582900D01*
X583500Y343174D01*
X183500Y129181D02*
X184500D01*
X185500Y130181D01*
X186500Y129181D01*
X187500D01*
Y130181D01*
X186500Y131181D01*
X187500Y132181D01*
Y133181D01*
X186500D01*
X185500Y132181D01*
X184500Y133181D01*
X183500D01*
Y132181D01*
X184500Y131181D01*
X183500Y130181D01*
Y129181D01*
Y160677D02*
X184500D01*
X185500Y161677D01*
X186500Y160677D01*
X187500D01*
Y161677D01*
X186500Y162677D01*
X187500Y163677D01*
Y164677D01*
X186500D01*
X185500Y163677D01*
X184500Y164677D01*
X183500D01*
Y163677D01*
X184500Y162677D01*
X183500Y161677D01*
Y160677D01*
X234681D02*
X235681D01*
X236681Y161677D01*
X237681Y160677D01*
X238681D01*
Y161677D01*
X237681Y162677D01*
X238681Y163677D01*
Y164677D01*
X237681D01*
X236681Y163677D01*
X235681Y164677D01*
X234681D01*
Y163677D01*
X235681Y162677D01*
X234681Y161677D01*
Y160677D01*
X679000Y178000D02*
Y177000D01*
X681000D01*
Y178000D01*
X682000D01*
Y180000D01*
X681000D01*
Y181000D01*
X679000D01*
Y180000D01*
X678000D01*
Y178000D01*
X679000D01*
Y191779D02*
Y190779D01*
X681000D01*
Y191779D01*
X682000D01*
Y193780D01*
X681000D01*
Y194780D01*
X679000D01*
Y193780D01*
X678000D01*
Y191779D01*
X679000D01*
X679500Y115000D02*
X680500Y117000D01*
X679500Y119000D01*
X681500Y118000D01*
X683500Y119000D01*
X682500Y117000D01*
X683500Y115000D01*
X681500Y116000D01*
X679500Y115000D01*
X665975Y259475D02*
X663975Y263475D01*
X667975D01*
X665975Y259475D01*
X653896Y265239D02*
X651896Y269239D01*
X655896D01*
X653896Y265239D01*
X285000Y250500D02*
X283000Y254500D01*
X287000D01*
X285000Y250500D01*
X254000Y258000D02*
X252000Y262000D01*
X256000D01*
X254000Y258000D01*
X573000Y223500D02*
X571000Y227500D01*
X575000D01*
X573000Y223500D01*
X263221Y223264D02*
X265220Y225264D01*
X267220Y223264D01*
X265220Y221264D01*
X263221Y223264D01*
Y227594D02*
X265220Y229594D01*
X267220Y227594D01*
X265220Y225594D01*
X263221Y227594D01*
X254559D02*
X256559Y229594D01*
X258559Y227594D01*
X256559Y225594D01*
X254559Y227594D01*
Y223264D02*
X256559Y225264D01*
X258559Y223264D01*
X256559Y221264D01*
X254559Y223264D01*
X258890Y227594D02*
X260890Y229594D01*
X262890Y227594D01*
X260890Y225594D01*
X258890Y227594D01*
Y223264D02*
X260890Y225264D01*
X262890Y223264D01*
X260890Y221264D01*
X258890Y223264D01*
X228000Y227498D02*
Y222500D01*
X230499D01*
X231332Y223333D01*
Y224166D01*
X230499Y224999D01*
X228000D01*
X230499D01*
X231332Y225832D01*
Y226665D01*
X230499Y227498D01*
X228000D01*
X295000Y212998D02*
Y208000D01*
X297499D01*
X298332Y208833D01*
Y209666D01*
X297499Y210499D01*
X295000D01*
X297499D01*
X298332Y211332D01*
Y212165D01*
X297499Y212998D01*
X295000D01*
X243865Y264500D02*
X241865Y268500D01*
X245866D01*
X243865Y264500D01*
X253500Y266000D02*
X251500Y270000D01*
X255500D01*
X253500Y266000D01*
X107000Y342500D02*
X105000Y346500D01*
X109000D01*
X107000Y342500D01*
X118000Y347000D02*
X116000Y351000D01*
X120000D01*
X118000Y347000D01*
X626189Y267209D02*
X628189Y269209D01*
X630189Y267209D01*
X628189Y265209D01*
X626189Y267209D01*
Y254217D02*
X628189Y256217D01*
X630189Y254217D01*
X628189Y252217D01*
X626189Y254217D01*
Y262878D02*
X628189Y264878D01*
X630189Y262878D01*
X628189Y260878D01*
X626189Y262878D01*
Y258547D02*
X628189Y260547D01*
X630189Y258547D01*
X628189Y256547D01*
X626189Y258547D01*
Y275870D02*
X628189Y277870D01*
X630189Y275870D01*
X628189Y273870D01*
X626189Y275870D01*
X621858Y271539D02*
X623858Y273539D01*
X625858Y271539D01*
X623858Y269539D01*
X621858Y271539D01*
X626189D02*
X628189Y273539D01*
X630189Y271539D01*
X628189Y269539D01*
X626189Y271539D01*
X621858Y275870D02*
X623858Y277870D01*
X625858Y275870D01*
X623858Y273870D01*
X621858Y275870D01*
Y258547D02*
X623858Y260547D01*
X625858Y258547D01*
X623858Y256547D01*
X621858Y258547D01*
Y262878D02*
X623858Y264878D01*
X625858Y262878D01*
X623858Y260878D01*
X621858Y262878D01*
Y254217D02*
X623858Y256217D01*
X625858Y254217D01*
X623858Y252217D01*
X621858Y254217D01*
Y267209D02*
X623858Y269209D01*
X625858Y267209D01*
X623858Y265209D01*
X621858Y267209D01*
X662677Y267000D02*
X660677Y271000D01*
X664677D01*
X662677Y267000D01*
X593832Y222693D02*
X592999Y223526D01*
X591333D01*
X590500Y222693D01*
Y219361D01*
X591333Y218528D01*
X592999D01*
X593832Y219361D01*
X586500Y203500D02*
X584500Y207500D01*
X588500D01*
X586500Y203500D01*
X582500Y214500D02*
X580500Y218500D01*
X584500D01*
X582500Y214500D01*
X622500Y226500D02*
X620500Y230500D01*
X624500D01*
X622500Y226500D01*
X576500Y139500D02*
X574500Y143500D01*
X578500D01*
X576500Y139500D01*
X652500Y287500D02*
X650500Y291500D01*
X654500D01*
X652500Y287500D01*
X655000Y251500D02*
X653000Y255500D01*
X657000D01*
X655000Y251500D01*
X653000Y270000D02*
X651000Y274000D01*
X655000D01*
X653000Y270000D01*
X639070Y174019D02*
X637070Y178019D01*
X641070D01*
X639070Y174019D01*
X653782Y276000D02*
X651782Y280000D01*
X655782D01*
X653782Y276000D01*
X668753Y274370D02*
X666753Y278370D01*
X670753D01*
X668753Y274370D01*
X665000Y271649D02*
X663000Y275648D01*
X667000D01*
X665000Y271649D01*
X636835Y191000D02*
X634835Y195000D01*
X638835D01*
X636835Y191000D01*
X632000Y248000D02*
X630000Y252000D01*
X634000D01*
X632000Y248000D01*
Y279500D02*
X630000Y283500D01*
X634000D01*
X632000Y279500D01*
X573500Y259500D02*
X571500Y263500D01*
X575500D01*
X573500Y259500D01*
X690000Y309000D02*
X688000Y313000D01*
X692000D01*
X690000Y309000D01*
X602001Y259603D02*
X600001Y263603D01*
X604001D01*
X602001Y259603D01*
X609000Y264500D02*
X607000Y268500D01*
X611000D01*
X609000Y264500D01*
X602000Y246500D02*
X600000Y250500D01*
X604000D01*
X602000Y246500D01*
X627500Y241000D02*
X625500Y245000D01*
X629500D01*
X627500Y241000D01*
X579000Y259500D02*
X577000Y263500D01*
X581000D01*
X579000Y259500D01*
X596000Y189000D02*
X594000Y193000D01*
X598000D01*
X596000Y189000D01*
X610500Y292000D02*
X608500Y296000D01*
X612500D01*
X610500Y292000D01*
X611000Y149500D02*
X609000Y153500D01*
X613000D01*
X611000Y149500D01*
X563500Y217000D02*
X561500Y221000D01*
X565500D01*
X563500Y217000D01*
X624000Y188500D02*
X622000Y192500D01*
X626000D01*
X624000Y188500D01*
Y119000D02*
X622000Y123000D01*
X626000D01*
X624000Y119000D01*
X611000Y144500D02*
X609000Y148500D01*
X613000D01*
X611000Y144500D01*
X563500Y212000D02*
X561500Y216000D01*
X565500D01*
X563500Y212000D01*
X528500Y361000D02*
X526500Y365000D01*
X530500D01*
X528500Y361000D01*
X649000Y350500D02*
X647000Y354500D01*
X651000D01*
X649000Y350500D01*
X358500Y231000D02*
X356500Y235000D01*
X360500D01*
X358500Y231000D01*
X325500Y176500D02*
X323500Y180500D01*
X327500D01*
X325500Y176500D01*
X372500Y136500D02*
X370500Y140500D01*
X374500D01*
X372500Y136500D01*
X372000Y173500D02*
X370000Y177500D01*
X374000D01*
X372000Y173500D01*
D215*
X619913Y388000D02*
G03*
X619913Y388000I-2000J0D01*
G01*
X534000D02*
G03*
X534000Y388000I-2000J0D01*
G01*
X606087D02*
G03*
X606087Y388000I-2000J0D01*
G01*
X692000D02*
G03*
X692000Y388000I-2000J0D01*
G01*
X448500Y325000D02*
G03*
X448500Y325000I-2000J0D01*
G01*
X370000Y349000D02*
G03*
X370000Y349000I-2000J0D01*
G01*
D216*
X447700Y325000D02*
G03*
X447700Y325000I-1200J0D01*
G01*
X369200Y349000D02*
G03*
X369200Y349000I-1200J0D01*
G01*
M02*
