G04*
G04 #@! TF.GenerationSoftware,Altium Limited,Altium Designer,25.5.2 (35)*
G04*
G04 Layer_Color=32768*
%FSLAX44Y44*%
%MOMM*%
G71*
G04*
G04 #@! TF.SameCoordinates,5C3ED261-42B6-482D-99A8-9BAFA3442630*
G04*
G04*
G04 #@! TF.FilePolarity,Positive*
G04*
G01*
G75*
%ADD12C,0.1500*%
%ADD13C,0.1000*%
G36*
X1643380Y582908D02*
X1641635D01*
X1641600Y582911D01*
X1641557D01*
X1641509Y582914D01*
X1641454Y582917D01*
X1641394Y582920D01*
X1641333Y582925D01*
X1641270Y582934D01*
X1641141Y582951D01*
X1641078Y582963D01*
X1641015Y582977D01*
X1640957Y582994D01*
X1640906Y583012D01*
X1640903D01*
X1640894Y583017D01*
X1640880Y583023D01*
X1640863Y583032D01*
X1640840Y583043D01*
X1640814Y583058D01*
X1640785Y583075D01*
X1640754Y583095D01*
X1640719Y583121D01*
X1640685Y583147D01*
X1640650Y583175D01*
X1640613Y583210D01*
X1640579Y583244D01*
X1640544Y583284D01*
X1640513Y583330D01*
X1640481Y583376D01*
X1640478Y583379D01*
X1640475Y583388D01*
X1640467Y583402D01*
X1640455Y583422D01*
X1640444Y583445D01*
X1640429Y583477D01*
X1640415Y583508D01*
X1640401Y583545D01*
X1640386Y583588D01*
X1640372Y583632D01*
X1640358Y583680D01*
X1640346Y583729D01*
X1640326Y583838D01*
X1640323Y583896D01*
X1640320Y583953D01*
Y583959D01*
Y583970D01*
X1640323Y583993D01*
Y584022D01*
X1640329Y584056D01*
X1640335Y584096D01*
X1640343Y584142D01*
X1640352Y584191D01*
X1640366Y584246D01*
X1640383Y584300D01*
X1640406Y584358D01*
X1640432Y584415D01*
X1640461Y584473D01*
X1640498Y584533D01*
X1640538Y584587D01*
X1640584Y584642D01*
X1640587Y584645D01*
X1640596Y584653D01*
X1640613Y584668D01*
X1640633Y584688D01*
X1640662Y584708D01*
X1640696Y584734D01*
X1640737Y584762D01*
X1640785Y584791D01*
X1640840Y584820D01*
X1640900Y584851D01*
X1640966Y584880D01*
X1641041Y584909D01*
X1641118Y584935D01*
X1641207Y584958D01*
X1641299Y584978D01*
X1641400Y584995D01*
X1641397D01*
X1641391Y584998D01*
X1641379Y585004D01*
X1641365Y585012D01*
X1641351Y585021D01*
X1641331Y585029D01*
X1641285Y585055D01*
X1641236Y585084D01*
X1641187Y585118D01*
X1641138Y585153D01*
X1641095Y585187D01*
X1641092Y585190D01*
X1641084Y585196D01*
X1641072Y585207D01*
X1641058Y585224D01*
X1641038Y585245D01*
X1641015Y585268D01*
X1640986Y585296D01*
X1640957Y585328D01*
X1640926Y585362D01*
X1640894Y585402D01*
X1640860Y585443D01*
X1640823Y585489D01*
X1640785Y585537D01*
X1640748Y585589D01*
X1640673Y585698D01*
X1640013Y586740D01*
X1640645D01*
X1641153Y585942D01*
X1641156Y585939D01*
X1641161Y585928D01*
X1641173Y585908D01*
X1641190Y585885D01*
X1641207Y585856D01*
X1641230Y585824D01*
X1641253Y585787D01*
X1641282Y585747D01*
X1641339Y585664D01*
X1641400Y585575D01*
X1641460Y585491D01*
X1641488Y585451D01*
X1641517Y585417D01*
X1641520Y585414D01*
X1641523Y585408D01*
X1641532Y585400D01*
X1641540Y585388D01*
X1641569Y585354D01*
X1641603Y585316D01*
X1641644Y585273D01*
X1641687Y585230D01*
X1641732Y585193D01*
X1641776Y585161D01*
X1641781Y585159D01*
X1641796Y585150D01*
X1641816Y585136D01*
X1641847Y585121D01*
X1641882Y585104D01*
X1641919Y585087D01*
X1641962Y585070D01*
X1642005Y585058D01*
X1642008D01*
X1642022Y585055D01*
X1642042Y585052D01*
X1642071Y585047D01*
X1642111Y585044D01*
X1642160Y585041D01*
X1642218Y585038D01*
X1642872D01*
Y586740D01*
X1643380D01*
Y582908D01*
D02*
G37*
G36*
X1635231Y585824D02*
X1636893D01*
Y585394D01*
X1635145Y582911D01*
X1634761D01*
Y585394D01*
X1634244D01*
Y585824D01*
X1634761D01*
Y586740D01*
X1635231D01*
Y585824D01*
D02*
G37*
G36*
X1638414Y583744D02*
X1638417Y583746D01*
X1638423Y583749D01*
X1638432Y583761D01*
X1638446Y583772D01*
X1638463Y583787D01*
X1638483Y583804D01*
X1638506Y583824D01*
X1638535Y583844D01*
X1638567Y583867D01*
X1638598Y583893D01*
X1638636Y583922D01*
X1638676Y583947D01*
X1638765Y584008D01*
X1638862Y584068D01*
X1638865Y584071D01*
X1638874Y584074D01*
X1638888Y584082D01*
X1638908Y584094D01*
X1638934Y584108D01*
X1638960Y584122D01*
X1638991Y584140D01*
X1639026Y584157D01*
X1639103Y584197D01*
X1639187Y584237D01*
X1639273Y584274D01*
X1639356Y584309D01*
Y583855D01*
X1639350Y583853D01*
X1639339Y583847D01*
X1639319Y583835D01*
X1639290Y583821D01*
X1639256Y583804D01*
X1639215Y583784D01*
X1639172Y583758D01*
X1639123Y583729D01*
X1639069Y583698D01*
X1639014Y583663D01*
X1638900Y583586D01*
X1638782Y583499D01*
X1638667Y583405D01*
X1638664Y583402D01*
X1638653Y583393D01*
X1638638Y583379D01*
X1638618Y583359D01*
X1638595Y583336D01*
X1638567Y583307D01*
X1638535Y583276D01*
X1638504Y583241D01*
X1638469Y583204D01*
X1638435Y583164D01*
X1638366Y583078D01*
X1638303Y582986D01*
X1638274Y582937D01*
X1638248Y582891D01*
X1637944D01*
Y586740D01*
X1638414D01*
Y583744D01*
D02*
G37*
G36*
X1625223Y572806D02*
X1625249D01*
X1625280Y572803D01*
X1625318Y572797D01*
X1625358Y572792D01*
X1625401Y572786D01*
X1625447Y572777D01*
X1625544Y572752D01*
X1625645Y572720D01*
X1625697Y572697D01*
X1625745Y572674D01*
X1625748Y572671D01*
X1625757Y572668D01*
X1625771Y572660D01*
X1625788Y572648D01*
X1625811Y572637D01*
X1625837Y572620D01*
X1625895Y572576D01*
X1625961Y572525D01*
X1626027Y572462D01*
X1626093Y572390D01*
X1626121Y572350D01*
X1626150Y572307D01*
X1626153Y572304D01*
X1626156Y572295D01*
X1626164Y572284D01*
X1626173Y572266D01*
X1626182Y572243D01*
X1626196Y572220D01*
X1626207Y572189D01*
X1626222Y572157D01*
X1626233Y572123D01*
X1626248Y572083D01*
X1626268Y572000D01*
X1626285Y571911D01*
X1626288Y571862D01*
X1626291Y571813D01*
Y571810D01*
Y571801D01*
Y571790D01*
X1626288Y571770D01*
Y571750D01*
X1626285Y571724D01*
X1626279Y571695D01*
X1626273Y571664D01*
X1626259Y571592D01*
X1626233Y571517D01*
X1626202Y571437D01*
X1626179Y571400D01*
X1626156Y571359D01*
X1626153Y571357D01*
X1626150Y571351D01*
X1626142Y571339D01*
X1626130Y571325D01*
X1626118Y571311D01*
X1626101Y571291D01*
X1626081Y571268D01*
X1626058Y571245D01*
X1626032Y571219D01*
X1626001Y571193D01*
X1625969Y571167D01*
X1625935Y571138D01*
X1625895Y571113D01*
X1625854Y571087D01*
X1625811Y571061D01*
X1625763Y571038D01*
X1625766D01*
X1625777Y571035D01*
X1625794Y571029D01*
X1625820Y571021D01*
X1625846Y571012D01*
X1625880Y571001D01*
X1625918Y570984D01*
X1625955Y570966D01*
X1625998Y570946D01*
X1626041Y570923D01*
X1626084Y570897D01*
X1626127Y570866D01*
X1626173Y570831D01*
X1626213Y570797D01*
X1626253Y570754D01*
X1626291Y570711D01*
X1626294Y570708D01*
X1626299Y570699D01*
X1626308Y570685D01*
X1626319Y570668D01*
X1626334Y570642D01*
X1626351Y570613D01*
X1626368Y570579D01*
X1626385Y570541D01*
X1626403Y570498D01*
X1626420Y570452D01*
X1626437Y570401D01*
X1626451Y570346D01*
X1626463Y570289D01*
X1626472Y570226D01*
X1626477Y570163D01*
X1626480Y570094D01*
Y570088D01*
Y570071D01*
X1626477Y570045D01*
X1626474Y570010D01*
X1626469Y569967D01*
X1626460Y569916D01*
X1626449Y569861D01*
X1626434Y569798D01*
X1626414Y569732D01*
X1626391Y569666D01*
X1626360Y569594D01*
X1626325Y569523D01*
X1626282Y569451D01*
X1626233Y569379D01*
X1626179Y569307D01*
X1626113Y569241D01*
X1626110Y569238D01*
X1626095Y569227D01*
X1626075Y569210D01*
X1626047Y569187D01*
X1626012Y569161D01*
X1625969Y569132D01*
X1625918Y569101D01*
X1625860Y569069D01*
X1625797Y569035D01*
X1625728Y569003D01*
X1625651Y568974D01*
X1625570Y568949D01*
X1625481Y568926D01*
X1625390Y568908D01*
X1625292Y568897D01*
X1625188Y568894D01*
X1625166D01*
X1625140Y568897D01*
X1625105Y568900D01*
X1625062Y568903D01*
X1625011Y568911D01*
X1624956Y568920D01*
X1624896Y568931D01*
X1624830Y568949D01*
X1624761Y568966D01*
X1624692Y568992D01*
X1624623Y569020D01*
X1624551Y569055D01*
X1624483Y569095D01*
X1624414Y569141D01*
X1624350Y569193D01*
X1624348Y569195D01*
X1624336Y569207D01*
X1624319Y569224D01*
X1624299Y569247D01*
X1624273Y569276D01*
X1624241Y569313D01*
X1624213Y569356D01*
X1624178Y569402D01*
X1624144Y569456D01*
X1624112Y569517D01*
X1624081Y569580D01*
X1624049Y569649D01*
X1624023Y569723D01*
X1624000Y569801D01*
X1623983Y569884D01*
X1623972Y569973D01*
X1624442Y570036D01*
Y570031D01*
X1624445Y570019D01*
X1624451Y569999D01*
X1624457Y569970D01*
X1624468Y569939D01*
X1624477Y569901D01*
X1624491Y569858D01*
X1624505Y569812D01*
X1624546Y569718D01*
X1624592Y569623D01*
X1624617Y569577D01*
X1624649Y569534D01*
X1624680Y569494D01*
X1624715Y569459D01*
X1624718Y569456D01*
X1624724Y569451D01*
X1624735Y569442D01*
X1624749Y569434D01*
X1624769Y569419D01*
X1624792Y569405D01*
X1624818Y569388D01*
X1624847Y569373D01*
X1624881Y569356D01*
X1624916Y569339D01*
X1624956Y569324D01*
X1624999Y569313D01*
X1625042Y569301D01*
X1625091Y569293D01*
X1625140Y569287D01*
X1625191Y569284D01*
X1625206D01*
X1625223Y569287D01*
X1625246D01*
X1625275Y569290D01*
X1625309Y569296D01*
X1625346Y569304D01*
X1625387Y569313D01*
X1625430Y569324D01*
X1625476Y569342D01*
X1625522Y569359D01*
X1625567Y569382D01*
X1625616Y569408D01*
X1625662Y569439D01*
X1625708Y569474D01*
X1625751Y569514D01*
X1625754Y569517D01*
X1625760Y569525D01*
X1625771Y569537D01*
X1625788Y569554D01*
X1625806Y569577D01*
X1625823Y569606D01*
X1625846Y569635D01*
X1625866Y569672D01*
X1625886Y569709D01*
X1625909Y569755D01*
X1625926Y569801D01*
X1625946Y569850D01*
X1625961Y569904D01*
X1625972Y569962D01*
X1625978Y570019D01*
X1625981Y570082D01*
Y570085D01*
Y570097D01*
Y570114D01*
X1625978Y570137D01*
X1625975Y570163D01*
X1625969Y570197D01*
X1625963Y570232D01*
X1625955Y570272D01*
X1625943Y570312D01*
X1625929Y570355D01*
X1625912Y570401D01*
X1625892Y570444D01*
X1625866Y570490D01*
X1625837Y570533D01*
X1625806Y570576D01*
X1625768Y570616D01*
X1625766Y570619D01*
X1625760Y570625D01*
X1625745Y570636D01*
X1625731Y570650D01*
X1625708Y570665D01*
X1625685Y570682D01*
X1625654Y570702D01*
X1625622Y570722D01*
X1625585Y570742D01*
X1625544Y570762D01*
X1625499Y570780D01*
X1625453Y570794D01*
X1625401Y570808D01*
X1625346Y570820D01*
X1625289Y570826D01*
X1625229Y570829D01*
X1625206D01*
X1625177Y570826D01*
X1625137Y570823D01*
X1625091Y570817D01*
X1625034Y570806D01*
X1624970Y570794D01*
X1624899Y570777D01*
X1624950Y571190D01*
X1624959D01*
X1624976Y571187D01*
X1625002Y571184D01*
X1625054D01*
X1625077Y571187D01*
X1625102Y571190D01*
X1625134Y571193D01*
X1625168Y571199D01*
X1625206Y571204D01*
X1625289Y571222D01*
X1625381Y571250D01*
X1625427Y571268D01*
X1625476Y571288D01*
X1625522Y571314D01*
X1625567Y571339D01*
X1625570Y571342D01*
X1625579Y571348D01*
X1625590Y571357D01*
X1625605Y571368D01*
X1625625Y571385D01*
X1625645Y571405D01*
X1625665Y571431D01*
X1625688Y571460D01*
X1625711Y571492D01*
X1625731Y571526D01*
X1625754Y571566D01*
X1625771Y571609D01*
X1625786Y571658D01*
X1625797Y571707D01*
X1625806Y571764D01*
X1625809Y571822D01*
Y571824D01*
Y571833D01*
Y571847D01*
X1625806Y571865D01*
X1625803Y571888D01*
X1625800Y571913D01*
X1625794Y571942D01*
X1625786Y571971D01*
X1625766Y572040D01*
X1625751Y572074D01*
X1625734Y572112D01*
X1625714Y572146D01*
X1625688Y572183D01*
X1625662Y572218D01*
X1625631Y572249D01*
X1625628Y572252D01*
X1625622Y572258D01*
X1625613Y572266D01*
X1625599Y572275D01*
X1625582Y572289D01*
X1625562Y572304D01*
X1625536Y572318D01*
X1625510Y572335D01*
X1625478Y572353D01*
X1625444Y572367D01*
X1625407Y572381D01*
X1625367Y572396D01*
X1625323Y572404D01*
X1625278Y572413D01*
X1625232Y572419D01*
X1625180Y572421D01*
X1625154D01*
X1625134Y572419D01*
X1625111Y572416D01*
X1625082Y572413D01*
X1625054Y572407D01*
X1625019Y572401D01*
X1624947Y572378D01*
X1624910Y572367D01*
X1624870Y572350D01*
X1624833Y572330D01*
X1624792Y572307D01*
X1624755Y572281D01*
X1624721Y572249D01*
X1624718Y572246D01*
X1624712Y572241D01*
X1624704Y572232D01*
X1624692Y572218D01*
X1624678Y572198D01*
X1624660Y572178D01*
X1624643Y572152D01*
X1624623Y572120D01*
X1624603Y572086D01*
X1624586Y572048D01*
X1624566Y572005D01*
X1624546Y571959D01*
X1624528Y571908D01*
X1624514Y571853D01*
X1624500Y571796D01*
X1624488Y571733D01*
X1624017Y571816D01*
Y571822D01*
X1624023Y571836D01*
X1624026Y571862D01*
X1624035Y571893D01*
X1624046Y571934D01*
X1624061Y571979D01*
X1624078Y572028D01*
X1624098Y572083D01*
X1624124Y572143D01*
X1624149Y572200D01*
X1624184Y572264D01*
X1624218Y572324D01*
X1624259Y572384D01*
X1624305Y572441D01*
X1624353Y572496D01*
X1624408Y572548D01*
X1624411Y572551D01*
X1624422Y572559D01*
X1624439Y572571D01*
X1624462Y572588D01*
X1624494Y572608D01*
X1624528Y572631D01*
X1624572Y572654D01*
X1624617Y572680D01*
X1624672Y572703D01*
X1624729Y572726D01*
X1624792Y572749D01*
X1624859Y572769D01*
X1624930Y572786D01*
X1625005Y572797D01*
X1625085Y572806D01*
X1625168Y572809D01*
X1625200D01*
X1625223Y572806D01*
D02*
G37*
G36*
X1622766Y568960D02*
X1622295D01*
Y571956D01*
X1622292Y571954D01*
X1622287Y571951D01*
X1622278Y571939D01*
X1622264Y571928D01*
X1622247Y571913D01*
X1622227Y571896D01*
X1622204Y571876D01*
X1622175Y571856D01*
X1622143Y571833D01*
X1622112Y571807D01*
X1622074Y571778D01*
X1622034Y571753D01*
X1621945Y571692D01*
X1621848Y571632D01*
X1621845Y571629D01*
X1621836Y571626D01*
X1621822Y571618D01*
X1621802Y571606D01*
X1621776Y571592D01*
X1621750Y571578D01*
X1621718Y571560D01*
X1621684Y571543D01*
X1621606Y571503D01*
X1621523Y571463D01*
X1621437Y571426D01*
X1621354Y571391D01*
Y571844D01*
X1621360Y571847D01*
X1621371Y571853D01*
X1621391Y571865D01*
X1621420Y571879D01*
X1621454Y571896D01*
X1621495Y571916D01*
X1621538Y571942D01*
X1621586Y571971D01*
X1621641Y572002D01*
X1621696Y572037D01*
X1621810Y572114D01*
X1621928Y572200D01*
X1622043Y572295D01*
X1622046Y572298D01*
X1622057Y572307D01*
X1622072Y572321D01*
X1622092Y572341D01*
X1622115Y572364D01*
X1622143Y572393D01*
X1622175Y572424D01*
X1622206Y572459D01*
X1622241Y572496D01*
X1622275Y572536D01*
X1622344Y572622D01*
X1622407Y572714D01*
X1622436Y572763D01*
X1622462Y572809D01*
X1622766D01*
Y568960D01*
D02*
G37*
G36*
X1619109Y572789D02*
X1619153D01*
X1619201Y572786D01*
X1619256Y572783D01*
X1619316Y572780D01*
X1619376Y572775D01*
X1619440Y572766D01*
X1619569Y572749D01*
X1619632Y572737D01*
X1619695Y572723D01*
X1619752Y572706D01*
X1619804Y572688D01*
X1619807D01*
X1619816Y572683D01*
X1619830Y572677D01*
X1619847Y572668D01*
X1619870Y572657D01*
X1619896Y572642D01*
X1619925Y572625D01*
X1619956Y572605D01*
X1619991Y572579D01*
X1620025Y572553D01*
X1620060Y572525D01*
X1620097Y572490D01*
X1620131Y572456D01*
X1620166Y572416D01*
X1620197Y572370D01*
X1620229Y572324D01*
X1620232Y572321D01*
X1620235Y572312D01*
X1620243Y572298D01*
X1620255Y572278D01*
X1620266Y572255D01*
X1620280Y572223D01*
X1620295Y572192D01*
X1620309Y572155D01*
X1620324Y572112D01*
X1620338Y572068D01*
X1620352Y572020D01*
X1620364Y571971D01*
X1620384Y571862D01*
X1620387Y571804D01*
X1620390Y571747D01*
Y571741D01*
Y571730D01*
X1620387Y571707D01*
Y571678D01*
X1620381Y571644D01*
X1620375Y571603D01*
X1620367Y571558D01*
X1620358Y571509D01*
X1620344Y571454D01*
X1620326Y571400D01*
X1620303Y571342D01*
X1620278Y571285D01*
X1620249Y571227D01*
X1620212Y571167D01*
X1620171Y571113D01*
X1620125Y571058D01*
X1620123Y571055D01*
X1620114Y571047D01*
X1620097Y571032D01*
X1620077Y571012D01*
X1620048Y570992D01*
X1620014Y570966D01*
X1619973Y570938D01*
X1619925Y570909D01*
X1619870Y570880D01*
X1619810Y570849D01*
X1619744Y570820D01*
X1619669Y570791D01*
X1619592Y570765D01*
X1619503Y570742D01*
X1619411Y570722D01*
X1619310Y570705D01*
X1619313D01*
X1619319Y570702D01*
X1619330Y570696D01*
X1619345Y570688D01*
X1619359Y570679D01*
X1619379Y570671D01*
X1619425Y570645D01*
X1619474Y570616D01*
X1619523Y570582D01*
X1619572Y570547D01*
X1619615Y570513D01*
X1619617Y570510D01*
X1619626Y570504D01*
X1619638Y570493D01*
X1619652Y570475D01*
X1619672Y570455D01*
X1619695Y570432D01*
X1619724Y570404D01*
X1619752Y570372D01*
X1619784Y570338D01*
X1619816Y570298D01*
X1619850Y570257D01*
X1619887Y570211D01*
X1619925Y570163D01*
X1619962Y570111D01*
X1620036Y570002D01*
X1620697Y568960D01*
X1620065D01*
X1619557Y569758D01*
X1619554Y569761D01*
X1619549Y569772D01*
X1619537Y569792D01*
X1619520Y569815D01*
X1619503Y569844D01*
X1619480Y569876D01*
X1619457Y569913D01*
X1619428Y569953D01*
X1619371Y570036D01*
X1619310Y570125D01*
X1619250Y570209D01*
X1619221Y570249D01*
X1619193Y570283D01*
X1619190Y570286D01*
X1619187Y570292D01*
X1619178Y570300D01*
X1619170Y570312D01*
X1619141Y570346D01*
X1619107Y570384D01*
X1619066Y570427D01*
X1619023Y570470D01*
X1618977Y570507D01*
X1618934Y570539D01*
X1618929Y570541D01*
X1618914Y570550D01*
X1618894Y570564D01*
X1618863Y570579D01*
X1618828Y570596D01*
X1618791Y570613D01*
X1618748Y570630D01*
X1618705Y570642D01*
X1618702D01*
X1618687Y570645D01*
X1618667Y570648D01*
X1618639Y570653D01*
X1618599Y570656D01*
X1618550Y570659D01*
X1618492Y570662D01*
X1617838D01*
Y568960D01*
X1617330D01*
Y572792D01*
X1619075D01*
X1619109Y572789D01*
D02*
G37*
G36*
X1615440Y567668D02*
X1613695D01*
X1613660Y567671D01*
X1613617D01*
X1613569Y567674D01*
X1613514Y567677D01*
X1613454Y567680D01*
X1613394Y567686D01*
X1613330Y567694D01*
X1613201Y567711D01*
X1613138Y567723D01*
X1613075Y567737D01*
X1613017Y567754D01*
X1612966Y567772D01*
X1612963D01*
X1612954Y567777D01*
X1612940Y567783D01*
X1612923Y567792D01*
X1612900Y567803D01*
X1612874Y567817D01*
X1612845Y567835D01*
X1612814Y567855D01*
X1612779Y567881D01*
X1612745Y567906D01*
X1612710Y567935D01*
X1612673Y567970D01*
X1612639Y568004D01*
X1612604Y568044D01*
X1612573Y568090D01*
X1612541Y568136D01*
X1612538Y568139D01*
X1612535Y568148D01*
X1612527Y568162D01*
X1612515Y568182D01*
X1612504Y568205D01*
X1612489Y568237D01*
X1612475Y568268D01*
X1612461Y568306D01*
X1612446Y568349D01*
X1612432Y568392D01*
X1612418Y568440D01*
X1612406Y568489D01*
X1612386Y568598D01*
X1612383Y568656D01*
X1612380Y568713D01*
Y568719D01*
Y568730D01*
X1612383Y568753D01*
Y568782D01*
X1612389Y568816D01*
X1612395Y568857D01*
X1612403Y568903D01*
X1612412Y568951D01*
X1612426Y569006D01*
X1612444Y569060D01*
X1612466Y569118D01*
X1612492Y569175D01*
X1612521Y569232D01*
X1612558Y569293D01*
X1612599Y569347D01*
X1612644Y569402D01*
X1612647Y569405D01*
X1612656Y569413D01*
X1612673Y569428D01*
X1612693Y569448D01*
X1612722Y569468D01*
X1612756Y569494D01*
X1612796Y569522D01*
X1612845Y569551D01*
X1612900Y569580D01*
X1612960Y569611D01*
X1613026Y569640D01*
X1613101Y569669D01*
X1613178Y569695D01*
X1613267Y569718D01*
X1613359Y569738D01*
X1613459Y569755D01*
X1613457D01*
X1613451Y569758D01*
X1613439Y569763D01*
X1613425Y569772D01*
X1613411Y569781D01*
X1613391Y569789D01*
X1613345Y569815D01*
X1613296Y569844D01*
X1613247Y569878D01*
X1613198Y569913D01*
X1613155Y569947D01*
X1613152Y569950D01*
X1613144Y569956D01*
X1613132Y569967D01*
X1613118Y569985D01*
X1613098Y570005D01*
X1613075Y570028D01*
X1613046Y570056D01*
X1613017Y570088D01*
X1612986Y570122D01*
X1612954Y570163D01*
X1612920Y570203D01*
X1612883Y570249D01*
X1612845Y570297D01*
X1612808Y570349D01*
X1612733Y570458D01*
X1612073Y571500D01*
X1612705D01*
X1613213Y570702D01*
X1613215Y570699D01*
X1613221Y570688D01*
X1613233Y570668D01*
X1613250Y570645D01*
X1613267Y570616D01*
X1613290Y570584D01*
X1613313Y570547D01*
X1613342Y570507D01*
X1613399Y570424D01*
X1613459Y570335D01*
X1613520Y570252D01*
X1613548Y570211D01*
X1613577Y570177D01*
X1613580Y570174D01*
X1613583Y570168D01*
X1613591Y570160D01*
X1613600Y570148D01*
X1613629Y570114D01*
X1613663Y570076D01*
X1613703Y570033D01*
X1613746Y569990D01*
X1613793Y569953D01*
X1613835Y569921D01*
X1613841Y569919D01*
X1613856Y569910D01*
X1613876Y569896D01*
X1613907Y569881D01*
X1613942Y569864D01*
X1613979Y569847D01*
X1614022Y569829D01*
X1614065Y569818D01*
X1614068D01*
X1614082Y569815D01*
X1614102Y569812D01*
X1614131Y569807D01*
X1614171Y569804D01*
X1614220Y569801D01*
X1614277Y569798D01*
X1614932D01*
Y571500D01*
X1615440D01*
Y567668D01*
D02*
G37*
G36*
X1610475Y568503D02*
X1610477Y568506D01*
X1610483Y568509D01*
X1610492Y568521D01*
X1610506Y568532D01*
X1610523Y568547D01*
X1610543Y568564D01*
X1610566Y568584D01*
X1610595Y568604D01*
X1610627Y568627D01*
X1610658Y568653D01*
X1610695Y568681D01*
X1610736Y568707D01*
X1610825Y568768D01*
X1610922Y568828D01*
X1610925Y568831D01*
X1610934Y568834D01*
X1610948Y568842D01*
X1610968Y568854D01*
X1610994Y568868D01*
X1611020Y568882D01*
X1611051Y568900D01*
X1611086Y568917D01*
X1611163Y568957D01*
X1611247Y568997D01*
X1611333Y569035D01*
X1611416Y569069D01*
Y568615D01*
X1611410Y568613D01*
X1611399Y568607D01*
X1611379Y568595D01*
X1611350Y568581D01*
X1611315Y568564D01*
X1611275Y568544D01*
X1611232Y568518D01*
X1611183Y568489D01*
X1611129Y568458D01*
X1611074Y568423D01*
X1610960Y568346D01*
X1610842Y568260D01*
X1610727Y568165D01*
X1610724Y568162D01*
X1610713Y568153D01*
X1610698Y568139D01*
X1610678Y568119D01*
X1610655Y568096D01*
X1610627Y568067D01*
X1610595Y568036D01*
X1610564Y568001D01*
X1610529Y567964D01*
X1610495Y567924D01*
X1610426Y567838D01*
X1610363Y567746D01*
X1610334Y567697D01*
X1610308Y567651D01*
X1610004D01*
Y571500D01*
X1610475D01*
Y568503D01*
D02*
G37*
G36*
X1608862Y571497D02*
Y571491D01*
Y571483D01*
Y571471D01*
Y571457D01*
X1608859Y571437D01*
X1608856Y571397D01*
X1608850Y571345D01*
X1608841Y571291D01*
X1608827Y571233D01*
X1608807Y571176D01*
Y571173D01*
X1608801Y571164D01*
X1608795Y571150D01*
X1608790Y571133D01*
X1608778Y571107D01*
X1608767Y571081D01*
X1608750Y571049D01*
X1608732Y571015D01*
X1608712Y570978D01*
X1608689Y570937D01*
X1608638Y570851D01*
X1608574Y570762D01*
X1608500Y570668D01*
X1608497Y570665D01*
X1608488Y570656D01*
X1608477Y570642D01*
X1608460Y570622D01*
X1608437Y570599D01*
X1608411Y570570D01*
X1608379Y570538D01*
X1608342Y570501D01*
X1608302Y570458D01*
X1608256Y570415D01*
X1608204Y570366D01*
X1608150Y570317D01*
X1608089Y570263D01*
X1608023Y570205D01*
X1607955Y570148D01*
X1607883Y570088D01*
X1607880Y570085D01*
X1607877Y570082D01*
X1607868Y570074D01*
X1607854Y570065D01*
X1607840Y570053D01*
X1607822Y570039D01*
X1607782Y570002D01*
X1607731Y569959D01*
X1607673Y569910D01*
X1607610Y569852D01*
X1607541Y569792D01*
X1607472Y569729D01*
X1607401Y569663D01*
X1607332Y569597D01*
X1607263Y569528D01*
X1607197Y569462D01*
X1607137Y569396D01*
X1607082Y569333D01*
X1607036Y569276D01*
X1607033Y569273D01*
X1607027Y569261D01*
X1607016Y569247D01*
X1607002Y569224D01*
X1606984Y569198D01*
X1606967Y569166D01*
X1606947Y569129D01*
X1606924Y569092D01*
X1606904Y569049D01*
X1606884Y569003D01*
X1606849Y568908D01*
X1606835Y568859D01*
X1606824Y568808D01*
X1606818Y568759D01*
X1606815Y568707D01*
Y568704D01*
Y568696D01*
Y568679D01*
X1606818Y568661D01*
X1606821Y568635D01*
X1606826Y568607D01*
X1606832Y568575D01*
X1606841Y568544D01*
X1606849Y568506D01*
X1606864Y568469D01*
X1606881Y568429D01*
X1606898Y568389D01*
X1606924Y568349D01*
X1606950Y568308D01*
X1606982Y568271D01*
X1607016Y568234D01*
X1607019Y568231D01*
X1607025Y568225D01*
X1607036Y568217D01*
X1607053Y568202D01*
X1607073Y568188D01*
X1607096Y568173D01*
X1607125Y568156D01*
X1607157Y568136D01*
X1607191Y568119D01*
X1607231Y568102D01*
X1607274Y568087D01*
X1607320Y568070D01*
X1607372Y568059D01*
X1607424Y568050D01*
X1607478Y568044D01*
X1607538Y568041D01*
X1607570D01*
X1607596Y568044D01*
X1607624Y568047D01*
X1607656Y568053D01*
X1607693Y568059D01*
X1607733Y568067D01*
X1607776Y568079D01*
X1607822Y568090D01*
X1607868Y568107D01*
X1607914Y568128D01*
X1607960Y568150D01*
X1608003Y568179D01*
X1608046Y568208D01*
X1608087Y568245D01*
X1608089Y568248D01*
X1608095Y568254D01*
X1608107Y568265D01*
X1608118Y568283D01*
X1608132Y568303D01*
X1608150Y568328D01*
X1608170Y568357D01*
X1608187Y568392D01*
X1608207Y568429D01*
X1608227Y568472D01*
X1608244Y568518D01*
X1608259Y568569D01*
X1608270Y568621D01*
X1608282Y568681D01*
X1608287Y568742D01*
X1608290Y568808D01*
X1608772Y568759D01*
Y568756D01*
Y568753D01*
X1608770Y568745D01*
Y568736D01*
X1608767Y568707D01*
X1608761Y568670D01*
X1608752Y568624D01*
X1608741Y568572D01*
X1608727Y568515D01*
X1608707Y568455D01*
X1608686Y568389D01*
X1608660Y568320D01*
X1608629Y568251D01*
X1608595Y568185D01*
X1608554Y568116D01*
X1608508Y568053D01*
X1608457Y567993D01*
X1608399Y567935D01*
X1608396Y567932D01*
X1608385Y567924D01*
X1608365Y567909D01*
X1608339Y567889D01*
X1608307Y567869D01*
X1608267Y567846D01*
X1608221Y567820D01*
X1608170Y567792D01*
X1608109Y567766D01*
X1608043Y567740D01*
X1607972Y567717D01*
X1607894Y567694D01*
X1607811Y567677D01*
X1607725Y567663D01*
X1607630Y567654D01*
X1607530Y567651D01*
X1607504D01*
X1607478Y567654D01*
X1607438Y567657D01*
X1607392Y567660D01*
X1607337Y567668D01*
X1607277Y567677D01*
X1607214Y567688D01*
X1607145Y567706D01*
X1607073Y567726D01*
X1607002Y567752D01*
X1606930Y567780D01*
X1606858Y567815D01*
X1606786Y567858D01*
X1606720Y567904D01*
X1606657Y567958D01*
X1606654Y567961D01*
X1606643Y567972D01*
X1606628Y567990D01*
X1606606Y568013D01*
X1606582Y568044D01*
X1606554Y568079D01*
X1606525Y568122D01*
X1606494Y568168D01*
X1606465Y568219D01*
X1606436Y568277D01*
X1606407Y568340D01*
X1606384Y568406D01*
X1606362Y568478D01*
X1606347Y568555D01*
X1606336Y568633D01*
X1606333Y568716D01*
Y568719D01*
Y568727D01*
Y568739D01*
Y568756D01*
X1606336Y568776D01*
X1606339Y568802D01*
X1606341Y568828D01*
X1606344Y568859D01*
X1606356Y568928D01*
X1606373Y569006D01*
X1606396Y569089D01*
X1606427Y569172D01*
Y569175D01*
X1606433Y569181D01*
X1606439Y569195D01*
X1606445Y569210D01*
X1606456Y569230D01*
X1606468Y569255D01*
X1606485Y569281D01*
X1606502Y569313D01*
X1606522Y569347D01*
X1606545Y569385D01*
X1606600Y569462D01*
X1606663Y569548D01*
X1606700Y569594D01*
X1606740Y569640D01*
X1606743Y569643D01*
X1606752Y569652D01*
X1606763Y569666D01*
X1606783Y569686D01*
X1606806Y569709D01*
X1606835Y569741D01*
X1606872Y569775D01*
X1606913Y569815D01*
X1606961Y569861D01*
X1607013Y569913D01*
X1607073Y569967D01*
X1607139Y570028D01*
X1607211Y570094D01*
X1607289Y570163D01*
X1607375Y570237D01*
X1607466Y570315D01*
X1607472Y570317D01*
X1607484Y570329D01*
X1607507Y570349D01*
X1607535Y570372D01*
X1607567Y570401D01*
X1607607Y570432D01*
X1607647Y570470D01*
X1607693Y570507D01*
X1607785Y570587D01*
X1607874Y570668D01*
X1607914Y570705D01*
X1607952Y570739D01*
X1607983Y570771D01*
X1608009Y570797D01*
X1608015Y570802D01*
X1608029Y570820D01*
X1608052Y570843D01*
X1608078Y570874D01*
X1608112Y570914D01*
X1608144Y570957D01*
X1608178Y571003D01*
X1608210Y571049D01*
X1606327D01*
Y571500D01*
X1608862D01*
Y571497D01*
D02*
G37*
G36*
X1764760Y753107D02*
X1764804D01*
X1764855Y753104D01*
X1764915Y753099D01*
X1764984Y753090D01*
X1765059Y753081D01*
X1765139Y753070D01*
X1765223Y753055D01*
X1765309Y753035D01*
X1765398Y753015D01*
X1765487Y752990D01*
X1765576Y752958D01*
X1765662Y752923D01*
X1765748Y752883D01*
X1765754Y752880D01*
X1765768Y752872D01*
X1765791Y752860D01*
X1765822Y752840D01*
X1765857Y752817D01*
X1765900Y752788D01*
X1765949Y752754D01*
X1766001Y752717D01*
X1766052Y752674D01*
X1766109Y752625D01*
X1766164Y752570D01*
X1766221Y752513D01*
X1766276Y752450D01*
X1766331Y752384D01*
X1766379Y752312D01*
X1766425Y752235D01*
X1766428Y752229D01*
X1766437Y752215D01*
X1766448Y752191D01*
X1766463Y752160D01*
X1766480Y752120D01*
X1766500Y752074D01*
X1766520Y752019D01*
X1766543Y751959D01*
X1766563Y751893D01*
X1766583Y751821D01*
X1766603Y751747D01*
X1766620Y751663D01*
X1766638Y751580D01*
X1766649Y751491D01*
X1766655Y751399D01*
X1766658Y751305D01*
Y751279D01*
X1766655Y751250D01*
X1766652Y751210D01*
X1766649Y751158D01*
X1766643Y751104D01*
X1766632Y751038D01*
X1766620Y750969D01*
X1766606Y750894D01*
X1766586Y750817D01*
X1766563Y750736D01*
X1766534Y750656D01*
X1766500Y750573D01*
X1766463Y750492D01*
X1766417Y750415D01*
X1766365Y750340D01*
X1766362Y750334D01*
X1766351Y750323D01*
X1766333Y750303D01*
X1766310Y750277D01*
X1766282Y750246D01*
X1766244Y750208D01*
X1766201Y750168D01*
X1766153Y750125D01*
X1766098Y750079D01*
X1766035Y750033D01*
X1765969Y749987D01*
X1765894Y749944D01*
X1765814Y749901D01*
X1765728Y749861D01*
X1765639Y749824D01*
X1765541Y749792D01*
X1765423Y750292D01*
X1765429Y750294D01*
X1765441Y750297D01*
X1765464Y750306D01*
X1765492Y750317D01*
X1765527Y750332D01*
X1765564Y750346D01*
X1765610Y750366D01*
X1765656Y750389D01*
X1765705Y750418D01*
X1765757Y750446D01*
X1765805Y750478D01*
X1765857Y750512D01*
X1765906Y750550D01*
X1765952Y750590D01*
X1765995Y750633D01*
X1766032Y750679D01*
X1766035Y750682D01*
X1766041Y750690D01*
X1766049Y750705D01*
X1766064Y750725D01*
X1766078Y750748D01*
X1766092Y750779D01*
X1766109Y750814D01*
X1766130Y750854D01*
X1766147Y750897D01*
X1766164Y750946D01*
X1766178Y750997D01*
X1766196Y751055D01*
X1766207Y751115D01*
X1766216Y751178D01*
X1766221Y751244D01*
X1766224Y751316D01*
Y751359D01*
X1766221Y751388D01*
X1766219Y751428D01*
X1766213Y751471D01*
X1766207Y751520D01*
X1766198Y751572D01*
X1766187Y751629D01*
X1766173Y751689D01*
X1766155Y751749D01*
X1766135Y751813D01*
X1766109Y751876D01*
X1766081Y751936D01*
X1766049Y751996D01*
X1766012Y752054D01*
X1766009Y752057D01*
X1766003Y752065D01*
X1765989Y752083D01*
X1765975Y752103D01*
X1765952Y752125D01*
X1765926Y752154D01*
X1765894Y752183D01*
X1765860Y752217D01*
X1765822Y752252D01*
X1765780Y752286D01*
X1765733Y752321D01*
X1765682Y752355D01*
X1765627Y752387D01*
X1765567Y752418D01*
X1765507Y752444D01*
X1765441Y752470D01*
X1765438D01*
X1765423Y752476D01*
X1765406Y752481D01*
X1765381Y752487D01*
X1765346Y752496D01*
X1765309Y752507D01*
X1765266Y752519D01*
X1765217Y752527D01*
X1765162Y752539D01*
X1765105Y752550D01*
X1765045Y752559D01*
X1764982Y752570D01*
X1764847Y752582D01*
X1764706Y752588D01*
X1764700D01*
X1764683D01*
X1764657D01*
X1764623Y752585D01*
X1764583Y752582D01*
X1764531Y752579D01*
X1764476Y752576D01*
X1764416Y752570D01*
X1764350Y752562D01*
X1764284Y752553D01*
X1764141Y752527D01*
X1764066Y752513D01*
X1763994Y752493D01*
X1763920Y752473D01*
X1763851Y752447D01*
X1763848Y752444D01*
X1763833Y752441D01*
X1763816Y752433D01*
X1763790Y752421D01*
X1763762Y752404D01*
X1763727Y752387D01*
X1763687Y752364D01*
X1763647Y752338D01*
X1763601Y752309D01*
X1763558Y752275D01*
X1763512Y752240D01*
X1763466Y752200D01*
X1763423Y752157D01*
X1763380Y752108D01*
X1763343Y752059D01*
X1763305Y752005D01*
X1763302Y752002D01*
X1763297Y751991D01*
X1763288Y751973D01*
X1763277Y751953D01*
X1763265Y751925D01*
X1763248Y751890D01*
X1763234Y751853D01*
X1763216Y751810D01*
X1763199Y751764D01*
X1763185Y751712D01*
X1763168Y751661D01*
X1763156Y751603D01*
X1763145Y751543D01*
X1763136Y751483D01*
X1763130Y751420D01*
X1763127Y751353D01*
Y751333D01*
X1763130Y751313D01*
Y751282D01*
X1763136Y751247D01*
X1763142Y751204D01*
X1763147Y751155D01*
X1763159Y751104D01*
X1763170Y751049D01*
X1763188Y750992D01*
X1763208Y750931D01*
X1763231Y750871D01*
X1763259Y750811D01*
X1763291Y750751D01*
X1763328Y750693D01*
X1763371Y750636D01*
X1763374Y750633D01*
X1763383Y750621D01*
X1763397Y750607D01*
X1763417Y750587D01*
X1763443Y750564D01*
X1763475Y750535D01*
X1763512Y750507D01*
X1763555Y750475D01*
X1763604Y750441D01*
X1763658Y750409D01*
X1763719Y750375D01*
X1763782Y750340D01*
X1763853Y750312D01*
X1763931Y750283D01*
X1764011Y750257D01*
X1764100Y750234D01*
X1763974Y749726D01*
X1763971D01*
X1763968Y749729D01*
X1763960D01*
X1763945Y749735D01*
X1763931Y749737D01*
X1763914Y749743D01*
X1763871Y749758D01*
X1763819Y749775D01*
X1763759Y749798D01*
X1763693Y749827D01*
X1763621Y749858D01*
X1763544Y749895D01*
X1763466Y749936D01*
X1763389Y749984D01*
X1763308Y750036D01*
X1763231Y750093D01*
X1763156Y750157D01*
X1763087Y750225D01*
X1763021Y750300D01*
X1763018Y750306D01*
X1763007Y750320D01*
X1762993Y750343D01*
X1762970Y750375D01*
X1762947Y750415D01*
X1762918Y750464D01*
X1762889Y750518D01*
X1762858Y750581D01*
X1762826Y750653D01*
X1762797Y750728D01*
X1762769Y750811D01*
X1762746Y750903D01*
X1762726Y750997D01*
X1762708Y751098D01*
X1762697Y751204D01*
X1762694Y751313D01*
Y751356D01*
X1762697Y751374D01*
Y751417D01*
X1762703Y751468D01*
X1762708Y751528D01*
X1762714Y751597D01*
X1762726Y751669D01*
X1762740Y751749D01*
X1762754Y751830D01*
X1762774Y751913D01*
X1762800Y751996D01*
X1762829Y752083D01*
X1762861Y752163D01*
X1762901Y752243D01*
X1762944Y752318D01*
X1762947Y752324D01*
X1762955Y752335D01*
X1762970Y752355D01*
X1762990Y752381D01*
X1763018Y752412D01*
X1763050Y752450D01*
X1763087Y752493D01*
X1763130Y752536D01*
X1763179Y752585D01*
X1763234Y752634D01*
X1763294Y752682D01*
X1763360Y752731D01*
X1763429Y752780D01*
X1763506Y752826D01*
X1763589Y752869D01*
X1763676Y752909D01*
X1763681Y752912D01*
X1763699Y752918D01*
X1763724Y752926D01*
X1763759Y752941D01*
X1763805Y752955D01*
X1763856Y752972D01*
X1763917Y752990D01*
X1763983Y753009D01*
X1764057Y753027D01*
X1764138Y753047D01*
X1764221Y753064D01*
X1764313Y753078D01*
X1764405Y753093D01*
X1764502Y753101D01*
X1764603Y753107D01*
X1764703Y753110D01*
X1764706D01*
X1764709D01*
X1764718D01*
X1764729D01*
X1764743D01*
X1764760Y753107D01*
D02*
G37*
G36*
X1762823Y749350D02*
X1762863Y749347D01*
X1762915Y749341D01*
X1762970Y749333D01*
X1763027Y749318D01*
X1763084Y749298D01*
X1763087D01*
X1763096Y749293D01*
X1763110Y749287D01*
X1763127Y749281D01*
X1763153Y749270D01*
X1763179Y749258D01*
X1763211Y749241D01*
X1763245Y749224D01*
X1763282Y749204D01*
X1763323Y749181D01*
X1763409Y749129D01*
X1763498Y749066D01*
X1763592Y748991D01*
X1763595Y748988D01*
X1763604Y748980D01*
X1763618Y748968D01*
X1763638Y748951D01*
X1763661Y748928D01*
X1763690Y748902D01*
X1763721Y748871D01*
X1763759Y748833D01*
X1763802Y748793D01*
X1763845Y748747D01*
X1763894Y748696D01*
X1763943Y748641D01*
X1763997Y748581D01*
X1764055Y748515D01*
X1764112Y748446D01*
X1764172Y748374D01*
X1764175Y748371D01*
X1764178Y748368D01*
X1764187Y748360D01*
X1764195Y748345D01*
X1764207Y748331D01*
X1764221Y748314D01*
X1764258Y748274D01*
X1764301Y748222D01*
X1764350Y748165D01*
X1764408Y748102D01*
X1764468Y748033D01*
X1764531Y747964D01*
X1764597Y747892D01*
X1764663Y747823D01*
X1764732Y747754D01*
X1764798Y747688D01*
X1764864Y747628D01*
X1764927Y747573D01*
X1764984Y747527D01*
X1764987Y747525D01*
X1764999Y747519D01*
X1765013Y747507D01*
X1765036Y747493D01*
X1765062Y747476D01*
X1765094Y747459D01*
X1765131Y747439D01*
X1765168Y747415D01*
X1765211Y747395D01*
X1765257Y747375D01*
X1765352Y747341D01*
X1765401Y747327D01*
X1765452Y747315D01*
X1765501Y747309D01*
X1765553Y747307D01*
X1765556D01*
X1765564D01*
X1765581D01*
X1765599Y747309D01*
X1765625Y747312D01*
X1765653Y747318D01*
X1765685Y747324D01*
X1765716Y747332D01*
X1765754Y747341D01*
X1765791Y747355D01*
X1765831Y747373D01*
X1765871Y747390D01*
X1765912Y747415D01*
X1765952Y747441D01*
X1765989Y747473D01*
X1766026Y747507D01*
X1766029Y747510D01*
X1766035Y747516D01*
X1766044Y747527D01*
X1766058Y747545D01*
X1766072Y747565D01*
X1766087Y747588D01*
X1766104Y747616D01*
X1766124Y747648D01*
X1766141Y747682D01*
X1766158Y747723D01*
X1766173Y747766D01*
X1766190Y747812D01*
X1766201Y747863D01*
X1766210Y747915D01*
X1766216Y747970D01*
X1766219Y748030D01*
Y748061D01*
X1766216Y748087D01*
X1766213Y748116D01*
X1766207Y748147D01*
X1766201Y748185D01*
X1766193Y748225D01*
X1766181Y748268D01*
X1766170Y748314D01*
X1766153Y748360D01*
X1766133Y748406D01*
X1766109Y748452D01*
X1766081Y748495D01*
X1766052Y748538D01*
X1766015Y748578D01*
X1766012Y748581D01*
X1766006Y748587D01*
X1765995Y748598D01*
X1765977Y748609D01*
X1765957Y748624D01*
X1765932Y748641D01*
X1765903Y748661D01*
X1765868Y748678D01*
X1765831Y748699D01*
X1765788Y748719D01*
X1765742Y748736D01*
X1765690Y748750D01*
X1765639Y748762D01*
X1765578Y748773D01*
X1765518Y748779D01*
X1765452Y748782D01*
X1765501Y749264D01*
X1765504D01*
X1765507D01*
X1765515Y749261D01*
X1765524D01*
X1765553Y749258D01*
X1765590Y749252D01*
X1765636Y749244D01*
X1765688Y749232D01*
X1765745Y749218D01*
X1765805Y749198D01*
X1765871Y749178D01*
X1765940Y749152D01*
X1766009Y749120D01*
X1766075Y749086D01*
X1766144Y749046D01*
X1766207Y749000D01*
X1766267Y748948D01*
X1766325Y748891D01*
X1766328Y748888D01*
X1766336Y748876D01*
X1766351Y748856D01*
X1766371Y748830D01*
X1766391Y748799D01*
X1766414Y748759D01*
X1766440Y748713D01*
X1766468Y748661D01*
X1766494Y748601D01*
X1766520Y748535D01*
X1766543Y748463D01*
X1766566Y748386D01*
X1766583Y748302D01*
X1766597Y748216D01*
X1766606Y748122D01*
X1766609Y748021D01*
Y747995D01*
X1766606Y747970D01*
X1766603Y747929D01*
X1766600Y747883D01*
X1766592Y747829D01*
X1766583Y747769D01*
X1766572Y747705D01*
X1766554Y747636D01*
X1766534Y747565D01*
X1766508Y747493D01*
X1766480Y747421D01*
X1766445Y747349D01*
X1766402Y747278D01*
X1766356Y747212D01*
X1766302Y747149D01*
X1766299Y747146D01*
X1766288Y747134D01*
X1766270Y747120D01*
X1766247Y747097D01*
X1766216Y747074D01*
X1766181Y747045D01*
X1766138Y747017D01*
X1766092Y746985D01*
X1766041Y746956D01*
X1765983Y746928D01*
X1765920Y746899D01*
X1765854Y746876D01*
X1765782Y746853D01*
X1765705Y746839D01*
X1765627Y746827D01*
X1765544Y746824D01*
X1765541D01*
X1765533D01*
X1765521D01*
X1765504D01*
X1765484Y746827D01*
X1765458Y746830D01*
X1765432Y746833D01*
X1765401Y746836D01*
X1765332Y746847D01*
X1765254Y746864D01*
X1765171Y746887D01*
X1765088Y746919D01*
X1765085D01*
X1765079Y746925D01*
X1765065Y746930D01*
X1765050Y746936D01*
X1765030Y746948D01*
X1765004Y746959D01*
X1764979Y746976D01*
X1764947Y746994D01*
X1764913Y747014D01*
X1764875Y747037D01*
X1764798Y747091D01*
X1764712Y747154D01*
X1764666Y747192D01*
X1764620Y747232D01*
X1764617Y747235D01*
X1764608Y747243D01*
X1764594Y747255D01*
X1764574Y747275D01*
X1764551Y747298D01*
X1764519Y747327D01*
X1764485Y747364D01*
X1764445Y747404D01*
X1764399Y747453D01*
X1764347Y747505D01*
X1764293Y747565D01*
X1764232Y747631D01*
X1764166Y747702D01*
X1764097Y747780D01*
X1764023Y747866D01*
X1763945Y747958D01*
X1763943Y747964D01*
X1763931Y747975D01*
X1763911Y747998D01*
X1763888Y748027D01*
X1763859Y748058D01*
X1763828Y748099D01*
X1763790Y748139D01*
X1763753Y748185D01*
X1763673Y748277D01*
X1763592Y748366D01*
X1763555Y748406D01*
X1763521Y748443D01*
X1763489Y748475D01*
X1763463Y748501D01*
X1763457Y748506D01*
X1763440Y748521D01*
X1763417Y748543D01*
X1763386Y748569D01*
X1763345Y748604D01*
X1763302Y748635D01*
X1763257Y748670D01*
X1763211Y748701D01*
Y746818D01*
X1762760D01*
Y749353D01*
X1762763D01*
X1762769D01*
X1762777D01*
X1762789D01*
X1762803D01*
X1762823Y749350D01*
D02*
G37*
G36*
X1766589Y744720D02*
Y744336D01*
X1764106D01*
Y743819D01*
X1763676D01*
Y744336D01*
X1762760D01*
Y744807D01*
X1763676D01*
Y746468D01*
X1764106D01*
X1766589Y744720D01*
D02*
G37*
G36*
X1620628Y625627D02*
X1619095D01*
X1618892Y624599D01*
X1618895Y624602D01*
X1618906Y624610D01*
X1618926Y624622D01*
X1618952Y624636D01*
X1618983Y624656D01*
X1619021Y624677D01*
X1619064Y624697D01*
X1619113Y624720D01*
X1619164Y624743D01*
X1619219Y624763D01*
X1619279Y624786D01*
X1619342Y624803D01*
X1619408Y624817D01*
X1619474Y624829D01*
X1619543Y624837D01*
X1619615Y624840D01*
X1619638D01*
X1619664Y624837D01*
X1619698Y624834D01*
X1619741Y624829D01*
X1619793Y624823D01*
X1619847Y624811D01*
X1619910Y624797D01*
X1619974Y624777D01*
X1620043Y624754D01*
X1620111Y624725D01*
X1620183Y624694D01*
X1620255Y624654D01*
X1620327Y624605D01*
X1620396Y624553D01*
X1620462Y624490D01*
X1620464Y624487D01*
X1620476Y624473D01*
X1620493Y624455D01*
X1620516Y624427D01*
X1620542Y624392D01*
X1620571Y624352D01*
X1620602Y624303D01*
X1620637Y624249D01*
X1620668Y624186D01*
X1620700Y624120D01*
X1620728Y624045D01*
X1620754Y623968D01*
X1620777Y623881D01*
X1620795Y623792D01*
X1620806Y623698D01*
X1620809Y623597D01*
Y623592D01*
Y623574D01*
X1620806Y623546D01*
X1620803Y623511D01*
X1620800Y623465D01*
X1620792Y623414D01*
X1620783Y623353D01*
X1620772Y623290D01*
X1620754Y623221D01*
X1620734Y623150D01*
X1620711Y623075D01*
X1620680Y623000D01*
X1620645Y622923D01*
X1620605Y622845D01*
X1620559Y622771D01*
X1620505Y622699D01*
X1620502Y622693D01*
X1620487Y622679D01*
X1620467Y622656D01*
X1620439Y622627D01*
X1620401Y622590D01*
X1620355Y622553D01*
X1620301Y622509D01*
X1620241Y622467D01*
X1620172Y622423D01*
X1620097Y622380D01*
X1620014Y622343D01*
X1619925Y622306D01*
X1619827Y622277D01*
X1619724Y622254D01*
X1619615Y622240D01*
X1619497Y622234D01*
X1619474D01*
X1619446Y622237D01*
X1619411Y622240D01*
X1619365Y622243D01*
X1619314Y622248D01*
X1619256Y622257D01*
X1619196Y622271D01*
X1619130Y622286D01*
X1619061Y622306D01*
X1618989Y622329D01*
X1618917Y622357D01*
X1618846Y622389D01*
X1618777Y622429D01*
X1618708Y622472D01*
X1618645Y622524D01*
X1618642Y622527D01*
X1618630Y622538D01*
X1618613Y622555D01*
X1618593Y622578D01*
X1618567Y622607D01*
X1618539Y622642D01*
X1618507Y622685D01*
X1618475Y622730D01*
X1618441Y622785D01*
X1618409Y622842D01*
X1618378Y622906D01*
X1618346Y622975D01*
X1618320Y623049D01*
X1618297Y623130D01*
X1618280Y623213D01*
X1618269Y623302D01*
X1618762Y623345D01*
Y623342D01*
X1618765Y623327D01*
X1618768Y623310D01*
X1618774Y623284D01*
X1618783Y623256D01*
X1618791Y623221D01*
X1618803Y623184D01*
X1618814Y623141D01*
X1618849Y623055D01*
X1618892Y622963D01*
X1618917Y622920D01*
X1618946Y622877D01*
X1618981Y622840D01*
X1619015Y622802D01*
X1619018Y622799D01*
X1619024Y622794D01*
X1619035Y622785D01*
X1619050Y622774D01*
X1619070Y622759D01*
X1619093Y622745D01*
X1619118Y622728D01*
X1619150Y622713D01*
X1619184Y622696D01*
X1619219Y622679D01*
X1619259Y622664D01*
X1619302Y622650D01*
X1619348Y622639D01*
X1619394Y622630D01*
X1619446Y622624D01*
X1619497Y622621D01*
X1619512D01*
X1619532Y622624D01*
X1619555D01*
X1619583Y622630D01*
X1619618Y622636D01*
X1619655Y622642D01*
X1619698Y622653D01*
X1619741Y622667D01*
X1619787Y622685D01*
X1619836Y622705D01*
X1619885Y622730D01*
X1619933Y622759D01*
X1619982Y622794D01*
X1620028Y622831D01*
X1620074Y622877D01*
X1620077Y622880D01*
X1620086Y622888D01*
X1620097Y622903D01*
X1620111Y622923D01*
X1620129Y622949D01*
X1620149Y622980D01*
X1620169Y623018D01*
X1620192Y623058D01*
X1620215Y623104D01*
X1620235Y623155D01*
X1620255Y623210D01*
X1620272Y623270D01*
X1620287Y623336D01*
X1620301Y623405D01*
X1620307Y623477D01*
X1620309Y623554D01*
Y623560D01*
Y623572D01*
Y623595D01*
X1620307Y623620D01*
X1620304Y623655D01*
X1620298Y623695D01*
X1620289Y623738D01*
X1620281Y623787D01*
X1620269Y623836D01*
X1620255Y623887D01*
X1620235Y623942D01*
X1620215Y623993D01*
X1620189Y624045D01*
X1620157Y624097D01*
X1620123Y624146D01*
X1620083Y624192D01*
X1620080Y624194D01*
X1620071Y624203D01*
X1620060Y624214D01*
X1620043Y624229D01*
X1620020Y624246D01*
X1619994Y624266D01*
X1619962Y624286D01*
X1619925Y624309D01*
X1619885Y624329D01*
X1619839Y624349D01*
X1619793Y624369D01*
X1619738Y624387D01*
X1619684Y624404D01*
X1619624Y624415D01*
X1619557Y624421D01*
X1619491Y624424D01*
X1619469D01*
X1619454Y624421D01*
X1619434D01*
X1619408Y624418D01*
X1619382Y624415D01*
X1619354Y624412D01*
X1619291Y624398D01*
X1619222Y624381D01*
X1619150Y624355D01*
X1619078Y624321D01*
X1619075D01*
X1619070Y624315D01*
X1619061Y624309D01*
X1619050Y624303D01*
X1619015Y624280D01*
X1618975Y624249D01*
X1618929Y624212D01*
X1618883Y624166D01*
X1618837Y624111D01*
X1618794Y624054D01*
X1618352Y624111D01*
X1618722Y626077D01*
X1620628D01*
Y625627D01*
D02*
G37*
G36*
X1617066Y622300D02*
X1616595D01*
Y625297D01*
X1616593Y625294D01*
X1616587Y625291D01*
X1616578Y625279D01*
X1616564Y625268D01*
X1616547Y625253D01*
X1616527Y625236D01*
X1616504Y625216D01*
X1616475Y625196D01*
X1616443Y625173D01*
X1616412Y625147D01*
X1616374Y625118D01*
X1616334Y625093D01*
X1616245Y625032D01*
X1616148Y624972D01*
X1616145Y624969D01*
X1616136Y624966D01*
X1616122Y624958D01*
X1616102Y624946D01*
X1616076Y624932D01*
X1616050Y624918D01*
X1616019Y624900D01*
X1615984Y624883D01*
X1615907Y624843D01*
X1615823Y624803D01*
X1615737Y624766D01*
X1615654Y624731D01*
Y625185D01*
X1615660Y625187D01*
X1615671Y625193D01*
X1615691Y625205D01*
X1615720Y625219D01*
X1615755Y625236D01*
X1615795Y625256D01*
X1615838Y625282D01*
X1615887Y625311D01*
X1615941Y625342D01*
X1615996Y625377D01*
X1616110Y625454D01*
X1616228Y625541D01*
X1616343Y625635D01*
X1616346Y625638D01*
X1616357Y625647D01*
X1616372Y625661D01*
X1616392Y625681D01*
X1616415Y625704D01*
X1616443Y625733D01*
X1616475Y625764D01*
X1616507Y625799D01*
X1616541Y625836D01*
X1616575Y625876D01*
X1616644Y625962D01*
X1616707Y626054D01*
X1616736Y626103D01*
X1616762Y626149D01*
X1617066D01*
Y622300D01*
D02*
G37*
G36*
X1613409Y626129D02*
X1613453D01*
X1613501Y626126D01*
X1613556Y626123D01*
X1613616Y626120D01*
X1613676Y626115D01*
X1613740Y626106D01*
X1613869Y626089D01*
X1613932Y626077D01*
X1613995Y626063D01*
X1614052Y626046D01*
X1614104Y626028D01*
X1614107D01*
X1614116Y626023D01*
X1614130Y626017D01*
X1614147Y626008D01*
X1614170Y625997D01*
X1614196Y625983D01*
X1614225Y625965D01*
X1614256Y625945D01*
X1614291Y625919D01*
X1614325Y625894D01*
X1614360Y625865D01*
X1614397Y625830D01*
X1614431Y625796D01*
X1614466Y625756D01*
X1614497Y625710D01*
X1614529Y625664D01*
X1614532Y625661D01*
X1614535Y625652D01*
X1614543Y625638D01*
X1614555Y625618D01*
X1614566Y625595D01*
X1614581Y625563D01*
X1614595Y625532D01*
X1614609Y625494D01*
X1614624Y625452D01*
X1614638Y625408D01*
X1614652Y625360D01*
X1614664Y625311D01*
X1614684Y625202D01*
X1614687Y625144D01*
X1614690Y625087D01*
Y625081D01*
Y625070D01*
X1614687Y625047D01*
Y625018D01*
X1614681Y624984D01*
X1614675Y624944D01*
X1614667Y624897D01*
X1614658Y624849D01*
X1614644Y624794D01*
X1614626Y624740D01*
X1614603Y624682D01*
X1614578Y624625D01*
X1614549Y624567D01*
X1614512Y624507D01*
X1614471Y624453D01*
X1614426Y624398D01*
X1614423Y624395D01*
X1614414Y624387D01*
X1614397Y624372D01*
X1614377Y624352D01*
X1614348Y624332D01*
X1614314Y624306D01*
X1614274Y624278D01*
X1614225Y624249D01*
X1614170Y624220D01*
X1614110Y624189D01*
X1614044Y624160D01*
X1613969Y624131D01*
X1613892Y624105D01*
X1613803Y624082D01*
X1613711Y624062D01*
X1613610Y624045D01*
X1613613D01*
X1613619Y624042D01*
X1613631Y624036D01*
X1613645Y624028D01*
X1613659Y624019D01*
X1613679Y624011D01*
X1613725Y623985D01*
X1613774Y623956D01*
X1613823Y623922D01*
X1613872Y623887D01*
X1613915Y623853D01*
X1613918Y623850D01*
X1613926Y623844D01*
X1613938Y623833D01*
X1613952Y623815D01*
X1613972Y623795D01*
X1613995Y623772D01*
X1614024Y623744D01*
X1614052Y623712D01*
X1614084Y623678D01*
X1614116Y623638D01*
X1614150Y623597D01*
X1614187Y623551D01*
X1614225Y623503D01*
X1614262Y623451D01*
X1614337Y623342D01*
X1614997Y622300D01*
X1614365D01*
X1613857Y623098D01*
X1613854Y623101D01*
X1613849Y623112D01*
X1613837Y623132D01*
X1613820Y623155D01*
X1613803Y623184D01*
X1613780Y623216D01*
X1613757Y623253D01*
X1613728Y623293D01*
X1613671Y623376D01*
X1613610Y623465D01*
X1613550Y623549D01*
X1613522Y623589D01*
X1613493Y623623D01*
X1613490Y623626D01*
X1613487Y623632D01*
X1613478Y623640D01*
X1613470Y623652D01*
X1613441Y623686D01*
X1613407Y623724D01*
X1613367Y623767D01*
X1613323Y623810D01*
X1613277Y623847D01*
X1613234Y623879D01*
X1613229Y623881D01*
X1613214Y623890D01*
X1613194Y623904D01*
X1613163Y623919D01*
X1613128Y623936D01*
X1613091Y623953D01*
X1613048Y623970D01*
X1613005Y623982D01*
X1613002D01*
X1612988Y623985D01*
X1612968Y623988D01*
X1612939Y623993D01*
X1612899Y623996D01*
X1612850Y623999D01*
X1612792Y624002D01*
X1612138D01*
Y622300D01*
X1611630D01*
Y626132D01*
X1613375D01*
X1613409Y626129D01*
D02*
G37*
G36*
X1718601Y330285D02*
X1718639D01*
X1718682Y330282D01*
X1718730Y330276D01*
X1718782Y330271D01*
X1718840Y330262D01*
X1718900Y330253D01*
X1719026Y330230D01*
X1719153Y330196D01*
X1719216Y330173D01*
X1719279Y330150D01*
X1719282Y330147D01*
X1719293Y330144D01*
X1719310Y330136D01*
X1719333Y330124D01*
X1719359Y330110D01*
X1719391Y330093D01*
X1719428Y330073D01*
X1719465Y330047D01*
X1719505Y330021D01*
X1719546Y329992D01*
X1719586Y329958D01*
X1719629Y329920D01*
X1719669Y329883D01*
X1719709Y329840D01*
X1719747Y329794D01*
X1719781Y329745D01*
X1719784Y329742D01*
X1719790Y329734D01*
X1719798Y329719D01*
X1719810Y329699D01*
X1719821Y329674D01*
X1719838Y329642D01*
X1719853Y329608D01*
X1719870Y329570D01*
X1719887Y329527D01*
X1719904Y329481D01*
X1719922Y329432D01*
X1719936Y329378D01*
X1719959Y329266D01*
X1719965Y329206D01*
X1719971Y329142D01*
X1719485Y329105D01*
Y329108D01*
X1719483Y329122D01*
X1719480Y329140D01*
X1719477Y329165D01*
X1719468Y329194D01*
X1719460Y329229D01*
X1719451Y329269D01*
X1719437Y329309D01*
X1719422Y329352D01*
X1719402Y329398D01*
X1719382Y329444D01*
X1719356Y329490D01*
X1719328Y329533D01*
X1719296Y329576D01*
X1719259Y329616D01*
X1719218Y329653D01*
X1719216Y329656D01*
X1719207Y329662D01*
X1719196Y329671D01*
X1719175Y329682D01*
X1719153Y329697D01*
X1719124Y329714D01*
X1719089Y329728D01*
X1719049Y329748D01*
X1719006Y329765D01*
X1718954Y329780D01*
X1718900Y329797D01*
X1718840Y329811D01*
X1718777Y329823D01*
X1718705Y329831D01*
X1718630Y329837D01*
X1718550Y329840D01*
X1718507D01*
X1718475Y329837D01*
X1718438Y329834D01*
X1718395Y329831D01*
X1718346Y329826D01*
X1718294Y329820D01*
X1718185Y329800D01*
X1718128Y329785D01*
X1718073Y329768D01*
X1718022Y329748D01*
X1717970Y329728D01*
X1717924Y329699D01*
X1717881Y329671D01*
X1717878Y329668D01*
X1717872Y329662D01*
X1717861Y329653D01*
X1717849Y329642D01*
X1717832Y329625D01*
X1717815Y329605D01*
X1717795Y329582D01*
X1717778Y329556D01*
X1717737Y329496D01*
X1717703Y329427D01*
X1717691Y329389D01*
X1717680Y329349D01*
X1717674Y329306D01*
X1717671Y329263D01*
Y329260D01*
Y329254D01*
Y329243D01*
X1717674Y329229D01*
X1717677Y329211D01*
X1717680Y329191D01*
X1717689Y329142D01*
X1717706Y329088D01*
X1717735Y329031D01*
X1717749Y329002D01*
X1717769Y328976D01*
X1717792Y328947D01*
X1717818Y328922D01*
X1717821D01*
X1717826Y328916D01*
X1717835Y328907D01*
X1717849Y328899D01*
X1717870Y328887D01*
X1717898Y328873D01*
X1717930Y328856D01*
X1717967Y328838D01*
X1718016Y328818D01*
X1718067Y328798D01*
X1718131Y328775D01*
X1718202Y328752D01*
X1718283Y328726D01*
X1718372Y328700D01*
X1718472Y328675D01*
X1718581Y328649D01*
X1718584D01*
X1718587Y328646D01*
X1718596D01*
X1718607Y328643D01*
X1718624Y328640D01*
X1718639Y328634D01*
X1718682Y328626D01*
X1718733Y328614D01*
X1718791Y328600D01*
X1718854Y328583D01*
X1718920Y328566D01*
X1719061Y328528D01*
X1719132Y328508D01*
X1719201Y328488D01*
X1719267Y328465D01*
X1719328Y328445D01*
X1719385Y328425D01*
X1719431Y328405D01*
X1719434Y328402D01*
X1719445Y328399D01*
X1719462Y328391D01*
X1719485Y328376D01*
X1719514Y328362D01*
X1719546Y328345D01*
X1719580Y328322D01*
X1719617Y328299D01*
X1719698Y328241D01*
X1719781Y328172D01*
X1719859Y328098D01*
X1719893Y328055D01*
X1719925Y328012D01*
X1719927Y328009D01*
X1719930Y328000D01*
X1719939Y327989D01*
X1719950Y327971D01*
X1719962Y327948D01*
X1719976Y327920D01*
X1719991Y327891D01*
X1720005Y327857D01*
X1720019Y327817D01*
X1720034Y327776D01*
X1720048Y327730D01*
X1720060Y327685D01*
X1720079Y327581D01*
X1720082Y327527D01*
X1720085Y327469D01*
Y327466D01*
Y327455D01*
Y327440D01*
X1720082Y327417D01*
X1720079Y327392D01*
X1720077Y327357D01*
X1720071Y327323D01*
X1720062Y327283D01*
X1720054Y327240D01*
X1720042Y327194D01*
X1720028Y327148D01*
X1720011Y327099D01*
X1719991Y327047D01*
X1719968Y326996D01*
X1719942Y326944D01*
X1719910Y326892D01*
X1719907Y326889D01*
X1719902Y326881D01*
X1719893Y326866D01*
X1719879Y326849D01*
X1719859Y326826D01*
X1719838Y326800D01*
X1719813Y326769D01*
X1719781Y326740D01*
X1719747Y326706D01*
X1719709Y326671D01*
X1719669Y326637D01*
X1719623Y326602D01*
X1719574Y326568D01*
X1719523Y326534D01*
X1719465Y326502D01*
X1719405Y326473D01*
X1719402Y326470D01*
X1719391Y326468D01*
X1719373Y326459D01*
X1719348Y326450D01*
X1719316Y326439D01*
X1719279Y326427D01*
X1719239Y326413D01*
X1719190Y326399D01*
X1719138Y326384D01*
X1719081Y326370D01*
X1719020Y326358D01*
X1718957Y326347D01*
X1718888Y326338D01*
X1718819Y326330D01*
X1718745Y326327D01*
X1718670Y326324D01*
X1718622D01*
X1718584Y326327D01*
X1718538Y326330D01*
X1718487Y326333D01*
X1718429Y326335D01*
X1718366Y326344D01*
X1718300Y326350D01*
X1718228Y326361D01*
X1718082Y326387D01*
X1718010Y326404D01*
X1717935Y326424D01*
X1717867Y326447D01*
X1717798Y326473D01*
X1717795Y326476D01*
X1717783Y326482D01*
X1717763Y326491D01*
X1717740Y326502D01*
X1717712Y326519D01*
X1717677Y326536D01*
X1717640Y326559D01*
X1717597Y326588D01*
X1717554Y326617D01*
X1717511Y326651D01*
X1717465Y326688D01*
X1717419Y326729D01*
X1717373Y326775D01*
X1717327Y326823D01*
X1717287Y326875D01*
X1717247Y326930D01*
X1717244Y326932D01*
X1717238Y326944D01*
X1717229Y326961D01*
X1717215Y326984D01*
X1717201Y327013D01*
X1717184Y327047D01*
X1717166Y327085D01*
X1717146Y327131D01*
X1717129Y327179D01*
X1717109Y327231D01*
X1717092Y327288D01*
X1717077Y327349D01*
X1717063Y327412D01*
X1717052Y327478D01*
X1717043Y327547D01*
X1717040Y327618D01*
X1717519Y327662D01*
Y327659D01*
X1717522Y327650D01*
Y327633D01*
X1717525Y327613D01*
X1717531Y327590D01*
X1717536Y327561D01*
X1717542Y327529D01*
X1717551Y327492D01*
X1717571Y327417D01*
X1717597Y327337D01*
X1717631Y327260D01*
X1717674Y327185D01*
X1717677Y327182D01*
X1717680Y327176D01*
X1717689Y327168D01*
X1717697Y327154D01*
X1717712Y327139D01*
X1717729Y327122D01*
X1717746Y327102D01*
X1717769Y327079D01*
X1717795Y327056D01*
X1717824Y327033D01*
X1717855Y327007D01*
X1717890Y326981D01*
X1717927Y326955D01*
X1717967Y326932D01*
X1718013Y326909D01*
X1718059Y326886D01*
X1718062D01*
X1718070Y326881D01*
X1718085Y326875D01*
X1718105Y326869D01*
X1718131Y326861D01*
X1718159Y326852D01*
X1718194Y326841D01*
X1718231Y326832D01*
X1718271Y326820D01*
X1718317Y326809D01*
X1718366Y326800D01*
X1718418Y326792D01*
X1718527Y326780D01*
X1718647Y326775D01*
X1718676D01*
X1718696Y326777D01*
X1718722D01*
X1718751Y326780D01*
X1718785Y326783D01*
X1718819Y326786D01*
X1718900Y326795D01*
X1718986Y326812D01*
X1719072Y326832D01*
X1719158Y326861D01*
X1719161D01*
X1719167Y326864D01*
X1719178Y326869D01*
X1719196Y326878D01*
X1719213Y326886D01*
X1719233Y326895D01*
X1719282Y326924D01*
X1719336Y326955D01*
X1719391Y326996D01*
X1719442Y327044D01*
X1719488Y327096D01*
Y327099D01*
X1719494Y327102D01*
X1719500Y327110D01*
X1719505Y327122D01*
X1719523Y327154D01*
X1719543Y327194D01*
X1719563Y327242D01*
X1719580Y327300D01*
X1719592Y327360D01*
X1719597Y327426D01*
Y327429D01*
Y327435D01*
Y327443D01*
X1719595Y327458D01*
Y327472D01*
X1719592Y327489D01*
X1719583Y327532D01*
X1719572Y327581D01*
X1719551Y327636D01*
X1719526Y327687D01*
X1719491Y327739D01*
Y327742D01*
X1719485Y327745D01*
X1719471Y327762D01*
X1719445Y327788D01*
X1719411Y327819D01*
X1719388Y327837D01*
X1719362Y327854D01*
X1719333Y327874D01*
X1719302Y327891D01*
X1719267Y327911D01*
X1719230Y327928D01*
X1719190Y327948D01*
X1719147Y327966D01*
X1719144D01*
X1719138Y327969D01*
X1719129Y327971D01*
X1719115Y327977D01*
X1719095Y327983D01*
X1719069Y327992D01*
X1719041Y328000D01*
X1719003Y328012D01*
X1718960Y328023D01*
X1718911Y328037D01*
X1718857Y328052D01*
X1718794Y328069D01*
X1718722Y328089D01*
X1718644Y328109D01*
X1718558Y328129D01*
X1718464Y328152D01*
X1718458Y328155D01*
X1718441Y328158D01*
X1718415Y328164D01*
X1718378Y328175D01*
X1718335Y328187D01*
X1718286Y328198D01*
X1718231Y328215D01*
X1718174Y328230D01*
X1718050Y328267D01*
X1717930Y328307D01*
X1717872Y328330D01*
X1717818Y328350D01*
X1717769Y328373D01*
X1717726Y328393D01*
X1717723Y328396D01*
X1717715Y328399D01*
X1717700Y328408D01*
X1717680Y328419D01*
X1717657Y328434D01*
X1717631Y328451D01*
X1717571Y328491D01*
X1717505Y328543D01*
X1717436Y328603D01*
X1717373Y328672D01*
X1717341Y328709D01*
X1717316Y328749D01*
Y328752D01*
X1717310Y328758D01*
X1717304Y328772D01*
X1717295Y328787D01*
X1717284Y328807D01*
X1717272Y328833D01*
X1717261Y328858D01*
X1717249Y328890D01*
X1717238Y328924D01*
X1717227Y328962D01*
X1717204Y329042D01*
X1717189Y329131D01*
X1717186Y329180D01*
X1717184Y329229D01*
Y329231D01*
Y329243D01*
Y329257D01*
X1717186Y329277D01*
X1717189Y329303D01*
X1717192Y329335D01*
X1717198Y329366D01*
X1717204Y329407D01*
X1717212Y329447D01*
X1717224Y329490D01*
X1717238Y329533D01*
X1717252Y329579D01*
X1717272Y329628D01*
X1717293Y329676D01*
X1717318Y329722D01*
X1717347Y329771D01*
X1717350Y329774D01*
X1717356Y329783D01*
X1717364Y329794D01*
X1717379Y329814D01*
X1717396Y329834D01*
X1717416Y329857D01*
X1717439Y329886D01*
X1717468Y329915D01*
X1717499Y329943D01*
X1717536Y329975D01*
X1717577Y330009D01*
X1717620Y330041D01*
X1717666Y330073D01*
X1717715Y330101D01*
X1717769Y330130D01*
X1717826Y330156D01*
X1717829Y330159D01*
X1717841Y330161D01*
X1717858Y330167D01*
X1717881Y330176D01*
X1717912Y330187D01*
X1717947Y330199D01*
X1717987Y330210D01*
X1718033Y330222D01*
X1718082Y330233D01*
X1718136Y330245D01*
X1718194Y330256D01*
X1718257Y330268D01*
X1718320Y330276D01*
X1718389Y330282D01*
X1718458Y330288D01*
X1718570D01*
X1718601Y330285D01*
D02*
G37*
G36*
X1725177Y330236D02*
X1725217Y330233D01*
X1725263Y330230D01*
X1725318Y330222D01*
X1725378Y330213D01*
X1725441Y330202D01*
X1725510Y330184D01*
X1725582Y330164D01*
X1725654Y330139D01*
X1725725Y330110D01*
X1725797Y330075D01*
X1725869Y330032D01*
X1725935Y329986D01*
X1725998Y329932D01*
X1726001Y329929D01*
X1726012Y329917D01*
X1726027Y329900D01*
X1726050Y329877D01*
X1726073Y329846D01*
X1726101Y329811D01*
X1726130Y329768D01*
X1726161Y329722D01*
X1726190Y329671D01*
X1726219Y329613D01*
X1726248Y329550D01*
X1726271Y329484D01*
X1726293Y329412D01*
X1726308Y329335D01*
X1726319Y329257D01*
X1726322Y329174D01*
Y329171D01*
Y329163D01*
Y329151D01*
Y329134D01*
X1726319Y329114D01*
X1726317Y329088D01*
X1726314Y329062D01*
X1726311Y329031D01*
X1726299Y328962D01*
X1726282Y328884D01*
X1726259Y328801D01*
X1726228Y328718D01*
Y328715D01*
X1726222Y328709D01*
X1726216Y328695D01*
X1726210Y328680D01*
X1726199Y328660D01*
X1726187Y328634D01*
X1726170Y328609D01*
X1726153Y328577D01*
X1726133Y328543D01*
X1726110Y328505D01*
X1726055Y328428D01*
X1725992Y328342D01*
X1725955Y328296D01*
X1725915Y328250D01*
X1725912Y328247D01*
X1725903Y328238D01*
X1725892Y328224D01*
X1725872Y328204D01*
X1725849Y328181D01*
X1725820Y328149D01*
X1725783Y328115D01*
X1725742Y328075D01*
X1725694Y328029D01*
X1725642Y327977D01*
X1725582Y327923D01*
X1725516Y327862D01*
X1725444Y327796D01*
X1725367Y327728D01*
X1725280Y327653D01*
X1725188Y327575D01*
X1725183Y327573D01*
X1725171Y327561D01*
X1725148Y327541D01*
X1725120Y327518D01*
X1725088Y327489D01*
X1725048Y327458D01*
X1725008Y327420D01*
X1724962Y327383D01*
X1724870Y327303D01*
X1724781Y327222D01*
X1724741Y327185D01*
X1724703Y327151D01*
X1724672Y327119D01*
X1724646Y327093D01*
X1724640Y327088D01*
X1724626Y327070D01*
X1724603Y327047D01*
X1724577Y327016D01*
X1724543Y326976D01*
X1724511Y326932D01*
X1724477Y326886D01*
X1724445Y326841D01*
X1726328D01*
Y326390D01*
X1723794D01*
Y326393D01*
Y326399D01*
Y326407D01*
Y326419D01*
Y326433D01*
X1723797Y326453D01*
X1723799Y326493D01*
X1723805Y326545D01*
X1723814Y326600D01*
X1723828Y326657D01*
X1723848Y326714D01*
Y326717D01*
X1723854Y326726D01*
X1723860Y326740D01*
X1723865Y326757D01*
X1723877Y326783D01*
X1723888Y326809D01*
X1723905Y326841D01*
X1723923Y326875D01*
X1723943Y326912D01*
X1723966Y326953D01*
X1724017Y327039D01*
X1724081Y327128D01*
X1724155Y327222D01*
X1724158Y327225D01*
X1724167Y327234D01*
X1724178Y327248D01*
X1724195Y327268D01*
X1724218Y327291D01*
X1724244Y327320D01*
X1724276Y327351D01*
X1724313Y327389D01*
X1724353Y327432D01*
X1724399Y327475D01*
X1724451Y327524D01*
X1724505Y327573D01*
X1724566Y327627D01*
X1724632Y327685D01*
X1724701Y327742D01*
X1724772Y327802D01*
X1724775Y327805D01*
X1724778Y327808D01*
X1724787Y327817D01*
X1724801Y327825D01*
X1724815Y327837D01*
X1724833Y327851D01*
X1724873Y327888D01*
X1724924Y327931D01*
X1724982Y327980D01*
X1725045Y328037D01*
X1725114Y328098D01*
X1725183Y328161D01*
X1725255Y328227D01*
X1725323Y328293D01*
X1725392Y328362D01*
X1725458Y328428D01*
X1725519Y328494D01*
X1725573Y328557D01*
X1725619Y328614D01*
X1725622Y328617D01*
X1725628Y328629D01*
X1725639Y328643D01*
X1725654Y328666D01*
X1725671Y328692D01*
X1725688Y328723D01*
X1725708Y328761D01*
X1725731Y328798D01*
X1725751Y328841D01*
X1725771Y328887D01*
X1725806Y328982D01*
X1725820Y329031D01*
X1725831Y329082D01*
X1725837Y329131D01*
X1725840Y329183D01*
Y329186D01*
Y329194D01*
Y329211D01*
X1725837Y329229D01*
X1725834Y329254D01*
X1725829Y329283D01*
X1725823Y329315D01*
X1725814Y329346D01*
X1725806Y329384D01*
X1725791Y329421D01*
X1725774Y329461D01*
X1725757Y329501D01*
X1725731Y329542D01*
X1725705Y329582D01*
X1725674Y329619D01*
X1725639Y329656D01*
X1725636Y329659D01*
X1725630Y329665D01*
X1725619Y329674D01*
X1725602Y329688D01*
X1725582Y329702D01*
X1725559Y329717D01*
X1725530Y329734D01*
X1725499Y329754D01*
X1725464Y329771D01*
X1725424Y329788D01*
X1725381Y329803D01*
X1725335Y329820D01*
X1725283Y329831D01*
X1725232Y329840D01*
X1725177Y329846D01*
X1725117Y329849D01*
X1725085D01*
X1725059Y329846D01*
X1725031Y329843D01*
X1724999Y329837D01*
X1724962Y329831D01*
X1724922Y329823D01*
X1724879Y329811D01*
X1724833Y329800D01*
X1724787Y329783D01*
X1724741Y329762D01*
X1724695Y329739D01*
X1724652Y329711D01*
X1724609Y329682D01*
X1724568Y329645D01*
X1724566Y329642D01*
X1724560Y329636D01*
X1724548Y329625D01*
X1724537Y329608D01*
X1724523Y329587D01*
X1724505Y329562D01*
X1724485Y329533D01*
X1724468Y329498D01*
X1724448Y329461D01*
X1724428Y329418D01*
X1724411Y329372D01*
X1724396Y329320D01*
X1724385Y329269D01*
X1724373Y329208D01*
X1724368Y329148D01*
X1724365Y329082D01*
X1723883Y329131D01*
Y329134D01*
Y329137D01*
X1723885Y329145D01*
Y329154D01*
X1723888Y329183D01*
X1723894Y329220D01*
X1723903Y329266D01*
X1723914Y329318D01*
X1723929Y329375D01*
X1723949Y329435D01*
X1723969Y329501D01*
X1723994Y329570D01*
X1724026Y329639D01*
X1724061Y329705D01*
X1724101Y329774D01*
X1724147Y329837D01*
X1724198Y329897D01*
X1724256Y329955D01*
X1724259Y329958D01*
X1724270Y329966D01*
X1724290Y329981D01*
X1724316Y330001D01*
X1724348Y330021D01*
X1724388Y330044D01*
X1724434Y330070D01*
X1724485Y330098D01*
X1724546Y330124D01*
X1724612Y330150D01*
X1724683Y330173D01*
X1724761Y330196D01*
X1724844Y330213D01*
X1724930Y330228D01*
X1725025Y330236D01*
X1725125Y330239D01*
X1725151D01*
X1725177Y330236D01*
D02*
G37*
G36*
X1723524Y329771D02*
X1722258D01*
Y326390D01*
X1721750D01*
Y329771D01*
X1720487D01*
Y330222D01*
X1723524D01*
Y329771D01*
D02*
G37*
G36*
X284771Y1004655D02*
X284809D01*
X284852Y1004652D01*
X284900Y1004646D01*
X284952Y1004641D01*
X285010Y1004632D01*
X285070Y1004623D01*
X285196Y1004600D01*
X285322Y1004566D01*
X285386Y1004543D01*
X285449Y1004520D01*
X285452Y1004517D01*
X285463Y1004514D01*
X285480Y1004506D01*
X285503Y1004494D01*
X285529Y1004480D01*
X285561Y1004463D01*
X285598Y1004443D01*
X285635Y1004417D01*
X285676Y1004391D01*
X285716Y1004362D01*
X285756Y1004328D01*
X285799Y1004290D01*
X285839Y1004253D01*
X285879Y1004210D01*
X285917Y1004164D01*
X285951Y1004115D01*
X285954Y1004112D01*
X285960Y1004104D01*
X285968Y1004089D01*
X285980Y1004069D01*
X285991Y1004044D01*
X286008Y1004012D01*
X286023Y1003978D01*
X286040Y1003940D01*
X286057Y1003897D01*
X286075Y1003851D01*
X286092Y1003802D01*
X286106Y1003748D01*
X286129Y1003636D01*
X286135Y1003576D01*
X286140Y1003512D01*
X285655Y1003475D01*
Y1003478D01*
X285653Y1003492D01*
X285650Y1003510D01*
X285647Y1003536D01*
X285638Y1003564D01*
X285630Y1003599D01*
X285621Y1003639D01*
X285607Y1003679D01*
X285592Y1003722D01*
X285572Y1003768D01*
X285552Y1003814D01*
X285526Y1003860D01*
X285497Y1003903D01*
X285466Y1003946D01*
X285429Y1003986D01*
X285389Y1004023D01*
X285386Y1004026D01*
X285377Y1004032D01*
X285366Y1004041D01*
X285345Y1004052D01*
X285322Y1004066D01*
X285294Y1004084D01*
X285259Y1004098D01*
X285219Y1004118D01*
X285176Y1004135D01*
X285124Y1004150D01*
X285070Y1004167D01*
X285010Y1004181D01*
X284946Y1004193D01*
X284875Y1004201D01*
X284800Y1004207D01*
X284720Y1004210D01*
X284677D01*
X284645Y1004207D01*
X284608Y1004204D01*
X284565Y1004201D01*
X284516Y1004196D01*
X284464Y1004190D01*
X284355Y1004170D01*
X284298Y1004155D01*
X284243Y1004138D01*
X284192Y1004118D01*
X284140Y1004098D01*
X284094Y1004069D01*
X284051Y1004041D01*
X284048Y1004038D01*
X284042Y1004032D01*
X284031Y1004023D01*
X284019Y1004012D01*
X284002Y1003995D01*
X283985Y1003975D01*
X283965Y1003952D01*
X283948Y1003926D01*
X283908Y1003866D01*
X283873Y1003797D01*
X283862Y1003759D01*
X283850Y1003719D01*
X283844Y1003676D01*
X283841Y1003633D01*
Y1003630D01*
Y1003624D01*
Y1003613D01*
X283844Y1003599D01*
X283847Y1003581D01*
X283850Y1003561D01*
X283859Y1003512D01*
X283876Y1003458D01*
X283905Y1003401D01*
X283919Y1003372D01*
X283939Y1003346D01*
X283962Y1003317D01*
X283988Y1003291D01*
X283991D01*
X283996Y1003286D01*
X284005Y1003277D01*
X284019Y1003269D01*
X284039Y1003257D01*
X284068Y1003243D01*
X284100Y1003225D01*
X284137Y1003208D01*
X284186Y1003188D01*
X284237Y1003168D01*
X284301Y1003145D01*
X284372Y1003122D01*
X284453Y1003096D01*
X284542Y1003071D01*
X284642Y1003045D01*
X284751Y1003019D01*
X284754D01*
X284757Y1003016D01*
X284766D01*
X284777Y1003013D01*
X284794Y1003010D01*
X284809Y1003005D01*
X284852Y1002996D01*
X284903Y1002984D01*
X284961Y1002970D01*
X285024Y1002953D01*
X285090Y1002936D01*
X285231Y1002898D01*
X285302Y1002878D01*
X285371Y1002858D01*
X285437Y1002835D01*
X285497Y1002815D01*
X285555Y1002795D01*
X285601Y1002775D01*
X285604Y1002772D01*
X285615Y1002769D01*
X285632Y1002760D01*
X285655Y1002746D01*
X285684Y1002732D01*
X285716Y1002715D01*
X285750Y1002692D01*
X285787Y1002669D01*
X285868Y1002611D01*
X285951Y1002542D01*
X286028Y1002468D01*
X286063Y1002425D01*
X286095Y1002382D01*
X286097Y1002379D01*
X286100Y1002370D01*
X286109Y1002359D01*
X286120Y1002342D01*
X286132Y1002318D01*
X286146Y1002290D01*
X286161Y1002261D01*
X286175Y1002227D01*
X286189Y1002187D01*
X286204Y1002146D01*
X286218Y1002100D01*
X286229Y1002055D01*
X286250Y1001951D01*
X286252Y1001897D01*
X286255Y1001839D01*
Y1001836D01*
Y1001825D01*
Y1001811D01*
X286252Y1001787D01*
X286250Y1001762D01*
X286247Y1001727D01*
X286241Y1001693D01*
X286232Y1001653D01*
X286224Y1001610D01*
X286212Y1001564D01*
X286198Y1001518D01*
X286181Y1001469D01*
X286161Y1001417D01*
X286138Y1001366D01*
X286112Y1001314D01*
X286080Y1001262D01*
X286077Y1001259D01*
X286072Y1001251D01*
X286063Y1001236D01*
X286049Y1001219D01*
X286028Y1001196D01*
X286008Y1001170D01*
X285983Y1001139D01*
X285951Y1001110D01*
X285917Y1001076D01*
X285879Y1001041D01*
X285839Y1001007D01*
X285793Y1000972D01*
X285744Y1000938D01*
X285693Y1000903D01*
X285635Y1000872D01*
X285575Y1000843D01*
X285572Y1000840D01*
X285561Y1000837D01*
X285543Y1000829D01*
X285518Y1000820D01*
X285486Y1000809D01*
X285449Y1000797D01*
X285409Y1000783D01*
X285360Y1000769D01*
X285308Y1000754D01*
X285251Y1000740D01*
X285190Y1000728D01*
X285127Y1000717D01*
X285058Y1000708D01*
X284989Y1000700D01*
X284915Y1000697D01*
X284840Y1000694D01*
X284792D01*
X284754Y1000697D01*
X284708Y1000700D01*
X284657Y1000703D01*
X284599Y1000705D01*
X284536Y1000714D01*
X284470Y1000720D01*
X284398Y1000731D01*
X284252Y1000757D01*
X284180Y1000774D01*
X284105Y1000794D01*
X284037Y1000817D01*
X283968Y1000843D01*
X283965Y1000846D01*
X283953Y1000852D01*
X283933Y1000861D01*
X283910Y1000872D01*
X283882Y1000889D01*
X283847Y1000906D01*
X283810Y1000929D01*
X283767Y1000958D01*
X283724Y1000987D01*
X283681Y1001021D01*
X283635Y1001059D01*
X283589Y1001099D01*
X283543Y1001145D01*
X283497Y1001193D01*
X283457Y1001245D01*
X283417Y1001300D01*
X283414Y1001302D01*
X283408Y1001314D01*
X283399Y1001331D01*
X283385Y1001354D01*
X283371Y1001383D01*
X283354Y1001417D01*
X283336Y1001455D01*
X283316Y1001500D01*
X283299Y1001549D01*
X283279Y1001601D01*
X283262Y1001658D01*
X283247Y1001719D01*
X283233Y1001782D01*
X283221Y1001848D01*
X283213Y1001917D01*
X283210Y1001988D01*
X283689Y1002031D01*
Y1002029D01*
X283692Y1002020D01*
Y1002003D01*
X283695Y1001983D01*
X283701Y1001960D01*
X283706Y1001931D01*
X283712Y1001899D01*
X283721Y1001862D01*
X283741Y1001787D01*
X283767Y1001707D01*
X283801Y1001630D01*
X283844Y1001555D01*
X283847Y1001552D01*
X283850Y1001546D01*
X283859Y1001538D01*
X283867Y1001524D01*
X283882Y1001509D01*
X283899Y1001492D01*
X283916Y1001472D01*
X283939Y1001449D01*
X283965Y1001426D01*
X283994Y1001403D01*
X284025Y1001377D01*
X284060Y1001351D01*
X284097Y1001325D01*
X284137Y1001302D01*
X284183Y1001280D01*
X284229Y1001256D01*
X284232D01*
X284240Y1001251D01*
X284255Y1001245D01*
X284275Y1001239D01*
X284301Y1001231D01*
X284329Y1001222D01*
X284364Y1001211D01*
X284401Y1001202D01*
X284441Y1001190D01*
X284487Y1001179D01*
X284536Y1001170D01*
X284588Y1001162D01*
X284697Y1001150D01*
X284817Y1001145D01*
X284846D01*
X284866Y1001148D01*
X284892D01*
X284921Y1001150D01*
X284955Y1001153D01*
X284989Y1001156D01*
X285070Y1001165D01*
X285156Y1001182D01*
X285242Y1001202D01*
X285328Y1001231D01*
X285331D01*
X285337Y1001234D01*
X285348Y1001239D01*
X285366Y1001248D01*
X285383Y1001256D01*
X285403Y1001265D01*
X285452Y1001294D01*
X285506Y1001325D01*
X285561Y1001366D01*
X285612Y1001414D01*
X285658Y1001466D01*
Y1001469D01*
X285664Y1001472D01*
X285670Y1001480D01*
X285676Y1001492D01*
X285693Y1001524D01*
X285713Y1001564D01*
X285733Y1001612D01*
X285750Y1001670D01*
X285762Y1001730D01*
X285767Y1001796D01*
Y1001799D01*
Y1001805D01*
Y1001813D01*
X285765Y1001828D01*
Y1001842D01*
X285762Y1001859D01*
X285753Y1001902D01*
X285742Y1001951D01*
X285721Y1002006D01*
X285696Y1002057D01*
X285661Y1002109D01*
Y1002112D01*
X285655Y1002115D01*
X285641Y1002132D01*
X285615Y1002158D01*
X285581Y1002189D01*
X285558Y1002207D01*
X285532Y1002224D01*
X285503Y1002244D01*
X285472Y1002261D01*
X285437Y1002281D01*
X285400Y1002298D01*
X285360Y1002318D01*
X285317Y1002336D01*
X285314D01*
X285308Y1002339D01*
X285299Y1002342D01*
X285285Y1002347D01*
X285265Y1002353D01*
X285239Y1002362D01*
X285210Y1002370D01*
X285173Y1002382D01*
X285130Y1002393D01*
X285081Y1002408D01*
X285027Y1002422D01*
X284964Y1002439D01*
X284892Y1002459D01*
X284814Y1002479D01*
X284728Y1002499D01*
X284634Y1002522D01*
X284628Y1002525D01*
X284611Y1002528D01*
X284585Y1002534D01*
X284548Y1002545D01*
X284505Y1002557D01*
X284456Y1002568D01*
X284401Y1002585D01*
X284344Y1002600D01*
X284220Y1002637D01*
X284100Y1002677D01*
X284042Y1002700D01*
X283988Y1002720D01*
X283939Y1002743D01*
X283896Y1002763D01*
X283893Y1002766D01*
X283885Y1002769D01*
X283870Y1002778D01*
X283850Y1002789D01*
X283827Y1002804D01*
X283801Y1002821D01*
X283741Y1002861D01*
X283675Y1002913D01*
X283606Y1002973D01*
X283543Y1003042D01*
X283511Y1003079D01*
X283486Y1003119D01*
Y1003122D01*
X283480Y1003128D01*
X283474Y1003142D01*
X283465Y1003157D01*
X283454Y1003177D01*
X283442Y1003203D01*
X283431Y1003228D01*
X283419Y1003260D01*
X283408Y1003294D01*
X283397Y1003332D01*
X283374Y1003412D01*
X283359Y1003501D01*
X283356Y1003550D01*
X283354Y1003599D01*
Y1003602D01*
Y1003613D01*
Y1003627D01*
X283356Y1003647D01*
X283359Y1003673D01*
X283362Y1003705D01*
X283368Y1003736D01*
X283374Y1003777D01*
X283382Y1003817D01*
X283394Y1003860D01*
X283408Y1003903D01*
X283422Y1003949D01*
X283442Y1003998D01*
X283463Y1004046D01*
X283488Y1004092D01*
X283517Y1004141D01*
X283520Y1004144D01*
X283526Y1004153D01*
X283534Y1004164D01*
X283549Y1004184D01*
X283566Y1004204D01*
X283586Y1004227D01*
X283609Y1004256D01*
X283638Y1004285D01*
X283669Y1004313D01*
X283706Y1004345D01*
X283747Y1004379D01*
X283790Y1004411D01*
X283836Y1004443D01*
X283885Y1004471D01*
X283939Y1004500D01*
X283996Y1004526D01*
X283999Y1004529D01*
X284011Y1004531D01*
X284028Y1004537D01*
X284051Y1004546D01*
X284083Y1004557D01*
X284117Y1004569D01*
X284157Y1004580D01*
X284203Y1004592D01*
X284252Y1004603D01*
X284306Y1004615D01*
X284364Y1004626D01*
X284427Y1004638D01*
X284490Y1004646D01*
X284559Y1004652D01*
X284628Y1004658D01*
X284740D01*
X284771Y1004655D01*
D02*
G37*
G36*
X291798Y1000760D02*
X291327D01*
Y1003756D01*
X291324Y1003754D01*
X291318Y1003751D01*
X291310Y1003739D01*
X291295Y1003728D01*
X291278Y1003713D01*
X291258Y1003696D01*
X291235Y1003676D01*
X291206Y1003656D01*
X291175Y1003633D01*
X291143Y1003607D01*
X291106Y1003578D01*
X291066Y1003553D01*
X290977Y1003492D01*
X290879Y1003432D01*
X290876Y1003429D01*
X290868Y1003426D01*
X290853Y1003418D01*
X290833Y1003406D01*
X290807Y1003392D01*
X290782Y1003378D01*
X290750Y1003360D01*
X290716Y1003343D01*
X290638Y1003303D01*
X290555Y1003263D01*
X290469Y1003225D01*
X290385Y1003191D01*
Y1003645D01*
X290391Y1003647D01*
X290403Y1003653D01*
X290423Y1003665D01*
X290452Y1003679D01*
X290486Y1003696D01*
X290526Y1003716D01*
X290569Y1003742D01*
X290618Y1003771D01*
X290672Y1003802D01*
X290727Y1003837D01*
X290842Y1003914D01*
X290959Y1004000D01*
X291074Y1004095D01*
X291077Y1004098D01*
X291089Y1004107D01*
X291103Y1004121D01*
X291123Y1004141D01*
X291146Y1004164D01*
X291175Y1004193D01*
X291206Y1004224D01*
X291238Y1004259D01*
X291272Y1004296D01*
X291307Y1004336D01*
X291376Y1004422D01*
X291439Y1004514D01*
X291468Y1004563D01*
X291493Y1004609D01*
X291798D01*
Y1000760D01*
D02*
G37*
G36*
X289694Y1004141D02*
X288428D01*
Y1000760D01*
X287920D01*
Y1004141D01*
X286657D01*
Y1004592D01*
X289694D01*
Y1004141D01*
D02*
G37*
%LPC*%
G36*
X1642872Y584599D02*
X1641727D01*
X1641698Y584596D01*
X1641664D01*
X1641626Y584593D01*
X1641586Y584590D01*
X1641500Y584582D01*
X1641411Y584567D01*
X1641325Y584550D01*
X1641282Y584539D01*
X1641245Y584527D01*
X1641242D01*
X1641236Y584524D01*
X1641224Y584519D01*
X1641213Y584513D01*
X1641196Y584504D01*
X1641176Y584496D01*
X1641133Y584473D01*
X1641084Y584438D01*
X1641035Y584401D01*
X1640986Y584352D01*
X1640946Y584297D01*
Y584295D01*
X1640940Y584289D01*
X1640937Y584280D01*
X1640929Y584269D01*
X1640923Y584254D01*
X1640914Y584237D01*
X1640894Y584194D01*
X1640874Y584145D01*
X1640860Y584085D01*
X1640848Y584022D01*
X1640843Y583953D01*
Y583950D01*
Y583942D01*
Y583927D01*
X1640846Y583907D01*
X1640848Y583884D01*
X1640854Y583858D01*
X1640860Y583830D01*
X1640869Y583795D01*
X1640877Y583761D01*
X1640892Y583726D01*
X1640906Y583689D01*
X1640926Y583652D01*
X1640949Y583614D01*
X1640975Y583577D01*
X1641006Y583543D01*
X1641041Y583508D01*
X1641044Y583505D01*
X1641049Y583499D01*
X1641061Y583491D01*
X1641078Y583479D01*
X1641098Y583468D01*
X1641127Y583451D01*
X1641156Y583436D01*
X1641193Y583419D01*
X1641233Y583402D01*
X1641279Y583388D01*
X1641331Y583370D01*
X1641388Y583359D01*
X1641448Y583347D01*
X1641514Y583339D01*
X1641586Y583333D01*
X1641664Y583330D01*
X1642872D01*
Y584599D01*
D02*
G37*
G36*
X1636431Y585394D02*
X1635231D01*
Y583666D01*
X1636431Y585394D01*
D02*
G37*
G36*
X1619046Y572370D02*
X1617838D01*
Y571101D01*
X1618983D01*
X1619012Y571104D01*
X1619046D01*
X1619084Y571107D01*
X1619124Y571110D01*
X1619210Y571118D01*
X1619299Y571133D01*
X1619385Y571150D01*
X1619428Y571161D01*
X1619465Y571173D01*
X1619468D01*
X1619474Y571176D01*
X1619485Y571181D01*
X1619497Y571187D01*
X1619514Y571196D01*
X1619534Y571204D01*
X1619577Y571227D01*
X1619626Y571262D01*
X1619675Y571299D01*
X1619724Y571348D01*
X1619764Y571403D01*
Y571405D01*
X1619770Y571411D01*
X1619772Y571420D01*
X1619781Y571431D01*
X1619787Y571446D01*
X1619795Y571463D01*
X1619816Y571506D01*
X1619836Y571555D01*
X1619850Y571615D01*
X1619861Y571678D01*
X1619867Y571747D01*
Y571750D01*
Y571758D01*
Y571773D01*
X1619864Y571793D01*
X1619861Y571816D01*
X1619856Y571842D01*
X1619850Y571870D01*
X1619841Y571905D01*
X1619833Y571939D01*
X1619818Y571974D01*
X1619804Y572011D01*
X1619784Y572048D01*
X1619761Y572086D01*
X1619735Y572123D01*
X1619704Y572157D01*
X1619669Y572192D01*
X1619666Y572195D01*
X1619660Y572200D01*
X1619649Y572209D01*
X1619632Y572220D01*
X1619612Y572232D01*
X1619583Y572249D01*
X1619554Y572264D01*
X1619517Y572281D01*
X1619477Y572298D01*
X1619431Y572312D01*
X1619379Y572330D01*
X1619322Y572341D01*
X1619262Y572353D01*
X1619196Y572361D01*
X1619124Y572367D01*
X1619046Y572370D01*
D02*
G37*
G36*
X1614932Y569359D02*
X1613787D01*
X1613758Y569356D01*
X1613724D01*
X1613686Y569353D01*
X1613646Y569350D01*
X1613560Y569342D01*
X1613471Y569327D01*
X1613385Y569310D01*
X1613342Y569299D01*
X1613304Y569287D01*
X1613302D01*
X1613296Y569284D01*
X1613284Y569278D01*
X1613273Y569273D01*
X1613256Y569264D01*
X1613236Y569255D01*
X1613193Y569232D01*
X1613144Y569198D01*
X1613095Y569161D01*
X1613046Y569112D01*
X1613006Y569058D01*
Y569055D01*
X1613000Y569049D01*
X1612997Y569040D01*
X1612989Y569029D01*
X1612983Y569014D01*
X1612974Y568997D01*
X1612954Y568954D01*
X1612934Y568905D01*
X1612920Y568845D01*
X1612908Y568782D01*
X1612903Y568713D01*
Y568710D01*
Y568702D01*
Y568687D01*
X1612906Y568667D01*
X1612908Y568644D01*
X1612914Y568618D01*
X1612920Y568590D01*
X1612928Y568555D01*
X1612937Y568521D01*
X1612952Y568486D01*
X1612966Y568449D01*
X1612986Y568412D01*
X1613009Y568374D01*
X1613035Y568337D01*
X1613066Y568303D01*
X1613101Y568268D01*
X1613104Y568265D01*
X1613109Y568260D01*
X1613121Y568251D01*
X1613138Y568240D01*
X1613158Y568228D01*
X1613187Y568211D01*
X1613215Y568196D01*
X1613253Y568179D01*
X1613293Y568162D01*
X1613339Y568148D01*
X1613391Y568130D01*
X1613448Y568119D01*
X1613508Y568107D01*
X1613574Y568099D01*
X1613646Y568093D01*
X1613724Y568090D01*
X1614932D01*
Y569359D01*
D02*
G37*
G36*
X1764106Y746006D02*
Y744807D01*
X1765834D01*
X1764106Y746006D01*
D02*
G37*
G36*
X1613346Y625710D02*
X1612138D01*
Y624441D01*
X1613283D01*
X1613312Y624444D01*
X1613346D01*
X1613384Y624447D01*
X1613424Y624450D01*
X1613510Y624458D01*
X1613599Y624473D01*
X1613685Y624490D01*
X1613728Y624501D01*
X1613765Y624513D01*
X1613768D01*
X1613774Y624516D01*
X1613786Y624521D01*
X1613797Y624527D01*
X1613814Y624536D01*
X1613834Y624544D01*
X1613877Y624567D01*
X1613926Y624602D01*
X1613975Y624639D01*
X1614024Y624688D01*
X1614064Y624743D01*
Y624745D01*
X1614070Y624751D01*
X1614073Y624760D01*
X1614081Y624771D01*
X1614087Y624786D01*
X1614095Y624803D01*
X1614116Y624846D01*
X1614136Y624895D01*
X1614150Y624955D01*
X1614162Y625018D01*
X1614167Y625087D01*
Y625090D01*
Y625098D01*
Y625113D01*
X1614164Y625133D01*
X1614162Y625156D01*
X1614156Y625182D01*
X1614150Y625210D01*
X1614141Y625245D01*
X1614133Y625279D01*
X1614118Y625314D01*
X1614104Y625351D01*
X1614084Y625388D01*
X1614061Y625426D01*
X1614035Y625463D01*
X1614004Y625497D01*
X1613969Y625532D01*
X1613966Y625535D01*
X1613961Y625541D01*
X1613949Y625549D01*
X1613932Y625560D01*
X1613912Y625572D01*
X1613883Y625589D01*
X1613854Y625604D01*
X1613817Y625621D01*
X1613777Y625638D01*
X1613731Y625652D01*
X1613679Y625670D01*
X1613622Y625681D01*
X1613562Y625693D01*
X1613496Y625701D01*
X1613424Y625707D01*
X1613346Y625710D01*
D02*
G37*
%LPD*%
D12*
X1362588Y308814D02*
X1347592D01*
Y316312D01*
X1350092Y318811D01*
X1355090D01*
X1357589Y316312D01*
Y308814D01*
X1362588Y333806D02*
Y323809D01*
X1352591Y333806D01*
X1350092D01*
X1347592Y331307D01*
Y326308D01*
X1350092Y323809D01*
X1347592Y444337D02*
X1362588D01*
Y436839D01*
X1360088Y434340D01*
X1355090D01*
X1352591Y436839D01*
Y444337D01*
X1347592Y429342D02*
Y424343D01*
Y426842D01*
X1362588D01*
X1360088Y429342D01*
X727873Y874908D02*
X737870D01*
X732872D01*
Y859912D01*
X742868D02*
X747867D01*
X745368D01*
Y874908D01*
X742868Y872408D01*
D13*
X1623792Y456885D02*
X1617127D01*
Y451887D01*
X1620459D01*
X1617127D01*
Y446889D01*
X1627124Y456885D02*
Y446889D01*
X1632122D01*
X1633788Y448555D01*
Y450221D01*
X1632122Y451887D01*
X1627124D01*
X1632122D01*
X1633788Y453553D01*
Y455219D01*
X1632122Y456885D01*
X1627124D01*
X1637121Y446889D02*
X1640453D01*
X1638787D01*
Y456885D01*
X1637121Y455219D01*
X1622126Y496255D02*
X1615461D01*
Y491257D01*
X1618793D01*
X1615461D01*
Y486259D01*
X1625458Y496255D02*
Y486259D01*
X1630456D01*
X1632122Y487925D01*
Y489591D01*
X1630456Y491257D01*
X1625458D01*
X1630456D01*
X1632122Y492923D01*
Y494589D01*
X1630456Y496255D01*
X1625458D01*
X1642119Y486259D02*
X1635455D01*
X1642119Y492923D01*
Y494589D01*
X1640453Y496255D01*
X1637121D01*
X1635455Y494589D01*
X1758868Y681034D02*
Y687699D01*
X1753870D01*
Y684367D01*
Y687699D01*
X1748872D01*
X1758868Y677702D02*
X1748872D01*
Y672704D01*
X1750538Y671038D01*
X1752204D01*
X1753870Y672704D01*
Y677702D01*
Y672704D01*
X1755536Y671038D01*
X1757202D01*
X1758868Y672704D01*
Y677702D01*
X1757202Y667705D02*
X1758868Y666039D01*
Y662707D01*
X1757202Y661041D01*
X1755536D01*
X1753870Y662707D01*
Y664373D01*
Y662707D01*
X1752204Y661041D01*
X1750538D01*
X1748872Y662707D01*
Y666039D01*
X1750538Y667705D01*
X1716958Y681034D02*
Y687699D01*
X1711960D01*
Y684367D01*
Y687699D01*
X1706962D01*
X1716958Y677702D02*
X1706962D01*
Y672704D01*
X1708628Y671038D01*
X1710294D01*
X1711960Y672704D01*
Y677702D01*
Y672704D01*
X1713626Y671038D01*
X1715292D01*
X1716958Y672704D01*
Y677702D01*
X1706962Y662707D02*
X1716958D01*
X1711960Y667705D01*
Y661041D01*
M02*
