G04*
G04 #@! TF.GenerationSoftware,Altium Limited,Altium Designer,25.5.2 (35)*
G04*
G04 Layer_Color=8388736*
%FSLAX44Y44*%
%MOMM*%
G71*
G04*
G04 #@! TF.SameCoordinates,5C3ED261-42B6-482D-99A8-9BAFA3442630*
G04*
G04*
G04 #@! TF.FilePolarity,Positive*
G04*
G01*
G75*
%ADD12C,0.1500*%
%ADD13C,0.1000*%
%ADD14C,0.2000*%
D12*
X1684610Y835660D02*
G03*
X1684610Y835660I-42500J0D01*
G01*
X1591900D02*
G03*
X1591900Y835660I-42500J0D01*
G01*
X1135330Y923290D02*
G03*
X1135330Y923290I-82500J0D01*
G01*
Y731520D02*
G03*
X1135330Y731520I-82500J0D01*
G01*
D13*
X1606290Y467887D02*
X1651290D01*
Y435887D02*
Y467887D01*
X1606290Y435887D02*
X1651290D01*
X1606290D02*
Y467887D01*
Y475257D02*
Y507257D01*
Y475257D02*
X1651290D01*
Y507257D01*
X1606290D02*
X1651290D01*
X1737870Y696870D02*
X1769870D01*
X1737870Y651870D02*
Y696870D01*
Y651870D02*
X1769870D01*
Y696870D01*
X1695960D02*
X1727960D01*
X1695960Y651870D02*
Y696870D01*
Y651870D02*
X1727960D01*
Y696870D01*
D14*
X750820Y647190D02*
X813820D01*
X750820D02*
Y678690D01*
X813820D01*
Y647190D02*
Y678690D01*
X830070Y653030D02*
Y716030D01*
X861570D01*
Y653030D02*
Y716030D01*
X830070Y653030D02*
X861570D01*
X1663370Y536080D02*
Y553580D01*
X1653870Y536080D02*
X1663370D01*
X1653870D02*
Y553580D01*
X1663370D01*
X1644320Y536080D02*
Y553580D01*
X1634820Y536080D02*
X1644320D01*
X1634820D02*
Y553580D01*
X1644320D01*
X1625270Y535730D02*
Y553230D01*
X1615770Y535730D02*
X1625270D01*
X1615770D02*
Y553230D01*
X1625270D01*
X1586870Y545160D02*
X1603370D01*
X1586870D02*
Y554660D01*
X1603370D01*
Y545160D02*
Y554660D01*
X1547640Y537320D02*
X1581640D01*
Y519320D02*
Y537320D01*
X1547640Y519320D02*
X1581640D01*
X1547640D02*
Y537320D01*
X1553850Y553390D02*
X1570350D01*
Y543890D02*
Y553390D01*
X1553850Y543890D02*
X1570350D01*
X1553850D02*
Y553390D01*
X1525910D02*
X1542410D01*
Y543890D02*
Y553390D01*
X1525910Y543890D02*
X1542410D01*
X1525910D02*
Y553390D01*
X1525780Y480530D02*
Y507530D01*
Y480530D02*
X1557780D01*
Y507530D01*
X1525780D02*
X1557780D01*
X1477590Y592210D02*
Y609210D01*
X1486590D01*
Y592210D02*
Y609210D01*
X1477590Y592210D02*
X1486590D01*
X1446920Y554500D02*
Y588500D01*
X1463920D01*
Y554500D02*
Y588500D01*
X1446920Y554500D02*
X1463920D01*
X670370Y599060D02*
Y615060D01*
X678370D01*
Y599060D02*
Y615060D01*
X670370Y599060D02*
X678370D01*
X1104095Y422610D02*
X1209845D01*
X1104095Y321610D02*
Y422610D01*
Y321610D02*
X1209845D01*
Y422610D01*
X1104095Y600410D02*
X1209845D01*
X1104095Y499410D02*
Y600410D01*
Y499410D02*
X1209845D01*
Y600410D01*
X1074280Y587070D02*
Y596570D01*
X1056780D02*
X1074280D01*
X1056780Y587070D02*
Y596570D01*
Y587070D02*
X1074280D01*
X777705Y321610D02*
X883455D01*
Y422610D01*
X777705D02*
X883455D01*
X777705Y321610D02*
Y422610D01*
Y499410D02*
X883455D01*
Y600410D01*
X777705D02*
X883455D01*
X777705Y499410D02*
Y600410D01*
X931050Y325450D02*
Y334950D01*
Y325450D02*
X948550D01*
Y334950D01*
X931050D02*
X948550D01*
X1070470Y409270D02*
Y418770D01*
X1052970D02*
X1070470D01*
X1052970Y409270D02*
Y418770D01*
Y409270D02*
X1070470D01*
X884060Y477850D02*
Y487350D01*
Y477850D02*
X901560D01*
Y487350D01*
X884060D02*
X901560D01*
X734890Y590170D02*
X743390D01*
Y606170D01*
X734890D02*
X743390D01*
X734890Y590170D02*
Y606170D01*
X572280Y645050D02*
Y663050D01*
Y645050D02*
X606280D01*
Y663050D01*
X572280D02*
X606280D01*
X712800Y605178D02*
X722300D01*
X712800Y588178D02*
Y605178D01*
Y588178D02*
X722300D01*
Y605178D01*
X605030Y615570D02*
Y631570D01*
Y615570D02*
X637030D01*
Y631570D01*
X605030D02*
X637030D01*
X689170Y605920D02*
X697670D01*
X689170Y590420D02*
Y605920D01*
Y590420D02*
X697670D01*
Y605920D01*
X712800Y566030D02*
X722300D01*
X712800Y549030D02*
Y566030D01*
Y549030D02*
X722300D01*
Y566030D01*
X554800Y552070D02*
X562800D01*
Y568070D01*
X554800D02*
X562800D01*
X554800Y552070D02*
Y568070D01*
X558280Y532710D02*
Y541710D01*
Y532710D02*
X575280D01*
Y541710D01*
X558280D02*
X575280D01*
X624980Y513410D02*
Y522910D01*
Y513410D02*
X642480D01*
Y522910D01*
X624980D02*
X642480D01*
X610730Y496900D02*
Y506400D01*
X593230D02*
X610730D01*
X593230Y496900D02*
Y506400D01*
Y496900D02*
X610730D01*
Y514680D02*
Y524180D01*
X593230D02*
X610730D01*
X593230Y514680D02*
Y524180D01*
Y514680D02*
X610730D01*
X1491220Y912410D02*
X1521220D01*
Y949410D01*
X1491220D02*
X1521220D01*
X1491220Y912410D02*
Y949410D01*
X1748600Y943990D02*
X1756600D01*
X1748600Y927990D02*
Y943990D01*
Y927990D02*
X1756600D01*
Y943990D01*
X1397390Y553230D02*
X1414390D01*
Y587230D01*
X1397390D02*
X1414390D01*
X1397390Y553230D02*
Y587230D01*
X1732150Y734890D02*
Y743390D01*
Y734890D02*
X1747650D01*
Y743390D01*
X1732150D02*
X1747650D01*
X1707910Y760441D02*
X1716010D01*
Y776441D01*
X1707910D02*
X1716010D01*
X1707910Y760441D02*
Y776441D01*
X1730820Y760350D02*
X1738820D01*
Y776350D01*
X1730820D02*
X1738820D01*
X1730820Y760350D02*
Y776350D01*
X1341440Y593180D02*
X1381440D01*
X1341440Y509180D02*
Y593180D01*
Y509180D02*
X1381440D01*
Y593180D01*
X1604390Y619520D02*
Y627620D01*
X1588390D02*
X1604390D01*
X1588390Y619520D02*
Y627620D01*
Y619520D02*
X1604390D01*
X1756990Y778120D02*
X1765990D01*
X1756990Y761120D02*
Y778120D01*
Y761120D02*
X1765990D01*
Y778120D01*
X1593160Y641740D02*
X1602160D01*
Y658740D01*
X1593160D02*
X1602160D01*
X1593160Y641740D02*
Y658740D01*
X1539320Y685910D02*
X1549320D01*
X1539320Y667910D02*
Y685910D01*
Y667910D02*
X1549320D01*
Y685910D01*
X1656160Y641860D02*
X1666160D01*
Y659860D01*
X1656160D02*
X1666160D01*
X1656160Y641860D02*
Y659860D01*
X1670630Y711590D02*
X1679630D01*
Y728590D01*
X1670630D02*
X1679630D01*
X1670630Y711590D02*
Y728590D01*
X1636340Y642360D02*
X1645340D01*
Y659360D01*
X1636340D02*
X1645340D01*
X1636340Y642360D02*
Y659360D01*
X1614250Y641860D02*
X1624250D01*
Y659860D01*
X1614250D02*
X1624250D01*
X1614250Y641860D02*
Y659860D01*
X1611250Y724980D02*
Y732980D01*
Y724980D02*
X1627250D01*
Y732980D01*
X1611250D02*
X1627250D01*
X1607630Y746380D02*
X1615630D01*
Y762380D01*
X1607630D02*
X1615630D01*
X1607630Y746380D02*
Y762380D01*
X1576960Y750380D02*
Y758380D01*
Y750380D02*
X1592960D01*
Y758380D01*
X1576960D02*
X1592960D01*
X1556130Y728790D02*
Y736790D01*
X1540130D02*
X1556130D01*
X1540130Y728790D02*
Y736790D01*
Y728790D02*
X1556130D01*
X1339740Y635490D02*
X1357740D01*
X1339740Y601490D02*
Y635490D01*
Y601490D02*
X1357740D01*
Y635490D01*
X1672480Y461500D02*
X1690480D01*
X1672480Y427500D02*
Y461500D01*
Y427500D02*
X1690480D01*
Y461500D01*
X1672480Y522460D02*
X1690480D01*
X1672480Y488460D02*
Y522460D01*
Y488460D02*
X1690480D01*
Y522460D01*
X1371490Y634510D02*
X1389490D01*
Y668510D01*
X1371490D02*
X1389490D01*
X1371490Y634510D02*
Y668510D01*
X1339740Y679940D02*
X1357740D01*
X1339740Y645940D02*
Y679940D01*
Y645940D02*
X1357740D01*
Y679940D01*
X1656860Y600600D02*
Y618600D01*
Y600600D02*
X1690860D01*
Y618600D01*
X1656860D02*
X1690860D01*
X1339740Y690390D02*
X1357740D01*
Y724390D01*
X1339740D02*
X1357740D01*
X1339740Y690390D02*
Y724390D01*
X1423810Y717880D02*
Y727380D01*
Y717880D02*
X1441310D01*
Y727380D01*
X1423810D02*
X1441310D01*
X1423810Y738200D02*
Y747700D01*
Y738200D02*
X1441310D01*
Y747700D01*
X1423810D02*
X1441310D01*
X1661490Y764400D02*
X1670990D01*
X1661490Y746900D02*
Y764400D01*
Y746900D02*
X1670990D01*
Y764400D01*
X1481710Y622110D02*
Y630110D01*
Y622110D02*
X1497710D01*
Y630110D01*
X1481710D02*
X1497710D01*
X264820Y544580D02*
Y735580D01*
Y544580D02*
X372720D01*
Y735580D01*
X264820D02*
X372720D01*
X1422790Y553230D02*
X1439790D01*
Y587230D01*
X1422790D02*
X1439790D01*
X1422790Y553230D02*
Y587230D01*
M02*
