G04*
G04 #@! TF.GenerationSoftware,Altium Limited,Altium Designer,25.5.2 (35)*
G04*
G04 Layer_Color=128*
%FSLAX44Y44*%
%MOMM*%
G71*
G04*
G04 #@! TF.SameCoordinates,5C3ED261-42B6-482D-99A8-9BAFA3442630*
G04*
G04*
G04 #@! TF.FilePolarity,Positive*
G04*
G01*
G75*
%ADD15C,0.1270*%
D15*
X1538030Y494030D02*
X1545530D01*
X1541780Y490280D02*
Y497780D01*
X1638110Y853160D02*
X1646110D01*
X1642110Y849160D02*
Y857160D01*
X1638110Y818160D02*
X1646110D01*
X1642110Y814160D02*
Y822160D01*
X1545400Y818160D02*
X1553400D01*
X1549400Y814160D02*
Y822160D01*
X1654446Y348340D02*
X1672474D01*
X1663460Y339326D02*
Y357354D01*
X1478340Y854710D02*
X1485840D01*
X1482090Y850960D02*
Y858460D01*
X1010330Y923290D02*
X1020330D01*
X1015330Y918290D02*
Y928290D01*
X1349590Y359410D02*
X1360590D01*
X1355090Y353910D02*
Y364910D01*
X1349590Y421640D02*
X1360590D01*
X1355090Y416140D02*
Y427140D01*
X1010330Y731520D02*
X1020330D01*
X1015330Y726520D02*
Y736520D01*
X1530180Y985520D02*
X1538580D01*
X1534380Y981320D02*
Y989720D01*
X1545400Y853160D02*
X1553400D01*
X1549400Y849160D02*
Y857160D01*
X1482880Y769620D02*
X1499080D01*
X1490980Y761520D02*
Y777720D01*
X1565300Y985520D02*
X1573700D01*
X1569500Y981320D02*
Y989720D01*
X1349590Y283210D02*
X1360590D01*
X1355090Y277710D02*
Y288710D01*
X1482880Y718820D02*
X1499080D01*
X1490980Y710720D02*
Y726920D01*
X454470Y770890D02*
X462470D01*
X458470Y766890D02*
Y774890D01*
X597170Y333200D02*
X605170D01*
X601170Y329200D02*
Y337200D01*
X657940Y307200D02*
X667940D01*
X662940Y302200D02*
Y312200D01*
X1347080Y985520D02*
X1355480D01*
X1351280Y981320D02*
Y989720D01*
X1748400Y985520D02*
X1756800D01*
X1752600Y981320D02*
Y989720D01*
X1349590Y334010D02*
X1360590D01*
X1355090Y328510D02*
Y339510D01*
X1349590Y308610D02*
X1360590D01*
X1355090Y303110D02*
Y314110D01*
X404470Y770890D02*
X412470D01*
X408470Y766890D02*
Y774890D01*
X1478340Y874710D02*
X1485840D01*
X1482090Y870960D02*
Y878460D01*
X1085330Y923290D02*
X1095330D01*
X1090330Y918290D02*
Y928290D01*
X1085330Y731520D02*
X1095330D01*
X1090330Y726520D02*
Y736520D01*
X1349590Y447040D02*
X1360590D01*
X1355090Y441540D02*
Y452540D01*
X657940Y457200D02*
X667940D01*
X662940Y452200D02*
Y462200D01*
X467170Y333200D02*
X475170D01*
X471170Y329200D02*
Y337200D01*
X467170Y413200D02*
X475170D01*
X471170Y409200D02*
Y417200D01*
X597170Y413200D02*
X605170D01*
X601170Y409200D02*
Y417200D01*
X390130Y371830D02*
X407430D01*
X398780Y363180D02*
Y380480D01*
X398960Y638810D02*
X411960D01*
X405460Y632310D02*
Y645310D01*
X498960Y638810D02*
X511960D01*
X505460Y632310D02*
Y645310D01*
X390130Y456830D02*
X407430D01*
X398780Y448180D02*
Y465480D01*
X332980Y474330D02*
X362980D01*
X347980Y459330D02*
Y489330D01*
X332980Y354330D02*
X362980D01*
X347980Y339330D02*
Y369330D01*
X282020Y640080D02*
X298520D01*
X290270Y631830D02*
Y648330D01*
X282020Y594080D02*
X298520D01*
X290270Y585830D02*
Y602330D01*
X1611946Y401340D02*
X1629974D01*
X1620960Y392326D02*
Y410354D01*
X1666946Y401340D02*
X1684974D01*
X1675960Y392326D02*
Y410354D01*
X1643460Y307340D02*
X1653460D01*
X1648460Y302340D02*
Y312340D01*
X1643460Y382340D02*
X1653460D01*
X1648460Y377340D02*
Y387340D01*
X1721700Y572060D02*
X1732700D01*
X1727200Y566560D02*
Y577560D01*
X1721700Y607060D02*
X1732700D01*
X1727200Y601560D02*
Y612560D01*
X1721700Y454660D02*
X1732700D01*
X1727200Y449160D02*
Y460160D01*
X1721700Y489660D02*
X1732700D01*
X1727200Y484160D02*
Y495160D01*
X1718510Y297180D02*
X1743510D01*
X1731010Y284680D02*
Y309680D01*
X284680Y971550D02*
X309680D01*
X297180Y959050D02*
Y984050D01*
X635920Y569379D02*
X637920D01*
X636920Y568379D02*
Y570379D01*
X646920Y569379D02*
X648920D01*
X647920Y568379D02*
Y570379D01*
X635920Y580379D02*
X637920D01*
X636920Y579379D02*
Y581379D01*
X646920Y580379D02*
X648920D01*
X647920Y579379D02*
Y581379D01*
X646920Y558379D02*
X648920D01*
X647920Y557379D02*
Y559379D01*
X635920Y558379D02*
X637920D01*
X636920Y557379D02*
Y559379D01*
X1338834Y922020D02*
X1345946D01*
X1342390Y918464D02*
Y925576D01*
X1644904Y895350D02*
X1652016D01*
X1648460Y891794D02*
Y898906D01*
X1437120Y655830D02*
X1439120D01*
X1438120Y654830D02*
Y656830D01*
X1437120Y688830D02*
X1439120D01*
X1438120Y687830D02*
Y689830D01*
X1437120Y666830D02*
X1439120D01*
X1438120Y665830D02*
Y667830D01*
X1437120Y677830D02*
X1439120D01*
X1438120Y676830D02*
Y678830D01*
X1437120Y633830D02*
X1439120D01*
X1438120Y632830D02*
Y634830D01*
X1426120Y644830D02*
X1428120D01*
X1427120Y643830D02*
Y645830D01*
X1437120Y644830D02*
X1439120D01*
X1438120Y643830D02*
Y645830D01*
X1426120Y633830D02*
X1428120D01*
X1427120Y632830D02*
Y634830D01*
X1426120Y677830D02*
X1428120D01*
X1427120Y676830D02*
Y678830D01*
X1426120Y666830D02*
X1428120D01*
X1427120Y665830D02*
Y667830D01*
X1426120Y688830D02*
X1428120D01*
X1427120Y687830D02*
Y689830D01*
X1426120Y655830D02*
X1428120D01*
X1427120Y654830D02*
Y656830D01*
X1460754Y359410D02*
X1467866D01*
X1464310Y355854D02*
Y362966D01*
X907034Y591820D02*
X914146D01*
X910590Y588264D02*
Y595376D01*
X823214Y453390D02*
X830326D01*
X826770Y449834D02*
Y456946D01*
X942594Y351790D02*
X949706D01*
X946150Y348234D02*
Y355346D01*
X941324Y445770D02*
X948436D01*
X944880Y442214D02*
Y449326D01*
M02*
