G04*
G04 #@! TF.GenerationSoftware,Altium Limited,Altium Designer,25.5.2 (35)*
G04*
G04 Layer_Physical_Order=2*
G04 Layer_Color=16711680*
%FSLAX25Y25*%
%MOIN*%
G70*
G04*
G04 #@! TF.SameCoordinates,CCCDE38D-7695-4EB3-ABC8-F25FB468ABE4*
G04*
G04*
G04 #@! TF.FilePolarity,Positive*
G04*
G01*
G75*
%ADD15C,0.00500*%
%ADD71R,0.06693X0.03740*%
%ADD144R,0.09843X0.09843*%
%ADD145C,0.09843*%
%ADD154R,0.06102X0.06102*%
%ADD155R,0.05118X0.05118*%
%ADD158C,0.06102*%
%ADD162C,0.05118*%
%ADD166C,0.02953*%
%ADD172C,0.02500*%
%ADD173C,0.02000*%
%ADD175C,0.05000*%
%ADD176C,0.01000*%
%ADD179C,0.03000*%
%ADD189C,0.05906*%
%ADD190R,0.05906X0.05906*%
%ADD191R,0.04724X0.04724*%
%ADD192C,0.04724*%
%ADD193C,0.07677*%
%ADD194R,0.07677X0.07677*%
%ADD195C,0.10217*%
%ADD196C,0.05374*%
G04:AMPARAMS|DCode=197|XSize=62.99mil|YSize=62.99mil|CornerRadius=15.75mil|HoleSize=0mil|Usage=FLASHONLY|Rotation=90.000|XOffset=0mil|YOffset=0mil|HoleType=Round|Shape=RoundedRectangle|*
%AMROUNDEDRECTD197*
21,1,0.06299,0.03150,0,0,90.0*
21,1,0.03150,0.06299,0,0,90.0*
1,1,0.03150,0.01575,0.01575*
1,1,0.03150,0.01575,-0.01575*
1,1,0.03150,-0.01575,-0.01575*
1,1,0.03150,-0.01575,0.01575*
%
%ADD197ROUNDEDRECTD197*%
%ADD198C,0.10646*%
%ADD199C,0.04528*%
%ADD200C,0.06299*%
%ADD201C,0.19685*%
%ADD202C,0.09567*%
%ADD203R,0.09567X0.09567*%
%ADD204R,0.05374X0.05374*%
%ADD205C,0.01968*%
%ADD206C,0.06496*%
%ADD207R,0.06496X0.06496*%
%ADD208R,0.04528X0.04528*%
%ADD209C,0.02500*%
%ADD210C,0.06000*%
%ADD211C,0.02000*%
%ADD212C,0.03937*%
G36*
X692552Y398462D02*
X694156Y397800D01*
X695599Y396838D01*
X696827Y395613D01*
X697792Y394171D01*
X698457Y392569D01*
X698796Y390867D01*
X698796Y390000D01*
X698796Y110014D01*
X698796Y110013D01*
X698796Y110012D01*
X698797Y109145D01*
X698461Y107444D01*
X697799Y105841D01*
X696837Y104398D01*
X695611Y103171D01*
X694170Y102207D01*
X692568Y101543D01*
X690867Y101204D01*
X690000Y101204D01*
X525803D01*
Y398796D01*
X689980Y398796D01*
X689981Y398796D01*
X689982Y398796D01*
X690850Y398797D01*
X692552Y398462D01*
D02*
G37*
G36*
X103629Y365074D02*
X106018Y363478D01*
X108595Y362208D01*
X111315Y361284D01*
X114133Y360724D01*
X116774Y360550D01*
X116790Y360199D01*
X116677Y360181D01*
X116235Y360146D01*
X115804Y360042D01*
X115366Y359973D01*
X114944Y359836D01*
X114513Y359733D01*
X114103Y359563D01*
X113681Y359426D01*
X113286Y359225D01*
X112877Y359055D01*
X112499Y358823D01*
X112104Y358622D01*
X111745Y358361D01*
X111367Y358130D01*
X111030Y357842D01*
X110671Y357581D01*
X110358Y357267D01*
X110020Y356980D01*
X108693Y355652D01*
X108323Y355681D01*
X107885Y355750D01*
X107442D01*
X107000Y355785D01*
X106558Y355750D01*
X106115D01*
X105677Y355681D01*
X105235Y355646D01*
X104804Y355542D01*
X104366Y355473D01*
X103944Y355336D01*
X103513Y355233D01*
X103103Y355063D01*
X102682Y354926D01*
X102286Y354725D01*
X101877Y354555D01*
X101554Y354357D01*
X101325Y354430D01*
X101204Y354504D01*
Y366774D01*
X101554Y366894D01*
X103629Y365074D01*
D02*
G37*
G36*
X174021Y292927D02*
X175755Y292043D01*
X177605Y291442D01*
X179527Y291138D01*
X181473D01*
X183395Y291442D01*
X185245Y292043D01*
X186075Y292466D01*
X213430D01*
X227787Y278108D01*
X227654Y277785D01*
X173674D01*
X160645Y290814D01*
X160779Y291138D01*
X173177D01*
Y293154D01*
X173489Y293313D01*
X174021Y292927D01*
D02*
G37*
G36*
X494452Y101204D02*
X110000Y101204D01*
X109134Y101204D01*
X107434Y101542D01*
X105834Y102205D01*
X104393Y103168D01*
X103168Y104393D01*
X102205Y105833D01*
X101542Y107434D01*
X101204Y109134D01*
X101204Y110000D01*
Y209968D01*
X129701D01*
Y239811D01*
X129651D01*
X129424Y240077D01*
X129701Y241826D01*
Y244174D01*
X129333Y246494D01*
X128608Y248728D01*
X127541Y250820D01*
X126161Y252721D01*
X124500Y254381D01*
X122600Y255762D01*
X120507Y256828D01*
X118274Y257554D01*
X115954Y257921D01*
X113605D01*
X111285Y257554D01*
X109052Y256828D01*
X106959Y255762D01*
X105059Y254381D01*
X103398Y252721D01*
X102018Y250820D01*
X101544Y249892D01*
X101204Y249974D01*
X101204Y310879D01*
X101528Y311013D01*
X157573Y254968D01*
X158920Y253818D01*
X160430Y252892D01*
X162066Y252215D01*
X163788Y251801D01*
X165553Y251662D01*
X246428D01*
X246671Y251419D01*
X247030Y251158D01*
X247367Y250870D01*
X247745Y250639D01*
X248104Y250378D01*
X248499Y250177D01*
X248877Y249945D01*
X249286Y249776D01*
X249681Y249574D01*
X250103Y249437D01*
X250513Y249268D01*
X250944Y249164D01*
X251366Y249027D01*
X251804Y248958D01*
X252235Y248854D01*
X252677Y248819D01*
X253115Y248750D01*
X253558D01*
X254000Y248715D01*
X254187Y248543D01*
Y238340D01*
X253987Y238308D01*
X252343Y237774D01*
X250802Y236989D01*
X249403Y235973D01*
X248181Y234750D01*
X247165Y233351D01*
X246380Y231811D01*
X245845Y230167D01*
X245575Y228459D01*
Y226730D01*
X245781Y225429D01*
X245575Y224128D01*
Y223115D01*
X245251Y222981D01*
X239326Y228906D01*
X239119Y229313D01*
X237916Y230969D01*
X236469Y232416D01*
X234813Y233619D01*
X232990Y234548D01*
X231044Y235180D01*
X229023Y235500D01*
X226977D01*
X224956Y235180D01*
X223010Y234548D01*
X221186Y233619D01*
X219531Y232416D01*
X218084Y230969D01*
X216881Y229313D01*
X215952Y227490D01*
X215320Y225544D01*
X215000Y223523D01*
Y221477D01*
X215320Y219456D01*
X215952Y217510D01*
X216881Y215686D01*
X218084Y214031D01*
X219531Y212584D01*
X221186Y211381D01*
X221594Y211174D01*
X234634Y198134D01*
X236130Y196856D01*
X237808Y195828D01*
X239625Y195075D01*
X241539Y194616D01*
X243500Y194461D01*
X294000D01*
X295961Y194616D01*
X297875Y195075D01*
X299692Y195828D01*
X299789Y195887D01*
X299990Y195952D01*
X301814Y196881D01*
X303469Y198084D01*
X304916Y199531D01*
X306119Y201186D01*
X307048Y203010D01*
X307680Y204956D01*
X308000Y206977D01*
Y209023D01*
X307680Y211044D01*
X307048Y212990D01*
X306119Y214813D01*
X304916Y216469D01*
X303469Y217916D01*
X301814Y219119D01*
X299990Y220048D01*
X298044Y220680D01*
X296023Y221000D01*
X293977D01*
X291956Y220680D01*
X290010Y220048D01*
X289011Y219539D01*
X275857D01*
X275652Y219822D01*
X275934Y220692D01*
X276205Y222399D01*
Y224128D01*
X276005Y225393D01*
X276119Y225868D01*
X276168Y226501D01*
X276205Y226730D01*
Y226962D01*
X276255Y227594D01*
Y244841D01*
X276605Y244986D01*
X277671Y243919D01*
X279104Y242878D01*
X280681Y242074D01*
X282366Y241527D01*
X284115Y241250D01*
X285885D01*
X287634Y241527D01*
X289318Y242074D01*
X290896Y242878D01*
X292329Y243919D01*
X293581Y245171D01*
X294622Y246604D01*
X295426Y248182D01*
X295973Y249866D01*
X296250Y251615D01*
Y253385D01*
X295973Y255134D01*
X295426Y256819D01*
X294622Y258396D01*
X293581Y259829D01*
X292329Y261081D01*
X291212Y261893D01*
X289230Y263874D01*
X287914Y264999D01*
X287379Y265326D01*
X287284Y265557D01*
X286379Y267034D01*
X285254Y268350D01*
X277802Y275802D01*
X276486Y276927D01*
X275009Y277831D01*
X273410Y278494D01*
X271726Y278898D01*
X270000Y279034D01*
X258070D01*
X225802Y311302D01*
X224486Y312427D01*
X223009Y313331D01*
X221410Y313994D01*
X219726Y314398D01*
X218000Y314534D01*
X186075D01*
X185245Y314956D01*
X183395Y315558D01*
X181473Y315862D01*
X179527D01*
X177605Y315558D01*
X175755Y314956D01*
X174021Y314073D01*
X173489Y313687D01*
X173177Y313846D01*
Y315862D01*
X148453D01*
Y303464D01*
X148129Y303330D01*
X124285Y327174D01*
Y339326D01*
X125979Y341020D01*
X126268Y341358D01*
X126581Y341671D01*
X126842Y342030D01*
X127130Y342367D01*
X127361Y342745D01*
X127622Y343104D01*
X127823Y343499D01*
X128055Y343877D01*
X128225Y344286D01*
X128426Y344682D01*
X128563Y345103D01*
X128733Y345513D01*
X128836Y345944D01*
X128973Y346366D01*
X129042Y346803D01*
X129146Y347235D01*
X129181Y347677D01*
X129250Y348115D01*
Y348558D01*
X129285Y349000D01*
X129250Y349442D01*
Y349885D01*
X129181Y350323D01*
X129146Y350765D01*
X129042Y351197D01*
X128973Y351634D01*
X128836Y352056D01*
X128733Y352487D01*
X128563Y352897D01*
X128426Y353319D01*
X128225Y353714D01*
X128055Y354123D01*
X127823Y354501D01*
X127622Y354896D01*
X127361Y355255D01*
X127130Y355633D01*
X126842Y355970D01*
X126581Y356329D01*
X126268Y356642D01*
X125979Y356980D01*
X125642Y357267D01*
X125329Y357581D01*
X124970Y357842D01*
X124633Y358130D01*
X124255Y358361D01*
X123896Y358622D01*
X123501Y358823D01*
X123123Y359055D01*
X122714Y359225D01*
X122318Y359426D01*
X121897Y359563D01*
X121487Y359733D01*
X121056Y359836D01*
X120634Y359973D01*
X120197Y360042D01*
X119765Y360146D01*
X119323Y360181D01*
X118885Y360250D01*
X118582D01*
X118536Y360286D01*
X118646Y360644D01*
X119867Y360724D01*
X122685Y361284D01*
X125405Y362208D01*
X127982Y363478D01*
X130371Y365074D01*
X132531Y366969D01*
X134425Y369129D01*
X136022Y371518D01*
X137292Y374095D01*
X138216Y376815D01*
X138776Y379633D01*
X138964Y382500D01*
X138776Y385367D01*
X138216Y388185D01*
X137292Y390905D01*
X136022Y393482D01*
X134425Y395871D01*
X132531Y398031D01*
X132033Y398468D01*
X132156Y398796D01*
X494452Y398796D01*
Y101204D01*
D02*
G37*
%LPC*%
G36*
X618913Y391549D02*
Y389000D01*
X621462D01*
X621349Y389423D01*
X620864Y390264D01*
X620177Y390950D01*
X619337Y391436D01*
X618913Y391549D01*
D02*
G37*
G36*
X616913Y391549D02*
X616490Y391436D01*
X615650Y390950D01*
X614963Y390264D01*
X614478Y389423D01*
X614364Y389000D01*
X616913D01*
Y391549D01*
D02*
G37*
G36*
X693474Y391474D02*
X686526D01*
Y384526D01*
X693474D01*
Y391474D01*
D02*
G37*
G36*
X604544D02*
X603629D01*
X602745Y391238D01*
X601953Y390780D01*
X601306Y390133D01*
X600849Y389341D01*
X600612Y388457D01*
Y387543D01*
X600849Y386659D01*
X601306Y385867D01*
X601953Y385220D01*
X602745Y384762D01*
X603629Y384526D01*
X604544D01*
X605428Y384762D01*
X606220Y385220D01*
X606867Y385867D01*
X607324Y386659D01*
X607561Y387543D01*
Y388457D01*
X607324Y389341D01*
X606867Y390133D01*
X606220Y390780D01*
X605428Y391238D01*
X604544Y391474D01*
D02*
G37*
G36*
X535474D02*
X528526D01*
Y384526D01*
X535474D01*
Y391474D01*
D02*
G37*
G36*
X621462Y387000D02*
X618913D01*
Y384451D01*
X619337Y384564D01*
X620177Y385050D01*
X620864Y385736D01*
X621349Y386577D01*
X621462Y387000D01*
D02*
G37*
G36*
X616913D02*
X614364D01*
X614478Y386577D01*
X614963Y385736D01*
X615650Y385050D01*
X616490Y384564D01*
X616913Y384451D01*
Y387000D01*
D02*
G37*
G36*
X528500Y365332D02*
X527607Y365155D01*
X526851Y364649D01*
X526345Y363893D01*
X526168Y363000D01*
X526345Y362107D01*
X526851Y361351D01*
X537351Y350851D01*
X538107Y350345D01*
X539000Y350168D01*
X581168D01*
Y347425D01*
X580449D01*
Y341323D01*
X586551D01*
Y347425D01*
X585832D01*
Y350168D01*
X649000D01*
X649893Y350345D01*
X650649Y350851D01*
X651155Y351607D01*
X651332Y352500D01*
X651155Y353393D01*
X650649Y354149D01*
X649893Y354655D01*
X649000Y354832D01*
X539966D01*
X530149Y364649D01*
X529392Y365155D01*
X528500Y365332D01*
D02*
G37*
G36*
X583902Y339551D02*
X583098D01*
X582322Y339343D01*
X581627Y338942D01*
X581058Y338373D01*
X580657Y337678D01*
X580449Y336902D01*
Y336098D01*
X580657Y335322D01*
X581058Y334627D01*
X581627Y334058D01*
X582322Y333657D01*
X583098Y333449D01*
X583902D01*
X584678Y333657D01*
X585373Y334058D01*
X585942Y334627D01*
X586343Y335322D01*
X586551Y336098D01*
Y336902D01*
X586343Y337678D01*
X585942Y338373D01*
X585373Y338942D01*
X584678Y339343D01*
X583902Y339551D01*
D02*
G37*
G36*
X620571Y311071D02*
X609429D01*
Y299929D01*
X620571D01*
Y311071D01*
D02*
G37*
G36*
X580441Y296236D02*
X579559D01*
X578708Y296008D01*
X577945Y295568D01*
X577322Y294945D01*
X576882Y294181D01*
X576653Y293330D01*
Y292449D01*
X576882Y291598D01*
X577322Y290835D01*
X577945Y290212D01*
X578708Y289771D01*
X579559Y289543D01*
X580441D01*
X581292Y289771D01*
X582055Y290212D01*
X582678Y290835D01*
X583118Y291598D01*
X583347Y292449D01*
Y293330D01*
X583118Y294181D01*
X582678Y294945D01*
X582055Y295568D01*
X581292Y296008D01*
X580441Y296236D01*
D02*
G37*
G36*
X543941D02*
X543059D01*
X542208Y296008D01*
X541445Y295568D01*
X540822Y294945D01*
X540382Y294181D01*
X540154Y293330D01*
Y292449D01*
X540382Y291598D01*
X540822Y290835D01*
X541445Y290212D01*
X542208Y289771D01*
X543059Y289543D01*
X543941D01*
X544792Y289771D01*
X545555Y290212D01*
X546178Y290835D01*
X546618Y291598D01*
X546846Y292449D01*
Y293330D01*
X546618Y294181D01*
X546178Y294945D01*
X545555Y295568D01*
X544792Y296008D01*
X543941Y296236D01*
D02*
G37*
G36*
X649634Y292169D02*
X641366D01*
Y286854D01*
X649634D01*
Y287423D01*
X652500D01*
X652701Y287463D01*
X652905D01*
X653094Y287541D01*
X653295Y287581D01*
X653465Y287695D01*
X653654Y287773D01*
X653799Y287917D01*
X653969Y288031D01*
X654083Y288201D01*
X654227Y288346D01*
X654306Y288535D01*
X654419Y288705D01*
X654459Y288906D01*
X654537Y289095D01*
Y289299D01*
X654577Y289500D01*
X654537Y289701D01*
Y289905D01*
X654459Y290094D01*
X654419Y290295D01*
X654306Y290465D01*
X654227Y290654D01*
X654083Y290799D01*
X653969Y290969D01*
X653799Y291083D01*
X653654Y291227D01*
X653465Y291305D01*
X653295Y291419D01*
X653094Y291459D01*
X652905Y291537D01*
X652701D01*
X652500Y291577D01*
X649634D01*
Y292169D01*
D02*
G37*
G36*
X690000Y313077D02*
X689799Y313037D01*
X689595D01*
X689406Y312959D01*
X689205Y312919D01*
X689035Y312806D01*
X688846Y312727D01*
X688701Y312582D01*
X688531Y312469D01*
X660031Y283969D01*
X659581Y283295D01*
X659423Y282500D01*
Y279138D01*
X659099Y279004D01*
X658634Y279469D01*
X657960Y279919D01*
X657165Y280077D01*
X654461D01*
X654332Y280163D01*
X653537Y280321D01*
X649634D01*
Y281146D01*
X641366D01*
Y275831D01*
X649634D01*
Y276167D01*
X652858D01*
X652986Y276081D01*
X653187Y276041D01*
X653376Y275963D01*
X653581D01*
X653782Y275923D01*
X653782Y275923D01*
X655923D01*
Y268551D01*
X655810Y268492D01*
X655573Y268444D01*
X655478Y268538D01*
X655365Y268708D01*
X655195Y268822D01*
X655050Y268967D01*
X654861Y269045D01*
X654691Y269159D01*
X654490Y269198D01*
X654382Y269243D01*
X654282Y269504D01*
X654271Y269627D01*
X654469Y269824D01*
X654469Y269824D01*
X654919Y270498D01*
X655077Y271293D01*
Y272000D01*
X655037Y272201D01*
Y272405D01*
X654959Y272594D01*
X654919Y272795D01*
X654806Y272965D01*
X654727Y273154D01*
X654583Y273299D01*
X654469Y273469D01*
X654469Y273469D01*
X654463Y273475D01*
X654293Y273588D01*
X654154Y273727D01*
X653973Y273802D01*
X653789Y273925D01*
X653572Y273968D01*
X653405Y274037D01*
X653224D01*
X652994Y274083D01*
X649634D01*
Y274669D01*
X641366D01*
Y269354D01*
X643470D01*
X643504Y269004D01*
X643278Y268959D01*
X642604Y268509D01*
X639085Y264990D01*
X638634Y264316D01*
X638476Y263521D01*
Y258914D01*
X635366Y255803D01*
X634915Y255130D01*
X634757Y254335D01*
Y193000D01*
X634797Y192799D01*
Y192595D01*
X634876Y192406D01*
X634915Y192205D01*
X635029Y192035D01*
X635107Y191846D01*
X635252Y191701D01*
X635366Y191531D01*
X635536Y191417D01*
X635681Y191273D01*
X635870Y191194D01*
X636040Y191081D01*
X636240Y191041D01*
X636429Y190963D01*
X636634D01*
X636835Y190923D01*
X637035Y190963D01*
X637240D01*
X637429Y191041D01*
X637630Y191081D01*
X637800Y191194D01*
X637989Y191273D01*
X638133Y191417D01*
X638304Y191531D01*
X638417Y191701D01*
X638562Y191846D01*
X638640Y192035D01*
X638754Y192205D01*
X638794Y192406D01*
X638872Y192595D01*
Y192799D01*
X638912Y193000D01*
Y253474D01*
X642022Y256585D01*
X642473Y257259D01*
X642631Y258053D01*
X642835Y258331D01*
X648436D01*
X648570Y258007D01*
X640531Y249969D01*
X640081Y249295D01*
X639923Y248500D01*
Y179810D01*
X637601Y177488D01*
X637487Y177318D01*
X637342Y177173D01*
X637264Y176984D01*
X637150Y176814D01*
X637110Y176613D01*
X637032Y176424D01*
Y176219D01*
X636992Y176019D01*
X637032Y175818D01*
Y175613D01*
X637110Y175425D01*
X637150Y175224D01*
X637264Y175054D01*
X637342Y174865D01*
X637487Y174720D01*
X637601Y174550D01*
X637771Y174436D01*
X637915Y174292D01*
X638104Y174213D01*
X638275Y174100D01*
X638475Y174060D01*
X638664Y173981D01*
X638869D01*
X639070Y173941D01*
X639270Y173981D01*
X639475D01*
X639664Y174060D01*
X639864Y174100D01*
X640035Y174213D01*
X640224Y174292D01*
X640368Y174436D01*
X640538Y174550D01*
X643469Y177480D01*
X643469Y177480D01*
X643919Y178154D01*
X644077Y178949D01*
X644077Y178949D01*
Y247639D01*
X659469Y263031D01*
X659469Y263031D01*
X659919Y263705D01*
X660077Y264500D01*
X660077Y264500D01*
Y269394D01*
X660420Y269546D01*
X660600Y269403D01*
Y269000D01*
X660639Y268799D01*
Y268595D01*
X660718Y268406D01*
X660758Y268205D01*
X660871Y268035D01*
X660950Y267846D01*
X661094Y267701D01*
X661208Y267531D01*
X661378Y267417D01*
X661523Y267273D01*
X661712Y267195D01*
X661882Y267081D01*
X662083Y267041D01*
X662272Y266963D01*
X662476D01*
X662677Y266923D01*
X662878Y266963D01*
X663080D01*
X663086Y266957D01*
X663277Y266664D01*
X660531Y263919D01*
X660081Y263245D01*
X659923Y262450D01*
Y255839D01*
X659661Y255577D01*
X655000D01*
X654799Y255537D01*
X654595D01*
X654406Y255459D01*
X654205Y255419D01*
X654035Y255306D01*
X653846Y255227D01*
X653701Y255083D01*
X653531Y254969D01*
X653417Y254799D01*
X653273Y254654D01*
X653195Y254465D01*
X653081Y254295D01*
X653041Y254094D01*
X652963Y253905D01*
Y253701D01*
X652923Y253500D01*
X652963Y253299D01*
Y253095D01*
X653041Y252906D01*
X653081Y252705D01*
X653195Y252535D01*
X653273Y252346D01*
X653417Y252201D01*
X653531Y252031D01*
X653701Y251917D01*
X653846Y251773D01*
X654035Y251694D01*
X654205Y251581D01*
X654406Y251541D01*
X654595Y251463D01*
X654799D01*
X655000Y251423D01*
X660522D01*
X661316Y251581D01*
X661990Y252031D01*
X663469Y253510D01*
X663469Y253510D01*
X663919Y254184D01*
X664077Y254978D01*
X664077Y254978D01*
Y259996D01*
X664285Y260115D01*
X664427Y260124D01*
X664506Y260006D01*
X664676Y259892D01*
X664821Y259748D01*
X665010Y259669D01*
X665180Y259556D01*
X665381Y259516D01*
X665570Y259437D01*
X665774D01*
X665975Y259398D01*
X666475D01*
X667270Y259556D01*
X667944Y260006D01*
X670496Y262558D01*
X670496Y262558D01*
X670946Y263232D01*
X671104Y264027D01*
Y276097D01*
X671104Y276097D01*
X670946Y276892D01*
X670496Y277566D01*
X670222Y277839D01*
X670052Y277953D01*
X669907Y278098D01*
X669718Y278176D01*
X669548Y278290D01*
X669348Y278329D01*
X669159Y278408D01*
X668954D01*
X668753Y278448D01*
X668553Y278408D01*
X668348D01*
X668159Y278329D01*
X667958Y278290D01*
X667788Y278176D01*
X667599Y278098D01*
X667454Y277953D01*
X667284Y277839D01*
X667171Y277669D01*
X667026Y277524D01*
X666948Y277335D01*
X666834Y277165D01*
X666794Y276965D01*
X666716Y276776D01*
Y276571D01*
X666676Y276370D01*
X666716Y276170D01*
Y275965D01*
X666794Y275776D01*
X666834Y275575D01*
X666940Y275417D01*
X666894Y275159D01*
X666552Y275034D01*
X666469Y275117D01*
X666299Y275231D01*
X666154Y275376D01*
X665965Y275454D01*
X665795Y275568D01*
X665594Y275608D01*
X665405Y275686D01*
X665201D01*
X665000Y275726D01*
X664799Y275686D01*
X664595D01*
X664406Y275608D01*
X664205Y275568D01*
X664035Y275454D01*
X663927Y275410D01*
X663671Y275523D01*
X663577Y275602D01*
Y281640D01*
X691469Y309531D01*
X691582Y309701D01*
X691727Y309846D01*
X691806Y310035D01*
X691919Y310205D01*
X691959Y310406D01*
X692037Y310595D01*
Y310799D01*
X692077Y311000D01*
X692037Y311201D01*
Y311405D01*
X691959Y311594D01*
X691919Y311795D01*
X691806Y311965D01*
X691727Y312154D01*
X691583Y312299D01*
X691469Y312469D01*
X691299Y312583D01*
X691154Y312727D01*
X690965Y312806D01*
X690795Y312919D01*
X690594Y312959D01*
X690405Y313037D01*
X690201D01*
X690000Y313077D01*
D02*
G37*
G36*
X632000Y283577D02*
X631799Y283537D01*
X631595D01*
X631406Y283459D01*
X631205Y283419D01*
X631035Y283306D01*
X630846Y283227D01*
X630701Y283083D01*
X630531Y282969D01*
X630417Y282799D01*
X630273Y282654D01*
X630195Y282465D01*
X630081Y282295D01*
X630041Y282094D01*
X629963Y281905D01*
Y281701D01*
X629923Y281500D01*
Y277137D01*
X629573Y276992D01*
X629192Y277372D01*
X628541Y277642D01*
X627837D01*
X627185Y277372D01*
X626687Y276874D01*
X626417Y276222D01*
Y275518D01*
X626687Y274867D01*
X627185Y274368D01*
X627837Y274098D01*
X628541D01*
X629192Y274368D01*
X629573Y274748D01*
X629923Y274603D01*
Y272806D01*
X629573Y272661D01*
X629192Y273041D01*
X628541Y273311D01*
X627837D01*
X627185Y273041D01*
X626687Y272543D01*
X626417Y271892D01*
Y271187D01*
X626687Y270536D01*
X627185Y270037D01*
X627837Y269768D01*
X628541D01*
X629192Y270037D01*
X629573Y270418D01*
X629923Y270273D01*
Y268475D01*
X629573Y268331D01*
X629192Y268711D01*
X628541Y268980D01*
X627837D01*
X627185Y268711D01*
X626687Y268212D01*
X626417Y267561D01*
Y266856D01*
X626687Y266205D01*
X627185Y265707D01*
X627837Y265437D01*
X628541D01*
X629192Y265707D01*
X629573Y266087D01*
X629923Y265942D01*
Y264145D01*
X629573Y264000D01*
X629192Y264380D01*
X628541Y264650D01*
X627837D01*
X627185Y264380D01*
X626687Y263881D01*
X626417Y263230D01*
Y262526D01*
X626687Y261874D01*
X627185Y261376D01*
X627837Y261106D01*
X628541D01*
X629192Y261376D01*
X629573Y261756D01*
X629923Y261611D01*
Y259814D01*
X629573Y259669D01*
X629192Y260049D01*
X628541Y260319D01*
X627837D01*
X627185Y260049D01*
X626687Y259551D01*
X626417Y258900D01*
Y258195D01*
X626687Y257544D01*
X627185Y257045D01*
X627837Y256776D01*
X628541D01*
X629192Y257045D01*
X629573Y257425D01*
X629923Y257280D01*
Y255483D01*
X629573Y255338D01*
X629192Y255718D01*
X628541Y255988D01*
X627837D01*
X627185Y255718D01*
X626687Y255220D01*
X626417Y254569D01*
Y253864D01*
X626687Y253213D01*
X627185Y252715D01*
X627837Y252445D01*
X628541D01*
X629192Y252715D01*
X629573Y253095D01*
X629923Y252950D01*
Y250000D01*
X629963Y249799D01*
Y249595D01*
X630041Y249406D01*
X630081Y249205D01*
X630195Y249035D01*
X630273Y248846D01*
X630417Y248701D01*
X630531Y248531D01*
X630701Y248417D01*
X630846Y248273D01*
X631035Y248195D01*
X631205Y248081D01*
X631406Y248041D01*
X631595Y247963D01*
X631799D01*
X632000Y247923D01*
X632201Y247963D01*
X632405D01*
X632594Y248041D01*
X632795Y248081D01*
X632965Y248195D01*
X633154Y248273D01*
X633299Y248417D01*
X633469Y248531D01*
X633583Y248701D01*
X633727Y248846D01*
X633806Y249035D01*
X633919Y249205D01*
X633959Y249406D01*
X634037Y249595D01*
Y249799D01*
X634077Y250000D01*
Y281500D01*
X634037Y281701D01*
Y281905D01*
X633959Y282094D01*
X633919Y282295D01*
X633806Y282465D01*
X633727Y282654D01*
X633583Y282799D01*
X633469Y282969D01*
X633299Y283083D01*
X633154Y283227D01*
X632965Y283306D01*
X632795Y283419D01*
X632594Y283459D01*
X632405Y283537D01*
X632201D01*
X632000Y283577D01*
D02*
G37*
G36*
X583347Y282457D02*
X576653D01*
Y275764D01*
X583347D01*
Y282457D01*
D02*
G37*
G36*
X546846D02*
X540154D01*
Y275764D01*
X546846D01*
Y282457D01*
D02*
G37*
G36*
X635733Y311071D02*
X634267D01*
X632850Y310691D01*
X631579Y309958D01*
X630542Y308921D01*
X629809Y307650D01*
X629429Y306233D01*
Y304767D01*
X629809Y303350D01*
X630542Y302079D01*
X631579Y301042D01*
X632850Y300309D01*
X632923Y300289D01*
Y293360D01*
X611736Y272174D01*
X611464Y272397D01*
X611646Y272670D01*
X611727Y273074D01*
Y292346D01*
X612227Y292846D01*
X612537Y293595D01*
Y294405D01*
X612227Y295154D01*
X611654Y295727D01*
X610905Y296037D01*
X610095D01*
X609346Y295727D01*
X608773Y295154D01*
X608463Y294405D01*
Y293595D01*
X608773Y292846D01*
X609346Y292273D01*
X609612Y292163D01*
Y273513D01*
X604784Y268685D01*
X604554Y268341D01*
X604474Y267937D01*
Y230452D01*
X595252Y221230D01*
X595023Y220887D01*
X594942Y220482D01*
Y192767D01*
X594846Y192727D01*
X594273Y192154D01*
X593963Y191405D01*
Y190889D01*
X593613Y190744D01*
X565537Y218819D01*
Y219405D01*
X565227Y220154D01*
X564654Y220727D01*
X563905Y221037D01*
X563095D01*
X562346Y220727D01*
X561773Y220154D01*
X561463Y219405D01*
Y218595D01*
X561773Y217846D01*
X562346Y217273D01*
X563095Y216963D01*
X563681D01*
X564455Y216188D01*
X564257Y215892D01*
X563905Y216037D01*
X563095D01*
X562346Y215727D01*
X561773Y215154D01*
X561463Y214405D01*
Y213595D01*
X561773Y212846D01*
X562346Y212273D01*
X563095Y211963D01*
X563681D01*
X606219Y169425D01*
Y148969D01*
X606319Y148466D01*
X606603Y148040D01*
X608939Y145705D01*
X609195Y145534D01*
X609273Y145346D01*
X609846Y144773D01*
X610595Y144463D01*
X611405D01*
X612154Y144773D01*
X612727Y145346D01*
X613037Y146095D01*
Y146905D01*
X612727Y147654D01*
X612154Y148227D01*
X611405Y148537D01*
X610595D01*
X610046Y148310D01*
X608844Y149512D01*
Y150466D01*
X609194Y150536D01*
X609273Y150346D01*
X609846Y149773D01*
X610595Y149463D01*
X611405D01*
X612154Y149773D01*
X612727Y150346D01*
X613037Y151095D01*
Y151905D01*
X612727Y152654D01*
X612313Y153069D01*
Y171500D01*
X612213Y172002D01*
X611928Y172428D01*
X595744Y188613D01*
X595889Y188963D01*
X596405D01*
X597154Y189273D01*
X597727Y189846D01*
X598037Y190595D01*
Y191405D01*
X597727Y192154D01*
X597154Y192727D01*
X597058Y192767D01*
Y220044D01*
X606279Y229266D01*
X606509Y229609D01*
X606589Y230013D01*
Y248778D01*
X606939Y248812D01*
X607081Y248100D01*
X607531Y247427D01*
X613426Y241531D01*
X613426Y241531D01*
X614101Y241081D01*
X614895Y240923D01*
X627500D01*
X627701Y240963D01*
X627905D01*
X628094Y241041D01*
X628295Y241081D01*
X628465Y241195D01*
X628654Y241273D01*
X628799Y241417D01*
X628969Y241531D01*
X629083Y241701D01*
X629227Y241846D01*
X629306Y242035D01*
X629419Y242205D01*
X629459Y242406D01*
X629537Y242595D01*
Y242799D01*
X629577Y243000D01*
X629537Y243201D01*
Y243405D01*
X629459Y243594D01*
X629419Y243795D01*
X629306Y243965D01*
X629227Y244154D01*
X629083Y244299D01*
X628969Y244469D01*
X628799Y244583D01*
X628654Y244727D01*
X628465Y244806D01*
X628295Y244919D01*
X628094Y244959D01*
X627905Y245037D01*
X627701D01*
X627500Y245077D01*
X615756D01*
X611077Y249756D01*
Y265639D01*
X621763Y276325D01*
X621893Y276284D01*
X622087Y276154D01*
Y275518D01*
X622356Y274867D01*
X622855Y274368D01*
X623506Y274098D01*
X624211D01*
X624862Y274368D01*
X625360Y274867D01*
X625630Y275518D01*
Y276222D01*
X625360Y276874D01*
X624862Y277372D01*
X624211Y277642D01*
X623574D01*
X623444Y277836D01*
X623403Y277965D01*
X636469Y291031D01*
X636919Y291705D01*
X637077Y292500D01*
Y300289D01*
X637150Y300309D01*
X638421Y301042D01*
X639458Y302079D01*
X640191Y303350D01*
X640571Y304767D01*
Y306233D01*
X640191Y307650D01*
X639458Y308921D01*
X638421Y309958D01*
X637150Y310691D01*
X635733Y311071D01*
D02*
G37*
G36*
X624211Y273311D02*
X623506D01*
X622855Y273041D01*
X622356Y272543D01*
X622087Y271892D01*
Y271187D01*
X622356Y270536D01*
X622855Y270037D01*
X623506Y269768D01*
X624211D01*
X624862Y270037D01*
X625360Y270536D01*
X625630Y271187D01*
Y271892D01*
X625360Y272543D01*
X624862Y273041D01*
X624211Y273311D01*
D02*
G37*
G36*
Y268980D02*
X623506D01*
X622855Y268711D01*
X622356Y268212D01*
X622087Y267561D01*
Y266856D01*
X622356Y266205D01*
X622855Y265707D01*
X623506Y265437D01*
X624211D01*
X624862Y265707D01*
X625360Y266205D01*
X625630Y266856D01*
Y267561D01*
X625360Y268212D01*
X624862Y268711D01*
X624211Y268980D01*
D02*
G37*
G36*
X602406Y263640D02*
X601596D01*
X600847Y263330D01*
X600274Y262757D01*
X600234Y262661D01*
X580721D01*
X580154Y263227D01*
X579405Y263537D01*
X578595D01*
X577846Y263227D01*
X577273Y262654D01*
X576963Y261905D01*
Y261095D01*
X577273Y260346D01*
X577846Y259773D01*
X578595Y259463D01*
X579405D01*
X580154Y259773D01*
X580727Y260346D01*
X580810Y260545D01*
X600234D01*
X600274Y260449D01*
X600847Y259876D01*
X601596Y259566D01*
X602406D01*
X603155Y259876D01*
X603728Y260449D01*
X604038Y261198D01*
Y262008D01*
X603728Y262757D01*
X603155Y263330D01*
X602406Y263640D01*
D02*
G37*
G36*
X624211Y264650D02*
X623506D01*
X622855Y264380D01*
X622356Y263881D01*
X622087Y263230D01*
Y262526D01*
X622356Y261874D01*
X622855Y261376D01*
X623506Y261106D01*
X624211D01*
X624862Y261376D01*
X625360Y261874D01*
X625630Y262526D01*
Y263230D01*
X625360Y263881D01*
X624862Y264380D01*
X624211Y264650D01*
D02*
G37*
G36*
Y260319D02*
X623506D01*
X622855Y260049D01*
X622356Y259551D01*
X622087Y258900D01*
Y258195D01*
X622356Y257544D01*
X622855Y257045D01*
X623506Y256776D01*
X624211D01*
X624862Y257045D01*
X625360Y257544D01*
X625630Y258195D01*
Y258900D01*
X625360Y259551D01*
X624862Y260049D01*
X624211Y260319D01*
D02*
G37*
G36*
Y255988D02*
X623506D01*
X622855Y255718D01*
X622356Y255220D01*
X622087Y254569D01*
Y253864D01*
X622356Y253213D01*
X622855Y252715D01*
X623506Y252445D01*
X624211D01*
X624862Y252715D01*
X625360Y253213D01*
X625630Y253864D01*
Y254569D01*
X625360Y255220D01*
X624862Y255718D01*
X624211Y255988D01*
D02*
G37*
G36*
X573905Y263537D02*
X573095D01*
X572346Y263227D01*
X571773Y262654D01*
X571463Y261905D01*
Y261095D01*
X571773Y260346D01*
X572346Y259773D01*
X573095Y259463D01*
X573905D01*
X574002Y259503D01*
X585752Y247752D01*
X586095Y247523D01*
X586500Y247442D01*
X600233D01*
X600273Y247346D01*
X600846Y246773D01*
X601595Y246463D01*
X602405D01*
X603154Y246773D01*
X603727Y247346D01*
X604037Y248095D01*
Y248905D01*
X603727Y249654D01*
X603154Y250227D01*
X602405Y250537D01*
X601595D01*
X600846Y250227D01*
X600273Y249654D01*
X600233Y249558D01*
X586938D01*
X575497Y260998D01*
X575537Y261095D01*
Y261905D01*
X575227Y262654D01*
X574654Y263227D01*
X573905Y263537D01*
D02*
G37*
G36*
X680531Y243035D02*
X679469D01*
X678442Y242760D01*
X677522Y242229D01*
X676771Y241478D01*
X676240Y240558D01*
X675965Y239531D01*
Y238469D01*
X676240Y237442D01*
X676771Y236522D01*
X677522Y235771D01*
X678442Y235240D01*
X679469Y234965D01*
X680531D01*
X681558Y235240D01*
X682478Y235771D01*
X683229Y236522D01*
X683760Y237442D01*
X684035Y238469D01*
Y239531D01*
X683760Y240558D01*
X683229Y241478D01*
X682478Y242229D01*
X681558Y242760D01*
X680531Y243035D01*
D02*
G37*
G36*
X684035Y229256D02*
X675965D01*
Y221185D01*
X684035D01*
Y229256D01*
D02*
G37*
G36*
X582905Y218537D02*
X582095D01*
X581346Y218227D01*
X580773Y217654D01*
X580463Y216905D01*
Y216095D01*
X580773Y215346D01*
X581187Y214931D01*
Y209500D01*
X581287Y208998D01*
X581572Y208572D01*
X584463Y205681D01*
Y205095D01*
X584773Y204346D01*
X585346Y203773D01*
X586095Y203463D01*
X586905D01*
X587654Y203773D01*
X588227Y204346D01*
X588537Y205095D01*
Y205905D01*
X588227Y206654D01*
X587654Y207227D01*
X586905Y207537D01*
X586319D01*
X583813Y210044D01*
Y214931D01*
X584227Y215346D01*
X584537Y216095D01*
Y216905D01*
X584227Y217654D01*
X583654Y218227D01*
X582905Y218537D01*
D02*
G37*
G36*
X607450Y196764D02*
X606550D01*
X605718Y196419D01*
X605081Y195782D01*
X604736Y194950D01*
Y194050D01*
X605081Y193218D01*
X605718Y192581D01*
X606550Y192236D01*
X607450D01*
X608282Y192581D01*
X608919Y193218D01*
X609264Y194050D01*
Y194950D01*
X608919Y195782D01*
X608282Y196419D01*
X607450Y196764D01*
D02*
G37*
G36*
X680531Y196815D02*
X679469D01*
X678442Y196540D01*
X677522Y196009D01*
X676771Y195257D01*
X676240Y194337D01*
X675965Y193311D01*
Y192248D01*
X676240Y191222D01*
X676771Y190302D01*
X677522Y189550D01*
X678442Y189019D01*
X679469Y188744D01*
X680531D01*
X681558Y189019D01*
X682478Y189550D01*
X683229Y190302D01*
X683760Y191222D01*
X684035Y192248D01*
Y193311D01*
X683760Y194337D01*
X683229Y195257D01*
X682478Y196009D01*
X681558Y196540D01*
X680531Y196815D01*
D02*
G37*
G36*
X684035Y183035D02*
X675965D01*
Y174965D01*
X684035D01*
Y183035D01*
D02*
G37*
G36*
X535075Y179983D02*
X531925D01*
X531004Y179800D01*
X530222Y179278D01*
X529700Y178497D01*
X529517Y177575D01*
Y174425D01*
X529700Y173503D01*
X530222Y172722D01*
X531004Y172200D01*
X531925Y172017D01*
X535075D01*
X535996Y172200D01*
X536778Y172722D01*
X537300Y173503D01*
X537483Y174425D01*
Y177575D01*
X537300Y178497D01*
X536778Y179278D01*
X535996Y179800D01*
X535075Y179983D01*
D02*
G37*
G36*
X534018Y169937D02*
X532982D01*
X531980Y169669D01*
X531083Y169150D01*
X530350Y168417D01*
X529831Y167520D01*
X529563Y166518D01*
Y165482D01*
X529831Y164480D01*
X530350Y163583D01*
X531083Y162850D01*
X531980Y162331D01*
X532982Y162063D01*
X534018D01*
X535020Y162331D01*
X535917Y162850D01*
X536650Y163583D01*
X537169Y164480D01*
X537437Y165482D01*
Y166518D01*
X537169Y167520D01*
X536650Y168417D01*
X535917Y169150D01*
X535020Y169669D01*
X534018Y169937D01*
D02*
G37*
G36*
X656929Y165118D02*
X655725D01*
X654544Y164883D01*
X653433Y164423D01*
X652432Y163754D01*
X651581Y162903D01*
X650912Y161902D01*
X650451Y160790D01*
X650216Y159610D01*
Y158406D01*
X650451Y157226D01*
X650912Y156114D01*
X651581Y155113D01*
X652432Y154262D01*
X653433Y153593D01*
X654544Y153132D01*
X655725Y152898D01*
X656929D01*
X658109Y153132D01*
X659221Y153593D01*
X660222Y154262D01*
X661073Y155113D01*
X661742Y156114D01*
X662202Y157226D01*
X662437Y158406D01*
Y159610D01*
X662202Y160790D01*
X661742Y161902D01*
X661073Y162903D01*
X660222Y163754D01*
X659221Y164423D01*
X658109Y164883D01*
X656929Y165118D01*
D02*
G37*
G36*
X635275D02*
X634071D01*
X632891Y164883D01*
X631779Y164423D01*
X630778Y163754D01*
X629927Y162903D01*
X629258Y161902D01*
X628798Y160790D01*
X628563Y159610D01*
Y158406D01*
X628798Y157226D01*
X629258Y156114D01*
X629927Y155113D01*
X630778Y154262D01*
X631779Y153593D01*
X632891Y153132D01*
X634071Y152898D01*
X635275D01*
X636455Y153132D01*
X637568Y153593D01*
X638568Y154262D01*
X639419Y155113D01*
X640088Y156114D01*
X640549Y157226D01*
X640784Y158406D01*
Y159610D01*
X640549Y160790D01*
X640088Y161902D01*
X639419Y162903D01*
X638568Y163754D01*
X637568Y164423D01*
X636455Y164883D01*
X635275Y165118D01*
D02*
G37*
G36*
X645863Y154283D02*
X645137D01*
X644436Y154096D01*
X643808Y153733D01*
X643295Y153220D01*
X642932Y152591D01*
X642744Y151890D01*
Y151165D01*
X642932Y150464D01*
X643295Y149835D01*
X643808Y149322D01*
X644436Y148960D01*
X645137Y148772D01*
X645863D01*
X646564Y148960D01*
X647192Y149322D01*
X647705Y149835D01*
X648068Y150464D01*
X648256Y151165D01*
Y151890D01*
X648068Y152591D01*
X647705Y153220D01*
X647192Y153733D01*
X646564Y154096D01*
X645863Y154283D01*
D02*
G37*
G36*
X534018Y145437D02*
X532982D01*
X531980Y145169D01*
X531083Y144650D01*
X530350Y143917D01*
X529831Y143020D01*
X529563Y142018D01*
Y140982D01*
X529831Y139980D01*
X530350Y139083D01*
X531083Y138350D01*
X531980Y137831D01*
X532982Y137563D01*
X534018D01*
X535020Y137831D01*
X535917Y138350D01*
X536650Y139083D01*
X536994Y139678D01*
X575576D01*
X576095Y139463D01*
X576905D01*
X577654Y139773D01*
X578227Y140346D01*
X578537Y141095D01*
Y141905D01*
X578227Y142654D01*
X577654Y143227D01*
X576905Y143537D01*
X576095D01*
X575576Y143322D01*
X536994D01*
X536650Y143917D01*
X535917Y144650D01*
X535020Y145169D01*
X534018Y145437D01*
D02*
G37*
G36*
X652007Y144252D02*
X650804D01*
X649623Y144017D01*
X648511Y143556D01*
X647510Y142888D01*
X646659Y142037D01*
X645991Y141036D01*
X645530Y139924D01*
X645295Y138743D01*
Y137540D01*
X645530Y136359D01*
X645991Y135248D01*
X646659Y134247D01*
X647510Y133396D01*
X648511Y132727D01*
X649623Y132266D01*
X650804Y132032D01*
X652007D01*
X653188Y132266D01*
X654300Y132727D01*
X655301Y133396D01*
X656152Y134247D01*
X656820Y135248D01*
X657281Y136359D01*
X657516Y137540D01*
Y138743D01*
X657281Y139924D01*
X656820Y141036D01*
X656152Y142037D01*
X655301Y142888D01*
X654300Y143556D01*
X653188Y144017D01*
X652007Y144252D01*
D02*
G37*
G36*
X534018Y135437D02*
X532982D01*
X531980Y135169D01*
X531083Y134650D01*
X530350Y133917D01*
X529831Y133020D01*
X529563Y132018D01*
Y130982D01*
X529831Y129980D01*
X530350Y129083D01*
X531083Y128350D01*
X531980Y127831D01*
X532982Y127563D01*
X534018D01*
X535020Y127831D01*
X535917Y128350D01*
X536650Y129083D01*
X537169Y129980D01*
X537437Y130982D01*
Y132018D01*
X537169Y133020D01*
X536650Y133917D01*
X535917Y134650D01*
X535020Y135169D01*
X534018Y135437D01*
D02*
G37*
G36*
X645863Y124756D02*
X645137D01*
X644436Y124568D01*
X643808Y124205D01*
X643295Y123692D01*
X642932Y123064D01*
X642744Y122363D01*
Y121637D01*
X642932Y120936D01*
X643295Y120308D01*
X643808Y119795D01*
X644436Y119432D01*
X645137Y119244D01*
X645863D01*
X646564Y119432D01*
X647192Y119795D01*
X647705Y120308D01*
X648068Y120936D01*
X648256Y121637D01*
Y122363D01*
X648068Y123064D01*
X647705Y123692D01*
X647192Y124205D01*
X646564Y124568D01*
X645863Y124756D01*
D02*
G37*
G36*
X624405Y192537D02*
X623595D01*
X622846Y192227D01*
X622273Y191654D01*
X621963Y190905D01*
Y190095D01*
X622273Y189346D01*
X622687Y188931D01*
Y122569D01*
X622273Y122154D01*
X621963Y121405D01*
Y120595D01*
X622273Y119846D01*
X622846Y119273D01*
X623595Y118963D01*
X624405D01*
X625154Y119273D01*
X625727Y119846D01*
X626037Y120595D01*
Y121405D01*
X625727Y122154D01*
X625313Y122569D01*
Y188931D01*
X625727Y189346D01*
X626037Y190095D01*
Y190905D01*
X625727Y191654D01*
X625154Y192227D01*
X624405Y192537D01*
D02*
G37*
G36*
X534018Y125437D02*
X532982D01*
X531980Y125169D01*
X531083Y124650D01*
X530350Y123917D01*
X529831Y123020D01*
X529563Y122018D01*
Y120982D01*
X529831Y119980D01*
X530350Y119083D01*
X531083Y118350D01*
X531980Y117831D01*
X532982Y117563D01*
X534018D01*
X535020Y117831D01*
X535917Y118350D01*
X536650Y119083D01*
X537169Y119980D01*
X537437Y120982D01*
Y122018D01*
X537169Y123020D01*
X536650Y123917D01*
X535917Y124650D01*
X535020Y125169D01*
X534018Y125437D01*
D02*
G37*
G36*
X535075Y115672D02*
X534500D01*
Y112500D01*
X537672D01*
Y113075D01*
X537583Y113747D01*
X537324Y114373D01*
X536911Y114911D01*
X536373Y115324D01*
X535747Y115583D01*
X535075Y115672D01*
D02*
G37*
G36*
X532500D02*
X531925D01*
X531253Y115583D01*
X530627Y115324D01*
X530089Y114911D01*
X529676Y114373D01*
X529417Y113747D01*
X529328Y113075D01*
Y112500D01*
X532500D01*
Y115672D01*
D02*
G37*
G36*
X537672Y110500D02*
X534500D01*
Y107328D01*
X535075D01*
X535747Y107417D01*
X536373Y107676D01*
X536911Y108089D01*
X537324Y108627D01*
X537583Y109253D01*
X537672Y109925D01*
Y110500D01*
D02*
G37*
G36*
X532500D02*
X529328D01*
Y109925D01*
X529417Y109253D01*
X529676Y108627D01*
X530089Y108089D01*
X530627Y107676D01*
X531253Y107417D01*
X531925Y107328D01*
X532500D01*
Y110500D01*
D02*
G37*
G36*
X681500Y129744D02*
X679506Y129587D01*
X677562Y129120D01*
X675714Y128355D01*
X674009Y127310D01*
X672489Y126011D01*
X671190Y124491D01*
X670145Y122786D01*
X669380Y120938D01*
X668913Y118994D01*
X668756Y117000D01*
X668913Y115006D01*
X669380Y113062D01*
X670145Y111214D01*
X671190Y109509D01*
X672489Y107989D01*
X674009Y106690D01*
X675714Y105645D01*
X677562Y104880D01*
X679506Y104413D01*
X681500Y104256D01*
X683494Y104413D01*
X685438Y104880D01*
X687286Y105645D01*
X688991Y106690D01*
X690511Y107989D01*
X691810Y109509D01*
X692855Y111214D01*
X693620Y113062D01*
X694087Y115006D01*
X694244Y117000D01*
X694087Y118994D01*
X693620Y120938D01*
X692855Y122786D01*
X691810Y124491D01*
X690511Y126011D01*
X688991Y127310D01*
X687286Y128355D01*
X685438Y129120D01*
X683494Y129587D01*
X681500Y129744D01*
D02*
G37*
%LPD*%
G36*
X609687Y170956D02*
Y153069D01*
X609273Y152654D01*
X609194Y152464D01*
X608844Y152534D01*
Y169968D01*
X608744Y170471D01*
X608460Y170897D01*
X565537Y213819D01*
Y214405D01*
X565392Y214757D01*
X565688Y214955D01*
X609687Y170956D01*
D02*
G37*
%LPC*%
G36*
X335199Y393548D02*
X335199Y393548D01*
X335199Y393548D01*
X316801D01*
X316801Y393548D01*
X316801Y393548D01*
X315913Y393461D01*
X314841Y393355D01*
X314841Y393355D01*
X314841Y393355D01*
X314032Y393110D01*
X312956Y392783D01*
X312956Y392783D01*
X312955Y392783D01*
X312588Y392631D01*
X311807Y392214D01*
X310851Y391703D01*
X310851Y391703D01*
X310851Y391703D01*
X310291Y391243D01*
X309328Y390453D01*
X309047Y390172D01*
X309047Y390172D01*
X307797Y388649D01*
X306869Y386912D01*
X306716Y386544D01*
X306145Y384659D01*
X305952Y382699D01*
Y382500D01*
Y291500D01*
Y291301D01*
X306145Y289341D01*
X306716Y287456D01*
X306869Y287088D01*
X307797Y285351D01*
X309047Y283828D01*
X309328Y283547D01*
X309328Y283547D01*
X310851Y282297D01*
X312588Y281369D01*
X312956Y281217D01*
X314841Y280645D01*
X316801Y280452D01*
X335199D01*
X337159Y280645D01*
X339044Y281217D01*
X339412Y281369D01*
X341149Y282297D01*
X342672Y283547D01*
X342953Y283828D01*
X342953Y283828D01*
X342953Y283828D01*
X343504Y284500D01*
X344203Y285351D01*
X344203Y285351D01*
X344203Y285351D01*
X344674Y286233D01*
X345131Y287088D01*
X345283Y287456D01*
X345283Y287456D01*
X345284Y287456D01*
X345592Y288474D01*
X345855Y289340D01*
X345855Y289341D01*
X345855Y289341D01*
X345961Y290413D01*
X346048Y291301D01*
X346048Y291301D01*
X346048Y291301D01*
Y291500D01*
Y382500D01*
Y382699D01*
X346048Y382699D01*
X346048Y382699D01*
X345961Y383587D01*
X345855Y384659D01*
X345855Y384659D01*
X345855Y384660D01*
X345610Y385468D01*
X345284Y386544D01*
X345283Y386544D01*
X345283Y386544D01*
X345131Y386912D01*
X344714Y387693D01*
X344203Y388649D01*
X344203Y388649D01*
X344203Y388649D01*
X343743Y389209D01*
X342953Y390172D01*
X342672Y390453D01*
X342672Y390453D01*
X342672Y390453D01*
X342000Y391004D01*
X341149Y391703D01*
X341149Y391703D01*
X341149Y391703D01*
X340267Y392174D01*
X339412Y392631D01*
X339044Y392783D01*
X339044Y392783D01*
X339044Y392783D01*
X338025Y393092D01*
X337159Y393355D01*
X337159Y393355D01*
X337159Y393355D01*
X336087Y393461D01*
X335199Y393548D01*
D02*
G37*
G36*
X430291Y376551D02*
X428237D01*
X426208Y376230D01*
X424254Y375595D01*
X422424Y374662D01*
X420761Y373455D01*
X419309Y372002D01*
X418101Y370340D01*
X417169Y368510D01*
X416534Y366556D01*
X416213Y364527D01*
Y362473D01*
X416318Y361805D01*
X416091Y361539D01*
X412787D01*
Y376551D01*
X386685D01*
Y361539D01*
X368000D01*
X366038Y361384D01*
X364125Y360925D01*
X362308Y360172D01*
X360630Y359144D01*
X359134Y357866D01*
X357856Y356370D01*
X356828Y354692D01*
X356075Y352875D01*
X355616Y350961D01*
X355461Y349000D01*
X355616Y347039D01*
X356075Y345125D01*
X356828Y343308D01*
X357856Y341630D01*
X359134Y340134D01*
X360630Y338856D01*
X362308Y337828D01*
X364125Y337075D01*
X366038Y336616D01*
X368000Y336461D01*
X417306D01*
X437634Y316134D01*
X439130Y314856D01*
X440808Y313828D01*
X442625Y313075D01*
X444538Y312616D01*
X446500Y312461D01*
X448461Y312616D01*
X450375Y313075D01*
X452192Y313828D01*
X453870Y314856D01*
X455366Y316134D01*
X456644Y317630D01*
X457672Y319308D01*
X458425Y321125D01*
X458884Y323039D01*
X459039Y325000D01*
X458884Y326961D01*
X458425Y328875D01*
X457672Y330692D01*
X456644Y332370D01*
X455366Y333866D01*
X436753Y352480D01*
X436780Y352829D01*
X437766Y353545D01*
X439219Y354998D01*
X440426Y356660D01*
X441359Y358490D01*
X441994Y360444D01*
X442315Y362473D01*
Y364527D01*
X441994Y366556D01*
X441359Y368510D01*
X440426Y370340D01*
X439219Y372002D01*
X437766Y373455D01*
X436104Y374662D01*
X434274Y375595D01*
X432320Y376230D01*
X430291Y376551D01*
D02*
G37*
G36*
Y301051D02*
X428237D01*
X426208Y300730D01*
X424254Y300095D01*
X422424Y299162D01*
X420761Y297955D01*
X419309Y296502D01*
X418101Y294840D01*
X417169Y293010D01*
X416534Y291056D01*
X416213Y289027D01*
Y286973D01*
X416534Y284944D01*
X417169Y282990D01*
X418101Y281160D01*
X419309Y279498D01*
X420761Y278045D01*
X422424Y276838D01*
X424254Y275905D01*
X426208Y275270D01*
X428237Y274949D01*
X430291D01*
X432320Y275270D01*
X434274Y275905D01*
X436104Y276838D01*
X437766Y278045D01*
X439219Y279498D01*
X440426Y281160D01*
X441359Y282990D01*
X441994Y284944D01*
X442315Y286973D01*
Y289027D01*
X441994Y291056D01*
X441359Y293010D01*
X440426Y294840D01*
X439219Y296502D01*
X437766Y297955D01*
X436104Y299162D01*
X434274Y300095D01*
X432320Y300730D01*
X430291Y301051D01*
D02*
G37*
G36*
X412787D02*
X386685D01*
Y274949D01*
X412787D01*
Y301051D01*
D02*
G37*
G36*
X198089Y246839D02*
X195911D01*
X193760Y246498D01*
X191688Y245825D01*
X189747Y244836D01*
X187985Y243555D01*
X186444Y242015D01*
X185164Y240253D01*
X184175Y238312D01*
X183502Y236241D01*
X183161Y234089D01*
Y231911D01*
X183502Y229760D01*
X184175Y227688D01*
X185164Y225747D01*
X186444Y223985D01*
X187985Y222445D01*
X189747Y221164D01*
X191688Y220175D01*
X193760Y219502D01*
X195911Y219161D01*
X198089D01*
X200240Y219502D01*
X202312Y220175D01*
X204253Y221164D01*
X206015Y222445D01*
X207556Y223985D01*
X208836Y225747D01*
X209825Y227688D01*
X210498Y229760D01*
X210839Y231911D01*
Y234089D01*
X210498Y236241D01*
X209825Y238312D01*
X208836Y240253D01*
X207556Y242015D01*
X206015Y243555D01*
X204253Y244836D01*
X202312Y245825D01*
X200240Y246498D01*
X198089Y246839D01*
D02*
G37*
G36*
X171468D02*
X143791D01*
Y219161D01*
X171468D01*
Y246839D01*
D02*
G37*
G36*
X262019Y192953D02*
X259981D01*
X257967Y192634D01*
X256028Y192004D01*
X254211Y191078D01*
X252562Y189880D01*
X251120Y188438D01*
X249922Y186789D01*
X248996Y184972D01*
X248366Y183033D01*
X248047Y181019D01*
Y178981D01*
X248366Y176967D01*
X248996Y175028D01*
X249922Y173211D01*
X251120Y171562D01*
X252562Y170120D01*
X254211Y168922D01*
X256028Y167996D01*
X257967Y167366D01*
X259981Y167047D01*
X262019D01*
X264033Y167366D01*
X265972Y167996D01*
X267789Y168922D01*
X269438Y170120D01*
X270880Y171562D01*
X272078Y173211D01*
X273004Y175028D01*
X273634Y176967D01*
X273953Y178981D01*
Y181019D01*
X273634Y183033D01*
X273004Y184972D01*
X272078Y186789D01*
X270880Y188438D01*
X269438Y189880D01*
X267789Y191078D01*
X265972Y192004D01*
X264033Y192634D01*
X262019Y192953D01*
D02*
G37*
G36*
X358500Y245539D02*
X356539Y245384D01*
X354625Y244925D01*
X352808Y244172D01*
X351130Y243144D01*
X349634Y241866D01*
X348356Y240370D01*
X347328Y238692D01*
X346575Y236875D01*
X346116Y234962D01*
X345961Y233000D01*
Y216694D01*
X316634Y187366D01*
X315356Y185870D01*
X314328Y184192D01*
X313575Y182375D01*
X313116Y180462D01*
X312961Y178500D01*
X313116Y176539D01*
X313575Y174625D01*
X314328Y172808D01*
X315356Y171130D01*
X316634Y169634D01*
X318130Y168356D01*
X319808Y167328D01*
X321625Y166575D01*
X323538Y166116D01*
X325500Y165961D01*
X327462Y166116D01*
X329375Y166575D01*
X331192Y167328D01*
X332870Y168356D01*
X334366Y169634D01*
X367366Y202634D01*
X368644Y204130D01*
X369672Y205808D01*
X370425Y207625D01*
X370884Y209539D01*
X371039Y211500D01*
Y233000D01*
X370884Y234962D01*
X370425Y236875D01*
X369672Y238692D01*
X368644Y240370D01*
X367366Y241866D01*
X365870Y243144D01*
X364192Y244172D01*
X362375Y244925D01*
X360461Y245384D01*
X358500Y245539D01*
D02*
G37*
G36*
X135752Y199406D02*
X133248D01*
X130775Y199014D01*
X128394Y198240D01*
X126164Y197104D01*
X124138Y195632D01*
X122368Y193862D01*
X120896Y191836D01*
X119760Y189606D01*
X118986Y187224D01*
X118595Y184752D01*
Y182248D01*
X118986Y179776D01*
X119760Y177394D01*
X120896Y175164D01*
X122368Y173138D01*
X124138Y171368D01*
X126164Y169896D01*
X128394Y168760D01*
X130775Y167986D01*
X133248Y167595D01*
X135752D01*
X138224Y167986D01*
X140606Y168760D01*
X141350Y169139D01*
X141578Y168692D01*
X142976Y166768D01*
X144658Y165086D01*
X146581Y163689D01*
X148700Y162609D01*
X150962Y161874D01*
X153311Y161502D01*
X155689D01*
X158038Y161874D01*
X160300Y162609D01*
X162418Y163689D01*
X164342Y165086D01*
X166024Y166768D01*
X167422Y168692D01*
X168501Y170811D01*
X169236Y173072D01*
X169608Y175421D01*
Y177799D01*
X169236Y180148D01*
X168501Y182410D01*
X167422Y184529D01*
X166024Y186453D01*
X164342Y188134D01*
X162418Y189532D01*
X160300Y190612D01*
X158038Y191347D01*
X155689Y191718D01*
X153311D01*
X150962Y191347D01*
X148724Y190619D01*
X148104Y191836D01*
X146632Y193862D01*
X144862Y195632D01*
X142836Y197104D01*
X140606Y198240D01*
X138224Y199014D01*
X135752Y199406D01*
D02*
G37*
G36*
X155689Y158254D02*
X153311D01*
X150962Y157882D01*
X148700Y157147D01*
X146581Y156067D01*
X144658Y154670D01*
X142976Y152988D01*
X141578Y151064D01*
X141350Y150617D01*
X140606Y150996D01*
X138224Y151770D01*
X135752Y152161D01*
X133248D01*
X130775Y151770D01*
X128394Y150996D01*
X126164Y149859D01*
X124138Y148388D01*
X122368Y146618D01*
X120896Y144592D01*
X119760Y142361D01*
X118986Y139980D01*
X118595Y137508D01*
Y135004D01*
X118986Y132531D01*
X119760Y130150D01*
X120896Y127920D01*
X122368Y125894D01*
X124138Y124124D01*
X126164Y122652D01*
X128394Y121516D01*
X130775Y120742D01*
X133248Y120350D01*
X135752D01*
X138224Y120742D01*
X140606Y121516D01*
X142836Y122652D01*
X144862Y124124D01*
X146632Y125894D01*
X148104Y127920D01*
X148724Y129137D01*
X150962Y128409D01*
X153311Y128037D01*
X155689D01*
X158038Y128409D01*
X160300Y129144D01*
X162418Y130224D01*
X164342Y131622D01*
X166024Y133303D01*
X167422Y135227D01*
X168501Y137346D01*
X169236Y139608D01*
X169608Y141957D01*
Y144335D01*
X169236Y146684D01*
X168501Y148945D01*
X167422Y151064D01*
X166024Y152988D01*
X164342Y154670D01*
X162418Y156067D01*
X160300Y157147D01*
X158038Y157882D01*
X155689Y158254D01*
D02*
G37*
G36*
X237669Y175236D02*
X235693D01*
X233740Y174927D01*
X231860Y174316D01*
X230099Y173419D01*
X228499Y172257D01*
X227102Y170859D01*
X225940Y169260D01*
X225042Y167498D01*
X224431Y165618D01*
X224122Y163666D01*
Y161689D01*
X224431Y159736D01*
X225042Y157856D01*
X225940Y156095D01*
X227102Y154496D01*
X228499Y153098D01*
X230099Y151936D01*
X231860Y151038D01*
X233740Y150427D01*
X235693Y150118D01*
X237669D01*
X239622Y150427D01*
X241502Y151038D01*
X243264Y151936D01*
X244863Y153098D01*
X246261Y154496D01*
X247423Y156095D01*
X248320Y157856D01*
X248931Y159736D01*
X249240Y161689D01*
Y163666D01*
X248931Y165618D01*
X248320Y167498D01*
X247423Y169260D01*
X246261Y170859D01*
X244863Y172257D01*
X243264Y173419D01*
X241502Y174316D01*
X239622Y174927D01*
X237669Y175236D01*
D02*
G37*
G36*
X186488D02*
X184512D01*
X182559Y174927D01*
X180679Y174316D01*
X178918Y173419D01*
X177318Y172257D01*
X175920Y170859D01*
X174759Y169260D01*
X173861Y167498D01*
X173250Y165618D01*
X172941Y163666D01*
Y161689D01*
X173250Y159736D01*
X173861Y157856D01*
X174759Y156095D01*
X175920Y154496D01*
X177318Y153098D01*
X178918Y151936D01*
X180679Y151038D01*
X182559Y150427D01*
X184512Y150118D01*
X186488D01*
X188441Y150427D01*
X190321Y151038D01*
X192082Y151936D01*
X193682Y153098D01*
X195080Y154496D01*
X196241Y156095D01*
X197139Y157856D01*
X197750Y159736D01*
X198059Y161689D01*
Y163666D01*
X197750Y165618D01*
X197139Y167498D01*
X196241Y169260D01*
X195080Y170859D01*
X193682Y172257D01*
X192082Y173419D01*
X190321Y174316D01*
X188441Y174927D01*
X186488Y175236D01*
D02*
G37*
G36*
X372885Y186750D02*
X371115D01*
X369366Y186473D01*
X367682Y185926D01*
X366104Y185122D01*
X364671Y184081D01*
X363419Y182829D01*
X362378Y181396D01*
X361574Y179818D01*
X361027Y178134D01*
X360750Y176385D01*
Y174615D01*
X361027Y172866D01*
X361216Y172284D01*
Y138750D01*
X361250Y138318D01*
Y137615D01*
X361527Y135866D01*
X362074Y134181D01*
X362878Y132604D01*
X363919Y131171D01*
X365171Y129919D01*
X366604Y128878D01*
X368181Y128074D01*
X369866Y127527D01*
X371615Y127250D01*
X373385D01*
X375134Y127527D01*
X376818Y128074D01*
X378396Y128878D01*
X379829Y129919D01*
X381081Y131171D01*
X382122Y132604D01*
X382926Y134181D01*
X383473Y135866D01*
X383750Y137615D01*
Y139385D01*
X383473Y141134D01*
X383284Y141716D01*
Y175250D01*
X383250Y175682D01*
Y176385D01*
X382973Y178134D01*
X382426Y179818D01*
X381622Y181396D01*
X380581Y182829D01*
X379329Y184081D01*
X377896Y185122D01*
X376319Y185926D01*
X374634Y186473D01*
X372885Y186750D01*
D02*
G37*
G36*
X186488Y143740D02*
X184512D01*
X182559Y143431D01*
X180679Y142820D01*
X178918Y141923D01*
X177318Y140761D01*
X175920Y139363D01*
X174759Y137764D01*
X173861Y136002D01*
X173250Y134122D01*
X172941Y132169D01*
Y130193D01*
X173250Y128240D01*
X173861Y126360D01*
X174759Y124599D01*
X175920Y122999D01*
X177318Y121602D01*
X178918Y120440D01*
X180679Y119542D01*
X182559Y118931D01*
X184512Y118622D01*
X186488D01*
X188441Y118931D01*
X190321Y119542D01*
X192082Y120440D01*
X193682Y121602D01*
X195080Y122999D01*
X196241Y124599D01*
X197139Y126360D01*
X197750Y128240D01*
X198059Y130193D01*
Y132169D01*
X197750Y134122D01*
X197139Y136002D01*
X196241Y137764D01*
X195080Y139363D01*
X193682Y140761D01*
X192082Y141923D01*
X190321Y142820D01*
X188441Y143431D01*
X186488Y143740D01*
D02*
G37*
G36*
X237669D02*
X235693D01*
X233740Y143431D01*
X231860Y142820D01*
X230099Y141923D01*
X228499Y140761D01*
X227102Y139363D01*
X225940Y137764D01*
X225042Y136002D01*
X224431Y134122D01*
X224122Y132169D01*
Y130193D01*
X224431Y128240D01*
X225042Y126360D01*
X225940Y124599D01*
X227102Y122999D01*
X228499Y121602D01*
X230099Y120440D01*
X231860Y119542D01*
X233740Y118931D01*
X235693Y118622D01*
X237669D01*
X239622Y118931D01*
X241502Y119542D01*
X243264Y120440D01*
X244863Y121602D01*
X246261Y122999D01*
X247423Y124599D01*
X247707Y125157D01*
X248047Y125075D01*
Y107992D01*
X273953D01*
Y133898D01*
X248966D01*
X248931Y134122D01*
X248320Y136002D01*
X247423Y137764D01*
X246261Y139363D01*
X244863Y140761D01*
X243264Y141923D01*
X241502Y142820D01*
X239622Y143431D01*
X237669Y143740D01*
D02*
G37*
%LPD*%
D15*
X586500Y248500D02*
X602000D01*
X573500Y261500D02*
X586500Y248500D01*
X596000Y191000D02*
Y220482D01*
X605532Y230013D01*
Y267937D01*
X610669Y273074D01*
X579103Y261603D02*
X602001D01*
X579000Y261500D02*
X579103Y261603D01*
X610669Y273074D02*
Y293831D01*
X610500Y294000D02*
X610669Y293831D01*
D71*
X645500Y260988D02*
D03*
Y272012D02*
D03*
Y278488D02*
D03*
Y289512D02*
D03*
D144*
X114779Y224890D02*
D03*
D145*
Y243000D02*
D03*
D154*
X399736Y363500D02*
D03*
Y288000D02*
D03*
D155*
X580000Y279110D02*
D03*
X543500D02*
D03*
D158*
X429264Y288000D02*
D03*
Y363500D02*
D03*
D162*
X236681Y131181D02*
D03*
X543500Y292890D02*
D03*
X580000D02*
D03*
X185500Y131181D02*
D03*
Y162677D02*
D03*
X236681D02*
D03*
D166*
X607000Y194500D02*
D03*
D172*
X666475Y261475D02*
X669027Y264027D01*
X665975Y261475D02*
X666475D01*
X666177Y266627D02*
Y272472D01*
X662000Y262450D02*
X666177Y266627D01*
X662000Y254978D02*
Y262450D01*
X660522Y253500D02*
X662000Y254978D01*
X165553Y262947D02*
X251053D01*
X254000Y260000D01*
X113000Y344000D02*
X118000Y349000D01*
X113000Y322500D02*
Y344000D01*
Y322500D02*
X169000Y266500D01*
X243865D01*
X107000Y321500D02*
X165553Y262947D01*
X107000Y321500D02*
Y344500D01*
X661500Y271500D02*
X662677Y270323D01*
Y269000D02*
Y270323D01*
X661500Y271500D02*
Y282500D01*
X669027Y264027D02*
Y276097D01*
X653896Y265396D02*
Y267239D01*
X649612Y261112D02*
X653896Y265396D01*
X648747Y267040D02*
X653000Y271293D01*
Y272000D01*
X644073Y267040D02*
X648747D01*
X645500Y289512D02*
X645512Y289500D01*
X652500D01*
X653782Y278000D02*
X657165D01*
X658000Y277165D01*
Y264500D02*
Y277165D01*
X642000Y248500D02*
X658000Y264500D01*
X655000Y253500D02*
X660522D01*
X668753Y276370D02*
X669027Y276097D01*
X665000Y273649D02*
X666177Y272472D01*
X645500Y260988D02*
X645623Y261112D01*
X649612D01*
X652994Y272006D02*
X653000Y272000D01*
X645506Y272006D02*
X652994D01*
X645500Y272012D02*
X645506Y272006D01*
X639070Y176019D02*
X642000Y178949D01*
Y248500D01*
X640554Y258053D02*
Y263521D01*
X644073Y267040D01*
X636835Y254335D02*
X640554Y258053D01*
X636835Y193000D02*
Y254335D01*
X647744Y278244D02*
X653537D01*
X653782Y278000D01*
X647500Y278488D02*
X647744Y278244D01*
X661500Y282500D02*
X690000Y311000D01*
X632000Y250000D02*
Y281500D01*
X609000Y248895D02*
Y266500D01*
X635000Y292500D01*
X609000Y248895D02*
X614895Y243000D01*
X627500D01*
X635000Y292500D02*
Y305500D01*
D173*
X280928Y256072D02*
X281428D01*
X285000Y252500D01*
X277452Y259548D02*
X280928Y256072D01*
X277452Y259548D02*
Y260548D01*
X270000Y268000D02*
X277452Y260548D01*
X253500Y268000D02*
X270000D01*
X253500D02*
X265220Y256279D01*
Y227594D02*
Y256279D01*
X180500Y303500D02*
X218000D01*
X253500Y268000D01*
X533500Y141500D02*
X576500D01*
X372250Y138750D02*
X372500Y138500D01*
X372250Y138750D02*
Y175250D01*
X372000Y175500D02*
X372250Y175250D01*
D175*
X294000Y207000D02*
X295000Y208000D01*
X243500Y207000D02*
X294000D01*
X228000Y222500D02*
X243500Y207000D01*
X422500Y349000D02*
X446500Y325000D01*
X368000Y349000D02*
X422500D01*
X358500Y211500D02*
Y233000D01*
X325500Y178500D02*
X358500Y211500D01*
D176*
X582500Y209500D02*
Y216500D01*
Y209500D02*
X586500Y205500D01*
X611000Y151500D02*
Y171500D01*
X563500Y219000D02*
X611000Y171500D01*
X607531Y148969D02*
X609867Y146633D01*
X610867D01*
X611000Y146500D01*
X607531Y148969D02*
Y169968D01*
X624000Y121000D02*
Y190500D01*
X563500Y214000D02*
X607531Y169968D01*
D179*
X583500Y344374D02*
Y352500D01*
X649000D01*
X528500Y363000D02*
X539000Y352500D01*
X583500D01*
D189*
X261000Y180000D02*
D03*
X134500Y136256D02*
D03*
Y183500D02*
D03*
D190*
X261000Y120945D02*
D03*
D191*
X160815Y303500D02*
D03*
D192*
X180500D02*
D03*
D193*
X197000Y233000D02*
D03*
D194*
X157630D02*
D03*
D195*
X154500Y176610D02*
D03*
Y143146D02*
D03*
D196*
X617913Y388000D02*
D03*
X604087D02*
D03*
D197*
X533500Y111500D02*
D03*
Y176000D02*
D03*
D198*
X651405Y138142D02*
D03*
X656327Y159008D02*
D03*
X634673D02*
D03*
D199*
X583500Y336500D02*
D03*
D200*
X533500Y166000D02*
D03*
Y141500D02*
D03*
Y131500D02*
D03*
Y121500D02*
D03*
D201*
X117000Y382500D02*
D03*
X681500Y117000D02*
D03*
D202*
X635000Y305500D02*
D03*
D203*
X615000D02*
D03*
D204*
X532000Y388000D02*
D03*
X690000D02*
D03*
D205*
X645500Y151528D02*
D03*
Y122000D02*
D03*
X265220Y223264D02*
D03*
Y227594D02*
D03*
X256559D02*
D03*
Y223264D02*
D03*
X260890Y227594D02*
D03*
Y223264D02*
D03*
X628189Y267209D02*
D03*
Y254217D02*
D03*
Y262878D02*
D03*
Y258547D02*
D03*
Y275870D02*
D03*
X623858Y271539D02*
D03*
X628189D02*
D03*
X623858Y275870D02*
D03*
Y258547D02*
D03*
Y262878D02*
D03*
Y254217D02*
D03*
Y267209D02*
D03*
D206*
X680000Y239000D02*
D03*
Y192780D02*
D03*
D207*
Y225220D02*
D03*
Y179000D02*
D03*
D208*
X583500Y344374D02*
D03*
D209*
X665975Y261475D02*
D03*
X653896Y267239D02*
D03*
X285000Y252500D02*
D03*
X254000Y260000D02*
D03*
X573000Y225500D02*
D03*
X243865Y266500D02*
D03*
X253500Y268000D02*
D03*
X107000Y344500D02*
D03*
X118000Y349000D02*
D03*
X662677Y269000D02*
D03*
X586500Y205500D02*
D03*
X582500Y216500D02*
D03*
X622500Y228500D02*
D03*
X576500Y141500D02*
D03*
X652500Y289500D02*
D03*
X655000Y253500D02*
D03*
X653000Y272000D02*
D03*
X639070Y176019D02*
D03*
X653782Y278000D02*
D03*
X668753Y276370D02*
D03*
X665000Y273649D02*
D03*
X636835Y193000D02*
D03*
X632000Y250000D02*
D03*
Y281500D02*
D03*
X573500Y261500D02*
D03*
X690000Y311000D02*
D03*
X602001Y261603D02*
D03*
X609000Y266500D02*
D03*
X602000Y248500D02*
D03*
X627500Y243000D02*
D03*
X579000Y261500D02*
D03*
X596000Y191000D02*
D03*
X610500Y294000D02*
D03*
X611000Y151500D02*
D03*
X563500Y219000D02*
D03*
X624000Y190500D02*
D03*
Y121000D02*
D03*
X611000Y146500D02*
D03*
X563500Y214000D02*
D03*
X528500Y363000D02*
D03*
X649000Y352500D02*
D03*
X358500Y233000D02*
D03*
X325500Y178500D02*
D03*
X372500Y138500D02*
D03*
X372000Y175500D02*
D03*
D210*
X228000Y222500D02*
D03*
X295000Y208000D02*
D03*
D211*
X590500Y218528D02*
D03*
D212*
X446500Y325000D02*
D03*
X368000Y349000D02*
D03*
M02*
