G04*
G04 #@! TF.GenerationSoftware,Altium Limited,Altium Designer,25.5.2 (35)*
G04*
G04 Layer_Color=32768*
%FSLAX25Y25*%
%MOIN*%
G70*
G04*
G04 #@! TF.SameCoordinates,0CD17ABA-5868-42C4-872B-F719D901D850*
G04*
G04*
G04 #@! TF.FilePolarity,Positive*
G04*
G01*
G75*
%ADD12C,0.00394*%
%ADD213C,0.00197*%
D12*
X260398Y265130D02*
Y268870D01*
X258528Y267000D02*
X262268D01*
X260890Y223461D02*
Y227398D01*
X258921Y225429D02*
X262858D01*
X282000Y239728D02*
Y243272D01*
X280228Y241500D02*
X283772D01*
X242000Y208630D02*
Y212370D01*
X240130Y210500D02*
X243870D01*
X236728Y205000D02*
X240272D01*
X238500Y203228D02*
Y206772D01*
X105032Y356000D02*
X108968D01*
X107000Y354031D02*
Y357968D01*
X192350Y327803D02*
Y378197D01*
X120894D02*
X192350D01*
X120894Y327803D02*
Y378197D01*
Y327803D02*
X192350D01*
X148969Y204654D02*
Y261347D01*
Y204654D02*
X205661D01*
Y261347D01*
X148969D02*
X205661D01*
X100760Y205153D02*
X168280D01*
X100760Y114602D02*
Y205153D01*
Y114602D02*
X168280D01*
Y205153D01*
X624055Y265043D02*
X627992D01*
X626024Y263075D02*
Y267012D01*
X570902Y215902D02*
X596098D01*
Y241098D01*
X570902D02*
X596098D01*
X570902Y215902D02*
Y241098D01*
X548032Y336500D02*
X551968D01*
X550000Y334531D02*
Y338469D01*
X525374Y378551D02*
Y397449D01*
Y378551D02*
X610709D01*
Y397449D01*
X525374D02*
X610709D01*
X696626Y378551D02*
Y397449D01*
X611291D02*
X696626D01*
X611291Y378551D02*
Y397449D01*
Y378551D02*
X696626D01*
X679000Y339032D02*
Y342969D01*
X677032Y341000D02*
X680969D01*
X627500Y235130D02*
Y238870D01*
X625630Y237000D02*
X629370D01*
X622500Y235130D02*
Y238870D01*
X620630Y237000D02*
X624370D01*
X615630D02*
X619370D01*
X617500Y235130D02*
Y238870D01*
Y225630D02*
Y229370D01*
X615630Y227500D02*
X619370D01*
X610630D02*
X614370D01*
X612500Y225630D02*
Y229370D01*
X645500Y207403D02*
Y209372D01*
X644516Y208387D02*
X646484D01*
X638000Y207403D02*
Y209372D01*
X637016Y208387D02*
X638984D01*
X625413Y102315D02*
X668138D01*
X625413D02*
Y168268D01*
X668138D01*
Y102315D02*
Y168268D01*
X602630Y271500D02*
X606370D01*
X604500Y269630D02*
Y273370D01*
X602630Y277500D02*
X606370D01*
X604500Y275630D02*
Y279370D01*
X602130Y257500D02*
X605870D01*
X604000Y255630D02*
Y259370D01*
X602130Y252500D02*
X605870D01*
X604000Y250630D02*
Y254370D01*
X587728Y256500D02*
X591272D01*
X589500Y254728D02*
Y258272D01*
X574228Y256500D02*
X577772D01*
X576000Y254728D02*
Y258272D01*
X624787Y102378D02*
Y187811D01*
X542110D02*
X624787D01*
X542110Y102378D02*
Y187811D01*
Y102378D02*
X624787D01*
X469531Y347500D02*
X473468D01*
X471500Y345532D02*
Y349468D01*
X659500Y359032D02*
Y362968D01*
X657531Y361000D02*
X661469D01*
X668130Y364000D02*
X671870D01*
X670000Y362130D02*
Y365870D01*
X179004Y185315D02*
X243177D01*
X179004Y108543D02*
Y185315D01*
Y108543D02*
X243177D01*
Y185315D01*
D213*
X192803Y303500D02*
G03*
X192803Y303500I-22146J0D01*
G01*
X595311Y340437D02*
G03*
X595311Y340437I-11811J0D01*
G01*
X238028Y273677D02*
Y283323D01*
Y273677D02*
X253972D01*
Y283323D01*
X238028D02*
X253972D01*
X255280Y264047D02*
X265516D01*
X255280Y269953D02*
X265516D01*
Y264047D02*
Y269953D01*
X255280Y264047D02*
Y269953D01*
X252228Y214209D02*
X269551D01*
X252228Y236650D02*
X269551D01*
X252228Y214209D02*
Y236650D01*
X269551Y214209D02*
Y236650D01*
X275307Y237366D02*
X288693D01*
X275307Y245634D02*
X288693D01*
Y237366D02*
Y245634D01*
X275307Y237366D02*
Y245634D01*
X247220Y109331D02*
Y189842D01*
X274780D01*
Y109331D02*
Y189842D01*
X247220Y109331D02*
X274780D01*
X236685Y213453D02*
X247315D01*
X236685Y207547D02*
X247315D01*
X236685D02*
Y213453D01*
X247315Y207547D02*
Y213453D01*
X244996Y201063D02*
Y208937D01*
X232004Y201063D02*
Y208937D01*
Y201063D02*
X244996D01*
X232004Y208937D02*
X244996D01*
X344193Y183142D02*
X360807D01*
Y170858D02*
Y183142D01*
X344193Y170858D02*
X360807D01*
X344193D02*
Y183142D01*
X103342Y283323D02*
X133658D01*
X103342D02*
Y298677D01*
X133658D01*
Y283323D02*
Y298677D01*
X103342Y315177D02*
X133658D01*
Y299823D02*
Y315177D01*
X103342Y299823D02*
X133658D01*
X103342D02*
Y315177D01*
X111331Y347142D02*
Y364858D01*
X102669Y347142D02*
Y364858D01*
X111331D01*
X102669Y347142D02*
X111331D01*
X412496Y170752D02*
X419504D01*
Y182248D01*
X412496D02*
X419504D01*
X412496Y170752D02*
Y182248D01*
X611850Y245358D02*
Y284728D01*
X640197Y245358D02*
Y284728D01*
X611850D02*
X640197D01*
X611850Y245358D02*
X640197D01*
X370110Y395390D02*
X383890D01*
Y381610D02*
Y395390D01*
X370110Y381610D02*
X383890D01*
X370110D02*
Y395390D01*
X551094Y370547D02*
Y376453D01*
Y370547D02*
X562906D01*
Y376453D01*
X551094D02*
X562906D01*
X527264Y303823D02*
Y369177D01*
X572736Y303823D02*
Y369177D01*
X527264Y303823D02*
X572736D01*
X527264Y369177D02*
X572736D01*
X602953Y299732D02*
Y315933D01*
Y299732D02*
X647047D01*
Y315933D01*
X602953D02*
X647047D01*
X692189Y324268D02*
Y357732D01*
X665811Y324268D02*
X692189D01*
X665811Y357732D02*
X692189D01*
X665811Y324268D02*
Y357732D01*
X625138Y232669D02*
X629862D01*
X625138Y241331D02*
X629862D01*
X625138Y232669D02*
Y241331D01*
X629862Y232669D02*
Y241331D01*
X620138Y232669D02*
X624862D01*
X620138Y241331D02*
X624862D01*
X620138Y232669D02*
Y241331D01*
X624862Y232669D02*
Y241331D01*
X615138Y232472D02*
Y241528D01*
X619862Y232472D02*
Y241528D01*
X615138Y232472D02*
X619862D01*
X615138Y241528D02*
X619862D01*
X615138Y223169D02*
X619862D01*
X615138Y231831D02*
X619862D01*
X615138Y223169D02*
Y231831D01*
X619862Y223169D02*
Y231831D01*
X614862Y222972D02*
Y232028D01*
X610138Y222972D02*
Y232028D01*
X614862D01*
X610138Y222972D02*
X614862D01*
X643532Y203466D02*
X647469D01*
X643532D02*
Y213309D01*
X647469D01*
Y203466D02*
Y213309D01*
X636031Y203466D02*
X639968D01*
X636031D02*
Y213309D01*
X639968D01*
Y203466D02*
Y213309D01*
X683520Y138744D02*
X698480D01*
Y169256D01*
X683520D02*
X698480D01*
X683520Y138744D02*
Y169256D01*
X667520Y138744D02*
X682480D01*
Y169256D01*
X667520D02*
X682480D01*
X667520Y138744D02*
Y169256D01*
X695945Y217347D02*
Y246874D01*
X668386D02*
X695945D01*
X668386Y217347D02*
Y246874D01*
Y217347D02*
X695945D01*
X600169Y269138D02*
Y273862D01*
X608831Y269138D02*
Y273862D01*
X600169D02*
X608831D01*
X600169Y269138D02*
X608831D01*
X600169Y275138D02*
Y279862D01*
X608831Y275138D02*
Y279862D01*
X600169D02*
X608831D01*
X600169Y275138D02*
X608831D01*
X599669Y255138D02*
Y259862D01*
X608331Y255138D02*
Y259862D01*
X599669D02*
X608331D01*
X599669Y255138D02*
X608331D01*
X599669Y250138D02*
Y254862D01*
X608331Y250138D02*
Y254862D01*
X599669D02*
X608331D01*
X599669Y250138D02*
X608331D01*
X596193Y252366D02*
Y260634D01*
X582807Y252366D02*
Y260634D01*
Y252366D02*
X596193D01*
X582807Y260634D02*
X596193D01*
X582693Y252366D02*
Y260634D01*
X569307Y252366D02*
Y260634D01*
Y252366D02*
X582693D01*
X569307Y260634D02*
X582693D01*
X565360Y202890D02*
X579140D01*
Y189110D02*
Y202890D01*
X565360Y189110D02*
X579140D01*
X565360D02*
Y202890D01*
X580610D02*
X594390D01*
Y189110D02*
Y202890D01*
X580610Y189110D02*
X594390D01*
X580610D02*
Y202890D01*
X573595Y358047D02*
Y363953D01*
Y358047D02*
X585405D01*
Y363953D01*
X573595D02*
X585405D01*
X602110Y359610D02*
Y373390D01*
Y359610D02*
X615890D01*
Y373390D01*
X602110D02*
X615890D01*
X492543Y315209D02*
Y379744D01*
X450457Y315209D02*
Y379744D01*
X492543D01*
X450457Y315209D02*
X492543D01*
X377736Y162291D02*
Y198709D01*
Y162291D02*
X407264D01*
Y198709D01*
X377736D02*
X407264D01*
X617110Y359610D02*
Y373390D01*
Y359610D02*
X630890D01*
Y373390D01*
X617110D02*
X630890D01*
X550110Y189110D02*
Y202890D01*
Y189110D02*
X563890D01*
Y202890D01*
X550110D02*
X563890D01*
X134028Y299677D02*
X149972D01*
X134028D02*
Y309323D01*
X149972D01*
Y299677D02*
Y309323D01*
X375504Y190752D02*
Y202248D01*
X368496Y190752D02*
X375504D01*
X368496D02*
Y202248D01*
X375504D01*
X204760Y355587D02*
Y383343D01*
X222240D01*
Y355587D02*
Y383343D01*
X204760Y355587D02*
X222240D01*
X220232Y320961D02*
Y349110D01*
X206768Y320961D02*
X220232D01*
X206768D02*
Y349110D01*
X220232D01*
X124299Y331929D02*
Y350532D01*
X111701Y331929D02*
X124299D01*
X111701D02*
Y350532D01*
X124299D01*
X653988Y348795D02*
X665012D01*
X653988Y373205D02*
X665012D01*
X653988Y348795D02*
Y373205D01*
X665012Y348795D02*
Y373205D01*
X672362Y359669D02*
Y368331D01*
X667638Y359669D02*
Y368331D01*
X672362D01*
X667638Y359669D02*
X672362D01*
X668386Y171126D02*
X695945D01*
X668386D02*
Y200654D01*
X695945D01*
Y171126D02*
Y200654D01*
M02*
